<svg xmlns="http://www.w3.org/2000/svg" width="51" height="50" viewBox="0 0 51 50" fill="none">
    <path
        d="M41.9607 10.9171C39.0475 9.55419 35.933 8.56363 32.6767 8C32.2767 8.72281 31.8093 9.69538 31.4875 10.4694C28.0259 9.94906 24.5963 9.94906 21.1983 10.4694C20.876 9.69594 20.3984 8.72338 19.9951 8C16.7354 8.56419 13.6169 9.55813 10.7043 10.9244C4.82841 19.8029 3.23597 28.4609 4.03247 36.9963C7.92947 39.9061 11.7061 41.6741 15.4186 42.8311C16.3355 41.5694 17.1528 40.2284 17.857 38.8149C16.5155 38.3053 15.2307 37.6764 14.0168 36.9457C14.3392 36.7072 14.6542 36.4574 14.9585 36.2009C22.3627 39.6643 30.4081 39.6643 37.724 36.2009C38.0317 36.4574 38.3467 36.7072 38.6656 36.9457C37.4478 37.6798 36.1597 38.3086 34.8181 38.8183C35.5223 40.2279 36.3363 41.5728 37.2565 42.8345C40.973 41.6774 44.753 39.9101 48.65 36.9963C49.5843 27.1019 47.0536 18.5238 41.9607 10.9177V10.9171ZM18.8662 31.7471C16.6432 31.7471 14.8207 29.672 14.8207 27.1453C14.8207 24.6185 16.6043 22.5395 18.8662 22.5395C21.128 22.5395 22.9505 24.6146 22.9117 27.1453C22.915 29.672 21.128 31.7471 18.8662 31.7471ZM33.8168 31.7471C31.5938 31.7471 29.7713 29.672 29.7713 27.1453C29.7713 24.6185 31.555 22.5395 33.8168 22.5395C36.0787 22.5395 37.9012 24.6146 37.8623 27.1453C37.8623 29.672 36.0787 31.7471 33.8168 31.7471Z"
        fill="#FF0066" />
</svg>