<svg xmlns="http://www.w3.org/2000/svg" width="51" height="50" viewBox="0 0 51 50" fill="none">
    <g clip-path="url(#clip0_4702_1100)">
        <path
            d="M23.1486 37.0201C23.341 37.0204 23.5314 37.0586 23.709 37.1324C23.8865 37.2063 24.0478 37.3144 24.1837 37.4506C24.3195 37.5868 24.4271 37.7484 24.5005 37.9262C24.5738 38.104 24.6114 38.2945 24.6111 38.4868C24.6109 38.6791 24.5727 38.8695 24.4989 39.0471C24.425 39.2247 24.3169 39.386 24.1807 39.5218C24.0445 39.6576 23.8829 39.7653 23.7051 39.8386C23.5273 39.912 23.3368 39.9496 23.1445 39.9493C22.756 39.9487 22.3837 39.7939 22.1095 39.5189C21.8352 39.2438 21.6814 38.8711 21.682 38.4826C21.6825 38.0942 21.8374 37.7219 22.1124 37.4476C22.3875 37.1734 22.7602 37.0196 23.1486 37.0201ZM46.1153 27.9639C45.923 27.9637 45.7326 27.9257 45.5549 27.852C45.3773 27.7783 45.2159 27.6703 45.08 27.5342C44.9441 27.3981 44.8363 27.2366 44.7629 27.0588C44.6894 26.8811 44.6516 26.6906 44.6518 26.4983C44.6519 26.3059 44.6899 26.1155 44.7636 25.9379C44.8374 25.7602 44.9454 25.5989 45.0815 25.4629C45.2176 25.327 45.3791 25.2193 45.5568 25.1458C45.7346 25.0723 45.9251 25.0346 46.1174 25.0347C46.5058 25.035 46.8782 25.1896 47.1527 25.4644C47.4272 25.7393 47.5812 26.1119 47.5809 26.5003C47.5807 26.8888 47.4261 27.2612 47.1512 27.5357C46.8764 27.8101 46.5037 27.9642 46.1153 27.9639ZM46.1153 21.9722C44.9144 21.9733 43.7631 22.4509 42.9139 23.3C42.0648 24.1491 41.5872 25.3005 41.5861 26.5014C41.5861 26.9868 41.6674 27.4701 41.8257 27.941L26.8653 35.9056C26.4505 35.3032 25.8954 34.8108 25.2479 34.4707C24.6005 34.1307 23.88 33.9531 23.1486 33.9535C21.4216 33.9535 19.8486 34.9431 19.0861 36.4868L5.64656 29.3993C4.22573 28.6535 3.16323 26.316 3.27573 24.1868C3.33406 23.0764 3.71739 22.2139 4.30281 21.8806C4.67364 21.6722 5.11948 21.6889 5.59448 21.9368L5.68198 21.9847C9.24448 23.8597 20.8986 29.9993 21.3903 30.2264C22.1466 30.5785 22.5674 30.7201 23.8591 30.1076L47.9507 17.5785C48.3049 17.4451 48.7174 17.1055 48.7174 16.591C48.7174 15.8785 47.9799 15.5972 47.9778 15.5972C46.607 14.941 44.5007 13.9556 42.4466 12.9931C38.0549 10.9368 33.0778 8.60763 30.8924 7.4618C29.0049 6.4743 27.4861 7.30763 27.2153 7.4743L26.6903 7.73472C16.8528 12.5993 3.68614 19.1201 2.93614 19.5764C1.59656 20.3931 0.765311 22.0201 0.656978 24.0389C0.490311 27.241 2.12156 30.5805 4.45698 31.8035L18.6695 39.1326C18.826 40.2092 19.3647 41.1936 20.1871 41.9058C21.0095 42.618 22.0607 43.0106 23.1486 43.0118C24.3368 43.0098 25.4768 42.5416 26.3234 41.7079C27.1699 40.8741 27.6555 39.7415 27.6757 38.5535L43.3299 30.068C44.1216 30.6889 45.107 31.0285 46.1153 31.0285C47.3162 31.0274 48.4675 30.5498 49.3167 29.7007C50.1658 28.8515 50.6434 27.7002 50.6445 26.4993C50.6434 25.2984 50.1658 24.1471 49.3167 23.2979C48.4675 22.4488 47.3162 21.9712 46.1153 21.9701"
            fill="#FF0066" />
    </g>
    <defs>
        <clipPath id="clip0_4702_1100">
            <rect width="50" height="50" fill="white" transform="translate(0.158691)" />
        </clipPath>
    </defs>
</svg>