<svg width="51" height="50" viewBox="0 0 51 50" fill="none" xmlns="http://www.w3.org/2000/svg">
<g clip-path="url(#clip0_4990_455)">
<path d="M18.7275 40.1667H31.7275M18.7275 44.5H31.7275M23.0609 35.8333V22.8333M23.0609 22.8333V20.6667C23.0609 19.4701 22.0908 18.5 20.8942 18.5C19.6976 18.5 18.7275 19.4701 18.7275 20.6667C18.7275 21.8633 19.6976 22.8333 20.8942 22.8333H23.0609ZM23.0609 22.8333H27.3942M27.3942 22.8333H29.5609C30.7575 22.8333 31.7275 21.8633 31.7275 20.6667C31.7275 19.4701 30.7575 18.5 29.5609 18.5C28.3643 18.5 27.3942 19.4701 27.3942 20.6667V22.8333ZM27.3942 22.8333V35.8333M12.2275 18.5C12.2275 11.3203 18.0478 5.5 25.2275 5.5C32.4072 5.5 38.2275 11.3203 38.2275 18.5C38.2275 21.1316 37.4456 23.5805 36.1014 25.6272C34.0384 28.7684 31.7275 32.0752 31.7275 35.8333H18.7275C18.7275 32.0752 16.4167 28.7684 14.3536 25.6272C13.0095 23.5805 12.2275 21.1316 12.2275 18.5Z" stroke="#FF0066" stroke-width="2.5" stroke-linecap="round" stroke-linejoin="round"/>
</g>
<defs>
<clipPath id="clip0_4990_455">
<rect width="50" height="50" fill="white" transform="translate(0.227539)"/>
</clipPath>
</defs>
</svg>
