<svg xmlns="http://www.w3.org/2000/svg" width="51" height="50" viewBox="0 0 51 50" fill="none">
    <path
        d="M25.3862 50C39.1966 50 50.3862 38.8104 50.3862 25C50.3862 11.1896 39.1966 0 25.3862 0C11.5758 0 0.38623 11.1896 0.38623 25C0.38623 38.8104 11.5758 50 25.3862 50ZM11.8258 24.4583L35.93 15.1646C37.0487 14.7604 38.0258 15.4375 37.6633 17.1292L37.6654 17.1271L33.5612 36.4625C33.2571 37.8333 32.4425 38.1667 31.3029 37.5208L25.0529 32.9146L22.0383 35.8187C21.705 36.1521 21.4237 36.4333 20.7779 36.4333L21.2216 30.0729L32.805 19.6083C33.3091 19.1646 32.6925 18.9146 32.0279 19.3563L17.7133 28.3687L11.5425 26.4437C10.2029 26.0187 10.1737 25.1042 11.8258 24.4583Z"
        fill="#3AAFA9" />
</svg>