<svg xmlns="http://www.w3.org/2000/svg" width="51" height="50" viewBox="0 0 51 50" fill="none">
    <path
        d="M25.6138 0C11.8075 0 0.61377 11.1937 0.61377 25C0.61377 38.8062 11.8075 50 25.6138 50C39.42 50 50.6138 38.8062 50.6138 25C50.6138 11.1937 39.42 0 25.6138 0ZM38.2513 20.0938C38.6325 28.5104 32.3554 37.8937 21.2429 37.8937C17.8638 37.8937 14.72 36.9021 12.0721 35.2042C15.2471 35.5792 18.4159 34.6958 20.9304 32.7271C18.3138 32.6792 16.1034 30.9479 15.3388 28.5708C16.2784 28.75 17.2034 28.6979 18.0429 28.4687C15.1659 27.8896 13.1784 25.2979 13.2429 22.525C14.0513 22.9729 14.9721 23.2417 15.9534 23.2729C13.2888 21.4917 12.5346 17.9729 14.1013 15.2833C17.0513 18.9042 21.4617 21.2854 26.4346 21.5354C25.5617 17.7937 28.4013 14.1875 32.2659 14.1875C33.9846 14.1875 35.5409 14.9146 36.6325 16.0771C37.995 15.8104 39.2784 15.3104 40.4325 14.625C39.9846 16.0229 39.0367 17.1938 37.8013 17.9354C39.0117 17.7896 40.1659 17.4688 41.2367 16.9917C40.4367 18.1958 39.4242 19.25 38.2513 20.0938Z"
        fill="#3AAFA9" />
</svg>