<svg width="38" height="33" viewBox="0 0 38 33" fill="none" xmlns="http://www.w3.org/2000/svg">
    <g clip-path="url(#clip0_4426_2619)">
        <path
            d="M21.5 32.8519C30.3366 32.8519 37.5 25.6885 37.5 16.8519C37.5 8.01537 30.3366 0.851929 21.5 0.851929C12.6634 0.851929 5.5 8.01537 5.5 16.8519C5.5 25.6885 12.6634 32.8519 21.5 32.8519Z"
            fill="#9747FF" />
        <path
            d="M15.4245 20.5389C15.535 20.4298 15.6842 20.3688 15.8395 20.3689H30.2055C30.2634 20.3681 30.3202 20.3847 30.3687 20.4165C30.4171 20.4483 30.4548 20.4939 30.4771 20.5474C30.4994 20.6009 30.5051 20.6598 30.4936 20.7166C30.4821 20.7733 30.4538 20.8254 30.4125 20.8659L27.5745 23.6809C27.4641 23.7904 27.3149 23.8518 27.1595 23.8519H12.7935C12.7356 23.8524 12.6788 23.8356 12.6305 23.8037C12.5822 23.7717 12.5445 23.7261 12.5223 23.6726C12.5001 23.6192 12.4943 23.5603 12.5057 23.5035C12.5172 23.4467 12.5453 23.3946 12.5865 23.3539L15.4245 20.5389ZM15.4245 10.0219C15.535 9.91285 15.6842 9.85176 15.8395 9.85193H30.2055C30.4665 9.85193 30.5975 10.1659 30.4125 10.3499L27.5745 13.1649C27.4639 13.274 27.3148 13.3351 27.1595 13.3349H12.7935C12.7358 13.3352 12.6793 13.3183 12.6312 13.2865C12.5831 13.2546 12.5456 13.2091 12.5234 13.1558C12.5012 13.1025 12.4953 13.0439 12.5066 12.9873C12.5178 12.9307 12.5456 12.8787 12.5865 12.8379L15.4245 10.0219ZM27.5745 15.2469C27.4639 15.1378 27.3148 15.0768 27.1595 15.0769H12.7935C12.7356 15.0764 12.6788 15.0932 12.6305 15.1252C12.5822 15.1571 12.5445 15.2027 12.5223 15.2562C12.5001 15.3097 12.4943 15.3686 12.5057 15.4254C12.5172 15.4822 12.5453 15.5342 12.5865 15.5749L15.4245 18.3899C15.5345 18.4989 15.6845 18.5599 15.8395 18.5599H30.2055C30.2634 18.5604 30.3201 18.5436 30.3685 18.5117C30.4168 18.4797 30.4544 18.4341 30.4767 18.3806C30.4989 18.3272 30.5047 18.2683 30.4932 18.2115C30.4818 18.1547 30.4537 18.1026 30.4125 18.0619L27.5745 15.2469Z"
            fill="white" />
    </g>
    <defs>
        <clipPath id="clip0_4426_2619">
            <rect width="37" height="32" fill="white" transform="translate(0.5 0.851929)" />
        </clipPath>
    </defs>
</svg>