<svg width="41" height="40" viewBox="0 0 41 40" fill="none" xmlns="http://www.w3.org/2000/svg">
<g clip-path="url(#clip0_6120_1523)">
<path d="M20.5 0C9.47143 0 0.5 8.97143 0.5 20C0.5 31.0286 9.47143 40 20.5 40C31.5286 40 40.5 31.0286 40.5 20C40.5 8.97143 31.5286 0 20.5 0ZM22.6143 22.6857V32.2286H17.7V22.6857C12.1571 22.4 8.04286 21.3143 8.04286 20C8.04286 18.6857 12.2143 17.6 17.7 17.3143V14.3429H10.9V9.82857H29.4143V14.3429H22.6143V17.3143C28.1571 17.5429 32.2714 18.6857 32.2714 20C32.3286 21.3143 28.1571 22.4 22.6143 22.6857Z" fill="#26A17B"/>
<path d="M22.6143 17.6572V20.9715C22.5 20.9715 21.7 21.0286 20.2143 21.0286C18.9572 21.0286 18.0429 20.9715 17.7 20.9715V17.6572C12.8429 17.8857 9.18572 18.7429 9.18572 19.7143C9.18572 20.7429 12.8429 21.6 17.7 21.7715C18.0429 21.7715 18.9 21.8286 20.1572 21.8286C21.7572 21.8286 22.4429 21.7715 22.6143 21.7715C27.4714 21.5429 31.1286 20.6857 31.1286 19.7143C31.1286 18.7429 27.5286 17.8857 22.6143 17.6572Z" fill="#26A17B"/>
<path d="M33.3571 16.7428L33.1857 17.2571V32.6285L33.3571 32.7999L40.5 28.5714L33.3571 16.7428Z" fill="#343434"/>
<path d="M33.3571 16.7429L26.2143 28.5714L33.3571 32.8V25.3143V16.7429Z" fill="#8C8C8C"/>
<path d="M33.3571 34.1714L33.2428 34.2857V39.7143L33.3571 40L40.5 29.9429L33.3571 34.1714Z" fill="#3C3C3B"/>
<path d="M33.3571 40V34.1714L26.2143 29.9429L33.3571 40Z" fill="#8C8C8C"/>
<path d="M33.3571 32.8L40.5 28.5714L33.3571 25.3143V32.8Z" fill="#141414"/>
<path d="M26.2143 28.5714L33.3571 32.8V25.3143L26.2143 28.5714Z" fill="#393939"/>
</g>
<defs>
<clipPath id="clip0_6120_1523">
<rect width="40" height="40" fill="white" transform="translate(0.5)"/>
</clipPath>
</defs>
</svg>
