<svg width="33" height="33" viewBox="0 0 33 33" fill="none" xmlns="http://www.w3.org/2000/svg">
    <g clip-path="url(#clip0_4394_14925)">
        <path
            d="M16.6049 32.9637C25.4414 32.9637 32.6049 25.8002 32.6049 16.9637C32.6049 8.12713 25.4414 0.963684 16.6049 0.963684C7.7683 0.963684 0.604858 8.12713 0.604858 16.9637C0.604858 25.8002 7.7683 32.9637 16.6049 32.9637Z"
            fill="#DA1157" />
        <path
            d="M21.5891 20.1317C22.3917 20.1317 23.1614 19.8129 23.7288 19.2454C24.2963 18.6779 24.6151 17.9082 24.6151 17.1057C24.6151 16.3031 24.2963 15.5335 23.7288 14.966C23.1614 14.3985 22.3917 14.0797 21.5891 14.0797C20.7866 14.0797 20.0169 14.3985 19.4494 14.966C18.8819 15.5335 18.5631 16.3031 18.5631 17.1057C18.5631 17.9082 18.8819 18.6779 19.4494 19.2454C20.0169 19.8129 20.7866 20.1317 21.5891 20.1317ZM21.5891 10.1267C22.7415 10.126 23.8761 10.4106 24.8917 10.9552C25.9072 11.4997 26.7722 12.2872 27.4094 13.2474C28.0465 14.2076 28.436 15.3106 28.5431 16.458C28.6502 17.6053 28.4715 18.7614 28.0231 19.8229C27.5747 20.8844 26.8704 21.8184 25.9731 22.5415C25.0759 23.2646 24.0136 23.7543 22.881 23.9669C21.7484 24.1795 20.5808 24.1083 19.4824 23.7598C18.384 23.4113 17.389 22.7963 16.5861 21.9697C17.8553 20.6689 18.5649 18.923 18.5631 17.1057C18.565 15.2883 17.8554 13.5424 16.5861 12.2417C17.2356 11.5716 18.0132 11.0391 18.8727 10.6757C19.7322 10.3124 20.656 10.1257 21.5891 10.1267ZM11.5841 20.1317C12.3867 20.1317 13.1564 19.8129 13.7238 19.2454C14.2913 18.6779 14.6101 17.9082 14.6101 17.1057C14.6101 16.3031 14.2913 15.5335 13.7238 14.966C13.1564 14.3985 12.3867 14.0797 11.5841 14.0797C10.7816 14.0797 10.0119 14.3985 9.44443 14.966C8.87695 15.5335 8.55814 16.3031 8.55814 17.1057C8.55814 17.9082 8.87695 18.6779 9.44443 19.2454C10.0119 19.8129 10.7816 20.1317 11.5841 20.1317ZM16.5871 12.2417C15.3183 13.5426 14.6091 15.2885 14.6111 17.1057C14.6111 18.9977 15.3651 20.7127 16.5871 21.9697C15.6192 22.9659 14.3759 23.6507 13.0166 23.9364C11.6572 24.2221 10.2435 24.0957 8.95634 23.5734C7.6692 23.0511 6.56718 22.1566 5.7913 21.0044C5.01541 19.8522 4.60095 18.4948 4.60095 17.1057C4.60095 15.7166 5.01541 14.3591 5.7913 13.2069C6.56718 12.0547 7.6692 11.1602 8.95634 10.6379C10.2435 10.1156 11.6572 9.98921 13.0166 10.2749C14.3759 10.5606 15.6192 11.2454 16.5871 12.2417ZM14.6101 17.1067C14.6101 18.9987 15.3641 20.7137 16.5871 21.9707C17.856 20.6698 18.5653 18.9239 18.5631 17.1067C18.5653 15.2894 17.856 13.5435 16.5871 12.2427C15.3179 13.5434 14.6082 15.2893 14.6101 17.1067Z"
            fill="white" />
    </g>
    <defs>
        <clipPath id="clip0_4394_14925">
            <rect width="32" height="32" fill="white" transform="translate(0.604858 0.963684)" />
        </clipPath>
    </defs>
</svg>