<svg xmlns="http://www.w3.org/2000/svg" width="33" height="33" viewBox="0 0 33 33" fill="none">
    <circle cx="16.4181" cy="16.6278" r="15.7958" fill="#FF0066" />
    <path
        d="M21.9031 15.3556C21.6076 15.6532 21.3815 16.0123 21.2405 16.4074C21.0996 16.8026 21.0475 17.224 21.0878 17.6416L21.0737 17.6276C21.1152 18.1192 21.0489 18.6139 20.8797 19.0772C20.7105 19.5405 20.4424 19.9613 20.0941 20.3102C19.7457 20.659 19.3255 20.9275 18.8627 21.0969C18.4 21.2664 17.906 21.3327 17.4151 21.2912L17.4291 21.3052C16.8419 21.2505 16.2521 21.3784 15.7401 21.6717C15.2281 21.9649 14.8189 22.4091 14.5683 22.9437C14.3177 23.4783 14.2378 24.0773 14.3396 24.6591C14.4415 25.2408 14.72 25.7769 15.1372 26.1943C15.5545 26.6117 16.0901 26.8901 16.6711 26.9915C17.2522 27.0929 17.8502 27.0124 18.3839 26.761C18.9176 26.5095 19.3608 26.0994 19.6531 25.5865C19.9455 25.0736 20.0728 24.4829 20.0176 23.8949L20.0324 23.9089C19.9909 23.4174 20.0571 22.9226 20.2263 22.4592C20.3955 21.996 20.6638 21.5752 21.0121 21.2263C21.3605 20.8775 21.7807 20.6089 22.2434 20.4396C22.7061 20.2701 23.2001 20.2038 23.6911 20.2453L23.6763 20.2313C24.1559 20.2744 24.6388 20.1957 25.08 20.0023C25.5212 19.8089 25.9065 19.5071 26.2002 19.1248C26.4939 18.7426 26.6866 18.2923 26.7602 17.8157C26.8338 17.3391 26.7861 16.8516 26.6215 16.3983C26.4569 15.9451 26.1807 15.5408 25.8185 15.2229C25.4563 14.905 25.0198 14.6838 24.5495 14.5798C24.0792 14.4759 23.5902 14.4924 23.128 14.628C22.6658 14.7636 22.2453 15.0139 21.9054 15.3556H21.9031Z"
        fill="white" />
    <path
        d="M16.1532 19.4648L16.1383 19.4507C16.5556 19.4928 16.9769 19.4415 17.372 19.3006C17.7671 19.1596 18.1259 18.9326 18.4226 18.6358C18.7191 18.3389 18.9463 17.9798 19.0873 17.5843C19.2283 17.1888 19.2799 16.767 19.2382 16.3491L19.253 16.3631C19.2115 15.8715 19.2778 15.3768 19.4469 14.9135C19.6161 14.4502 19.8843 14.0294 20.2326 13.6805C20.581 13.3317 21.0012 13.0632 21.4639 12.8938C21.9267 12.7243 22.4207 12.658 22.9116 12.6995L22.8968 12.6855C23.4841 12.7407 24.0741 12.6132 24.5863 12.3203C25.0987 12.0274 25.5082 11.5834 25.7592 11.0489C26.0101 10.5144 26.0903 9.9153 25.9889 9.33344C25.8874 8.75158 25.6091 8.21524 25.192 7.79757C24.7749 7.37991 24.2393 7.10125 23.6582 6.99961C23.0771 6.89797 22.4789 6.97829 21.9451 7.22962C21.4112 7.48095 20.9679 7.89105 20.6754 8.404C20.3828 8.91693 20.2555 9.50774 20.3107 10.0958L20.2966 10.081C20.3382 10.5726 20.2721 11.0674 20.1029 11.5308C19.9338 11.9942 19.6656 12.415 19.3173 12.7639C18.9689 13.1127 18.5486 13.3813 18.0858 13.5507C17.623 13.72 17.1289 13.7862 16.638 13.7446L16.652 13.7594C16.2348 13.7174 15.8133 13.7686 15.4183 13.9096C15.0233 14.0505 14.6644 14.2776 14.3678 14.5744C14.0711 14.8712 13.8441 15.2304 13.703 15.6259C13.562 16.0214 13.5105 16.4432 13.5522 16.8611L13.5381 16.847C13.5795 17.3386 13.5131 17.8333 13.3439 18.2966C13.1746 18.7598 12.9065 19.1805 12.5582 19.5293C12.2098 19.8781 11.7896 20.1466 11.327 20.3162C10.8644 20.4856 10.3704 20.552 9.87947 20.5107L9.8935 20.5247C9.30621 20.4694 8.7162 20.597 8.20395 20.8899C7.6917 21.1828 7.28215 21.6267 7.03116 22.1613C6.78017 22.6959 6.69995 23.2949 6.80145 23.8767C6.90296 24.4586 7.18125 24.9949 7.59835 25.4126C8.01546 25.8303 8.55107 26.1089 9.13215 26.2106C9.71323 26.3122 10.3115 26.2319 10.8453 25.9805C11.3791 25.7292 11.8225 25.3192 12.115 24.8062C12.4075 24.2932 12.5349 23.7025 12.4797 23.1144L12.4945 23.1284C12.453 22.6368 12.5193 22.1421 12.6885 21.6787C12.8576 21.2154 13.1258 20.7947 13.4742 20.4458C13.8226 20.097 14.2428 19.8284 14.7054 19.6591C15.1682 19.4896 15.6622 19.4233 16.1532 19.4648Z"
        fill="white" />
    <path
        d="M10.9294 17.8985C11.2248 17.601 11.451 17.2418 11.5918 16.8467C11.7326 16.4515 11.7845 16.03 11.7439 15.6125L11.7587 15.6265C11.7172 15.1348 11.7834 14.6399 11.9527 14.1765C12.122 13.713 12.3903 13.2922 12.7389 12.9433C13.0875 12.5944 13.5078 12.326 13.9707 12.1566C14.4336 11.9873 14.9279 11.9212 15.4189 11.9629L15.4041 11.9489C15.9912 12.004 16.581 11.8764 17.093 11.5835C17.605 11.2906 18.0143 10.8467 18.2652 10.3124C18.516 9.778 18.5961 9.17917 18.4946 8.59753C18.3932 8.01589 18.1149 7.47976 17.698 7.06224C17.2811 6.64473 16.7456 6.36616 16.1648 6.26452C15.5839 6.16288 14.9859 6.24313 14.4523 6.4943C13.9186 6.74548 13.4753 7.15537 13.1829 7.66807C12.8903 8.18077 12.7629 8.77134 12.8179 9.35922L12.8039 9.34517C12.8454 9.83676 12.7791 10.3315 12.6099 10.7948C12.4407 11.2581 12.1726 11.6789 11.8242 12.0278C11.4758 12.3766 11.0556 12.6451 10.5929 12.8145C10.1302 12.984 9.63616 13.0503 9.14524 13.0088L9.15927 13.0228C8.67958 12.9797 8.19679 13.0587 7.75564 13.2521C7.3145 13.4456 6.92926 13.7475 6.63564 14.1298C6.34202 14.512 6.14951 14.9623 6.07595 15.4389C6.0024 15.9155 6.05017 16.403 6.21484 16.8562C6.37951 17.3094 6.65577 17.7136 7.01799 18.0315C7.38022 18.3493 7.8167 18.5705 8.287 18.6744C8.75729 18.7783 9.24617 18.7617 9.70836 18.6261C10.1705 18.4905 10.591 18.2402 10.9309 17.8985H10.9294Z"
        fill="white" />
</svg>