<svg width="32" height="32" viewBox="0 0 32 32" fill="none" xmlns="http://www.w3.org/2000/svg">
    <g clip-path="url(#clip0_6087_3050)">
        <g clip-path="url(#clip1_6087_3050)">
            <path
                d="M16 32C24.8366 32 32 24.8366 32 16C32 7.16344 24.8366 0 16 0C7.16344 0 0 7.16344 0 16C0 24.8366 7.16344 32 16 32Z"
                fill="#66F9A1" />
            <path
                d="M9.92448 19.687C10.035 19.5779 10.1842 19.5168 10.3395 19.517H24.7055C24.7634 19.5162 24.8202 19.5328 24.8687 19.5646C24.9171 19.5964 24.9548 19.642 24.9771 19.6955C24.9994 19.7489 25.0051 19.8079 24.9936 19.8646C24.9821 19.9214 24.9538 19.9734 24.9125 20.014L22.0745 22.829C21.9641 22.9384 21.8149 22.9999 21.6595 23H7.29348C7.23557 23.0005 7.17882 22.9837 7.13051 22.9518C7.0822 22.9198 7.04452 22.8742 7.02229 22.8207C7.00006 22.7672 6.99429 22.7083 7.00573 22.6516C7.01716 22.5948 7.04528 22.5427 7.08648 22.502L9.92448 19.687ZM9.92448 9.17C10.035 9.06092 10.1842 8.99983 10.3395 9H24.7055C24.9665 9 25.0975 9.314 24.9125 9.498L22.0745 12.313C21.9639 12.4221 21.8148 12.4832 21.6595 12.483H7.29348C7.23578 12.4833 7.17928 12.4664 7.13119 12.4345C7.0831 12.4026 7.04557 12.3572 7.02338 12.3039C7.0012 12.2506 6.99535 12.192 7.00658 12.1353C7.01782 12.0787 7.04563 12.0268 7.08648 11.986L9.92448 9.17ZM22.0745 14.395C21.9639 14.2859 21.8148 14.2248 21.6595 14.225H7.29348C7.23557 14.2245 7.17882 14.2413 7.13051 14.2732C7.0822 14.3052 7.04452 14.3508 7.02229 14.4043C7.00006 14.4578 6.99429 14.5167 7.00573 14.5734C7.01716 14.6302 7.04528 14.6823 7.08648 14.723L9.92448 17.538C10.0345 17.647 10.1845 17.708 10.3395 17.708H24.7055C24.7634 17.7085 24.8201 17.6917 24.8685 17.6598C24.9168 17.6278 24.9544 17.5822 24.9767 17.5287C24.9989 17.4752 25.0047 17.4163 24.9932 17.3596C24.9818 17.3028 24.9537 17.2507 24.9125 17.21L22.0745 14.395Z"
                fill="#000044" />
        </g>
    </g>
    <defs>
        <clipPath id="clip0_6087_3050">
            <rect width="32" height="32" fill="white" />
        </clipPath>
        <clipPath id="clip1_6087_3050">
            <rect width="32" height="32" fill="white" />
        </clipPath>
    </defs>
</svg>