<svg width="40" height="40" viewBox="0 0 40 40" fill="none" xmlns="http://www.w3.org/2000/svg">
    <path
        d="M19.9998 39.1717C31.0455 39.1717 39.9998 30.4028 39.9998 19.5859C39.9998 8.76889 31.0455 0 19.9998 0C8.95406 0 -0.000244141 8.76889 -0.000244141 19.5859C-0.000244141 30.4028 8.95406 39.1717 19.9998 39.1717Z"
        fill="#627EEA" />
    <path d="M20.6248 4.89645V15.7544L29.9998 19.8552L20.6248 4.89645Z" fill="white" />
    <path d="M20.6248 4.89645L11.2498 19.8552L20.6248 15.7544V4.89645Z" fill="white" />
    <path d="M20.6248 26.8914V34.2752L29.9998 21.564L20.6248 26.8914Z" fill="white" />
    <path d="M20.6248 34.2752V26.8901L11.2498 21.564L20.6248 34.2752Z" fill="white" />
    <path d="M20.6248 25.1838L29.9998 19.8552L20.6248 15.7568V25.1838Z" fill="white" />
    <path d="M11.2498 19.8552L20.6248 25.1837V15.758L11.2498 19.8552Z" fill="white" />
</svg>