<svg width="50" height="49" viewBox="0 0 50 49" fill="none" xmlns="http://www.w3.org/2000/svg">
<path fill-rule="evenodd" clip-rule="evenodd" d="M15.6926 26.2968L15.6933 26.2975L14.9861 27.0045L32.0238 44.0366L32.0246 44.0373C33.1631 45.1729 35.0055 45.1716 36.1446 44.0382L36.1455 44.0373C37.2848 42.9009 37.2848 41.055 36.1455 39.9186L21.1667 24.9452L36.1436 9.97198C37.283 8.83497 37.282 6.98971 36.1445 5.8522L36.1436 5.85131L35.4364 6.55835C35.4364 6.55834 35.4364 6.55833 35.4364 6.55832L36.1436 5.85131C35.0056 4.71623 33.1607 4.71623 32.0227 5.85131L32.022 5.85208L14.9825 22.8857C13.8576 24.0135 13.8561 25.8764 14.9854 27.0038L15.6926 26.2968Z" fill="#FF0066"/>
<path d="M36.1436 5.85131L36.1445 5.8522C37.282 6.98971 37.283 8.83497 36.1436 9.97198L21.1667 24.9452L36.1455 39.9186C37.2848 41.055 37.2848 42.9009 36.1455 44.0373L36.1446 44.0382C35.0055 45.1716 33.1631 45.1729 32.0246 44.0373L32.0238 44.0366L14.9861 27.0045L15.6933 26.2975L15.6926 26.2968L14.9854 27.0038C13.8561 25.8764 13.8576 24.0135 14.9825 22.8857L32.022 5.85208L32.0227 5.85131C33.1607 4.71623 35.0056 4.71623 36.1436 5.85131ZM36.1436 5.85131L35.4364 6.55835C35.4364 6.55834 35.4364 6.55833 35.4364 6.55832L36.1436 5.85131ZM14.9854 27.0038L15.6926 26.2968M35.4364 6.55832L36.1436 5.85131" stroke="#FF0066" stroke-width="2" stroke-linecap="round" stroke-linejoin="round"/>
</svg>
