<?xml version="1.0" encoding="utf-8"?>
<!-- Generator: Adobe Illustrator 26.0.2, SVG Export Plug-In . SVG Version: 6.00 Build 0)  -->
<svg version="1.1" width="70" height="70" id="Layer_1" xmlns="http://www.w3.org/2000/svg" xmlns:xlink="http://www.w3.org/1999/xlink" x="0px" y="0px"
	 viewBox="0 0 70 70" style="enable-background:new 0 0 70 70;" xml:space="preserve">
<style type="text/css">
	.st0{fill:#26A17B;}
	.st1{fill:#EB0029;}
</style>
<path class="st0" d="M35,0C15.7,0,0,15.7,0,35s15.7,35,35,35s35-15.7,35-35S54.3,0,35,0z M38.7,39.7v16.7h-8.6V39.7
	c-9.7-0.5-16.9-2.4-16.9-4.7s7.3-4.2,16.9-4.7v-5.2H18.2v-7.9h32.4v7.9H38.7v5.2l0,0c9.7,0.4,16.9,2.4,16.9,4.7
	C55.7,37.3,48.4,39.2,38.7,39.7z"/>
<path class="st0" d="M38.7,30.9v5.8c-0.2,0-1.6,0.1-4.2,0.1c-2.2,0-3.8-0.1-4.4-0.1v-5.8c-8.5,0.4-14.9,1.9-14.9,3.6
	c0,1.8,6.4,3.3,14.9,3.6v0c0.6,0,2.1,0.1,4.3,0.1c2.8,0,4-0.1,4.3-0.1v0v0c8.5-0.4,14.9-1.9,14.9-3.6C53.6,32.8,47.3,31.3,38.7,30.9
	z"/>
<path class="st1" d="M63.8,42.7L40,38.3l12.5,31.5L70,48.6L63.8,42.7z M63.4,44.6l3.6,3.5l-10,1.8L63.4,44.6z M54.9,49.5l-10.5-8.7
	L61.6,44L54.9,49.5z M54.2,51.1l-1.7,14.2L43.3,42L54.2,51.1z M55.8,51.8l11-2L54.2,65.3L55.8,51.8z"/>
</svg>
