<svg width="111" height="70" viewBox="0 0 111 70" fill="none" xmlns="http://www.w3.org/2000/svg">
<path d="M85.2261 58.8581V64.9135C75.5234 67.5778 65.2962 69.0311 55.069 69.0311C44.8418 69.0311 34.6146 67.5778 24.9118 64.9135V58.8581H85.2261ZM86.5373 57.4048H23.0762V65.6401C33.0411 68.5467 43.7928 70 54.8067 70C65.8206 70 76.5723 68.5467 86.5373 65.6401V57.4048Z" fill="white"/>
<path d="M54.8067 1.45329C65.0339 1.45329 75.2611 2.90658 84.9639 5.57094V12.5952H24.6496V5.32872C34.3523 2.66436 44.5795 1.45329 54.8067 1.45329ZM54.8067 0C43.7928 0 33.0411 1.45329 23.0762 4.35986V13.8062H86.5373V4.35986C76.5723 1.45329 65.8206 0 54.8067 0Z" fill="white"/>
<path d="M7.34277 16.955V54.7405C7.34277 56.6782 9.17843 58.3737 11.2763 58.3737H98.6008C100.699 58.3737 102.534 56.6782 102.534 54.7405V16.955C102.534 15.0173 100.699 13.3218 98.6008 13.3218H11.2763C9.17843 13.3218 7.34277 15.0173 7.34277 16.955Z" stroke="#8CC63F" stroke-width="2" stroke-miterlimit="10"/>
<path d="M93.8796 20.1039C95.453 20.1039 96.7642 21.3149 96.7642 22.7682V49.654C96.7642 51.1073 95.453 52.3184 93.8796 52.3184H16.2578C14.6843 52.3184 13.3732 51.1073 13.3732 49.654V22.526C13.3732 21.0727 14.6843 19.8616 16.2578 19.8616H93.8796V20.1039ZM93.8796 19.135H16.2578C14.1599 19.135 12.3242 20.8305 12.3242 22.7682V49.654C12.3242 51.5918 14.1599 53.2873 16.2578 53.2873H93.6173C95.7152 53.2873 97.5509 51.5918 97.5509 49.654V22.526C97.5509 20.5883 95.9775 19.135 93.8796 19.135Z" fill="white"/>
<path d="M64.7724 23.9793V47.7164H45.1047V23.9793H64.7724ZM66.0835 22.7683H43.5312V49.1697H66.0835V22.7683Z" fill="white"/>
<path d="M34.8779 26.1593V45.5364H19.1437V26.1593H34.8779ZM36.1891 24.706H17.5703V46.7475H36.1891V24.706Z" fill="white"/>
<path d="M30.9438 30.0347H22.8145V32.9413H27.7969V33.9102C26.748 34.879 24.3879 37.5434 24.3879 41.4188H27.5347C27.5347 37.7856 30.1571 35.8479 30.4193 35.8479L30.9438 35.3635V30.0347Z" fill="white"/>
<path d="M90.7338 26.4015V45.7786H74.9997V26.4015H90.7338ZM92.3072 25.1904H73.6885V47.2319H92.3072V25.1904Z" fill="white"/>
<path d="M87.0619 30.0347H78.9326V32.9413H83.9151V33.9102C82.8662 34.879 80.506 37.5434 80.506 41.4188H83.6529C83.6529 37.7856 86.2752 35.8479 86.5375 35.8479L87.0619 35.3635V30.0347Z" fill="white"/>
<path d="M0 29.5502V42.872L12.5873 36.09L0 29.5502Z" fill="#FF0055"/>
<path d="M97.5527 35.8478L110.14 42.6298V29.308L97.5527 35.8478Z" fill="#FF0055"/>
<path d="M51.6602 37.0589C51.6602 37.0589 50.6112 32.699 54.2825 29.0658C54.2825 29.0658 55.3315 33.1834 57.4294 35.1211" stroke="white" stroke-width="0.1838" stroke-miterlimit="10"/>
<path d="M57.6919 27.6125C59.7898 27.8547 61.3632 29.7924 61.3632 29.7924C61.3632 29.7924 59.2653 31.2457 57.1674 31.0035C55.0695 30.7613 53.4961 29.7924 53.4961 28.8236C53.4961 27.8547 55.594 27.3703 57.6919 27.6125Z" fill="#189B47"/>
<path d="M51.6605 41.9032C53.3984 41.9032 54.8073 40.6019 54.8073 38.9966C54.8073 37.3913 53.3984 36.09 51.6605 36.09C49.9226 36.09 48.5137 37.3913 48.5137 38.9966C48.5137 40.6019 49.9226 41.9032 51.6605 41.9032Z" fill="#FF0055"/>
<path d="M57.9544 39.9654C59.6924 39.9654 61.1013 38.6641 61.1013 37.0589C61.1013 35.4536 59.6924 34.1523 57.9544 34.1523C56.2165 34.1523 54.8076 35.4536 54.8076 37.0589C54.8076 38.6641 56.2165 39.9654 57.9544 39.9654Z" fill="#FF0055"/>
</svg>
