<svg width="50" height="49" viewBox="0 0 50 49" fill="none" xmlns="http://www.w3.org/2000/svg">
<path fill-rule="evenodd" clip-rule="evenodd" d="M12.3333 6H8.71429C7.21528 6 6 7.21528 6 8.71429V12.3333C6 13.8323 7.21528 15.0476 8.71429 15.0476H12.3333C13.8323 15.0476 15.0476 13.8323 15.0476 12.3333V8.71429C15.0476 7.21528 13.8323 6 12.3333 6ZM23.1905 6H26.8095C28.3085 6 29.5238 7.21528 29.5238 8.71429V12.3333C29.5238 13.8323 28.3085 15.0476 26.8095 15.0476H23.1905C21.6915 15.0476 20.4762 13.8323 20.4762 12.3333V8.71429C20.4762 7.21528 21.6915 6 23.1905 6ZM37.6667 6H41.2857C42.7847 6 44 7.21528 44 8.71429V12.3333C44 13.8323 42.7847 15.0476 41.2857 15.0476H37.6667C36.1677 15.0476 34.9524 13.8323 34.9524 12.3333V8.71429C34.9524 7.21528 36.1677 6 37.6667 6ZM8.71429 34.9523H12.3333C13.8323 34.9523 15.0476 36.1675 15.0476 37.6666V41.2856C15.0476 42.7846 13.8323 43.9999 12.3333 43.9999H8.71429C7.21528 43.9999 6 42.7846 6 41.2856V37.6666C6 36.1675 7.21528 34.9523 8.71429 34.9523ZM26.8095 20.4761H23.1905C21.6915 20.4761 20.4762 21.6914 20.4762 23.1904V26.8095C20.4762 28.3085 21.6915 29.5238 23.1905 29.5238H26.8095C28.3085 29.5238 29.5238 28.3085 29.5238 26.8095V23.1904C29.5238 21.6914 28.3085 20.4761 26.8095 20.4761ZM8.71429 20.4761H12.3333C13.8323 20.4761 15.0476 21.6914 15.0476 23.1904V26.8095C15.0476 28.3085 13.8323 29.5238 12.3333 29.5238H8.71429C7.21528 29.5238 6 28.3085 6 26.8095V23.1904C6 21.6914 7.21528 20.4761 8.71429 20.4761Z" fill="#FF0066"/>
<path fill-rule="evenodd" clip-rule="evenodd" d="M37.6667 20.4761H41.2857C42.7847 20.4761 44 21.6914 44 23.1904V26.8094C44 28.3084 42.7847 29.5237 41.2857 29.5237H37.6667C36.1677 29.5237 34.9524 28.3084 34.9524 26.8094V23.1904C34.9524 21.6914 36.1677 20.4761 37.6667 20.4761ZM26.8095 34.9522H23.1905C21.6915 34.9522 20.4762 36.1675 20.4762 37.6665V41.2855C20.4762 42.7846 21.6915 43.9998 23.1905 43.9998H26.8095C28.3085 43.9998 29.5238 42.7846 29.5238 41.2855V37.6665C29.5238 36.1675 28.3085 34.9522 26.8095 34.9522ZM41.2857 34.9522H37.6667C36.1677 34.9522 34.9524 36.1675 34.9524 37.6665V41.2855C34.9524 42.7846 36.1677 43.9998 37.6667 43.9998H41.2857C42.7847 43.9998 44 42.7846 44 41.2855V37.6665C44 36.1675 42.7847 34.9522 41.2857 34.9522Z" fill="#979797"/>
</svg>
