<svg width="70" height="70" viewBox="0 0 70 70" fill="none" xmlns="http://www.w3.org/2000/svg">
<g clip-path="url(#clip0)">
<path d="M25.5701 21.6801C25.5701 26.8601 28.1201 28.2 33.0101 29.86V14.79C30.9089 14.8314 28.8858 15.5941 27.2802 16.9501C26.688 17.5805 26.2309 18.3252 25.9368 19.1385C25.6428 19.9519 25.518 20.8167 25.5701 21.6801V21.6801Z" fill="#189B47"/>
<path d="M41.9103 37.56C40.2535 36.6753 38.4633 36.0673 36.6104 35.76V52.23C39.7704 52.03 42.0804 51.23 43.4904 49.72C44.9004 48.21 45.5504 45.88 45.3704 42.72C45.2774 41.6374 44.9112 40.5961 44.3061 39.6936C43.7009 38.7911 42.8766 38.057 41.9103 37.56V37.56Z" fill="#189B47"/>
<path d="M35 0C28.0777 0 21.3108 2.05271 15.5551 5.89856C9.79936 9.74441 5.31334 15.2107 2.66428 21.6061C0.0152087 28.0015 -0.677967 35.0389 0.672516 41.8282C2.023 48.6175 5.35647 54.8539 10.2513 59.7487C15.1462 64.6436 21.3825 67.977 28.1718 69.3275C34.9612 70.678 41.9985 69.9848 48.394 67.3358C54.7894 64.6867 60.2556 60.2007 64.1015 54.4449C67.9473 48.6892 70 41.9223 70 35C70 25.7174 66.3125 16.8151 59.7487 10.2513C53.185 3.68751 44.2826 0 35 0V0ZM47 53C44.69 55.43 41.2101 56.77 36.6501 57V63.16C36.6501 63.6374 36.4604 64.0952 36.1228 64.4328C35.7853 64.7704 35.3274 64.96 34.85 64.96C34.3726 64.96 33.9148 64.7704 33.5772 64.4328C33.2397 64.0952 33.05 63.6374 33.05 63.16V57C28.59 56.65 25.34 55.33 23.12 53C20.9 50.67 19.71 47.06 19.85 42.4C19.8686 41.7635 20.1392 41.1604 20.6024 40.7234C21.0657 40.2865 21.6835 40.0514 22.32 40.07C22.9566 40.0886 23.5597 40.3592 23.9966 40.8224C24.4336 41.2857 24.6686 41.9035 24.6501 42.54C24.5501 45.86 25.1901 48.21 26.6501 49.71C28.1101 51.21 30.0801 51.92 33.0901 52.21V34.92L32.43 34.7C29.73 33.81 26.95 32.89 24.76 31.05C22.13 28.85 20.85 25.79 20.85 21.68C20.7962 20.1799 21.0467 18.6845 21.5864 17.2838C22.126 15.8831 22.9437 14.6062 23.99 13.53C26.13 11.42 29.1901 10.23 33.0901 9.96997V6.79999C33.0901 6.3226 33.2797 5.86479 33.6172 5.52722C33.9548 5.18966 34.4127 5 34.89 5C35.3674 5 35.8252 5.18966 36.1628 5.52722C36.5004 5.86479 36.69 6.3226 36.69 6.79999V10C40.69 10.24 43.83 11.45 45.95 13.61C48.07 15.77 49.11 18.74 49.05 22.47C49.0448 22.7851 48.9775 23.0962 48.852 23.3854C48.7266 23.6745 48.5454 23.9362 48.3188 24.1553C48.0922 24.3745 47.8247 24.5468 47.5315 24.6626C47.2383 24.7784 46.9252 24.8353 46.61 24.83C46.2948 24.8248 45.9838 24.7575 45.6946 24.632C45.4054 24.5066 45.1439 24.3253 44.9247 24.0988C44.7056 23.8722 44.5331 23.6047 44.4174 23.3115C44.3016 23.0183 44.2448 22.7052 44.25 22.39C44.25 19.96 43.7301 18.19 42.5301 16.98C41.3301 15.77 39.34 14.98 36.69 14.81V30.92C39.3884 31.2935 41.999 32.1433 44.4001 33.43C46.036 34.3133 47.4259 35.5906 48.4439 37.1464C49.4618 38.7021 50.0757 40.4872 50.23 42.34V42.45C50.43 47 49.36 50.52 47 53Z" fill="#189B47"/>
</g>
<defs>
<clipPath id="clip0">
<rect width="70" height="70" fill="white"/>
</clipPath>
</defs>
</svg>
