<svg width="70" height="70" viewBox="0 0 70 70" fill="none" xmlns="http://www.w3.org/2000/svg">
<path d="M32.1017 36.035L31.7947 44.739C34.473 44.8342 42.8619 45.6785 43.0362 40.7751C43.2158 35.6559 34.7801 36.1302 32.1017 36.035Z" fill="#FF9700"/>
<path d="M32.5095 24.1504L32.236 32.0499C34.4708 32.127 41.4622 32.89 41.6184 28.4301C41.7818 23.7642 34.7444 24.2275 32.5095 24.1504Z" fill="#FF9700"/>
<path d="M36.2164 0.0327714C16.9031 -0.646615 0.702387 14.4721 0.0327821 33.7833C-0.646604 53.0966 14.4644 69.3091 33.7756 69.9787C53.0889 70.6581 69.2993 55.5373 69.9689 36.2261C70.6483 16.9128 55.5374 0.700297 36.2164 0.0327714ZM49.0572 26.9206C49.2772 30.36 47.7715 32.3669 45.4369 33.4561C49.1837 34.4897 51.4672 36.8157 50.8255 41.8287C50.0315 48.0497 45.3132 49.5638 38.6485 49.7127L38.4177 56.2741L34.462 56.1335L34.692 49.6643C33.6619 49.6276 32.6199 49.5833 31.5346 49.5277L31.3109 56.0263L27.3552 55.8856L27.584 49.3145C26.6558 49.2766 25.7158 49.2311 24.7562 49.1897L19.6056 49.0065L20.559 44.3056C20.559 44.3056 23.4831 44.4508 23.4336 44.4102C24.5559 44.4477 24.8778 43.6534 24.9659 43.1542L25.3295 32.7921C25.4727 32.7924 25.6179 32.8024 25.7513 32.8047C25.5921 32.7772 25.4469 32.7672 25.333 32.7607L25.589 25.3557C25.4675 24.5432 24.9794 23.5939 23.3745 23.5466C23.4249 23.495 20.502 23.4517 20.502 23.4517L20.6473 19.2292L26.1059 19.4185L26.1101 19.438C26.9342 19.4673 27.7758 19.4827 28.6271 19.496L28.8509 12.9974L32.8066 13.1381L32.5851 19.5032C33.6425 19.5238 34.7076 19.5326 35.7475 19.5671L35.9675 13.2432L39.9232 13.3838L39.6994 19.8824C44.7809 20.5096 48.7731 22.2169 49.0572 26.9206Z" fill="#FF9700"/>
</svg>
