<svg width="50" height="49" viewBox="0 0 50 49" fill="none" xmlns="http://www.w3.org/2000/svg">
<path fill-rule="evenodd" clip-rule="evenodd" d="M15.0422 5H24.5374C25.8695 5 26.9492 6.07976 26.9492 7.41182C26.9492 8.73864 25.8673 9.81623 24.5374 9.81623H15.0422C13.2655 9.81623 11.8217 11.26 11.8162 13.0422V35.5711C11.8162 37.3472 13.2661 38.7971 15.0422 38.7971H24.3816C25.7137 38.7971 26.7935 39.8768 26.7935 41.2089C26.7935 42.5357 25.7115 43.6133 24.3816 43.6133H15.0422C10.6093 43.6133 7 40.0039 7 35.5711V13.0422C7 8.60934 10.6093 5 15.0422 5ZM42.4525 22.7949L42.5842 22.9585L42.7445 23.2184L42.7671 23.2789L42.7848 23.3126L42.8137 23.4106L42.8244 23.4062L42.8756 23.5392L42.9502 23.6079C43.0022 23.6633 42.9893 23.6851 42.9543 23.7081L42.9281 23.724L42.9637 23.8766L43 24.1882L42.9952 24.4822L42.9636 24.6692L42.9736 24.6419L42.9619 24.7156L42.9841 24.7983C42.9969 24.8717 42.9761 24.9326 42.8727 25.0304L42.8637 25.0872L42.753 25.3585L42.5462 25.7101L42.3875 25.8998L34.9842 33.3105C34.5297 33.7649 33.9162 34.0141 33.2834 34.0141C32.6506 34.0141 32.0371 33.7649 31.5826 33.3105C30.642 32.3699 30.642 30.8421 31.5826 29.9015L34.7669 26.7138L21.5219 26.7146C20.2787 26.7146 19.2552 25.774 19.1243 24.5656L19.1101 24.3028C19.1101 22.976 20.192 21.8984 21.5219 21.8984L34.7624 21.8976L31.5381 18.6745C30.6698 17.8062 30.603 16.4376 31.3377 15.4924L31.5381 15.2655C32.4787 14.3249 34.0065 14.3249 34.9467 15.2651L42.19 22.5108L42.1904 22.5111C42.2635 22.5769 42.3002 22.6098 42.3264 22.6358L42.5026 22.8376L42.5591 22.917L42.4525 22.7949Z" fill="#FF0066"/>
<path d="M11.8162 13.0422L11.3162 13.0407V13.0422H11.8162ZM42.5842 22.9585L43.0098 22.6961L42.9933 22.6693L42.9736 22.6448L42.5842 22.9585ZM42.4525 22.7949L42.829 22.466L42.0631 23.1086L42.4525 22.7949ZM42.7445 23.2184L43.2128 23.0433L43.1957 22.9975L43.1701 22.9559L42.7445 23.2184ZM42.7671 23.2789L42.2987 23.454L42.3098 23.4835L42.3245 23.5115L42.7671 23.2789ZM42.7848 23.3126L43.2644 23.1713L43.2504 23.1239L43.2274 23.0801L42.7848 23.3126ZM42.8137 23.4106L42.3341 23.5519L42.4907 24.0836L43.0035 23.8732L42.8137 23.4106ZM42.8244 23.4062L43.2911 23.2266L43.1075 22.7496L42.6346 22.9436L42.8244 23.4062ZM42.8756 23.5392L42.4089 23.7187L42.4509 23.8277L42.5367 23.9068L42.8756 23.5392ZM42.9502 23.6079L43.3147 23.2657L43.3024 23.2525L43.2891 23.2403L42.9502 23.6079ZM42.9543 23.7081L43.2133 24.1358L43.2212 24.131L43.229 24.1259L42.9543 23.7081ZM42.9281 23.724L42.6691 23.2963L42.3589 23.4841L42.4411 23.8374L42.9281 23.724ZM42.9637 23.8766L43.4603 23.8187L43.457 23.7907L43.4506 23.7633L42.9637 23.8766ZM43 24.1882L43.4999 24.1963L43.5005 24.1632L43.4966 24.1303L43 24.1882ZM42.9952 24.4822L43.4882 24.5654L43.4945 24.5282L43.4951 24.4903L42.9952 24.4822ZM42.9636 24.6692L42.4706 24.5859L43.4333 24.8405L42.9636 24.6692ZM42.9736 24.6419L43.4674 24.72L42.5038 24.4705L42.9736 24.6419ZM42.9619 24.7156L42.468 24.6375L42.4514 24.7425L42.479 24.8452L42.9619 24.7156ZM42.9841 24.7983L43.4766 24.7121L43.4728 24.6902L43.467 24.6687L42.9841 24.7983ZM42.8727 25.0304L42.5291 24.6672L42.4058 24.7838L42.379 24.9514L42.8727 25.0304ZM42.8637 25.0872L43.3266 25.276L43.3483 25.2229L43.3574 25.1662L42.8637 25.0872ZM42.753 25.3585L43.184 25.612L43.2023 25.5808L43.2159 25.5474L42.753 25.3585ZM42.5462 25.7101L42.9296 26.031L42.9562 25.9993L42.9772 25.9636L42.5462 25.7101ZM42.3875 25.8998L42.7412 26.2531L42.7568 26.2375L42.771 26.2206L42.3875 25.8998ZM34.9842 33.3105L35.3378 33.664L35.3379 33.6639L34.9842 33.3105ZM31.5826 33.3105L31.9362 32.9569L31.9362 32.9569L31.5826 33.3105ZM31.5826 29.9015L31.9362 30.255L31.9363 30.2548L31.5826 29.9015ZM34.7669 26.7138L35.1207 27.0672L35.9732 26.2137L34.7669 26.2138L34.7669 26.7138ZM21.5219 26.7146L21.5219 27.2146L21.522 27.2146L21.5219 26.7146ZM19.1243 24.5656L18.625 24.5925L18.6257 24.606L18.6272 24.6195L19.1243 24.5656ZM19.1101 24.3028H18.6101V24.3163L18.6108 24.3297L19.1101 24.3028ZM21.5219 21.8984L21.5219 22.3984L21.522 22.3984L21.5219 21.8984ZM34.7624 21.8976L34.7624 22.3976L35.9697 22.3975L35.1159 21.5439L34.7624 21.8976ZM31.5381 18.6745L31.1845 19.028L31.1846 19.0281L31.5381 18.6745ZM31.3377 15.4924L30.9629 15.1615L30.9525 15.1732L30.9429 15.1856L31.3377 15.4924ZM31.5381 15.2655L31.1845 14.9119L31.1735 14.9229L31.1633 14.9345L31.5381 15.2655ZM34.9467 15.2651L35.3003 14.9116L35.3003 14.9115L34.9467 15.2651ZM42.19 22.5108L41.8364 22.8643L41.8465 22.8743L41.857 22.8838L42.19 22.5108ZM42.1904 22.5111L42.5246 22.1393L42.5234 22.1381L42.1904 22.5111ZM42.3264 22.6358L42.7031 22.307L42.6911 22.2932L42.678 22.2803L42.3264 22.6358ZM42.5026 22.8376L42.9099 22.5477L42.8956 22.5275L42.8793 22.5089L42.5026 22.8376ZM42.5591 22.917L42.1826 23.246L42.9664 22.627L42.5591 22.917ZM24.5374 4.5H15.0422V5.5H24.5374V4.5ZM27.4492 7.41182C27.4492 5.80362 26.1456 4.5 24.5374 4.5V5.5C25.5933 5.5 26.4492 6.3559 26.4492 7.41182H27.4492ZM24.5374 10.3162C26.1419 10.3162 27.4492 9.01637 27.4492 7.41182H26.4492C26.4492 8.46091 25.5928 9.31623 24.5374 9.31623V10.3162ZM15.0422 10.3162H24.5374V9.31623H15.0422V10.3162ZM12.3162 13.0437C12.3209 11.5356 13.5425 10.3162 15.0422 10.3162V9.31623C12.9885 9.31623 11.3226 10.9844 11.3162 13.0407L12.3162 13.0437ZM12.3162 35.5711V13.0422H11.3162V35.5711H12.3162ZM15.0422 38.2971C13.5422 38.2971 12.3162 37.0711 12.3162 35.5711H11.3162C11.3162 37.6234 12.9899 39.2971 15.0422 39.2971V38.2971ZM24.3816 38.2971H15.0422V39.2971H24.3816V38.2971ZM27.2935 41.2089C27.2935 39.6007 25.9898 38.2971 24.3816 38.2971V39.2971C25.4376 39.2971 26.2935 40.153 26.2935 41.2089H27.2935ZM24.3816 44.1133C25.9861 44.1133 27.2935 42.8134 27.2935 41.2089H26.2935C26.2935 42.258 25.437 43.1133 24.3816 43.1133V44.1133ZM15.0422 44.1133H24.3816V43.1133H15.0422V44.1133ZM6.5 35.5711C6.5 40.2801 10.3332 44.1133 15.0422 44.1133V43.1133C10.8855 43.1133 7.5 39.7278 7.5 35.5711H6.5ZM6.5 13.0422V35.5711H7.5V13.0422H6.5ZM15.0422 4.5C10.3332 4.5 6.5 8.3332 6.5 13.0422H7.5C7.5 8.88549 10.8855 5.5 15.0422 5.5V4.5ZM42.9736 22.6448L42.8418 22.4813L42.0631 23.1086L42.1948 23.2722L42.9736 22.6448ZM43.1701 22.9559L43.0098 22.6961L42.1586 23.2209L42.3189 23.4808L43.1701 22.9559ZM43.2355 23.1039L43.2128 23.0433L42.2761 23.3934L42.2987 23.454L43.2355 23.1039ZM43.2274 23.0801L43.2097 23.0463L42.3245 23.5115L42.3422 23.5452L43.2274 23.0801ZM43.2933 23.2693L43.2644 23.1713L42.3052 23.454L42.3341 23.5519L43.2933 23.2693ZM42.6346 22.9436L42.6239 22.948L43.0035 23.8732L43.0142 23.8688L42.6346 22.9436ZM43.3422 23.3596L43.2911 23.2266L42.3578 23.5857L42.4089 23.7187L43.3422 23.3596ZM43.2891 23.2403L43.2144 23.1715L42.5367 23.9068L42.6113 23.9756L43.2891 23.2403ZM43.229 24.1259C43.2426 24.1169 43.4633 23.9863 43.4836 23.7062C43.5015 23.458 43.3437 23.2965 43.3147 23.2657L42.5857 23.9501C42.5836 23.948 42.5614 23.9247 42.5387 23.883C42.5151 23.8397 42.4777 23.7519 42.4862 23.6341C42.4952 23.5091 42.5509 23.4174 42.5976 23.3633C42.6376 23.3171 42.6758 23.2928 42.6796 23.2904L43.229 24.1259ZM43.1871 24.1517L43.2133 24.1358L42.6953 23.2804L42.6691 23.2963L43.1871 24.1517ZM43.4506 23.7633L43.4151 23.6106L42.4411 23.8374L42.4767 23.99L43.4506 23.7633ZM43.4966 24.1303L43.4603 23.8187L42.467 23.9346L42.5034 24.2461L43.4966 24.1303ZM43.4951 24.4903L43.4999 24.1963L42.5001 24.18L42.4953 24.474L43.4951 24.4903ZM43.4566 24.7524L43.4882 24.5654L42.5022 24.3989L42.4706 24.5859L43.4566 24.7524ZM42.5038 24.4705L42.4939 24.4978L43.4333 24.8405L43.4433 24.8132L42.5038 24.4705ZM43.4558 24.7937L43.4674 24.72L42.4797 24.5637L42.468 24.6375L43.4558 24.7937ZM43.467 24.6687L43.4448 24.5861L42.479 24.8452L42.5012 24.9278L43.467 24.6687ZM43.2164 25.3936C43.2873 25.3265 43.3722 25.234 43.4277 25.1108C43.4924 24.9674 43.4971 24.8295 43.4766 24.7121L42.4916 24.8844C42.4887 24.8682 42.4854 24.839 42.4891 24.8018C42.493 24.7633 42.5032 24.7285 42.5162 24.6996C42.5387 24.6497 42.5615 24.6365 42.5291 24.6672L43.2164 25.3936ZM43.3574 25.1662L43.3665 25.1094L42.379 24.9514L42.3699 25.0082L43.3574 25.1662ZM43.2159 25.5474L43.3266 25.276L42.4007 24.8983L42.29 25.1696L43.2159 25.5474ZM42.9772 25.9636L43.184 25.612L42.322 25.105L42.1152 25.4567L42.9772 25.9636ZM42.771 26.2206L42.9296 26.031L42.1627 25.3892L42.004 25.5789L42.771 26.2206ZM35.3379 33.6639L42.7412 26.2531L42.0338 25.5464L34.6305 32.9571L35.3379 33.6639ZM33.2834 34.5141C34.0472 34.5141 34.7884 34.2134 35.3378 33.664L34.6306 32.9569C34.2711 33.3165 33.7851 33.5141 33.2834 33.5141V34.5141ZM31.229 33.664C31.7784 34.2134 32.5196 34.5141 33.2834 34.5141V33.5141C32.7817 33.5141 32.2957 33.3165 31.9362 32.9569L31.229 33.664ZM31.229 29.5479C30.0932 30.6838 30.0932 32.5282 31.229 33.664L31.9362 32.9569C31.1908 32.2116 31.1908 31.0004 31.9362 30.255L31.229 29.5479ZM34.4132 26.3604L31.2289 29.5481L31.9363 30.2548L35.1207 27.0672L34.4132 26.3604ZM21.522 27.2146L34.767 27.2138L34.7669 26.2138L21.5219 26.2146L21.522 27.2146ZM18.6272 24.6195C18.7853 26.079 20.0206 27.2146 21.5219 27.2146V26.2146C20.5367 26.2146 19.7251 25.4691 19.6214 24.5117L18.6272 24.6195ZM18.6108 24.3297L18.625 24.5925L19.6235 24.5387L19.6094 24.2759L18.6108 24.3297ZM21.5219 21.3984C19.9175 21.3984 18.6101 22.6983 18.6101 24.3028H19.6101C19.6101 23.2537 20.4666 22.3984 21.5219 22.3984V21.3984ZM34.7624 21.3976L21.5219 21.3984L21.522 22.3984L34.7624 22.3976L34.7624 21.3976ZM31.1846 19.0281L34.4089 22.2512L35.1159 21.5439L31.8916 18.3209L31.1846 19.0281ZM30.9429 15.1856C30.0556 16.3272 30.1357 17.9792 31.1845 19.028L31.8916 18.3209C31.204 17.6333 31.1505 16.548 31.7325 15.7993L30.9429 15.1856ZM31.1633 14.9345L30.9629 15.1615L31.7125 15.8233L31.9129 15.5964L31.1633 14.9345ZM35.3003 14.9115C34.1647 13.776 32.3204 13.7761 31.1845 14.9119L31.8916 15.619C32.6371 14.8736 33.8483 14.8737 34.5931 15.6186L35.3003 14.9115ZM42.5437 22.1573L35.3003 14.9116L34.5931 15.6186L41.8364 22.8643L42.5437 22.1573ZM42.5234 22.1381L42.523 22.1378L41.857 22.8838L41.8574 22.8841L42.5234 22.1381ZM42.678 22.2803C42.6411 22.2437 42.5929 22.2006 42.5246 22.1393L41.8561 22.8829C41.9342 22.9531 41.9593 22.9759 41.9748 22.9913L42.678 22.2803ZM42.8793 22.5089L42.7031 22.307L41.9497 22.9646L42.1259 23.1664L42.8793 22.5089ZM42.9664 22.627L42.9099 22.5477L42.0953 23.1276L42.1518 23.207L42.9664 22.627ZM42.0759 23.1239L42.1826 23.246L42.9356 22.588L42.829 22.466L42.0759 23.1239Z" fill="#FF0066"/>
</svg>
