<svg width="40" height="45" viewBox="0 0 40 45" fill="none" xmlns="http://www.w3.org/2000/svg">
<g clip-path="url(#clip0)">
<path fill-rule="evenodd" clip-rule="evenodd" d="M18.5332 29.8056V26.2865C19.237 26.4038 19.8235 26.4038 20.5273 26.4038C24.5156 26.4038 28.0347 25.3481 30.6153 23.5886L25.5713 23.8232C24.9848 23.9405 24.6329 23.7059 24.281 23.354C23.9291 23.0021 23.6945 22.6502 23.8118 22.0637C23.8118 21.1252 24.5156 20.5387 25.454 20.5387H37.5361C38.1227 20.5387 38.5919 20.7733 39.0611 21.3598C39.413 21.8291 39.5303 22.4156 39.2957 23.0021L37.4188 30.0402C37.0669 31.0959 36.0112 31.7997 34.8382 31.5651L34.2517 31.4478C33.6652 31.3305 33.196 30.9786 32.8441 30.3921C32.4922 29.9229 32.3749 29.2191 32.6095 28.6326L33.4306 26.5211C30.1461 28.5153 25.5713 29.8056 20.6446 29.8056C19.9408 29.8056 19.237 29.8056 18.5332 29.8056ZM18.5332 8.1047V5.64136C19.237 5.64136 19.9408 5.64136 20.6446 5.64136C24.9848 5.64136 29.0904 6.57977 32.2576 8.33931C32.7268 8.57391 32.9614 8.92582 32.9614 9.39503C33.0787 9.86423 32.9614 10.2161 32.6095 10.568L32.3749 10.6853C31.9056 11.1546 31.2018 11.2719 30.6153 10.92C28.0347 9.16042 24.5156 7.9874 20.5273 7.9874C19.8235 7.9874 19.237 8.1047 18.5332 8.1047Z" fill="white"/>
<path fill-rule="evenodd" clip-rule="evenodd" d="M2.81525 0.0109863H18.5337V34.967H2.81525C1.29032 34.967 0 33.794 0 32.2691V2.82624C0 1.30131 1.29032 0.0109863 2.81525 0.0109863ZM18.5337 5.64148V8.10483C11.7302 8.69134 6.45161 12.5623 6.45161 17.2544C6.45161 21.8292 11.7302 25.7001 18.5337 26.2866V29.8057C9.26686 29.1019 2.11144 23.9406 2.11144 17.7236C2.11144 11.5066 9.26686 6.3453 18.5337 5.64148Z" fill="white"/>
<path fill-rule="evenodd" clip-rule="evenodd" d="M6.45203 41.0668H2.69837V42.0052H5.39631C5.27901 42.3571 4.9271 42.8263 4.5752 43.0609C4.22329 43.2955 3.75408 43.5301 3.16757 43.4128C0.938835 43.1782 0.469627 40.1283 2.34646 39.0726C2.93297 38.7207 3.87139 38.7207 4.5752 39.1899C5.39631 39.6591 4.34059 39.6591 6.10013 39.6591C5.98282 39.0726 5.27901 38.3688 4.6925 38.1342C3.87139 37.8996 2.93297 37.8996 2.11186 38.1342C0.938835 38.7207 -0.116883 40.1283 0.352325 42.0052C0.704231 43.4128 2.11186 44.5858 3.87139 44.3512C5.04441 44.1166 5.86552 43.2955 6.21743 42.3571C6.33473 42.1225 6.56933 41.4187 6.45203 41.0668ZM32.9623 40.9495V39.4245C33.6661 39.4245 34.3699 39.4245 34.3699 40.1283C34.3699 40.9495 33.6661 40.9495 32.9623 40.9495ZM31.4374 44.2339H32.9623V42.2398C33.0796 42.3571 34.018 43.9993 34.1353 44.2339H36.0121C35.8948 44.1166 34.7218 42.4744 34.4872 42.1225C34.7218 42.0052 34.9564 42.0052 35.3083 41.6533C35.4256 41.536 35.6602 41.3014 35.7775 40.9495C36.1295 39.7764 35.6602 38.1342 33.9007 38.1342C33.1969 38.0169 32.2585 38.0169 31.4374 38.0169V44.2339ZM25.5723 41.8879C23.4608 41.8879 24.1646 41.7706 23.6954 42.3571C23.2262 42.709 22.757 42.9436 22.0532 42.709C20.5283 42.2398 20.5283 39.8937 22.1705 39.5418C22.757 39.4245 23.2262 39.5418 23.6954 40.011C24.1646 40.4803 23.4608 40.363 25.5723 40.363C25.5723 40.011 25.3377 39.5418 25.1031 39.3072C24.5165 38.3688 23.4608 37.8996 22.1705 38.0169C20.6456 38.1342 19.3553 39.4245 19.3553 41.0668C19.3553 42.8263 20.5283 44.1166 22.0532 44.3512C23.3435 44.4685 24.3992 43.9993 25.1031 42.9436C25.2204 42.709 25.5723 42.2398 25.5723 41.8879ZM12.4344 44.2339H13.2556V38.9553C13.3729 39.0726 14.5459 42.3571 14.6632 42.9436C14.7805 43.1782 15.1324 44.1166 15.2497 44.2339H15.8362C16.0708 43.6474 16.54 42.2398 16.7746 41.536C17.0092 41.1841 17.1265 40.7149 17.3611 40.2457L17.8303 38.9553L17.713 44.2339H18.6514V38.0169H17.2438C17.1265 38.6034 16.1881 40.9495 15.9535 41.6533C15.9535 41.7706 15.6016 42.709 15.4843 42.8263L13.7248 38.1342L12.4344 38.0169V44.2339ZM28.2702 40.1283C28.2702 40.2457 28.8567 42.0052 28.8567 42.0052H27.6837L28.2702 40.1283ZM25.3377 44.2339H26.8626L27.2145 43.2955H29.2086L29.5605 44.2339H31.2028C31.2028 44.1166 30.147 41.4187 30.0297 41.1841C29.7951 40.5976 29.6778 40.1283 29.4432 39.6591C29.3259 39.3072 28.974 38.2515 28.8567 38.0169H27.6837L26.5107 41.1841C26.2761 41.536 25.3377 43.9993 25.3377 44.2339ZM39.8831 40.363L38.1236 40.4803V39.4245H39.8831C39.8831 39.3072 39.8831 38.2515 39.8831 38.1342H36.5987V44.2339H39.8831V42.8263H38.1236V41.7706H39.8831V40.363ZM9.14998 39.3072C9.14998 39.4245 9.97109 41.4187 9.97109 41.536H8.21156C8.21156 41.4187 9.03268 39.4245 9.14998 39.3072ZM6.21743 44.2339H7.15584L7.85966 42.4744H10.323C10.4403 42.709 10.5576 43.0609 10.6749 43.2955C10.6749 43.5301 10.9095 44.1166 11.0268 44.2339H11.9652C11.9652 43.9993 10.9095 41.536 10.7922 41.1841C10.5576 40.8322 9.61919 38.2515 9.50188 38.0169H8.68077L6.21743 44.2339ZM39.8831 40.363V41.7706H38.1236V42.8263H39.8831V44.2339H36.5987V38.1342H39.8831C39.8831 38.2515 39.8831 39.3072 39.8831 39.4245C40.0004 39.4245 40.0004 39.4245 40.0004 39.0726C40.0004 38.838 40.0004 38.2515 39.8831 38.0169H36.5987C36.5987 38.1342 36.4814 43.9993 36.5987 44.2339C36.8333 44.2339 39.7658 44.2339 39.8831 44.2339L40.0004 42.8263H38.1236V41.7706H39.8831C40.0004 41.6533 40.0004 41.3014 40.0004 41.0668C40.0004 40.9495 40.0004 40.4803 39.8831 40.363Z" fill="white"/>
</g>
<defs>
<clipPath id="clip0">
<rect width="40" height="44.3623" fill="white"/>
</clipPath>
</defs>
</svg>
