<svg width="50" height="49" viewBox="0 0 50 49" fill="none" xmlns="http://www.w3.org/2000/svg">
<path fill-rule="evenodd" clip-rule="evenodd" d="M41.3074 26.2968L41.3067 26.2975L42.0139 27.0045L24.9762 44.0366L24.9754 44.0373C23.8369 45.1729 21.9945 45.1716 20.8554 44.0382L20.8545 44.0373C19.7152 42.9009 19.7152 41.055 20.8545 39.9186L35.8333 24.9452L20.8564 9.97198C19.717 8.83497 19.718 6.98971 20.8555 5.8522L20.8564 5.85131L21.5636 6.55835C21.5636 6.55834 21.5636 6.55833 21.5636 6.55832L20.8564 5.85131C21.9944 4.71623 23.8393 4.71623 24.9773 5.85131L24.978 5.85208L42.0175 22.8857C43.1424 24.0135 43.1439 25.8764 42.0146 27.0038L41.3074 26.2968Z" fill="#FF0066"/>
<path d="M20.8564 5.85131L20.8555 5.8522C19.718 6.98971 19.717 8.83497 20.8564 9.97198L35.8333 24.9452L20.8545 39.9186C19.7152 41.055 19.7152 42.9009 20.8545 44.0373L20.8554 44.0382C21.9945 45.1716 23.8369 45.1729 24.9754 44.0373L24.9762 44.0366L42.0139 27.0045L41.3067 26.2975L41.3074 26.2968L42.0146 27.0038C43.1439 25.8764 43.1424 24.0135 42.0175 22.8857L24.978 5.85208L24.9773 5.85131C23.8393 4.71623 21.9944 4.71623 20.8564 5.85131ZM20.8564 5.85131L21.5636 6.55835C21.5636 6.55834 21.5636 6.55833 21.5636 6.55832L20.8564 5.85131ZM42.0146 27.0038L41.3074 26.2968M21.5636 6.55832L20.8564 5.85131" stroke="#FF0066" stroke-width="2" stroke-linecap="round" stroke-linejoin="round"/>
</svg>
