<svg width="50" height="51" viewBox="0 0 50 51" fill="none" xmlns="http://www.w3.org/2000/svg">
<g clip-path="url(#clip0)">
<path d="M46.1294 45.1265C45.5688 43.756 44.9977 42.3854 44.3747 41.0357C43.8245 39.8313 43.1184 39.4783 41.7998 39.7794C40.1282 40.1635 38.4877 40.6723 36.8161 41.0149C33.5871 41.6898 30.3477 41.7521 27.1602 40.745C23.1628 39.4887 21.0344 36.5919 19.7262 32.8541H30.5657C31.4171 32.8541 32.1024 32.1688 32.1024 31.3174V27.9015C32.1024 27.0501 31.4171 26.3649 30.5657 26.3649H18.6879C18.6879 25.4097 18.6775 24.496 18.6879 23.5823H30.5657C31.4171 23.5823 32.1024 22.8971 32.1024 22.0457V18.6298C32.1024 17.7784 31.4171 17.0931 30.5657 17.0931H20.183C20.183 17.0516 20.183 17.01 20.2038 16.9893C21.4497 14.1548 23.2667 11.881 26.2465 10.6974C29.7143 9.32683 33.2548 9.35798 36.8265 10.0952C38.5189 10.4378 40.1801 10.9569 41.8725 11.3411C43.1081 11.6214 43.8245 11.258 44.354 10.1055C44.9666 8.77655 45.5272 7.42679 46.0879 6.06665C46.6174 4.78958 46.3059 3.88628 45.1015 3.18026C44.8004 3.00375 44.489 2.85839 44.1671 2.7338C39.1626 0.781846 34.0024 0.0550553 28.6761 0.906439C24.9279 1.50864 21.4289 2.7961 18.4075 5.14259C14.5971 8.09129 12.126 11.9848 10.6932 16.5636L10.5167 17.0931H5.17995C4.32857 17.0931 3.64331 17.7784 3.64331 18.6298V22.0457C3.64331 22.8971 4.32857 23.5823 5.17995 23.5823H9.38496C9.38496 24.5168 9.38496 25.4201 9.38496 26.3649H5.17995C4.32857 26.3649 3.64331 27.0501 3.64331 27.9015V31.3174C3.64331 32.1688 4.32857 32.8541 5.17995 32.8541H10.2467C10.6309 34.1 10.9528 35.3667 11.4407 36.5607C14.0053 42.7488 18.3037 47.1511 24.7722 49.2484C30.1193 50.9823 35.5079 50.9304 40.8965 49.4457C42.2982 49.0615 43.6895 48.5632 45.0185 47.9506C46.3059 47.3588 46.6382 46.362 46.1294 45.1265Z" fill="#29ABE2"/>
</g>
<defs>
<clipPath id="clip0">
<rect width="50" height="50" fill="white" transform="translate(0 0.554688)"/>
</clipPath>
</defs>
</svg>
