<?xml version="1.0" encoding="utf-8"?>
<!-- Generator: Adobe Illustrator 25.0.0, SVG Export Plug-In . SVG Version: 6.00 Build 0)  -->
<svg version="1.1" id="Capa_1" xmlns="http://www.w3.org/2000/svg" xmlns:xlink="http://www.w3.org/1999/xlink" x="0px" y="0px"
	width="70" height="70"
	 viewBox="0 0 60 60" style="enable-background:new 0 0 60 60;" xml:space="preserve">
<style type="text/css">
	.st0{fill:#FFFFFF;}
	.st1{fill:#E4C461;}
</style>
<g>
	<path class="st0" d="M1.4,35.7l3.7-18h6.3L8.7,30.8h4.8l-1,4.9H1.4z"/>
	<path class="st0" d="M36,35.7l0.1-2.5h-2.5l-1,2.5h-6.1l8.1-18h6.9l0.8,18H36z M36.7,24L35,28.9h1.3L36.7,24z"/>
	<path class="st0" d="M59.2,25.5c-0.7,2.7-2.8,4-5.4,4.1c-1.1,0-3.5,0-3.5,0L49,35.8h-6l3.7-18h9.2c2.9,0,4.4,1.6,4,4
		c-0.1,0.4-0.2,1.1-0.3,1.9C59.4,24.3,59.3,25.1,59.2,25.5z M53.5,21.9c-0.1-0.3-0.3-0.5-0.8-0.5H52l-1.1,4.8c0,0,0.4,0,0.7,0
		c0.4,0,0.9-0.3,1.1-0.7c0.1-0.2,0.5-1.9,0.6-2.2C53.4,22.8,53.6,22.2,53.5,21.9z"/>
	<polygon class="st0" points="25.9,35.7 26.9,30.8 14.4,30.8 13.4,35.7 	"/>
	<polygon class="st0" points="27.2,29.1 28.2,24.2 15.7,24.2 14.7,29.1 	"/>
	<polygon class="st1" points="49,37.4 1,37.4 0,42.3 	"/>
	<polygon class="st0" points="29.5,17.7 17.1,17.7 16.1,22.6 28.5,22.6 	"/>
</g>
</svg>
