<svg width="84" height="80" viewBox="0 0 84 80" fill="none" xmlns="http://www.w3.org/2000/svg">
<path d="M49.7665 19.6685L44.9812 19.0055L42.8278 15.0276C42.11 13.7016 40.9137 13.7016 40.1959 15.0276L38.0426 19.0055L33.2573 19.6685C31.5824 19.8895 31.1039 20.9944 32.5395 22.0994L36.1284 25.1933L35.4107 29.6132C35.1714 31.1602 36.1284 31.8232 37.564 31.1602L41.3922 28.9502L45.699 30.9392C47.1346 31.6022 48.0916 30.9392 47.8524 29.3922L47.1346 24.9723L50.7235 21.8784C51.6806 20.9944 51.4413 19.8895 49.7665 19.6685Z" fill="#FFCE00"/>
<path d="M64.1222 1.76796V6.62984V8.3978H66.0363H80.392C80.8705 8.3978 81.1098 8.61879 81.1098 9.06078V21.2155C81.1098 27.4033 75.846 32.2652 69.1467 32.2652H64.1222H62.9259L62.4473 33.1492C60.7725 36.6851 57.6621 40.442 54.0732 43.094L52.3983 44.4199C49.0487 46.8509 47.1346 50.6078 47.1346 54.5857V59.0056H35.4108V55.4697C35.4108 51.0498 33.2574 46.8509 29.6685 44.1989L28.4722 43.315C24.8832 40.663 21.7728 36.9061 20.098 33.3702L19.6195 32.4862H18.4232H13.6379C6.93859 32.4862 1.67483 27.6243 1.67483 21.4365V8.83979C1.67483 8.3978 1.91409 8.1768 2.39262 8.1768H16.7483H18.6624V6.62984V1.76796H64.1222ZM41.3923 38.6741C44.5027 38.6741 47.6131 38.0111 50.7235 36.4641C53.1161 35.3592 55.0302 33.3702 56.4658 31.1603C59.8155 25.6354 59.8155 19.4475 56.4658 14.3647C53.3554 9.50277 47.6131 6.62984 41.6316 6.62984C38.5212 6.62984 35.4108 7.29283 32.3004 8.83979C29.9077 9.94476 27.9936 11.9337 26.5581 14.1437C23.2084 19.6685 23.2084 25.8564 26.5581 30.9393C29.6685 35.5801 35.4108 38.6741 41.3923 38.6741ZM63.8829 29.6133H65.797H69.1467C74.1712 29.6133 78.2386 25.8564 78.2386 21.2155V12.3757V10.8287H76.3245H65.797H63.8829V12.5967V26.7404C63.8829 26.9614 63.8829 27.1823 63.8829 27.4033V27.8453V29.6133ZM13.6379 29.6133H16.9876H18.9017L18.6624 27.8453V27.4033C18.6624 27.1823 18.6624 26.9614 18.6624 26.7404V12.3757V10.8287H16.7483H6.22081H4.54597V12.5967V21.2155C4.54597 25.8564 8.61343 29.6133 13.6379 29.6133ZM66.0363 0H16.7483V6.40885H2.39262C0.957047 6.40885 0 7.51382 0 8.61879V20.7735C0 27.8453 6.22081 33.3702 13.6379 33.3702H18.6624C20.5765 37.5691 23.9262 41.105 27.5151 43.9779L28.7114 44.8619C32.0611 47.2929 33.9752 51.0498 33.9752 54.8067V60.1106H49.2879V54.1437C49.2879 50.8288 50.9628 47.5139 53.8339 45.3039L55.5087 43.9779C59.0977 41.326 62.4473 37.5691 64.3614 33.3702H69.3859C77.0423 33.3702 83.0239 27.6243 83.0239 20.7735V8.83979C83.0239 7.51382 81.8276 6.62984 80.6312 6.62984H66.2755V0H66.0363ZM41.3923 36.9061C30.147 36.9061 21.5336 25.8564 27.9936 14.8066C29.1899 12.8177 30.8648 11.2707 33.0181 10.1658C35.8893 8.83979 38.7604 8.1768 41.3923 8.1768C52.6376 8.1768 61.251 19.2265 54.791 30.2763C53.5947 32.2652 51.9198 33.8122 49.7665 34.9172C46.8953 36.2431 44.0242 36.9061 41.3923 36.9061ZM65.797 27.8453C65.797 27.4033 65.797 26.9614 65.797 26.5194V12.3757H76.3245V20.9945C76.3245 24.7514 72.9749 27.8453 68.9074 27.8453H65.797ZM13.6379 27.8453C9.57047 27.8453 6.22081 24.7514 6.22081 20.9945V12.3757H16.7483V26.5194C16.7483 26.9614 16.7483 27.4033 16.7483 27.8453H13.6379Z" fill="white"/>
<path d="M54.7907 60.3315C57.6618 60.3315 60.0544 62.5414 60.0544 65.1934V72.7072V74.4751H61.9685H65.3182V78.232H17.7051V74.4751H21.0548H22.9689V72.7072V65.1934C22.9689 62.5414 25.3615 60.3315 28.2326 60.3315H54.7907ZM54.7907 58.7845H27.9934C24.1652 58.7845 20.8155 61.6574 20.8155 65.4144V72.9282H15.791V80H66.993V72.9282H61.9685V65.4144C61.7293 61.6574 58.6189 58.7845 54.7907 58.7845Z" fill="white"/>
<path d="M50.9633 65.4144V70.4973H31.8223V65.4144H50.9633ZM52.6382 63.8674H29.9082V72.2652H52.6382V63.8674Z" fill="white"/>
</svg>
