<svg width="30" height="27" viewBox="0 0 30 27" fill="none" xmlns="http://www.w3.org/2000/svg">
<path fill-rule="evenodd" clip-rule="evenodd" d="M25.1504 2.92969H29.1211C29.6065 2.92969 30 3.3232 30 3.80859V26.0742C30 26.5596 29.6065 26.9531 29.1211 26.9531H0.878906C0.393516 26.9531 0 26.5596 0 26.0742V3.80859C0 3.3232 0.393516 2.92969 0.878906 2.92969H4.84957C5.24754 1.25209 6.75715 0 8.55469 0C10.3522 0 11.8618 1.25209 12.2597 2.92969H17.7402C18.1382 1.25209 19.6478 0 21.4453 0C23.2429 0 24.7525 1.25209 25.1504 2.92969ZM23.2978 2.92969C22.968 2.23746 22.2617 1.75781 21.4453 1.75781C20.6289 1.75781 19.9226 2.23746 19.5928 2.92969H23.2978ZM8.55467 1.75781C9.37106 1.75781 10.0774 2.23746 10.4072 2.92969H6.70217C7.03193 2.23746 7.73828 1.75781 8.55467 1.75781ZM1.75781 25.1953H28.2422V4.6875H19.5928C19.9226 5.37973 20.6289 5.85938 21.4453 5.85938C21.9307 5.85938 22.3242 6.25289 22.3242 6.73828C22.3242 7.22367 21.9307 7.61719 21.4453 7.61719C19.6478 7.61719 18.1382 6.3651 17.7402 4.6875H6.70219C7.03195 5.37973 7.7383 5.85938 8.55469 5.85938C9.04008 5.85938 9.43359 6.25289 9.43359 6.73828C9.43359 7.22367 9.04008 7.61719 8.55469 7.61719C6.75715 7.61719 5.24754 6.3651 4.84957 4.6875H1.75781V25.1953Z" fill="#FF0066"/>
<path fill-rule="evenodd" clip-rule="evenodd" d="M26.0742 8.90625H3.92578C3.44039 8.90625 3.04688 9.29977 3.04688 9.78516V23.0273C3.04688 23.5127 3.44039 23.9062 3.92578 23.9062H26.0742C26.5596 23.9062 26.9531 23.5127 26.9531 23.0273V9.78516C26.9531 9.29977 26.5596 8.90625 26.0742 8.90625ZM8.52539 22.1484H4.80469V19.4922H8.52539V22.1484ZM4.80469 17.7344H8.52539V15.0781H4.80469V17.7344ZM8.52539 13.3203H4.80469V10.6641H8.52539V13.3203ZM10.2832 22.1484H14.0625V19.4922H10.2832V22.1484ZM14.0625 17.7344H10.2832V15.0781H14.0625V17.7344ZM10.2832 13.3203H14.0625V10.6641H10.2832V13.3203ZM19.5996 22.1484H15.8203V19.4922H19.5996V22.1484ZM15.8203 17.7344H19.5996V15.0782H15.8203V17.7344ZM19.5996 13.3203H15.8203V10.6641H19.5996V13.3203ZM21.3574 22.1484H25.1953V19.4922H21.3574V22.1484ZM25.1953 17.7344H21.3574V15.0782H25.1953V17.7344ZM21.3574 13.3203H25.1953V10.6641H21.3574V13.3203Z" fill="#FF0066"/>
</svg>
