<svg width="70" height="70" viewBox="0 0 70 70" fill="none" xmlns="http://www.w3.org/2000/svg">
<path d="M39.4949 26.7116C37.8871 22.1723 31.731 24.7129 29.6079 25.237L31.6155 32.7256C33.7297 32.1837 40.2856 31.6152 39.4949 26.7116Z" fill="#0AC18E"/>
<path d="M32.4595 36.5544L34.6625 44.8069C37.1943 44.1407 44.8605 43.4656 44.1143 37.9491C42.8529 33.0899 35.0001 35.8881 32.4595 36.5544Z" fill="#0AC18E"/>
<path d="M35 0C15.6701 0 0 15.6701 0 35C0 54.33 15.6701 70 35 70C54.33 70 70 54.33 70 35C70 15.6701 54.33 0 35 0ZM42.4886 47.5431L44.0964 53.7703L40.3477 54.7386L38.7487 48.4937C37.7716 48.7513 36.7678 49 35.7373 49.2398L37.3452 55.5203L33.5964 56.4886L31.9886 50.2525C31.1091 50.4746 24.4112 52.1891 24.4112 52.1891L24.0025 47.5076C24.0025 47.5076 26.7919 46.8414 26.7297 46.8058C27.7779 46.5216 27.8668 45.6865 27.8135 45.198L23.4429 28.302C23.1053 27.5825 22.3858 26.8185 20.8579 27.2183C20.8845 27.1561 18.1307 27.9289 18.1307 27.9289L17.1003 23.9137C17.1003 23.9137 23.8604 22.1815 24.6688 21.9505L23.0787 15.7855L26.8274 14.8173L28.3909 20.9289C29.3947 20.6447 30.4074 20.4315 31.3934 20.1827L29.8299 14.0355L33.5787 13.0673L35.1688 19.2322C40.1168 18.4061 44.1586 19.2589 45.9175 23.2475C47.0812 26.4188 46.1307 28.8439 44.2563 30.5051C47.3033 30.816 50.9721 33.5698 51.5051 36.9277C52.3401 42.4975 48.2627 46.1396 42.4886 47.5431Z" fill="#0AC18E"/>
</svg>
