<?xml version="1.0" encoding="utf-8"?>
<!-- Generator: Adobe Illustrator 26.0.2, SVG Export Plug-In . SVG Version: 6.00 Build 0)  -->
<svg version="1.1" width="70" height="70" id="Layer_1" xmlns="http://www.w3.org/2000/svg" xmlns:xlink="http://www.w3.org/1999/xlink" x="0px" y="0px"
	 viewBox="0 0 70 70" style="enable-background:new 0 0 70 70;" xml:space="preserve">
<style type="text/css">
	.st0{fill:#26A17B;}
	.st1{fill:#343434;}
	.st2{fill:#8C8C8C;}
	.st3{fill:#3C3C3B;}
	.st4{fill:#141414;}
	.st5{fill:#393939;}
</style>
<path class="st0" d="M35,0C15.7,0,0,15.7,0,35s15.7,35,35,35s35-15.7,35-35S54.3,0,35,0z M38.7,39.7v16.7h-8.6V39.7
	c-9.7-0.5-16.9-2.4-16.9-4.7s7.3-4.2,16.9-4.7v-5.2H18.2v-7.9h32.4v7.9H38.7v5.2l0,0c9.7,0.4,16.9,2.4,16.9,4.7
	C55.7,37.3,48.4,39.2,38.7,39.7z"/>
<path class="st0" d="M38.7,30.9v5.8c-0.2,0-1.6,0.1-4.2,0.1c-2.2,0-3.8-0.1-4.4-0.1v-5.8c-8.5,0.4-14.9,1.9-14.9,3.6
	c0,1.8,6.4,3.3,14.9,3.6l0,0c0.6,0,2.1,0.1,4.3,0.1c2.8,0,4-0.1,4.3-0.1l0,0l0,0c8.5-0.4,14.9-1.9,14.9-3.6
	C53.6,32.8,47.3,31.3,38.7,30.9z"/>
<g>
	<polygon class="st1" points="55.6,28.3 55.3,29.2 55.3,56.1 55.6,56.4 68.1,49 	"/>
	<polygon class="st2" points="55.6,28.3 43.1,49 55.6,56.4 55.6,43.3 	"/>
	<polygon class="st3" points="55.6,58.8 55.4,59 55.4,68.5 55.6,69 68.1,51.4 	"/>
	<polygon class="st2" points="55.6,69 55.6,58.8 43.1,51.4 	"/>
	<polygon class="st4" points="55.6,56.4 68.1,49 55.6,43.3 	"/>
	<polygon class="st5" points="43.1,49 55.6,56.4 55.6,43.3 	"/>
</g>
</svg>
