<svg width="50" height="49" viewBox="0 0 50 49" fill="none" xmlns="http://www.w3.org/2000/svg">
<mask id="path-1-outside-1_8028_19836" maskUnits="userSpaceOnUse" x="5" y="5" width="40" height="39" fill="black">
<rect fill="white" x="5" y="5" width="40" height="39"/>
<path fill-rule="evenodd" clip-rule="evenodd" d="M40.2826 15.913H38.3176L28.7674 6.36287C28.2836 5.87904 27.4989 5.87904 27.015 6.36287L24.1739 9.20412L21.3327 6.36287C20.8489 5.87904 20.0642 5.87904 19.5803 6.36287L10.0302 15.913H7.23916C6.55479 15.913 6 16.4678 6 17.1521V41.9347C6 42.619 6.55479 43.1739 7.23916 43.1739H35.3261H40.2826C42.3324 43.1739 44 41.5063 44 39.4565V34.4999V24.5869V19.6304C44 17.5805 42.3324 15.913 40.2826 15.913ZM27.8913 8.99143L34.8129 15.913H30.8829L25.9263 10.9564L27.8913 8.99143ZM23.2978 11.8327L20.4565 8.99143L13.535 15.913H27.3781L23.2978 11.8327ZM36.5652 39.4566C36.5652 40.1399 36.0093 40.6958 35.326 40.6958H8.47821V18.3914H10.5434H30.3695H35.326C36.0093 18.3914 36.5652 18.9473 36.5652 19.6306V23.348H32.8478C29.4315 23.348 26.6522 26.1273 26.6522 29.5436C26.6522 32.9599 29.4315 35.7393 32.8478 35.7393H36.5652V39.4566ZM40.2826 40.6959C40.9659 40.6959 41.5218 40.1399 41.5218 39.4567V35.7393H39.0435V39.4567C39.0435 39.8911 38.9679 40.308 38.8304 40.6959H40.2826ZM41.5218 33.2607H37.8044H32.8478C30.798 33.2607 29.1304 31.5931 29.1304 29.5433C29.1304 27.4936 30.798 25.8259 32.8478 25.8259H37.8044H41.5218V33.2607ZM39.0435 23.348H41.5218V19.6306C41.5218 18.9473 40.9659 18.3914 40.2826 18.3914H38.8304C38.968 18.7793 39.0435 19.1963 39.0435 19.6306V23.348Z"/>
</mask>
<path fill-rule="evenodd" clip-rule="evenodd" d="M40.2826 15.913H38.3176L28.7674 6.36287C28.2836 5.87904 27.4989 5.87904 27.015 6.36287L24.1739 9.20412L21.3327 6.36287C20.8489 5.87904 20.0642 5.87904 19.5803 6.36287L10.0302 15.913H7.23916C6.55479 15.913 6 16.4678 6 17.1521V41.9347C6 42.619 6.55479 43.1739 7.23916 43.1739H35.3261H40.2826C42.3324 43.1739 44 41.5063 44 39.4565V34.4999V24.5869V19.6304C44 17.5805 42.3324 15.913 40.2826 15.913ZM27.8913 8.99143L34.8129 15.913H30.8829L25.9263 10.9564L27.8913 8.99143ZM23.2978 11.8327L20.4565 8.99143L13.535 15.913H27.3781L23.2978 11.8327ZM36.5652 39.4566C36.5652 40.1399 36.0093 40.6958 35.326 40.6958H8.47821V18.3914H10.5434H30.3695H35.326C36.0093 18.3914 36.5652 18.9473 36.5652 19.6306V23.348H32.8478C29.4315 23.348 26.6522 26.1273 26.6522 29.5436C26.6522 32.9599 29.4315 35.7393 32.8478 35.7393H36.5652V39.4566ZM40.2826 40.6959C40.9659 40.6959 41.5218 40.1399 41.5218 39.4567V35.7393H39.0435V39.4567C39.0435 39.8911 38.9679 40.308 38.8304 40.6959H40.2826ZM41.5218 33.2607H37.8044H32.8478C30.798 33.2607 29.1304 31.5931 29.1304 29.5433C29.1304 27.4936 30.798 25.8259 32.8478 25.8259H37.8044H41.5218V33.2607ZM39.0435 23.348H41.5218V19.6306C41.5218 18.9473 40.9659 18.3914 40.2826 18.3914H38.8304C38.968 18.7793 39.0435 19.1963 39.0435 19.6306V23.348Z" fill="#4ECB4A"/>
<path d="M38.3176 15.913L37.964 16.2665C38.0578 16.3603 38.185 16.413 38.3176 16.413V15.913ZM28.7674 6.36287L28.4139 6.71643L28.4139 6.71643L28.7674 6.36287ZM27.015 6.36287L26.6615 6.00929L26.6615 6.00933L27.015 6.36287ZM24.1739 9.20412L23.8204 9.55767C23.9142 9.65144 24.0413 9.70412 24.174 9.70412C24.3066 9.70411 24.4337 9.65143 24.5275 9.55766L24.1739 9.20412ZM21.3327 6.36287L21.6863 6.00932L21.6863 6.00932L21.3327 6.36287ZM19.5803 6.36287L19.2268 6.00929L19.2268 6.00932L19.5803 6.36287ZM10.0302 15.913V16.413C10.1628 16.413 10.29 16.3603 10.3838 16.2665L10.0302 15.913ZM34.8129 15.913V16.413C35.0151 16.413 35.1974 16.2912 35.2748 16.1043C35.3522 15.9175 35.3094 15.7024 35.1665 15.5594L34.8129 15.913ZM27.8913 8.99143L28.2449 8.63787C28.1511 8.54411 28.0239 8.49143 27.8913 8.49143C27.7587 8.49143 27.6315 8.54411 27.5378 8.63787L27.8913 8.99143ZM30.8829 15.913L30.5293 16.2665C30.6231 16.3603 30.7503 16.413 30.8829 16.413V15.913ZM25.9263 10.9564L25.5728 10.6029C25.3775 10.7982 25.3775 11.1147 25.5728 11.31L25.9263 10.9564ZM20.4565 8.99143L20.8101 8.63787C20.7163 8.54411 20.5892 8.49143 20.4565 8.49143C20.3239 8.49143 20.1968 8.54411 20.103 8.63787L20.4565 8.99143ZM23.2978 11.8327L23.6513 11.4791L23.6513 11.4791L23.2978 11.8327ZM13.535 15.913L13.1814 15.5594C13.0384 15.7024 12.9956 15.9175 13.073 16.1043C13.1504 16.2912 13.3327 16.413 13.535 16.413V15.913ZM27.3781 15.913V16.413C27.5803 16.413 27.7627 16.2912 27.84 16.1043C27.9174 15.9175 27.8747 15.7024 27.7317 15.5594L27.3781 15.913ZM8.47821 40.6958H7.97821C7.97821 40.9719 8.20207 41.1958 8.47821 41.1958V40.6958ZM8.47821 18.3914V17.8914C8.20207 17.8914 7.97821 18.1153 7.97821 18.3914H8.47821ZM36.5652 23.348V23.848C36.8413 23.848 37.0652 23.6241 37.0652 23.348H36.5652ZM36.5652 35.7393H37.0652C37.0652 35.4631 36.8413 35.2393 36.5652 35.2393V35.7393ZM41.5218 35.7393H42.0218C42.0218 35.4632 41.7979 35.2393 41.5218 35.2393V35.7393ZM39.0435 35.7393V35.2393C38.7674 35.2393 38.5435 35.4632 38.5435 35.7393H39.0435ZM38.8304 40.6959L38.3591 40.5288C38.3048 40.6818 38.3283 40.8517 38.422 40.9843C38.5157 41.117 38.668 41.1959 38.8304 41.1959V40.6959ZM41.5218 33.2607V33.7607C41.7979 33.7607 42.0218 33.5369 42.0218 33.2607H41.5218ZM41.5218 25.8259H42.0218C42.0218 25.5498 41.7979 25.3259 41.5218 25.3259V25.8259ZM41.5218 23.348V23.848C41.7979 23.848 42.0218 23.6241 42.0218 23.348H41.5218ZM39.0435 23.348H38.5435C38.5435 23.6241 38.7674 23.848 39.0435 23.848V23.348ZM38.8304 18.3914V17.8914C38.6679 17.8914 38.5157 17.9703 38.422 18.103C38.3283 18.2356 38.3048 18.4055 38.3591 18.5586L38.8304 18.3914ZM38.3176 16.413H40.2826V15.413H38.3176V16.413ZM28.4139 6.71643L37.964 16.2665L38.6711 15.5594L29.121 6.00932L28.4139 6.71643ZM27.3686 6.71646C27.6572 6.42783 28.1253 6.42787 28.4139 6.71643L29.121 6.00932C28.4419 5.33021 27.3407 5.33025 26.6615 6.00929L27.3686 6.71646ZM24.5275 9.55766L27.3686 6.71642L26.6615 6.00933L23.8204 8.85057L24.5275 9.55766ZM20.9792 6.71643L23.8204 9.55767L24.5275 8.85056L21.6863 6.00932L20.9792 6.71643ZM19.9339 6.71645C20.2225 6.42783 20.6906 6.42787 20.9792 6.71643L21.6863 6.00932C21.0071 5.33021 19.9059 5.33025 19.2268 6.00929L19.9339 6.71645ZM10.3838 16.2665L19.9339 6.71643L19.2268 6.00932L9.67667 15.5594L10.3838 16.2665ZM7.23916 16.413H10.0302V15.413H7.23916V16.413ZM6.5 17.1521C6.5 16.744 6.83095 16.413 7.23916 16.413V15.413C6.27862 15.413 5.5 16.1917 5.5 17.1521H6.5ZM6.5 41.9347V17.1521H5.5V41.9347H6.5ZM7.23916 42.6739C6.83095 42.6739 6.5 42.3429 6.5 41.9347H5.5C5.5 42.8952 6.27862 43.6739 7.23916 43.6739V42.6739ZM35.3261 42.6739H7.23916V43.6739H35.3261V42.6739ZM40.2826 42.6739H35.3261V43.6739H40.2826V42.6739ZM43.5 39.4565C43.5 41.2301 42.0562 42.6739 40.2826 42.6739V43.6739C42.6085 43.6739 44.5 41.7824 44.5 39.4565H43.5ZM43.5 34.4999V39.4565H44.5V34.4999H43.5ZM43.5 24.5869V34.4999H44.5V24.5869H43.5ZM43.5 19.6304V24.5869H44.5V19.6304H43.5ZM40.2826 16.413C42.0562 16.413 43.5 17.8567 43.5 19.6304H44.5C44.5 17.3044 42.6085 15.413 40.2826 15.413V16.413ZM35.1665 15.5594L28.2449 8.63787L27.5378 9.34498L34.4593 16.2665L35.1665 15.5594ZM30.8829 16.413H34.8129V15.413H30.8829V16.413ZM25.5728 11.31L30.5293 16.2665L31.2364 15.5594L26.2799 10.6029L25.5728 11.31ZM27.5378 8.63787L25.5728 10.6029L26.2799 11.31L28.2449 9.34498L27.5378 8.63787ZM20.103 9.34498L22.9442 12.1862L23.6513 11.4791L20.8101 8.63787L20.103 9.34498ZM13.8885 16.2665L20.8101 9.34498L20.103 8.63787L13.1814 15.5594L13.8885 16.2665ZM27.3781 15.413H13.535V16.413H27.3781V15.413ZM22.9442 12.1862L27.0246 16.2665L27.7317 15.5594L23.6513 11.4791L22.9442 12.1862ZM35.326 41.1958C36.2854 41.1958 37.0652 40.4161 37.0652 39.4566H36.0652C36.0652 39.8638 35.7331 40.1958 35.326 40.1958V41.1958ZM8.47821 41.1958H35.326V40.1958H8.47821V41.1958ZM7.97821 18.3914V40.6958H8.97821V18.3914H7.97821ZM10.5434 17.8914H8.47821V18.8914H10.5434V17.8914ZM30.3695 17.8914H10.5434V18.8914H30.3695V17.8914ZM35.326 17.8914H30.3695V18.8914H35.326V17.8914ZM37.0652 19.6306C37.0652 18.6712 36.2854 17.8914 35.326 17.8914V18.8914C35.7331 18.8914 36.0652 19.2235 36.0652 19.6306H37.0652ZM37.0652 23.348V19.6306H36.0652V23.348H37.0652ZM32.8478 23.848H36.5652V22.848H32.8478V23.848ZM27.1522 29.5436C27.1522 26.4035 29.7076 23.848 32.8478 23.848V22.848C29.1554 22.848 26.1522 25.8512 26.1522 29.5436H27.1522ZM32.8478 35.2393C29.7076 35.2393 27.1522 32.6838 27.1522 29.5436H26.1522C26.1522 33.2361 29.1554 36.2393 32.8478 36.2393V35.2393ZM36.5652 35.2393H32.8478V36.2393H36.5652V35.2393ZM37.0652 39.4566V35.7393H36.0652V39.4566H37.0652ZM41.0218 39.4567C41.0218 39.8638 40.6897 40.1959 40.2826 40.1959V41.1959C41.242 41.1959 42.0218 40.4161 42.0218 39.4567H41.0218ZM41.0218 35.7393V39.4567H42.0218V35.7393H41.0218ZM39.0435 36.2393H41.5218V35.2393H39.0435V36.2393ZM39.5435 39.4567V35.7393H38.5435V39.4567H39.5435ZM39.3016 40.8629C39.4576 40.4229 39.5435 39.9496 39.5435 39.4567H38.5435C38.5435 39.8326 38.4781 40.1931 38.3591 40.5288L39.3016 40.8629ZM40.2826 40.1959H38.8304V41.1959H40.2826V40.1959ZM37.8044 33.7607H41.5218V32.7607H37.8044V33.7607ZM32.8478 33.7607H37.8044V32.7607H32.8478V33.7607ZM28.6304 29.5433C28.6304 31.8693 30.5219 33.7607 32.8478 33.7607V32.7607C31.0742 32.7607 29.6304 31.317 29.6304 29.5433H28.6304ZM32.8478 25.3259C30.5219 25.3259 28.6304 27.2174 28.6304 29.5433H29.6304C29.6304 27.7697 31.0742 26.3259 32.8478 26.3259V25.3259ZM37.8044 25.3259H32.8478V26.3259H37.8044V25.3259ZM41.5218 25.3259H37.8044V26.3259H41.5218V25.3259ZM42.0218 33.2607V25.8259H41.0218V33.2607H42.0218ZM41.5218 22.848H39.0435V23.848H41.5218V22.848ZM41.0218 19.6306V23.348H42.0218V19.6306H41.0218ZM40.2826 18.8914C40.6897 18.8914 41.0218 19.2234 41.0218 19.6306H42.0218C42.0218 18.6711 41.242 17.8914 40.2826 17.8914V18.8914ZM38.8304 18.8914H40.2826V17.8914H38.8304V18.8914ZM39.5435 19.6306C39.5435 19.1379 39.4577 18.6644 39.3016 18.2243L38.3591 18.5586C38.4782 18.8942 38.5435 19.2547 38.5435 19.6306H39.5435ZM39.5435 23.348V19.6306H38.5435V23.348H39.5435Z" fill="#4ECB4A" mask="url(#path-1-outside-1_8028_19836)"/>
<path d="M32.8478 31.0326C33.6702 31.0326 34.337 30.3659 34.337 29.5434C34.337 28.721 33.6702 28.0543 32.8478 28.0543C32.0254 28.0543 31.3586 28.721 31.3586 29.5434C31.3586 30.3659 32.0254 31.0326 32.8478 31.0326Z" fill="#4ECB4A" stroke="#4ECB4A" stroke-width="0.5" stroke-linejoin="round"/>
</svg>
