<svg width="70" height="70" viewBox="0 0 70 70" fill="none" xmlns="http://www.w3.org/2000/svg">
<g clip-path="url(#clip0)">
<path d="M35 0C28.0776 0 21.3108 2.05271 15.555 5.89856C9.79932 9.74441 5.3133 15.2106 2.66423 21.606C0.0151634 28.0015 -0.677951 35.0388 0.672531 41.8282C2.02301 48.6175 5.35643 54.8539 10.2513 59.7487C15.1461 64.6436 21.3825 67.977 28.1719 69.3275C34.9612 70.678 41.9985 69.9849 48.3939 67.3358C54.7893 64.6867 60.2556 60.2007 64.1014 54.445C67.9473 48.6893 70 41.9223 70 35C70 25.7174 66.3125 16.815 59.7488 10.2513C53.185 3.68748 44.2826 0 35 0V0ZM50 57.4C48.6698 58.0087 47.2918 58.5071 45.88 58.89C40.6046 60.4397 34.9854 60.37 29.75 58.69C23.28 56.6 18.99 52.19 16.42 46.01C15.93 44.81 15.61 43.54 15.23 42.3H10.16C9.75159 42.3 9.3599 42.1378 9.07109 41.849C8.78228 41.5602 8.62004 41.1684 8.62004 40.76V37.4C8.61871 37.1974 8.65762 36.9966 8.73454 36.8091C8.81146 36.6217 8.92483 36.4513 9.0681 36.3081C9.21137 36.1648 9.3817 36.0514 9.56914 35.9745C9.75658 35.8976 9.95741 35.8587 10.16 35.86H14.37V33.08H10.16C9.75159 33.08 9.3599 32.9177 9.07109 32.6289C8.78228 32.3401 8.62004 31.9484 8.62004 31.54V28.12C8.62004 27.9182 8.6599 27.7185 8.73741 27.5322C8.81493 27.3459 8.92857 27.1768 9.0717 27.0346C9.21484 26.8924 9.38467 26.7799 9.57146 26.7036C9.75824 26.6273 9.95826 26.5887 10.16 26.59H15.5L15.67 26.06C16.9889 21.5411 19.6882 17.548 23.39 14.64C26.3955 12.3736 29.931 10.914 33.66 10.4C38.8939 9.60021 44.2466 10.2326 49.15 12.23C49.471 12.3521 49.782 12.4993 50.0801 12.67C50.3519 12.7746 50.5975 12.9373 50.7999 13.1468C51.0023 13.3562 51.1566 13.6073 51.2518 13.8825C51.3471 14.1578 51.381 14.4505 51.3513 14.7403C51.3216 15.03 51.2291 15.3097 51.0801 15.56C50.5201 16.92 49.9601 18.27 49.3401 19.56C49.2659 19.8091 49.1414 20.0403 48.9743 20.2393C48.8073 20.4384 48.6011 20.6011 48.3686 20.7173C48.1362 20.8335 47.8824 20.9009 47.6229 20.9151C47.3634 20.9293 47.1037 20.8902 46.86 20.8C45.17 20.41 43.51 19.89 41.86 19.55C38.3523 18.6913 34.6681 18.9002 31.28 20.15C29.9082 20.7408 28.6696 21.6024 27.6387 22.6832C26.6077 23.764 25.8055 25.0418 25.28 26.44C25.28 26.44 25.28 26.51 25.28 26.55H35.67C35.8713 26.5487 36.0708 26.5873 36.2571 26.6637C36.4433 26.7401 36.6125 26.8528 36.7549 26.9951C36.8972 27.1375 37.0099 27.3067 37.0863 27.4929C37.1627 27.6791 37.2014 27.8787 37.2001 28.08V31.5C37.2014 31.7017 37.1627 31.9018 37.0864 32.0886C37.0101 32.2754 36.8977 32.4452 36.7555 32.5883C36.6133 32.7315 36.4441 32.8451 36.2578 32.9226C36.0715 33.0001 35.8718 33.04 35.67 33.04H23.66C23.66 33.95 23.66 34.86 23.66 35.82H35.54C35.7418 35.82 35.9415 35.8599 36.1278 35.9374C36.3141 36.0149 36.4833 36.1285 36.6255 36.2716C36.7677 36.4148 36.8801 36.5846 36.9564 36.7714C37.0327 36.9582 37.0714 37.1583 37.0701 37.36V40.77C37.0714 40.9718 37.0327 41.1718 36.9564 41.3586C36.8801 41.5453 36.7677 41.7152 36.6255 41.8584C36.4833 42.0015 36.3141 42.1151 36.1278 42.1926C35.9415 42.2701 35.7418 42.31 35.54 42.31H24.7001C26.0101 46.05 28.13 48.94 32.13 50.2C35.2717 51.1283 38.6013 51.2214 41.79 50.47C43.46 50.13 45.1 49.62 46.79 49.23C47.0419 49.1391 47.3095 49.0997 47.5769 49.1142C47.8443 49.1286 48.106 49.1966 48.3467 49.3141C48.5873 49.4316 48.8018 49.5963 48.9776 49.7982C49.1534 50.0002 49.2868 50.2355 49.37 50.49C49.99 51.84 50.56 53.21 51.12 54.58C51.2542 54.8339 51.3323 55.1137 51.3487 55.4005C51.3652 55.6872 51.3196 55.9741 51.2152 56.2417C51.1108 56.5092 50.9501 56.7512 50.7439 56.9511C50.5376 57.151 50.2907 57.3041 50.02 57.4H50Z" fill="#3FA9F5"/>
</g>
<defs>
<clipPath id="clip0">
<rect width="70" height="70" fill="white"/>
</clipPath>
</defs>
</svg>
