<svg width="50" height="49" viewBox="0 0 50 49" fill="none" xmlns="http://www.w3.org/2000/svg">
<path d="M25 29.75C27.6234 29.75 29.75 27.6234 29.75 25C29.75 22.3766 27.6234 20.25 25 20.25C22.3766 20.25 20.25 22.3766 20.25 25C20.25 27.6234 22.3766 29.75 25 29.75Z" fill="#A1AFC3"/>
<path d="M42.4296 23.7086C40.4657 20.6716 37.9178 18.0917 35.0619 16.2474C31.9024 14.2049 28.4141 13.125 24.9748 13.125C21.819 13.125 18.7159 14.0268 15.7516 15.805C12.7287 17.6182 9.99002 20.2671 7.6113 23.6774C7.34277 24.0628 7.19488 24.5194 7.18642 24.9891C7.17796 25.4587 7.30932 25.9203 7.5638 26.3152C9.52392 29.3826 12.0466 31.9662 14.858 33.7853C18.0235 35.8359 21.4301 36.875 24.9748 36.875C28.4416 36.875 31.9373 35.804 35.0834 33.7786C37.9378 31.9402 40.4806 29.3507 42.437 26.2884C42.6827 25.9028 42.8126 25.4547 42.8113 24.9974C42.81 24.5401 42.6775 24.0928 42.4296 23.7086V23.7086ZM25 32.125C23.5908 32.125 22.2133 31.7071 21.0416 30.9242C19.8699 30.1413 18.9567 29.0285 18.4174 27.7266C17.8781 26.4247 17.737 24.9921 18.0119 23.61C18.2868 22.2279 18.9654 20.9583 19.9619 19.9619C20.9583 18.9654 22.2279 18.2868 23.61 18.0119C24.9921 17.737 26.4247 17.8781 27.7266 18.4174C29.0286 18.9566 30.1413 19.8699 30.9243 21.0416C31.7072 22.2133 32.125 23.5908 32.125 25C32.1229 26.889 31.3715 28.7 30.0358 30.0357C28.7001 31.3715 26.889 32.1228 25 32.125V32.125Z" fill="#A1AFC3"/>
</svg>
