<svg width="70" height="70" viewBox="0 0 70 70" fill="none" xmlns="http://www.w3.org/2000/svg">
<path d="M35.8402 23.0654H30.8394V32.9246H38.707V37.0525H30.8394V46.9109H36.0852C37.433 46.9109 47.1508 47.0632 47.1357 35.4407C47.1207 23.8183 37.7106 23.0654 35.8402 23.0654Z" fill="#C2A633"/>
<path d="M35 0C15.6699 0 0 15.6699 0 35C0 54.3301 15.6699 70 35 70C54.3301 70 70 54.3301 70 35C70 15.6699 54.3301 0 35 0ZM36.3752 53.9035H23.6999V37.0524H19.2318V32.9245H23.6996V16.0723H34.5783C37.1518 16.0723 54.1979 15.5379 54.1979 35.3042C54.1979 55.3973 36.3755 53.9035 36.3755 53.9035H36.3752Z" fill="#C2A633"/>
</svg>
