<svg width="50" height="49" viewBox="0 0 50 49" fill="none" xmlns="http://www.w3.org/2000/svg">
<path fill-rule="evenodd" clip-rule="evenodd" d="M40.5129 8.82046C41.6068 9.91442 41.6068 11.6881 40.5129 12.782L28.6282 24.6667L40.5129 36.5513C41.6068 37.6453 41.6068 39.4189 40.5129 40.5129C39.4189 41.6068 37.6453 41.6068 36.5513 40.5129L24.6667 28.6282L12.782 40.5129C11.6881 41.6068 9.91442 41.6068 8.82046 40.5129C7.72651 39.4189 7.72651 37.6453 8.82046 36.5513L20.7051 24.6667L8.82046 12.782C7.72651 11.6881 7.72651 9.91442 8.82046 8.82046C9.91442 7.72651 11.6881 7.72651 12.782 8.82046L24.6667 20.7051L36.5513 8.82046C37.6453 7.72651 39.4189 7.72651 40.5129 8.82046Z" fill="#FF0066" stroke="#FF0066" stroke-width="2"/>
</svg>
