<svg width="40" height="40" viewBox="0 0 40 40" fill="none" xmlns="http://www.w3.org/2000/svg">
<path fill-rule="evenodd" clip-rule="evenodd" d="M20 0C31.0667 0 40 8.93333 40 20C40 31.0667 31.0667 40 20 40C8.93333 40 0 31.0667 0 20C0 8.93333 8.93333 0 20 0ZM20 1.86667C30 1.86667 38.1333 10 38.1333 20C38.1333 30 30 38.1333 20 38.1333C10 38.1333 1.86667 30 1.86667 20C1.86667 10 10 1.86667 20 1.86667ZM20 3.73333C29 3.73333 36.2667 11 36.2667 20C36.2667 29 29 36.2667 20 36.2667C11 36.2667 3.73333 29 3.73333 20C3.73333 11 11 3.73333 20 3.73333ZM12.3333 26.4H9.93333V17.3333C9.06667 18.2 8.06667 18.8 6.86667 19.2V17C7.53333 16.8 8.2 16.4 8.93333 15.8667C9.66667 15.2667 10.1333 14.6 10.4 13.8667H12.3333V26.4ZM18 19.6667C17.4 19.4 16.9333 19 16.6667 18.6C16.3333 18.1333 16.2 17.6 16.2 17.0667C16.2 16.1333 16.5333 15.4 17.2 14.7333C17.8667 14.1333 18.7333 13.8667 19.9333 13.8667C21.1333 13.8667 22.0667 14.1333 22.7333 14.7333C23.4 15.4 23.6667 16.1333 23.6667 17.0667C23.6667 17.6667 23.5333 18.1333 23.2667 18.6C22.9333 19.0667 22.5333 19.4 22 19.6667C22.6667 19.9333 23.2 20.3333 23.5333 20.8667C23.9333 21.4 24.0667 22 24.0667 22.7333C24.0667 23.8667 23.7333 24.8 23 25.5333C22.2667 26.2667 21.2667 26.6 20.0667 26.6C18.9333 26.6 18 26.3333 17.2667 25.7333C16.3333 25 15.9333 24.0667 15.9333 22.8C15.9333 22.1333 16.0667 21.5333 16.4 20.9333C16.7333 20.4 17.2667 19.9333 18 19.6667ZM18.4667 17.2667C18.4667 17.7333 18.6 18.0667 18.8667 18.3333C19.1333 18.6 19.5333 18.7333 19.9333 18.7333C20.4 18.7333 20.8 18.6 21.0667 18.3333C21.3333 18.0667 21.4667 17.7333 21.4667 17.2667C21.4667 16.8 21.3333 16.4 21.0667 16.1333C20.8 15.8667 20.4 15.7333 20 15.7333C19.5333 15.7333 19.1333 15.8667 18.8667 16.1333C18.6 16.4 18.4667 16.8 18.4667 17.2667ZM18.2667 22.6C18.2667 23.2667 18.4 23.8 18.7333 24.1333C19.1333 24.5333 19.5333 24.7333 20 24.7333C20.5333 24.7333 20.9333 24.5333 21.2667 24.1333C21.5333 23.8 21.7333 23.2667 21.7333 22.6C21.7333 22 21.5333 21.5333 21.2667 21.2C20.9333 20.8667 20.4667 20.6667 20 20.6667C19.4 20.6667 19 20.8667 18.6667 21.2667C18.4 21.6667 18.2667 22.1333 18.2667 22.6ZM28.8667 24.6V21.3333H25.6V19.1333H28.8667V15.8667H31.0667V19.1333H34.3333V21.3333H31.0667V24.6H28.8667Z" fill="white"/>
</svg>
