<svg width="50" height="50" viewBox="0 0 50 50" fill="none" xmlns="http://www.w3.org/2000/svg">
<path fill-rule="evenodd" clip-rule="evenodd" d="M13.8886 8.33331H10.714C9.39904 8.33331 8.33301 9.39934 8.33301 10.7143V13.8889C8.33301 15.2038 9.39904 16.2698 10.714 16.2698H13.8886C15.2035 16.2698 16.2695 15.2038 16.2695 13.8889V10.7143C16.2695 9.39934 15.2035 8.33331 13.8886 8.33331ZM23.4124 8.33331H26.587C27.9019 8.33331 28.9679 9.39934 28.9679 10.7143V13.8889C28.9679 15.2038 27.9019 16.2698 26.587 16.2698H23.4124C22.0974 16.2698 21.0314 15.2038 21.0314 13.8889V10.7143C21.0314 9.39934 22.0974 8.33331 23.4124 8.33331ZM36.1108 8.33331H39.2854C40.6003 8.33331 41.6663 9.39934 41.6663 10.7143V13.8889C41.6663 15.2038 40.6003 16.2698 39.2854 16.2698H36.1108C34.7959 16.2698 33.7298 15.2038 33.7298 13.8889V10.7143C33.7298 9.39934 34.7959 8.33331 36.1108 8.33331ZM10.714 33.7301H13.8886C15.2035 33.7301 16.2695 34.7962 16.2695 36.1111V39.2857C16.2695 40.6006 15.2035 41.6666 13.8886 41.6666H10.714C9.39904 41.6666 8.33301 40.6006 8.33301 39.2857V36.1111C8.33301 34.7962 9.39904 33.7301 10.714 33.7301ZM26.587 21.0317H23.4124C22.0974 21.0317 21.0314 22.0978 21.0314 23.4127V26.5873C21.0314 27.9022 22.0974 28.9682 23.4124 28.9682H26.587C27.9019 28.9682 28.9679 27.9022 28.9679 26.5873V23.4127C28.9679 22.0978 27.9019 21.0317 26.587 21.0317ZM10.714 21.0317H13.8886C15.2035 21.0317 16.2695 22.0978 16.2695 23.4127V26.5873C16.2695 27.9022 15.2035 28.9682 13.8886 28.9682H10.714C9.39904 28.9682 8.33301 27.9022 8.33301 26.5873V23.4127C8.33301 22.0978 9.39904 21.0317 10.714 21.0317Z" fill="#FF0066"/>
<path fill-rule="evenodd" clip-rule="evenodd" d="M36.1106 21.0317H39.2852C40.6001 21.0317 41.6662 22.0978 41.6662 23.4127V26.5873C41.6662 27.9022 40.6001 28.9682 39.2852 28.9682H36.1106C34.7957 28.9682 33.7297 27.9022 33.7297 26.5873V23.4127C33.7297 22.0978 34.7957 21.0317 36.1106 21.0317ZM26.5868 33.7302H23.4122C22.0973 33.7302 21.0312 34.7962 21.0312 36.1111V39.2857C21.0312 40.6006 22.0973 41.6667 23.4122 41.6667H26.5868C27.9017 41.6667 28.9678 40.6006 28.9678 39.2857V36.1111C28.9678 34.7962 27.9017 33.7302 26.5868 33.7302ZM39.2852 33.7302H36.1106C34.7957 33.7302 33.7297 34.7962 33.7297 36.1111V39.2857C33.7297 40.6006 34.7957 41.6667 36.1106 41.6667H39.2852C40.6001 41.6667 41.6662 40.6006 41.6662 39.2857V36.1111C41.6662 34.7962 40.6001 33.7302 39.2852 33.7302Z" fill="#979797"/>
</svg>
