<svg width="31" height="30" viewBox="0 0 31 30" fill="none" xmlns="http://www.w3.org/2000/svg">
    <path fill-rule="evenodd" clip-rule="evenodd"
        d="M23.3436 7.65613C23.8851 8.19764 23.8851 9.07559 23.3436 9.6171L17.4607 15.5L23.3436 21.3829C23.8851 21.9244 23.8851 22.8024 23.3436 23.3439C22.8021 23.8854 21.9242 23.8854 21.3827 23.3439L15.4998 17.461L9.61685 23.3439C9.07535 23.8854 8.19739 23.8854 7.65589 23.3439C7.11438 22.8024 7.11438 21.9244 7.65589 21.3829L13.5388 15.5L7.65589 9.6171C7.11438 9.07559 7.11438 8.19764 7.65589 7.65613C8.19739 7.11462 9.07535 7.11462 9.61685 7.65613L15.4998 13.539L21.3827 7.65613C21.9242 7.11462 22.8021 7.11462 23.3436 7.65613Z"
        fill="white" />
</svg>