<svg width="31" height="30" viewBox="0 0 31 30" fill="none" xmlns="http://www.w3.org/2000/svg">
    <path fill-rule="evenodd" clip-rule="evenodd"
        d="M20.6376 10.0802C20.6376 12.9127 18.3458 16.3337 15.4996 16.3337C12.6534 16.3337 10.3616 12.9127 10.3616 10.0803C10.3616 7.2472 12.6665 4.94226 15.4996 4.94226C18.3327 4.94226 20.6376 7.2472 20.6376 10.0802ZM19.2855 10.0803C19.2855 7.99269 17.5871 6.29434 15.4995 6.29434C13.412 6.29434 11.7137 7.99269 11.7137 10.0803C11.7137 12.2408 13.4961 14.9817 15.4995 14.9817C17.503 14.9817 19.2855 12.2408 19.2855 10.0803Z"
        fill="white" />
    <mask id="path-2-inside-1_3904_1395" fill="white">
        <path
            d="M15.4997 16.4838C16.9853 16.4838 18.3092 15.5921 19.255 14.3606C20.2014 13.1283 20.7877 11.5334 20.7877 10.0802H20.4877C20.4877 11.4596 19.9281 12.9915 19.017 14.1779C18.1053 15.365 16.8603 16.1838 15.4997 16.1838V16.4838ZM10.2117 10.0803C10.2117 11.5334 10.798 13.1283 11.7444 14.3606C12.6902 15.5921 14.0141 16.4838 15.4997 16.4838V16.1838C14.1391 16.1838 12.894 15.365 11.9823 14.1779C11.0713 12.9915 10.5117 11.4597 10.5117 10.0803H10.2117ZM15.4997 4.7923C12.5838 4.7923 10.2117 7.1644 10.2117 10.0803H10.5117C10.5117 7.33008 12.7495 5.0923 15.4997 5.0923V4.7923ZM20.7877 10.0802C20.7877 7.1644 18.4156 4.7923 15.4997 4.7923V5.0923C18.2499 5.0923 20.4877 7.33009 20.4877 10.0802H20.7877ZM15.4996 6.44437C17.5044 6.44437 19.1356 8.07557 19.1356 10.0803H19.4356C19.4356 7.90989 17.6701 6.14437 15.4996 6.14437V6.44437ZM11.8638 10.0803C11.8638 8.07557 13.4949 6.44437 15.4996 6.44437V6.14437C13.3293 6.14437 11.5638 7.90989 11.5638 10.0803H11.8638ZM15.4996 14.8317C14.5668 14.8317 13.6596 14.1902 12.9766 13.2529C12.2961 12.3188 11.8638 11.1237 11.8638 10.0803H11.5638C11.5638 11.1974 12.0227 12.453 12.7342 13.4295C13.4433 14.4028 14.4291 15.1317 15.4996 15.1317V14.8317ZM19.1356 10.0803C19.1356 11.1237 18.7033 12.3188 18.0226 13.2529C17.3397 14.1902 16.4325 14.8317 15.4996 14.8317V15.1317C16.5703 15.1317 17.556 14.4028 18.2651 13.4295C18.9766 12.453 19.4356 11.1974 19.4356 10.0803H19.1356Z" />
    </mask>
    <path
        d="M15.4997 16.4838C16.9853 16.4838 18.3092 15.5921 19.255 14.3606C20.2014 13.1283 20.7877 11.5334 20.7877 10.0802H20.4877C20.4877 11.4596 19.9281 12.9915 19.017 14.1779C18.1053 15.365 16.8603 16.1838 15.4997 16.1838V16.4838ZM10.2117 10.0803C10.2117 11.5334 10.798 13.1283 11.7444 14.3606C12.6902 15.5921 14.0141 16.4838 15.4997 16.4838V16.1838C14.1391 16.1838 12.894 15.365 11.9823 14.1779C11.0713 12.9915 10.5117 11.4597 10.5117 10.0803H10.2117ZM15.4997 4.7923C12.5838 4.7923 10.2117 7.1644 10.2117 10.0803H10.5117C10.5117 7.33008 12.7495 5.0923 15.4997 5.0923V4.7923ZM20.7877 10.0802C20.7877 7.1644 18.4156 4.7923 15.4997 4.7923V5.0923C18.2499 5.0923 20.4877 7.33009 20.4877 10.0802H20.7877ZM15.4996 6.44437C17.5044 6.44437 19.1356 8.07557 19.1356 10.0803H19.4356C19.4356 7.90989 17.6701 6.14437 15.4996 6.14437V6.44437ZM11.8638 10.0803C11.8638 8.07557 13.4949 6.44437 15.4996 6.44437V6.14437C13.3293 6.14437 11.5638 7.90989 11.5638 10.0803H11.8638ZM15.4996 14.8317C14.5668 14.8317 13.6596 14.1902 12.9766 13.2529C12.2961 12.3188 11.8638 11.1237 11.8638 10.0803H11.5638C11.5638 11.1974 12.0227 12.453 12.7342 13.4295C13.4433 14.4028 14.4291 15.1317 15.4996 15.1317V14.8317ZM19.1356 10.0803C19.1356 11.1237 18.7033 12.3188 18.0226 13.2529C17.3397 14.1902 16.4325 14.8317 15.4996 14.8317V15.1317C16.5703 15.1317 17.556 14.4028 18.2651 13.4295C18.9766 12.453 19.4356 11.1974 19.4356 10.0803H19.1356Z"
        fill="white" />
    <path
        d="M20.7877 9.18025H20.4877V10.9802H20.7877V9.18025ZM14.5997 16.1838V16.4838H16.3997V16.1838H14.5997ZM10.5117 9.18032H10.2117V10.9803H10.5117V9.18032ZM16.3997 5.0923V4.7923H14.5997V5.0923H16.3997ZM19.1356 10.9803H19.4356V9.18029H19.1356V10.9803ZM14.5996 6.14437V6.44437H16.3996V6.14437H14.5996ZM11.5638 10.9803H11.8638V9.18029H11.5638V10.9803ZM16.3996 15.1317V14.8317H14.5996V15.1317H16.3996ZM19.255 14.3606L17.8274 13.2642H17.8274L19.255 14.3606ZM19.017 14.1779L20.4446 15.2742H20.4446L19.017 14.1779ZM11.7444 14.3606L13.172 13.2642L13.172 13.2642L11.7444 14.3606ZM11.9823 14.1779L10.5547 15.2742L10.5548 15.2742L11.9823 14.1779ZM12.9766 13.2529L11.5218 14.3129L11.5219 14.3129L12.9766 13.2529ZM12.7342 13.4295L11.2794 14.4895L11.2794 14.4895L12.7342 13.4295ZM18.0226 13.2529L16.5679 12.1929L16.5678 12.1929L18.0226 13.2529ZM18.2651 13.4295L16.8103 12.3695L16.8103 12.3696L18.2651 13.4295ZM15.4997 18.2838C17.7361 18.2838 19.5327 16.9542 20.6826 15.4569L17.8274 13.2642C17.0857 14.2299 16.2345 14.6838 15.4997 14.6838V18.2838ZM20.6826 15.4569C21.8408 13.9488 22.5877 11.976 22.5877 10.0802H18.9877C18.9877 11.0908 18.562 12.3077 17.8274 13.2642L20.6826 15.4569ZM18.6877 10.0802C18.6877 11.0171 18.2887 12.1711 17.5895 13.0815L20.4446 15.2742C21.5676 13.812 22.2877 11.9022 22.2877 10.0802H18.6877ZM17.5895 13.0815C16.8825 14.002 16.1102 14.3838 15.4997 14.3838V17.9838C17.6103 17.9838 19.3282 16.7279 20.4446 15.2742L17.5895 13.0815ZM8.41167 10.0803C8.41167 11.976 9.15861 13.9488 10.3169 15.4569L13.172 13.2642C12.4374 12.3077 12.0117 11.0908 12.0117 10.0803H8.41167ZM10.3168 15.4569C11.4667 16.9542 13.2633 18.2838 15.4997 18.2838V14.6838C14.7649 14.6838 13.9137 14.2299 13.172 13.2642L10.3168 15.4569ZM15.4997 14.3838C14.8891 14.3838 14.1168 14.002 13.4099 13.0815L10.5548 15.2742C11.6712 16.7279 13.3891 17.9838 15.4997 17.9838V14.3838ZM13.4099 13.0815C12.7107 12.1711 12.3117 11.0171 12.3117 10.0803H8.71167C8.71167 11.9022 9.4318 13.812 10.5547 15.2742L13.4099 13.0815ZM15.4997 2.9923C11.5896 2.9923 8.41167 6.17029 8.41167 10.0803H12.0117C12.0117 8.15851 13.5779 6.5923 15.4997 6.5923V2.9923ZM12.3117 10.0803C12.3117 8.3242 13.7436 6.8923 15.4997 6.8923V3.2923C11.7554 3.2923 8.71167 6.33596 8.71167 10.0803H12.3117ZM22.5877 10.0802C22.5877 6.17027 19.4097 2.9923 15.4997 2.9923V6.5923C17.4215 6.5923 18.9877 8.15853 18.9877 10.0802H22.5877ZM15.4997 6.8923C17.2558 6.8923 18.6877 8.32423 18.6877 10.0802H22.2877C22.2877 6.33595 19.244 3.2923 15.4997 3.2923V6.8923ZM15.4996 8.24437C16.5103 8.24437 17.3356 9.0697 17.3356 10.0803H20.9356C20.9356 7.08144 18.4985 4.64437 15.4996 4.64437V8.24437ZM21.2356 10.0803C21.2356 6.91577 18.6642 4.34437 15.4996 4.34437V7.94437C16.676 7.94437 17.6356 8.904 17.6356 10.0803H21.2356ZM13.6638 10.0803C13.6638 9.06966 14.4891 8.24437 15.4996 8.24437V4.64437C12.5008 4.64437 10.0638 7.08148 10.0638 10.0803H13.6638ZM15.4996 4.34437C12.3351 4.34437 9.76376 6.91579 9.76376 10.0803H13.3638C13.3638 8.90398 14.3234 7.94437 15.4996 7.94437V4.34437ZM15.4996 13.0317C15.3929 13.0317 14.9569 12.9141 14.4314 12.1929L11.5219 14.3129C12.3623 15.4664 13.7407 16.6317 15.4996 16.6317V13.0317ZM14.4314 12.1929C13.9363 11.5133 13.6638 10.6816 13.6638 10.0803H10.0638C10.0638 11.5658 10.6558 13.1243 11.5218 14.3129L14.4314 12.1929ZM9.76376 10.0803C9.76376 11.6396 10.3825 13.2586 11.2794 14.4895L14.189 12.3696C13.6628 11.6474 13.3638 10.7552 13.3638 10.0803H9.76376ZM11.2794 14.4895C12.145 15.6775 13.6018 16.9317 15.4996 16.9317V13.3317C15.2563 13.3317 14.7417 13.1281 14.189 12.3695L11.2794 14.4895ZM17.3356 10.0803C17.3356 10.6816 17.063 11.5133 16.5679 12.1929L19.4774 14.3129C20.3435 13.1243 20.9356 11.5658 20.9356 10.0803H17.3356ZM16.5678 12.1929C16.0425 12.914 15.6064 13.0317 15.4996 13.0317V16.6317C17.2585 16.6317 18.637 15.4664 19.4775 14.3129L16.5678 12.1929ZM15.4996 16.9317C17.3975 16.9317 18.8544 15.6775 19.7199 14.4895L16.8103 12.3696C16.2577 13.1281 15.743 13.3317 15.4996 13.3317V16.9317ZM19.7199 14.4896C20.6168 13.2587 21.2356 11.6396 21.2356 10.0803H17.6356C17.6356 10.7552 17.3365 11.6474 16.8103 12.3695L19.7199 14.4896Z"
        fill="white" mask="url(#path-2-inside-1_3904_1395)" />
    <path fill-rule="evenodd" clip-rule="evenodd"
        d="M20.4877 9.93025C20.4877 12.7628 18.1958 16.1838 15.3497 16.1838C12.5035 16.1838 10.2117 12.7628 10.2117 9.93032C10.2117 7.09724 12.5166 4.7923 15.3497 4.7923C18.1828 4.7923 20.4877 7.09724 20.4877 9.93025ZM19.1356 9.93028C19.1356 7.84272 17.4372 6.14436 15.3497 6.14436C13.2621 6.14436 11.5638 7.84272 11.5638 9.93028C11.5638 12.0908 13.3462 14.8317 15.3497 14.8317C17.3531 14.8317 19.1356 12.0908 19.1356 9.93028Z"
        fill="white" />
    <path
        d="M15.3497 16.4838C16.8978 16.4838 18.2611 15.5556 19.2239 14.3019C20.188 13.0466 20.7877 11.4203 20.7877 9.93025H20.1877C20.1877 11.2728 19.6415 12.7731 18.7481 13.9365C17.8534 15.1014 16.6477 15.8838 15.3497 15.8838V16.4838ZM9.91167 9.93032C9.91167 11.4203 10.5114 13.0467 11.4754 14.3019C12.4383 15.5556 13.8016 16.4838 15.3497 16.4838V15.8838C14.0517 15.8838 12.846 15.1014 11.9513 13.9365C11.0579 12.7732 10.5117 11.2728 10.5117 9.93032H9.91167ZM15.3497 4.4923C12.3509 4.4923 9.91167 6.93156 9.91167 9.93032H10.5117C10.5117 7.26293 12.6823 5.0923 15.3497 5.0923V4.4923ZM20.7877 9.93025C20.7877 6.93155 18.3485 4.4923 15.3497 4.4923V5.0923C18.0171 5.0923 20.1877 7.26293 20.1877 9.93025H20.7877ZM15.3497 6.44436C17.2715 6.44436 18.8356 8.0084 18.8356 9.93028H19.4356C19.4356 7.67703 17.6029 5.84436 15.3497 5.84436V6.44436ZM11.8638 9.93028C11.8638 8.0084 13.4278 6.44436 15.3497 6.44436V5.84436C13.0964 5.84436 11.2638 7.67703 11.2638 9.93028H11.8638ZM15.3497 14.5317C14.4857 14.5317 13.6178 13.9339 12.9479 13.0145C12.2827 12.1017 11.8638 10.9369 11.8638 9.93028H11.2638C11.2638 11.0842 11.736 12.3702 12.463 13.3679C13.1852 14.3591 14.2102 15.1317 15.3497 15.1317V14.5317ZM18.8356 9.93028C18.8356 10.9369 18.4166 12.1017 17.7515 13.0145C17.0816 13.9339 16.2136 14.5317 15.3497 14.5317V15.1317C16.4892 15.1317 17.5142 14.3591 18.2364 13.3679C18.9633 12.3702 19.4356 11.0842 19.4356 9.93028H18.8356Z"
        fill="white" />
    <path fill-rule="evenodd" clip-rule="evenodd"
        d="M25.0904 24.4705L24.8271 22.8906C24.2788 19.6006 21.4599 17.2127 18.1245 17.2127H12.8748C9.53945 17.2127 6.72053 19.6006 6.17215 22.8907L5.90887 24.4705C5.87618 24.6666 5.93144 24.867 6.0599 25.0186C6.1883 25.1703 6.37701 25.2577 6.57572 25.2577H24.4235C24.6222 25.2577 24.8109 25.1703 24.9393 25.0186C25.0679 24.867 25.1231 24.6666 25.0904 24.4705ZM16.2854 18.5648L15.4998 19.2325L14.7143 18.5648H16.2854ZM21.7533 22.3507V23.9056H23.6256L23.4935 23.1129C23.0676 20.5576 20.9316 18.6818 18.3667 18.5702L15.9376 20.6348C15.8114 20.742 15.6556 20.7957 15.4998 20.7957C15.344 20.7957 15.1881 20.742 15.0619 20.6348L12.6329 18.5702C10.0679 18.6818 7.9319 20.5576 7.50603 23.113L7.37394 23.9056H9.24618V22.3507C9.24618 21.9773 9.54886 21.6747 9.92226 21.6747C10.2957 21.6747 10.5984 21.9774 10.5984 22.3507V23.9056H20.4011V22.3507C20.4011 21.9773 20.7039 21.6747 21.0772 21.6747C21.4506 21.6747 21.7533 21.9774 21.7533 22.3507Z"
        fill="white" />
    <path
        d="M15.4999 19.2325L15.4028 19.3468C15.4588 19.3944 15.541 19.3944 15.5971 19.3468L15.4999 19.2325ZM16.2855 18.5648L16.3826 18.6791C16.4305 18.6383 16.4479 18.5721 16.4263 18.5131C16.4046 18.454 16.3483 18.4148 16.2855 18.4148V18.5648ZM14.7144 18.5648V18.4148C14.6515 18.4148 14.5953 18.454 14.5736 18.5131C14.5519 18.5721 14.5693 18.6383 14.6173 18.6791L14.7144 18.5648ZM21.7534 23.9056H21.6034C21.6034 23.9885 21.6705 24.0556 21.7534 24.0556V23.9056ZM23.6257 23.9056V24.0556C23.6698 24.0556 23.7117 24.0362 23.7402 24.0026C23.7687 23.9689 23.7809 23.9245 23.7736 23.881L23.6257 23.9056ZM18.3668 18.5702L18.3733 18.4203C18.3355 18.4187 18.2985 18.4314 18.2697 18.4559L18.3668 18.5702ZM12.633 18.5702L12.7301 18.4559C12.7012 18.4314 12.6642 18.4187 12.6264 18.4203L12.633 18.5702ZM7.37404 23.9056L7.22608 23.881C7.21883 23.9245 7.23109 23.9689 7.25959 24.0026C7.28809 24.0362 7.32995 24.0556 7.37404 24.0556V23.9056ZM9.24628 23.9056V24.0556C9.32912 24.0556 9.39628 23.9885 9.39628 23.9056H9.24628ZM10.5984 23.9056H10.4484C10.4484 23.9885 10.5156 24.0556 10.5984 24.0556V23.9056ZM20.4012 23.9056V24.0556C20.4841 24.0556 20.5512 23.9885 20.5512 23.9056H20.4012ZM24.6793 22.9153L24.9426 24.4952L25.2385 24.4459L24.9752 22.8659L24.6793 22.9153ZM18.1246 17.3627C21.3867 17.3627 24.1429 19.6976 24.6793 22.9153L24.9752 22.8659C24.4148 19.5036 21.5334 17.0627 18.1246 17.0627V17.3627ZM12.8749 17.3627H18.1246V17.0627H12.8749V17.3627ZM6.32021 22.9153C6.85653 19.6976 9.61287 17.3627 12.8749 17.3627V17.0627C9.46622 17.0627 6.58472 19.5036 6.02429 22.866L6.32021 22.9153ZM6.05693 24.4952L6.32021 22.9153L6.02429 22.866L5.76101 24.4459L6.05693 24.4952ZM6.17448 24.9217C6.0745 24.8037 6.03149 24.6477 6.05693 24.4952L5.76101 24.4459C5.72105 24.6854 5.78861 24.9303 5.94554 25.1156L6.17448 24.9217ZM6.57582 25.1077C6.42118 25.1077 6.27434 25.0397 6.17448 24.9217L5.94554 25.1156C6.10246 25.3009 6.33305 25.4077 6.57582 25.4077V25.1077ZM24.4236 25.1077H6.57582V25.4077H24.4236V25.1077ZM24.825 24.9217C24.7252 25.0396 24.5783 25.1077 24.4236 25.1077V25.4077C24.6664 25.4077 24.897 25.3009 25.0539 25.1156L24.825 24.9217ZM24.9426 24.4952C24.9679 24.6477 24.925 24.8036 24.825 24.9217L25.0539 25.1156C25.2109 24.9303 25.2784 24.6854 25.2385 24.4459L24.9426 24.4952ZM15.5971 19.3468L16.3826 18.6791L16.1883 18.4505L15.4028 19.1182L15.5971 19.3468ZM14.6173 18.6791L15.4028 19.3468L15.5971 19.1182L14.8116 18.4505L14.6173 18.6791ZM16.2855 18.4148H14.7144V18.7148H16.2855V18.4148ZM21.9034 23.9056V22.3507H21.6034V23.9056H21.9034ZM23.6257 23.7556H21.7534V24.0556H23.6257V23.7556ZM23.3457 23.1376L23.4777 23.9303L23.7736 23.881L23.6416 23.0882L23.3457 23.1376ZM18.3603 18.7201C20.8546 18.8285 22.9314 20.6523 23.3457 23.1376L23.6416 23.0882C23.2039 20.4628 21.0088 18.535 18.3733 18.4203L18.3603 18.7201ZM16.0348 20.7491L18.4639 18.6845L18.2697 18.4559L15.8406 20.5205L16.0348 20.7491ZM15.4999 20.9457C15.6901 20.9457 15.8807 20.8801 16.0348 20.7491L15.8406 20.5205C15.7423 20.6039 15.6212 20.6457 15.4999 20.6457V20.9457ZM14.9649 20.7491C15.1191 20.8801 15.3096 20.9457 15.4999 20.9457V20.6457C15.3785 20.6457 15.2574 20.6039 15.1591 20.5205L14.9649 20.7491ZM12.5358 18.6845L14.9649 20.7491L15.1591 20.5205L12.7301 18.4559L12.5358 18.6845ZM7.65409 23.1376C8.06827 20.6523 10.1451 18.8285 12.6394 18.7201L12.6264 18.4203C9.99087 18.535 7.79572 20.4628 7.35817 23.0883L7.65409 23.1376ZM7.522 23.9303L7.65409 23.1376L7.35817 23.0883L7.22608 23.881L7.522 23.9303ZM9.24628 23.7556H7.37404V24.0556H9.24628V23.7556ZM9.09628 22.3507V23.9056H9.39628V22.3507H9.09628ZM9.92236 21.5246C9.46611 21.5246 9.09628 21.8945 9.09628 22.3507H9.39628C9.39628 22.0601 9.6318 21.8246 9.92236 21.8246V21.5246ZM10.7484 22.3507C10.7484 21.8945 10.3786 21.5246 9.92236 21.5246V21.8246C10.2129 21.8246 10.4484 22.0602 10.4484 22.3507H10.7484ZM10.7484 23.9056V22.3507H10.4484V23.9056H10.7484ZM20.4012 23.7556H10.5984V24.0556H20.4012V23.7556ZM20.2512 22.3507V23.9056H20.5512V22.3507H20.2512ZM21.0773 21.5246C20.6211 21.5246 20.2512 21.8944 20.2512 22.3507H20.5512C20.5512 22.0601 20.7868 21.8246 21.0773 21.8246V21.5246ZM21.9034 22.3507C21.9034 21.8945 21.5335 21.5246 21.0773 21.5246V21.8246C21.3679 21.8246 21.6034 22.0602 21.6034 22.3507H21.9034Z"
        fill="white" />
</svg>