<svg width="21" height="21" viewBox="0 0 21 21" fill="none" xmlns="http://www.w3.org/2000/svg">
    <path fill-rule="evenodd" clip-rule="evenodd"
        d="M0.885153 3.82917C1.20843 3.82917 1.47048 3.56709 1.47048 3.24387V1.37073H3.3435C3.66684 1.37073 3.9288 1.10865 3.9288 0.785367C3.9288 0.462021 3.66684 0.200012 3.3435 0.200012H0.885153C0.561807 0.200012 0.299805 0.462021 0.299805 0.785367V3.24387C0.299805 3.56709 0.561807 3.82917 0.885153 3.82917ZM8.96304 15.2241C8.96304 15.5474 9.225 15.8094 9.54834 15.8094H10.0557C10.3789 15.8094 10.641 15.5474 10.641 15.2241C10.641 14.9007 10.3789 14.6387 10.0557 14.6387H9.54834C9.225 14.6387 8.96304 14.9007 8.96304 15.2241ZM9.97764 8.00469C9.97764 8.32797 9.71556 8.59005 9.39228 8.59005C9.06894 8.59005 8.80692 8.32797 8.80692 8.00469V7.49739C8.80692 7.17405 9.06894 6.91203 9.39228 6.91203C9.71556 6.91203 9.97764 7.17405 9.97764 7.49739V8.00469ZM12.9824 13.9753C12.9824 14.2986 13.2445 14.5607 13.5678 14.5607H14.0751C14.3984 14.5607 14.6605 14.2986 14.6605 13.9753C14.6605 13.652 14.3984 13.3899 14.0751 13.3899H13.5678C13.2445 13.3899 12.9824 13.652 12.9824 13.9753ZM1.49004 10.7754H4.21386C4.20606 10.8132 4.20216 10.8524 4.20216 10.8924V12.6485C4.20216 12.9718 4.46418 13.2339 4.78752 13.2339C5.1108 13.2339 5.37288 12.9718 5.37288 12.6485V10.8924C5.37288 10.8524 5.36898 10.8132 5.36112 10.7754H10.5239V11.4388H7.44108C7.11774 11.4388 6.85572 11.7008 6.85572 12.0242C6.85572 12.3474 7.11774 12.6095 7.44108 12.6095H11.1093C11.4326 12.6095 11.6947 12.3474 11.6947 12.0242V10.7754H13.88V12.4924C13.88 12.8157 14.142 13.0778 14.4653 13.0778C14.7886 13.0778 15.0507 12.8157 15.0507 12.4924V10.7754H19.0896C19.4129 10.7754 19.675 10.5133 19.675 10.19C19.675 9.86668 19.4129 9.60466 19.0896 9.60466H16.4165V8.47299H17.0018C17.3251 8.47299 17.5872 8.21091 17.5872 7.88763C17.5872 7.56429 17.3251 7.30227 17.0018 7.30227H14.0751C13.7518 7.30227 13.4897 7.56429 13.4897 7.88763C13.4897 8.21091 13.7518 8.47299 14.0751 8.47299H15.2458V9.60466H11.6947V8.08275C11.6947 7.75941 11.4326 7.49739 11.1093 7.49739C10.786 7.49739 10.5239 7.75941 10.5239 8.08275V9.60466H1.49004C1.16667 9.60466 0.904671 9.86668 0.904671 10.19C0.904671 10.5133 1.16667 10.7754 1.49004 10.7754ZM12.202 3.00969C11.8786 3.00969 11.6166 3.27171 11.6166 3.59505V6.67791C11.6166 7.00119 11.8786 7.26327 12.202 7.26327C12.5252 7.26327 12.7873 7.00119 12.7873 6.67791V3.59505C12.7873 3.27171 12.5252 3.00969 12.202 3.00969ZM8.1435 3.82917H9.47034V3.59505C9.47034 3.27171 9.7323 3.00969 10.0556 3.00969C10.3789 3.00969 10.641 3.27171 10.641 3.59505V5.54625C10.641 5.86953 10.3789 6.13161 10.0556 6.13161C9.7323 6.13161 9.47034 5.86953 9.47034 5.54625V4.99989H8.1435V5.27307C8.1435 5.59635 7.88142 5.85843 7.55814 5.85843C7.2348 5.85843 6.97284 5.59635 6.97284 5.27307V3.59505C6.97284 3.27171 7.2348 3.00969 7.55814 3.00969C7.88142 3.00969 8.1435 3.27171 8.1435 3.59505V3.82917ZM2.8752 7.84863C2.8752 8.17191 3.13734 8.43399 3.46056 8.43399H7.79232C8.1156 8.43399 8.37768 8.17191 8.37768 7.84863C8.37768 7.52529 8.1156 7.26327 7.79232 7.26327H3.46056C3.13734 7.26327 2.8752 7.52529 2.8752 7.84863ZM16.2214 16.1996V16.785C16.2214 17.1083 16.4834 17.3703 16.8067 17.3703C17.13 17.3703 17.3921 17.1083 17.3921 16.785V13.2729C17.3921 12.9498 17.13 12.6875 16.8067 12.6875C16.4834 12.6875 16.2214 12.9498 16.2214 13.2729V15.029H14.2702C13.9469 15.029 13.6849 15.2912 13.6849 15.6143C13.6849 15.9375 13.9469 16.1996 14.2702 16.1996H16.2214ZM12.0068 17.3703H10.2508C9.92742 17.3703 9.66546 17.1083 9.66546 16.785C9.66546 16.4616 9.92742 16.1996 10.2508 16.1996H11.4215V13.7802C11.4215 13.4568 11.6835 13.1948 12.0068 13.1948C12.3301 13.1948 12.5922 13.4568 12.5922 13.7802V16.785C12.5922 17.1083 12.3301 17.3703 12.0068 17.3703ZM7.01184 13.8192C7.01184 13.4958 7.27386 13.2339 7.5972 13.2339C7.92048 13.2339 8.18256 13.4958 8.18256 13.8192V15.5363C8.18256 15.8595 7.92048 16.1216 7.5972 16.1216C7.27386 16.1216 7.01184 15.8595 7.01184 15.5363V13.8192ZM5.91918 13.7412H3.46068C3.13734 13.7412 2.87538 14.0032 2.87538 14.3265V16.785C2.87538 17.1083 3.13734 17.3703 3.46068 17.3703H5.91918C6.24246 17.3703 6.50454 17.1083 6.50454 16.785V14.3265C6.50454 14.0032 6.24246 13.7412 5.91918 13.7412ZM5.33382 14.9119H4.04604V16.1996H5.33382V14.9119ZM17.1189 3.00969H14.6605C14.3371 3.00969 14.0751 3.27171 14.0751 3.59505V6.05355C14.0751 6.37683 14.3371 6.63891 14.6605 6.63891H17.1189C17.4422 6.63891 17.7043 6.37683 17.7043 6.05355V3.59505C17.7043 3.27171 17.4422 3.00969 17.1189 3.00969ZM16.5335 4.18041H15.2458V5.46819H16.5335V4.18041ZM2.87538 3.59505C2.87538 3.27171 3.13734 3.00969 3.46068 3.00969H5.91918C6.24246 3.00969 6.50454 3.27171 6.50454 3.59505V6.05355C6.50454 6.37683 6.24246 6.63891 5.91918 6.63891H3.46068C3.13734 6.63891 2.87538 6.37683 2.87538 6.05355V3.59505ZM5.33382 4.18041V5.46819H4.04604V4.18041H5.33382ZM19.6945 16.5509C19.3711 16.5509 19.1091 16.8129 19.1091 17.1362V19.0094H17.2361C16.9129 19.0094 16.6507 19.2713 16.6507 19.5947C16.6507 19.9179 16.9129 20.18 17.2361 20.18H19.6945C20.0177 20.18 20.2798 19.9179 20.2798 19.5947V17.1362C20.2798 16.8129 20.0177 16.5509 19.6945 16.5509ZM0.299805 17.1362V19.5947C0.299805 19.9179 0.561807 20.18 0.885153 20.18H3.3435C3.66684 20.18 3.9288 19.9179 3.9288 19.5947C3.9288 19.2713 3.66684 19.0094 3.3435 19.0094H1.47048V17.1362C1.47048 16.8129 1.20843 16.5509 0.885153 16.5509C0.561807 16.5509 0.299805 16.8129 0.299805 17.1362ZM20.2798 0.785367V3.24387C20.2798 3.56709 20.0177 3.82917 19.6945 3.82917C19.3711 3.82917 19.1091 3.56709 19.1091 3.24387V1.37073H17.2361C16.9129 1.37073 16.6507 1.10865 16.6507 0.785367C16.6507 0.462021 16.9129 0.200012 17.2361 0.200012H19.6945C20.0177 0.200012 20.2798 0.462021 20.2798 0.785367Z"
        fill="white" />
</svg>