<svg width="33" height="33" viewBox="0 0 33 33" fill="none" xmlns="http://www.w3.org/2000/svg">
    <g clip-path="url(#clip0_4394_14907)">
        <path
            d="M16.2097 32.6425C25.0463 32.6425 32.2097 25.479 32.2097 16.6425C32.2097 7.8059 25.0463 0.642456 16.2097 0.642456C7.37316 0.642456 0.209717 7.8059 0.209717 16.6425C0.209717 25.479 7.37316 32.6425 16.2097 32.6425Z"
            fill="#3E73C4" />
        <path
            d="M20.2313 18.7667C20.2313 16.6427 18.9513 15.9147 16.3913 15.6107C14.5633 15.3677 14.1983 14.8827 14.1983 14.0327C14.1983 13.1827 14.8083 12.6367 16.0263 12.6367C17.1233 12.6367 17.7333 13.0007 18.0373 13.9117C18.069 13.9998 18.1269 14.0761 18.2032 14.1302C18.2796 14.1844 18.3707 14.2139 18.4643 14.2147H19.4393C19.4956 14.2162 19.5516 14.2063 19.604 14.1855C19.6563 14.1647 19.7039 14.1334 19.7439 14.0937C19.7838 14.054 19.8152 14.0065 19.8363 13.9543C19.8573 13.902 19.8675 13.846 19.8663 13.7897V13.7297C19.7471 13.0706 19.4136 12.4693 18.9176 12.0192C18.4216 11.5691 17.7908 11.2955 17.1233 11.2407V9.78471C17.1233 9.54171 16.9403 9.35971 16.6363 9.29871H15.7213C15.4783 9.29871 15.2953 9.48071 15.2343 9.78471V11.1807C13.4053 11.4227 12.2483 12.6367 12.2483 14.1547C12.2483 16.1567 13.4663 16.9457 16.0263 17.2497C17.7333 17.5527 18.2813 17.9177 18.2813 18.8887C18.2813 19.8587 17.4283 20.5267 16.2703 20.5267C14.6853 20.5267 14.1373 19.8597 13.9543 18.9487C13.8943 18.7067 13.7103 18.5847 13.5273 18.5847H12.4913C12.4351 18.5833 12.3791 18.5934 12.3269 18.6143C12.2747 18.6351 12.2272 18.6664 12.1874 18.7061C12.1476 18.7458 12.1162 18.7932 12.0952 18.8454C12.0742 18.8976 12.0641 18.9535 12.0653 19.0097V19.0697C12.3083 20.5877 13.2843 21.6797 15.2953 21.9837V23.4407C15.2953 23.6827 15.4783 23.8657 15.7823 23.9257H16.6973C16.9403 23.9257 17.1233 23.7437 17.1843 23.4407V21.9827C19.0133 21.6797 20.2313 20.4047 20.2313 18.7657V18.7667Z"
            fill="white" />
        <path
            d="M13.101 25.1395C8.34703 23.4395 5.90903 18.1595 7.67703 13.4865C8.59103 10.9365 10.602 8.99546 13.101 8.08446C13.345 7.96346 13.466 7.78146 13.466 7.47746V6.62746C13.466 6.38546 13.345 6.20346 13.101 6.14246C13.04 6.14246 12.918 6.14246 12.857 6.20246C11.4855 6.63078 10.2122 7.32618 9.11045 8.24863C8.00874 9.17107 7.10038 10.3023 6.43767 11.5773C5.77496 12.8522 5.371 14.2457 5.24904 15.6774C5.12707 17.1091 5.28952 18.5508 5.72703 19.9195C6.82303 23.3195 9.44403 25.9295 12.857 27.0215C13.101 27.1425 13.345 27.0215 13.405 26.7785C13.466 26.7185 13.466 26.6565 13.466 26.5355V25.6855C13.466 25.5035 13.284 25.2615 13.101 25.1395ZM19.561 6.20346C19.317 6.08146 19.073 6.20346 19.013 6.44546C18.952 6.50646 18.952 6.56746 18.952 6.68846V7.53846C18.952 7.78146 19.134 8.02346 19.317 8.14546C24.071 9.84546 26.509 15.1255 24.741 19.7985C23.827 22.3485 21.816 24.2895 19.317 25.2005C19.073 25.3215 18.952 25.5035 18.952 25.8075V26.6575C18.952 26.8995 19.073 27.0815 19.317 27.1425C19.378 27.1425 19.5 27.1425 19.561 27.0825C20.9326 26.6541 22.2059 25.9587 23.3076 25.0363C24.4093 24.1138 25.3177 22.9826 25.9804 21.7076C26.6431 20.4327 27.0471 19.0392 27.169 17.6075C27.291 16.1758 27.1285 14.7341 26.691 13.3655C25.595 9.90546 22.913 7.29546 19.561 6.20346Z"
            fill="white" />
    </g>
    <defs>
        <clipPath id="clip0_4394_14907">
            <rect width="32" height="32" fill="white" transform="translate(0.209717 0.642456)" />
        </clipPath>
    </defs>
</svg>