<svg width="33" height="33" viewBox="0 0 33 33" fill="none" xmlns="http://www.w3.org/2000/svg">
    <circle cx="16.4181" cy="16.4026" r="15.7958" fill="#FF0066" />
    <path
        d="M21.9031 15.1302C21.6076 15.4278 21.3815 15.787 21.2405 16.1821C21.0996 16.5772 21.0475 16.9986 21.0878 17.4163L21.0737 17.4022C21.1152 17.8938 21.0489 18.3885 20.8797 18.8519C20.7105 19.3152 20.4424 19.736 20.0941 20.0848C19.7457 20.4336 19.3255 20.7022 18.8627 20.8716C18.4 21.041 17.906 21.1074 17.4151 21.0658L17.4291 21.0799C16.8419 21.0252 16.2521 21.1531 15.7401 21.4463C15.2281 21.7395 14.8189 22.1837 14.5683 22.7184C14.3177 23.253 14.2378 23.8519 14.3396 24.4337C14.4415 25.0154 14.72 25.5515 15.1372 25.9689C15.5545 26.3863 16.0901 26.6647 16.6711 26.7661C17.2522 26.8676 17.8502 26.787 18.3839 26.5356C18.9176 26.2842 19.3608 25.8741 19.6531 25.3612C19.9455 24.8482 20.0728 24.2576 20.0176 23.6695L20.0324 23.6836C19.9909 23.192 20.0571 22.6973 20.2263 22.2339C20.3955 21.7706 20.6638 21.3498 21.0121 21.001C21.3605 20.6522 21.7807 20.3836 22.2434 20.2142C22.7061 20.0448 23.2001 19.9785 23.6911 20.02L23.6763 20.0059C24.1559 20.0491 24.6388 19.9703 25.08 19.7769C25.5212 19.5835 25.9065 19.2817 26.2002 18.8995C26.4939 18.5173 26.6866 18.067 26.7602 17.5904C26.8338 17.1138 26.7861 16.6263 26.6215 16.173C26.4569 15.7197 26.1807 15.3154 25.8185 14.9975C25.4563 14.6796 25.0198 14.4585 24.5495 14.3545C24.0792 14.2505 23.5902 14.2671 23.128 14.4026C22.6658 14.5383 22.2453 14.7885 21.9054 15.1302H21.9031Z"
        fill="white" />
    <path
        d="M16.1532 19.2396L16.1383 19.2255C16.5556 19.2676 16.9769 19.2163 17.372 19.0754C17.7671 18.9344 18.1259 18.7074 18.4226 18.4105C18.7191 18.1137 18.9463 17.7545 19.0873 17.3591C19.2283 16.9636 19.2799 16.5417 19.2382 16.1239L19.253 16.1379C19.2115 15.6463 19.2778 15.1516 19.4469 14.6882C19.6161 14.2249 19.8843 13.8042 20.2326 13.4553C20.581 13.1065 21.0012 12.8379 21.4639 12.6686C21.9267 12.4991 22.4207 12.4328 22.9116 12.4743L22.8968 12.4603C23.4841 12.5155 24.0741 12.388 24.5863 12.0951C25.0987 11.8022 25.5082 11.3582 25.7592 10.8237C26.0101 10.2891 26.0903 9.69008 25.9889 9.10822C25.8874 8.52636 25.6091 7.99002 25.192 7.57235C24.7749 7.15469 24.2393 6.87603 23.6582 6.77439C23.0771 6.67275 22.4789 6.75307 21.9451 7.0044C21.4112 7.25573 20.9679 7.66583 20.6754 8.17878C20.3828 8.69171 20.2555 9.28252 20.3107 9.8706L20.2966 9.85577C20.3382 10.3474 20.2721 10.8422 20.1029 11.3056C19.9338 11.769 19.6656 12.1898 19.3173 12.5387C18.9689 12.8875 18.5486 13.1561 18.0858 13.3254C17.623 13.4948 17.1289 13.561 16.638 13.5194L16.652 13.5342C16.2348 13.4921 15.8133 13.5434 15.4183 13.6844C15.0233 13.8253 14.6644 14.0524 14.3678 14.3492C14.0711 14.646 13.8441 15.0052 13.703 15.4007C13.562 15.7961 13.5105 16.218 13.5522 16.6359L13.5381 16.6218C13.5795 17.1134 13.5131 17.608 13.3439 18.0713C13.1746 18.5346 12.9065 18.9553 12.5582 19.3041C12.2098 19.6529 11.7896 19.9214 11.327 20.0909C10.8644 20.2604 10.3704 20.3268 9.87947 20.2854L9.8935 20.2995C9.30621 20.2442 8.7162 20.3718 8.20395 20.6647C7.6917 20.9576 7.28215 21.4015 7.03116 21.9361C6.78017 22.4706 6.69995 23.0697 6.80145 23.6515C6.90296 24.2334 7.18125 24.7697 7.59835 25.1874C8.01546 25.6051 8.55107 25.8837 9.13215 25.9853C9.71323 26.087 10.3115 26.0066 10.8453 25.7553C11.3791 25.504 11.8225 25.0939 12.115 24.581C12.4075 24.068 12.5349 23.4772 12.4797 22.8891L12.4945 22.9032C12.453 22.4116 12.5193 21.9169 12.6885 21.4535C12.8576 20.9902 13.1258 20.5695 13.4742 20.2206C13.8226 19.8718 14.2428 19.6032 14.7054 19.4338C15.1682 19.2644 15.6622 19.1981 16.1532 19.2396Z"
        fill="white" />
    <path
        d="M10.9294 17.6731C11.2248 17.3755 11.451 17.0164 11.5918 16.6212C11.7326 16.226 11.7845 15.8046 11.7439 15.387L11.7587 15.4011C11.7172 14.9094 11.7834 14.4145 11.9527 13.951C12.122 13.4875 12.3903 13.0667 12.7389 12.7178C13.0875 12.369 13.5078 12.1005 13.9707 11.9312C14.4336 11.7618 14.9279 11.6957 15.4189 11.7375L15.4041 11.7234C15.9912 11.7785 16.581 11.6509 17.093 11.358C17.605 11.0652 18.0143 10.6213 18.2652 10.0869C18.516 9.55254 18.5961 8.95371 18.4946 8.37207C18.3932 7.79042 18.1149 7.25429 17.698 6.83678C17.2811 6.41926 16.7456 6.14069 16.1648 6.03906C15.5839 5.93741 14.9859 6.01766 14.4523 6.26884C13.9186 6.52002 13.4753 6.92991 13.1829 7.44261C12.8903 7.95531 12.7629 8.54587 12.8179 9.13375L12.8039 9.11971C12.8454 9.6113 12.7791 10.106 12.6099 10.5694C12.4407 11.0327 12.1726 11.4534 11.8242 11.8023C11.4758 12.1511 11.0556 12.4197 10.5929 12.5891C10.1302 12.7585 9.63616 12.8248 9.14524 12.7833L9.15927 12.7974C8.67958 12.7543 8.19679 12.8332 7.75564 13.0267C7.3145 13.2202 6.92926 13.522 6.63564 13.9043C6.34202 14.2865 6.14951 14.7369 6.07595 15.2134C6.0024 15.6901 6.05017 16.1776 6.21484 16.6307C6.37951 17.084 6.65577 17.4882 7.01799 17.806C7.38022 18.1239 7.8167 18.345 8.287 18.449C8.75729 18.5528 9.24617 18.5362 9.70836 18.4006C10.1705 18.265 10.591 18.0148 10.9309 17.6731H10.9294Z"
        fill="white" />
</svg>