<svg width="49" height="50" viewBox="0 0 49 50" fill="none" xmlns="http://www.w3.org/2000/svg">
    <g clip-path="url(#clip0_4515_1572)">
        <path
            d="M24.4442 49.1141C37.9445 49.1141 48.8886 38.1699 48.8886 24.6696C48.8886 11.1693 37.9445 0.225189 24.4442 0.225189C10.9439 0.225189 -0.000244141 11.1693 -0.000244141 24.6696C-0.000244141 38.1699 10.9439 49.1141 24.4442 49.1141Z"
            fill="#FF0066" />
        <path d="M25.2051 6.33633V19.8877L36.6588 25.0058L25.2051 6.33633Z" fill="white" />
        <path d="M25.205 6.33633L13.7498 25.0058L25.205 19.8877V6.33633Z" fill="white" />
        <path d="M25.2051 33.7874V42.9953L36.6665 27.1385L25.2051 33.7874Z" fill="white" />
        <path d="M25.205 42.9953V33.7859L13.7498 27.1385L25.205 42.9953Z" fill="white" />
        <path d="M25.2051 31.6562L36.6588 25.0057L25.2051 19.8907V31.6562Z" fill="white" />
        <path d="M13.7498 25.0057L25.205 31.6562V19.8907L13.7498 25.0057Z" fill="white" />
    </g>
    <defs>
        <clipPath id="clip0_4515_1572">
            <rect width="48.8889" height="48.8889" fill="white"
                transform="translate(-0.000244141 0.225189)" />
        </clipPath>
    </defs>
</svg>