<svg xmlns="http://www.w3.org/2000/svg" width="25" height="25" viewBox="0 0 25 25" fill="none">
    <g clip-path="url(#clip0_5290_6120)">
        <path
            d="M2.55554 20.8873H22.5555V22.8873H2.55554V20.8873ZM4.55554 12.8873H6.55554V19.8873H4.55554V12.8873ZM9.55554 12.8873H11.5555V19.8873H9.55554V12.8873ZM13.5555 12.8873H15.5555V19.8873H13.5555V12.8873ZM18.5555 12.8873H20.5555V19.8873H18.5555V12.8873ZM2.55554 7.88733L12.5555 2.88733L22.5555 7.88733V11.8873H2.55554V7.88733ZM4.55554 9.12333V9.88733H20.5555V9.12333L12.5555 5.12333L4.55554 9.12333ZM12.5555 8.88733C12.2903 8.88733 12.036 8.78197 11.8484 8.59444C11.6609 8.4069 11.5555 8.15255 11.5555 7.88733C11.5555 7.62211 11.6609 7.36776 11.8484 7.18022C12.036 6.99269 12.2903 6.88733 12.5555 6.88733C12.8208 6.88733 13.0751 6.99269 13.2626 7.18022C13.4502 7.36776 13.5555 7.62211 13.5555 7.88733C13.5555 8.15255 13.4502 8.4069 13.2626 8.59444C13.0751 8.78197 12.8208 8.88733 12.5555 8.88733Z"
            fill="white" />
    </g>
    <defs>
        <clipPath id="clip0_5290_6120">
            <rect width="24" height="24" fill="white" transform="translate(0.555542 0.887329)" />
        </clipPath>
    </defs>
</svg>