<svg width="24" height="25" viewBox="0 0 24 25" fill="none" xmlns="http://www.w3.org/2000/svg">
<g clip-path="url(#clip0_4849_1342)">
<path d="M2.00024 20.5136H22.0002V22.5136H2.00024V20.5136ZM4.00024 12.5136H6.00024V19.5136H4.00024V12.5136ZM9.00024 12.5136H11.0002V19.5136H9.00024V12.5136ZM13.0002 12.5136H15.0002V19.5136H13.0002V12.5136ZM18.0002 12.5136H20.0002V19.5136H18.0002V12.5136ZM2.00024 7.51361L12.0002 2.51361L22.0002 7.51361V11.5136H2.00024V7.51361ZM4.00024 8.74961V9.51361H20.0002V8.74961L12.0002 4.74961L4.00024 8.74961ZM12.0002 8.51361C11.735 8.51361 11.4807 8.40825 11.2931 8.22072C11.1056 8.03318 11.0002 7.77883 11.0002 7.51361C11.0002 7.24839 11.1056 6.99404 11.2931 6.8065C11.4807 6.61897 11.735 6.51361 12.0002 6.51361C12.2655 6.51361 12.5198 6.61897 12.7074 6.8065C12.8949 6.99404 13.0002 7.24839 13.0002 7.51361C13.0002 7.77883 12.8949 8.03318 12.7074 8.22072C12.5198 8.40825 12.2655 8.51361 12.0002 8.51361Z" fill="white"/>
</g>
<defs>
<clipPath id="clip0_4849_1342">
<rect width="24" height="24" fill="white" transform="translate(0.000244141 0.513611)"/>
</clipPath>
</defs>
</svg>
