<svg width="24" height="24" viewBox="0 0 24 24" fill="none" xmlns="http://www.w3.org/2000/svg">
    <g clip-path="url(#clip0_2920_3266)">
        <path
            d="M7.55556 2V4.22222M16.4444 2V4.22222M22 7.55556H2M4.22222 22H19.7778C21.0051 22 22 21.0051 22 19.7778V5.33333C22 4.10603 21.0051 3.11111 19.7778 3.11111H4.22222C2.99492 3.11111 2 4.10603 2 5.33333V19.7778C2 21.0051 2.99492 22 4.22222 22ZM13.1111 12C13.1111 12.6137 12.6137 13.1111 12 13.1111C11.3864 13.1111 10.8889 12.6137 10.8889 12C10.8889 11.3864 11.3864 10.8889 12 10.8889C12.6137 10.8889 13.1111 11.3864 13.1111 12ZM18.6667 12C18.6667 12.6137 18.1692 13.1111 17.5556 13.1111C16.9419 13.1111 16.4444 12.6137 16.4444 12C16.4444 11.3864 16.9419 10.8889 17.5556 10.8889C18.1692 10.8889 18.6667 11.3864 18.6667 12ZM7.55556 17.5556C7.55556 18.1692 7.05809 18.6667 6.44444 18.6667C5.83079 18.6667 5.33333 18.1692 5.33333 17.5556C5.33333 16.9419 5.83079 16.4444 6.44444 16.4444C7.05809 16.4444 7.55556 16.9419 7.55556 17.5556ZM13.1111 17.5556C13.1111 18.1692 12.6137 18.6667 12 18.6667C11.3864 18.6667 10.8889 18.1692 10.8889 17.5556C10.8889 16.9419 11.3864 16.4444 12 16.4444C12.6137 16.4444 13.1111 16.9419 13.1111 17.5556ZM7.55556 12C7.55556 12.6137 7.05809 13.1111 6.44444 13.1111C5.83079 13.1111 5.33333 12.6137 5.33333 12C5.33333 11.3864 5.83079 10.8889 6.44444 10.8889C7.05809 10.8889 7.55556 11.3864 7.55556 12Z"
            stroke="#3AAFA9" stroke-width="3" stroke-linecap="round" />
    </g>
    <defs>
        <clipPath id="clip0_2920_3266">
            <rect width="24" height="24" fill="white" />
        </clipPath>
    </defs>
</svg>