<svg width="30" height="31" viewBox="0 0 30 31" fill="none" xmlns="http://www.w3.org/2000/svg">
<path fill-rule="evenodd" clip-rule="evenodd" d="M25.0091 16.3184C26.3317 14.3705 24.934 11.7044 22.561 11.7044C20.1887 11.7044 18.7906 14.3695 20.1123 16.3176C19.6585 16.5772 19.2636 16.8964 18.9233 17.2669C18.0902 16.4392 17.0945 15.7751 15.9892 15.3266C16.9733 14.4231 17.5912 13.1269 17.5912 11.6889C17.5912 8.96566 15.3756 6.75009 12.6523 6.75009C9.92907 6.75009 7.71346 8.96561 7.71346 11.6889C7.71346 13.1269 8.33134 14.4232 9.31537 15.3266C6.05525 16.6496 3.75 19.8501 3.75 23.5794C3.75 24.118 4.18669 24.5547 4.72539 24.5547C5.26408 24.5547 5.70077 24.118 5.70077 23.5794C5.70077 19.7463 8.81922 16.6278 12.6523 16.6278C16.4855 16.6278 19.6039 19.7462 19.6039 23.5794C19.6039 24.118 20.0406 24.5547 20.5793 24.5547C21.118 24.5547 21.5547 24.118 21.5547 23.5794C21.5547 21.8279 21.046 20.1932 20.169 18.8146C21.1373 17.515 22.6224 17.6187 22.5641 17.6186C24.2104 17.6204 25.5493 18.9602 25.5493 20.6069V23.5794C25.5493 24.1181 25.986 24.5548 26.5247 24.5548C27.0634 24.5548 27.5001 24.1181 27.5001 23.5794V20.6069C27.5 18.7737 26.496 17.1706 25.0091 16.3184ZM9.66425 11.6889C9.66425 10.0413 11.0047 8.70086 12.6523 8.70086C14.2999 8.70086 15.6404 10.0413 15.6404 11.6889C15.6404 13.3366 14.3 14.677 12.6524 14.677C11.0048 14.677 9.66425 13.3365 9.66425 11.6889ZM22.561 13.6552C22.0061 13.6552 21.5546 14.1066 21.5546 14.6615C21.5546 15.2192 22.0088 15.6677 22.5609 15.6678C23.1184 15.6678 23.5674 15.2141 23.5674 14.6615C23.5674 14.1066 23.1159 13.6552 22.561 13.6552Z" fill="#A3ABB6"/>
</svg>
