<svg width="24" height="25" viewBox="0 0 24 25" fill="none" xmlns="http://www.w3.org/2000/svg">
    <g clip-path="url(#clip0_4464_407)">
        <path
            d="M12.0009 19.1609L6.83959 22.05C6.095 22.4668 5.20405 21.8195 5.37032 20.9825L6.52289 15.1809L2.1797 11.1648C1.55316 10.5855 1.89344 9.53804 2.74084 9.43754L8.61489 8.74088L11.0929 3.36928C11.4503 2.59446 12.5515 2.59446 12.9089 3.36928L15.3869 8.74088L21.2609 9.43754C22.1083 9.53804 22.4486 10.5855 21.8221 11.1648L17.4789 15.1809L18.6315 20.9825C18.7977 21.8195 17.9068 22.4668 17.1622 22.05L12.0009 19.1609ZM12.0009 16.8689L16.2479 19.2459L15.2989 14.4729L18.8719 11.1679L14.0389 10.5949L12.0009 6.17588L9.96289 10.5959L5.12989 11.1679L8.70289 14.4729L7.75389 19.2459L12.0009 16.8689Z"
            fill="white" />
    </g>
    <defs>
        <clipPath id="clip0_4464_407">
            <rect width="24" height="24" fill="white" transform="translate(0 0.900879)" />
        </clipPath>
    </defs>
</svg>