<svg width="24" height="25" viewBox="0 0 24 25" fill="none" xmlns="http://www.w3.org/2000/svg">
    <g clip-path="url(#clip0_4464_399)">
        <path
            d="M13.12 17.9238L8.92102 15.6338C8.37282 16.2199 7.66101 16.6275 6.8781 16.8037C6.09518 16.9799 5.27737 16.9166 4.53094 16.6219C3.78452 16.3272 3.14398 15.8148 2.69259 15.1513C2.2412 14.4878 1.99982 13.7038 1.99982 12.9013C1.99982 12.0988 2.2412 11.3149 2.69259 10.6514C3.14398 9.98788 3.78452 9.47549 4.53094 9.1808C5.27737 8.88611 6.09518 8.82275 6.8781 8.99895C7.66101 9.17516 8.37282 9.58277 8.92102 10.1688L13.121 7.87884C12.8826 6.93491 12.9966 5.93643 13.4417 5.07054C13.8867 4.20466 14.6323 3.53082 15.5387 3.17534C16.445 2.81986 17.4499 2.80714 18.365 3.13957C19.2801 3.472 20.0425 4.12675 20.5093 4.9811C20.9762 5.83544 21.1154 6.83073 20.9009 7.78038C20.6864 8.73004 20.133 9.56887 19.3443 10.1396C18.5555 10.7104 17.5857 10.9739 16.6166 10.8808C15.6475 10.7877 14.7456 10.3443 14.08 9.63384L9.88002 11.9238C10.0412 12.5652 10.0412 13.2365 9.88002 13.8778L14.079 16.1678C14.7446 15.4573 15.6465 15.014 16.6156 14.9208C17.5847 14.8277 18.5545 15.0913 19.3433 15.662C20.132 16.2328 20.6854 17.0716 20.8999 18.0213C21.1144 18.971 20.9752 19.9662 20.5083 20.8206C20.0415 21.6749 19.2791 22.3297 18.364 22.6621C17.4489 22.9945 16.444 22.9818 15.5377 22.6263C14.6313 22.2709 13.8857 21.597 13.4407 20.7311C12.9956 19.8653 12.8816 18.8668 13.12 17.9228V17.9238ZM6.00002 14.9008C6.53046 14.9008 7.03916 14.6901 7.41424 14.3151C7.78931 13.94 8.00002 13.4313 8.00002 12.9008C8.00002 12.3704 7.78931 11.8617 7.41424 11.4866C7.03916 11.1116 6.53046 10.9008 6.00002 10.9008C5.46959 10.9008 4.96088 11.1116 4.58581 11.4866C4.21074 11.8617 4.00002 12.3704 4.00002 12.9008C4.00002 13.4313 4.21074 13.94 4.58581 14.3151C4.96088 14.6901 5.46959 14.9008 6.00002 14.9008ZM17 8.90084C17.5305 8.90084 18.0392 8.69012 18.4142 8.31505C18.7893 7.93998 19 7.43127 19 6.90084C19 6.37041 18.7893 5.8617 18.4142 5.48662C18.0392 5.11155 17.5305 4.90084 17 4.90084C16.4696 4.90084 15.9609 5.11155 15.5858 5.48662C15.2107 5.8617 15 6.37041 15 6.90084C15 7.43127 15.2107 7.93998 15.5858 8.31505C15.9609 8.69012 16.4696 8.90084 17 8.90084ZM17 20.9008C17.5305 20.9008 18.0392 20.6901 18.4142 20.3151C18.7893 19.94 19 19.4313 19 18.9008C19 18.3704 18.7893 17.8617 18.4142 17.4866C18.0392 17.1116 17.5305 16.9008 17 16.9008C16.4696 16.9008 15.9609 17.1116 15.5858 17.4866C15.2107 17.8617 15 18.3704 15 18.9008C15 19.4313 15.2107 19.94 15.5858 20.3151C15.9609 20.6901 16.4696 20.9008 17 20.9008Z"
            fill="white" />
    </g>
    <defs>
        <clipPath id="clip0_4464_399">
            <rect width="24" height="24" fill="white" transform="translate(0 0.900879)" />
        </clipPath>
    </defs>
</svg>