<svg width="30" height="31" viewBox="0 0 30 31" fill="none" xmlns="http://www.w3.org/2000/svg">
    <path
        d="M15.121 0.5015C6.75768 0.440896 -0.0602025 7.25878 0.00040092 15.6221C0.0610044 23.7732 6.72738 30.4093 14.8785 30.5002C23.2721 30.5608 30.09 23.7429 29.9991 15.3796C29.9385 7.22848 23.2721 0.562103 15.121 0.5015Z"
        fill="#2081E2" />
    <path
        d="M10.6363 8.19812C11.5756 9.37989 12.121 10.8647 12.121 12.501C12.121 13.8948 11.6968 15.1978 10.9999 16.2887H5.96979L10.6363 8.19812Z"
        fill="white" />
    <path
        d="M25.9992 18.0765C25.9992 18.1371 25.9689 18.1977 25.9083 18.228C25.575 18.3795 24.4539 18.8946 23.969 19.5613C22.757 21.2279 21.8479 23.8944 19.7874 23.8944H11.1514C8.09093 23.8944 5.54559 21.4703 5.57589 18.2583C5.57589 18.1674 5.63649 18.1068 5.7274 18.1068H9.78783C9.93934 18.1068 10.0302 18.228 10.0302 18.3492V19.137C10.0302 19.5613 10.3636 19.8946 10.7878 19.8946H13.8786V18.1068H11.7574C12.9695 16.5614 13.6968 14.6221 13.6968 12.501C13.6968 10.1374 12.7877 7.98602 11.3029 6.38003C12.212 6.47093 13.0604 6.65274 13.8483 6.89516V6.38003C13.8483 5.8649 14.2725 5.44067 14.7876 5.44067C15.3027 5.44067 15.727 5.8649 15.727 6.38003V7.5921C18.6056 8.92537 20.5146 11.1677 20.5146 13.713C20.5146 15.1978 19.8783 16.5917 18.7571 17.7432C18.545 17.9553 18.242 18.0765 17.939 18.0765H15.7573V19.8643H18.4844C19.0602 19.8643 20.1207 18.7431 20.6358 18.0765C20.6358 18.0765 20.6661 18.0462 20.7267 18.0159C20.7874 17.9856 25.7568 16.8644 25.7568 16.8644C25.8477 16.8341 25.9689 16.925 25.9689 17.0159L25.9992 18.0765Z"
        fill="white" />
</svg>