<svg width="50" height="49" viewBox="0 0 50 49" fill="none" xmlns="http://www.w3.org/2000/svg">
    <path fill-rule="evenodd" clip-rule="evenodd"
        d="M39.2365 12.7273H10.7635C9.08597 12.7273 7.72729 14.0944 7.72729 15.7635V33.9809C7.72729 35.6599 9.09595 37.0171 10.7635 37.0171H39.2365C40.9001 37.0171 42.2727 35.6656 42.2727 33.9809V15.7635C42.2727 14.0974 40.9194 12.7273 39.2365 12.7273ZM38.8113 14.7515L27.147 26.3543C26.5734 26.9278 25.811 27.2436 25 27.2436C24.1891 27.2436 23.4266 26.9278 22.8512 26.3524L11.1887 14.7515H38.8113ZM9.75145 16.1768V33.5689L18.4983 24.8776L9.75145 16.1768ZM11.19 34.9929L19.9334 26.3051L21.4218 27.7856C22.3776 28.7414 23.6484 29.2678 25 29.2678C26.3516 29.2678 27.6224 28.7414 28.5763 27.7875L30.0666 26.3051L38.8101 34.9929H11.19ZM31.5016 24.8776L40.2486 33.5689V16.1768L31.5016 24.8776Z"
        fill="#3AAFA9" />
    <path
        d="M27.147 26.3543L26.5378 25.742L26.5362 25.7436L27.147 26.3543ZM38.8113 14.7514L39.4203 15.3637L40.904 13.8878H38.8113V14.7514ZM22.8512 26.3524L23.4619 25.7417L23.4603 25.7401L22.8512 26.3524ZM11.1887 14.7514V13.8878H9.09589L10.5797 15.3637L11.1887 14.7514ZM9.75144 33.5689H8.8878V35.6446L10.3602 34.1816L9.75144 33.5689ZM9.75144 16.1768L10.3605 15.5645L8.8878 14.0995V16.1768H9.75144ZM18.4983 24.8776L19.107 25.4902L19.7233 24.8779L19.1074 24.2653L18.4983 24.8776ZM19.9334 26.3051L20.5425 25.6928L19.9338 25.0872L19.3247 25.6924L19.9334 26.3051ZM11.19 34.9929L10.5813 34.3802L9.09554 35.8565H11.19V34.9929ZM21.4218 27.7856L22.0325 27.1749L22.0309 27.1733L21.4218 27.7856ZM28.5763 27.7875L27.9673 27.1752L27.9657 27.1768L28.5763 27.7875ZM30.0666 26.3051L30.6753 25.6924L30.0663 25.0872L29.4576 25.6928L30.0666 26.3051ZM38.8101 34.9929V35.8565H40.9044L39.4188 34.3802L38.8101 34.9929ZM40.2485 33.5689L39.6399 34.1816L41.1122 35.6446V33.5689H40.2485ZM31.5016 24.8776L30.8926 24.2653L30.2768 24.8779L30.8929 25.4902L31.5016 24.8776ZM40.2485 16.1768H41.1122V14.0995L39.6395 15.5645L40.2485 16.1768ZM10.7635 13.5909H39.2365V11.8636H10.7635V13.5909ZM8.59092 15.7635C8.59092 14.5698 9.5645 13.5909 10.7635 13.5909V11.8636C8.60743 11.8636 6.86365 13.619 6.86365 15.7635H8.59092ZM8.59092 33.9809V15.7635H6.86365V33.9809H8.59092ZM10.7635 36.1534C9.5708 36.1534 8.59092 35.1808 8.59092 33.9809H6.86365C6.86365 36.1389 8.6211 37.8807 10.7635 37.8807V36.1534ZM39.2365 36.1534H10.7635V37.8807H39.2365V36.1534ZM41.4091 33.9809C41.4091 35.1848 40.427 36.1534 39.2365 36.1534V37.8807C41.373 37.8807 43.1364 36.1465 43.1364 33.9809H41.4091ZM41.4091 15.7635V33.9809H43.1364V15.7635H41.4091ZM39.2365 13.5909C40.4394 13.5909 41.4091 14.5712 41.4091 15.7635H43.1364C43.1364 13.6235 41.3996 11.8636 39.2365 11.8636V13.5909ZM27.756 26.9666L39.4203 15.3637L38.2022 14.1391L26.5378 25.742L27.756 26.9666ZM25 28.1072C26.04 28.1072 27.0221 27.7005 27.7576 26.965L26.5362 25.7436C26.1248 26.1552 25.5819 26.38 25 26.38V28.1072ZM22.2405 26.9632C22.9776 27.7001 23.9595 28.1072 25 28.1072V26.38C24.4184 26.38 23.8756 26.1554 23.4619 25.7417L22.2405 26.9632ZM10.5797 15.3637L22.2421 26.9647L23.4603 25.7401L11.7978 14.1391L10.5797 15.3637ZM38.8113 13.8878H11.1887V15.6151H38.8113V13.8878ZM10.6151 33.5689V16.1768H8.8878V33.5689H10.6151ZM17.8896 24.2649L9.1427 32.9562L10.3602 34.1816L19.107 25.4902L17.8896 24.2649ZM9.14237 16.7891L17.8892 25.4899L19.1074 24.2653L10.3605 15.5645L9.14237 16.7891ZM19.3247 25.6924L10.5813 34.3802L11.7987 35.6055L20.5422 26.9177L19.3247 25.6924ZM22.0309 27.1733L20.5425 25.6928L19.3244 26.9173L20.8127 28.398L22.0309 27.1733ZM25 28.4042C23.8775 28.4042 22.8263 27.9687 22.0325 27.1749L20.8111 28.3962C21.9289 29.5141 23.4194 30.1315 25 30.1315V28.4042ZM27.9657 27.1768C27.174 27.9686 26.1229 28.4042 25 28.4042V30.1315C26.5805 30.1315 28.0709 29.5143 29.1871 28.3981L27.9657 27.1768ZM29.4576 25.6928L27.9673 27.1752L29.1854 28.3997L30.6757 26.9173L29.4576 25.6928ZM39.4188 34.3802L30.6753 25.6924L29.4579 26.9177L38.2012 35.6055L39.4188 34.3802ZM11.19 35.8565H38.8101V34.1292H11.19V35.8565ZM40.8572 32.9562L32.1105 24.2649L30.8929 25.4902L39.6399 34.1816L40.8572 32.9562ZM39.3849 16.1768V33.5689H41.1122V16.1768H39.3849ZM32.1108 25.4899L40.8576 16.7891L39.6395 15.5645L30.8926 24.2653L32.1108 25.4899Z"
        fill="#3AAFA9" />
</svg>