<svg width="20" height="20" viewBox="0 0 20 20" fill="none" xmlns="http://www.w3.org/2000/svg">
    <path
        d="M19.5269 0H15.0364C14.7752 0 14.5635 0.211717 14.5635 0.472864V1.73383C14.5635 1.99498 14.7752 2.2067 15.0364 2.2067H16.2326L12.6307 5.80847C12.5421 5.89711 12.4922 6.01741 12.4922 6.14281C12.4922 6.26822 12.5421 6.38851 12.6307 6.47716L13.5224 7.36885C13.6148 7.46122 13.7358 7.50737 13.8568 7.50737C13.9778 7.50737 14.0989 7.46116 14.1912 7.36885L17.7931 3.76708V4.96337C17.7931 5.22451 18.0048 5.43623 18.266 5.43623H19.527C19.7882 5.43623 19.9998 5.22451 19.9998 4.96337V0.472864C19.9998 0.211717 19.788 0 19.5269 0Z"
        fill="#FF0066" />
    <path
        d="M3.76715 2.2067H4.96337C5.22458 2.2067 5.43623 1.99498 5.43623 1.73383V0.472864C5.43623 0.211717 5.22458 0 4.96337 0H0.472864C0.211654 0 0 0.211717 0 0.472864V4.96337C0 5.22451 0.211654 5.43623 0.472864 5.43623H1.73383C1.99504 5.43623 2.2067 5.22451 2.2067 4.96337V3.76715L5.80835 7.36885C5.90071 7.46116 6.02176 7.50737 6.14282 7.50737C6.26381 7.50737 6.38486 7.46116 6.47729 7.36885L7.36892 6.47716C7.45757 6.38851 7.50738 6.26822 7.50738 6.14281C7.50738 6.01741 7.45757 5.89711 7.36892 5.80847L3.76715 2.2067Z"
        fill="#FF0066" />
    <path
        d="M6.47723 12.4915C6.29249 12.3069 5.99314 12.3069 5.80834 12.4915L2.2067 16.0932V14.8969C2.2067 14.6357 1.99504 14.424 1.73383 14.424H0.472864C0.211654 14.424 0 14.6357 0 14.8969V19.3874C0 19.6485 0.211654 19.8603 0.472864 19.8603H4.96337C5.22458 19.8603 5.43623 19.6485 5.43623 19.3874V18.1264C5.43623 17.8653 5.22458 17.6536 4.96337 17.6536H3.76715L7.36886 14.0519C7.4575 13.9633 7.50731 13.843 7.50731 13.7176C7.50731 13.5922 7.4575 13.4719 7.36886 13.3832L6.47723 12.4915Z"
        fill="#FF0066" />
    <path
        d="M19.5269 14.4242H18.2659C18.0047 14.4242 17.7931 14.6359 17.7931 14.897V16.0934L14.1911 12.4917C14.0064 12.307 13.7071 12.307 13.5224 12.4917L12.6307 13.3833C12.5421 13.472 12.4922 13.5923 12.4922 13.7177C12.4922 13.8431 12.5421 13.9634 12.6308 14.052L16.2326 17.6537H15.0364C14.7752 17.6537 14.5635 17.8654 14.5635 18.1266V19.3875C14.5635 19.6487 14.7752 19.8604 15.0364 19.8604H19.5269C19.7881 19.8604 19.9998 19.6487 19.9998 19.3875V14.897C19.9998 14.6359 19.788 14.4242 19.5269 14.4242Z"
        fill="#FF0066" />
</svg>