<svg width="23" height="27" viewBox="0 0 23 27" fill="none" xmlns="http://www.w3.org/2000/svg">
<path fill-rule="evenodd" clip-rule="evenodd" d="M10.526 25.8883L10.665 25.9485L10.8005 25.9925L10.9755 26.0308L11.1431 26.0488L11.3181 26.0488L11.4888 26.0305L11.6616 25.9926L11.84 25.9313L11.9355 25.8883L12.0962 25.7976L12.2567 25.6797L21.8721 17.6669C22.552 17.1003 22.6439 16.0898 22.0773 15.4099C21.5542 14.7822 20.653 14.6557 19.9826 15.0856L19.8202 15.2047L12.8333 21.0271L12.8333 2.01272C12.8333 1.12765 12.1158 0.410156 11.2307 0.410156C10.3457 0.410156 9.62818 1.12765 9.62818 2.01272L9.62822 21.0271L2.64129 15.2047C2.01367 14.6816 1.10435 14.7197 0.522516 15.2634L0.384233 15.4099C-0.13879 16.0375 -0.100748 16.9468 0.442984 17.5286L0.58942 17.6669L10.2167 25.6897C10.3114 25.7671 10.4151 25.8339 10.526 25.8883Z" fill="white"/>
</svg>
