<svg width="50" height="50" viewBox="0 0 50 50" fill="#3AAFA9" xmlns="http://www.w3.org/2000/svg">
    <path
        d="M8.01667 39.5833H6.25C4.59167 39.5833 3.00208 38.925 1.83125 37.7521C0.658333 36.5812 0 34.9917 0 33.3333V27.0833C0 12.1354 11.2021 0 25 0C38.7979 0 50 12.1354 50 27.0833V33.3333C50 34.9917 49.3417 36.5812 48.1687 37.7521C46.9979 38.925 45.4083 39.5833 43.75 39.5833H41.9833C36.3792 49.2354 27.6 50 25 50C22.4 50 13.6208 49.2354 8.01667 39.5833ZM41.6667 27.3417C40.4146 27.8333 39.0229 26.9667 39.0229 25.6812C39.0229 25.0479 38.9771 24.4104 38.9125 23.775C35.2437 23.2458 31.375 19.7625 31.2062 16.0187C28.4667 20.1958 21.7792 24.7062 16.5312 24.7062C18.7937 23.25 20.3625 18.9292 20.4958 17.3979C19.2854 19.6729 14.4583 23.9312 11.0146 24.6625L10.9771 25.6812C10.9771 26.9708 9.58333 27.8312 8.33333 27.3417V35.1979C8.93125 35.7313 9.65 36.1646 10.5021 36.4354C10.9708 36.5854 11.3604 36.9021 11.5875 37.3187C16.1833 45.7479 22.8917 45.8333 25 45.8333C26.9354 45.8333 32.7479 45.7604 37.2438 39.2312C35.0125 40.1333 32.525 40.4896 29.4125 40.5917C28.6417 41.8417 26.9542 42.7083 25 42.7083C22.3167 42.7083 20.1396 41.075 20.1396 39.0625C20.1396 37.05 22.3167 35.4167 25 35.4167C26.9437 35.4167 28.6208 36.2729 29.4 37.5104C33.3583 37.4562 38.4333 36.8146 41.6667 32V27.3417ZM18.75 26.0417C20.1792 26.0417 21.3396 27.4417 21.3396 29.1667C21.3396 30.8917 20.1792 32.2917 18.75 32.2917C17.3208 32.2917 16.1604 30.8917 16.1604 29.1667C16.1604 27.4417 17.3208 26.0417 18.75 26.0417ZM31.25 26.0417C32.6792 26.0417 33.8396 27.4417 33.8396 29.1667C33.8396 30.8917 32.6792 32.2917 31.25 32.2917C29.8208 32.2917 28.6604 30.8917 28.6604 29.1667C28.6604 27.4417 29.8208 26.0417 31.25 26.0417ZM42.6625 22.9167H45.4896C43.7062 12.2542 35.2042 4.16667 25 4.16667C14.7958 4.16667 6.29375 12.2542 4.51042 22.9167H7.3375C8.42083 14.5354 14.4437 6.82917 25 6.82917C35.5562 6.82917 41.5792 14.5354 42.6625 22.9167Z" />
</svg>