<svg width="24" height="25" viewBox="0 0 24 25" fill="none" xmlns="http://www.w3.org/2000/svg">
    <g clip-path="url(#clip0_4464_403)">
        <path
            d="M5 10.9009C3.9 10.9009 3 11.8009 3 12.9009C3 14.0009 3.9 14.9009 5 14.9009C6.1 14.9009 7 14.0009 7 12.9009C7 11.8009 6.1 10.9009 5 10.9009ZM19 10.9009C17.9 10.9009 17 11.8009 17 12.9009C17 14.0009 17.9 14.9009 19 14.9009C20.1 14.9009 21 14.0009 21 12.9009C21 11.8009 20.1 10.9009 19 10.9009ZM12 10.9009C10.9 10.9009 10 11.8009 10 12.9009C10 14.0009 10.9 14.9009 12 14.9009C13.1 14.9009 14 14.0009 14 12.9009C14 11.8009 13.1 10.9009 12 10.9009Z"
            fill="white" />
    </g>
    <defs>
        <clipPath id="clip0_4464_403">
            <rect width="24" height="24" fill="white" transform="translate(0 0.900879)" />
        </clipPath>
    </defs>
</svg>