<svg width="30" height="30" viewBox="0 0 30 30" fill="none" xmlns="http://www.w3.org/2000/svg">
<path fill-rule="evenodd" clip-rule="evenodd" d="M25.3027 6.25H4.69727C3.48325 6.25 2.5 7.23936 2.5 8.44727V21.6309C2.5 22.8459 3.49048 23.8281 4.69727 23.8281H25.3027C26.5066 23.8281 27.5 22.8501 27.5 21.6309V8.44727C27.5 7.2415 26.5207 6.25 25.3027 6.25ZM24.995 7.71484L16.5537 16.1117C16.1387 16.5267 15.5869 16.7552 15 16.7552C14.4131 16.7552 13.8613 16.5267 13.4449 16.1103L5.00496 7.71484H24.995ZM3.96484 8.74634V21.3327L10.2948 15.043L3.96484 8.74634ZM5.00589 22.3633L11.3334 16.076L12.4105 17.1475C13.1022 17.8392 14.0218 18.2201 15 18.2201C15.9782 18.2201 16.8978 17.8392 17.5881 17.1488L18.6666 16.076L24.9941 22.3633H5.00589ZM19.7052 15.043L26.0352 21.3327V8.74634L19.7052 15.043Z" fill="#A3ABB6"/>
</svg>
