<svg width="47" height="46" viewBox="0 0 47 46" fill="none" xmlns="http://www.w3.org/2000/svg">
<path fill-rule="evenodd" clip-rule="evenodd" d="M31.2489 14.3037C31.2489 19.0569 27.403 24.7976 22.6269 24.7976C17.8508 24.7976 14.0049 19.0569 14.0049 14.3038C14.0049 9.54971 17.8728 5.68182 22.6269 5.68182C27.381 5.68182 31.2489 9.54971 31.2489 14.3037ZM28.98 14.3038C28.98 10.8007 26.13 7.95076 22.6269 7.95076C19.1238 7.95076 16.2738 10.8007 16.2738 14.3038C16.2738 17.9294 19.265 22.5288 22.6269 22.5288C25.9888 22.5288 28.98 17.9294 28.98 14.3038Z" fill="#FF0066"/>
<path fill-rule="evenodd" clip-rule="evenodd" d="M38.7213 38.4518L38.2795 35.8005C37.3593 30.2796 32.629 26.2725 27.0319 26.2725H18.2224C12.6254 26.2725 7.89507 30.2796 6.97484 35.8006L6.53304 38.4518C6.47817 38.7808 6.57092 39.1171 6.78648 39.3716C7.00193 39.6261 7.31862 39.7728 7.65207 39.7728H37.6021C37.9356 39.7728 38.2523 39.6261 38.4677 39.3716C38.6834 39.1171 38.7761 38.7808 38.7213 38.4518ZM23.9453 28.5415L22.6272 29.6619L21.309 28.5415H23.9453ZM33.1211 34.8945V37.5038H36.2629L36.0413 36.1736C35.3265 31.8855 31.7423 28.7377 27.4381 28.5505L23.3619 32.0151C23.1501 32.195 22.8886 32.2852 22.6272 32.2852C22.3657 32.2852 22.1042 32.195 21.8924 32.0151L17.8162 28.5505C13.512 28.7377 9.92766 31.8855 9.21302 36.1737L8.99137 37.5038H12.1331V34.8945C12.1331 34.2679 12.641 33.76 13.2677 33.76C13.8943 33.76 14.4022 34.268 14.4022 34.8945V37.5038H30.852V34.8945C30.852 34.2679 31.3601 33.76 31.9865 33.76C32.6132 33.76 33.1211 34.268 33.1211 34.8945Z" fill="#FF0066"/>
</svg>
