<svg width="48" height="44" viewBox="0 0 48 44" fill="none" xmlns="http://www.w3.org/2000/svg">
<path d="M39.4453 0H8.55469C3.83812 0 0 3.83813 0 8.55563V25.3444C0 30.0619 3.83812 33.8991 8.55469 33.8991H16.2441L22.8834 42.5663C23.4459 43.3013 24.5541 43.3003 25.1166 42.5663L31.7559 33.8991H39.4453C44.1619 33.8991 48 30.0619 48 25.3444V8.55563C48 3.83813 44.1619 0 39.4453 0ZM33.8503 19.0369L24.9947 27.8925C24.4462 28.4419 23.5556 28.4419 23.0062 27.8925L14.1497 19.0369C11.5012 16.3884 11.5012 12.1022 14.1497 9.45469C16.7916 6.81281 21.09 6.81281 23.7319 9.45469L24 9.72281L24.2681 9.45563C25.5478 8.175 27.2494 7.47 29.0588 7.47C30.8691 7.47 32.5706 8.175 33.8503 9.45469C36.4922 12.0966 36.4922 16.395 33.8503 19.0369Z" fill="#FF0066"/>
<path d="M31.8623 17.0484L24.0005 24.9094L16.1386 17.0484C13.6664 14.5763 15.3952 10.2825 18.9408 10.2825C20.0002 10.2825 20.9948 10.6941 21.7439 11.4431L23.0067 12.7059C23.5552 13.2553 24.4467 13.2553 24.9952 12.7059L26.257 11.4441C27.0061 10.695 28.0008 10.2825 29.0602 10.2825C32.5645 10.2825 34.3608 14.55 31.8623 17.0484Z" fill="#FF0066"/>
</svg>
