<svg width="34" height="34" viewBox="0 0 34 34" fill="none" xmlns="http://www.w3.org/2000/svg">
<path fill-rule="evenodd" clip-rule="evenodd" d="M5.88856 0.333313H2.71396C1.39904 0.333313 0.333008 1.39934 0.333008 2.71427V5.88887C0.333008 7.20379 1.39904 8.26982 2.71396 8.26982H5.88856C7.20348 8.26982 8.26952 7.20379 8.26952 5.88887V2.71427C8.26952 1.39934 7.20348 0.333313 5.88856 0.333313ZM15.4124 0.333313H18.587C19.9019 0.333313 20.9679 1.39934 20.9679 2.71427V5.88887C20.9679 7.20379 19.9019 8.26982 18.587 8.26982H15.4124C14.0974 8.26982 13.0314 7.20379 13.0314 5.88887V2.71427C13.0314 1.39934 14.0974 0.333313 15.4124 0.333313ZM28.1108 0.333313H31.2854C32.6003 0.333313 33.6663 1.39934 33.6663 2.71427V5.88887C33.6663 7.20379 32.6003 8.26982 31.2854 8.26982H28.1108C26.7959 8.26982 25.7298 7.20379 25.7298 5.88887V2.71427C25.7298 1.39934 26.7959 0.333313 28.1108 0.333313ZM2.71396 25.7301H5.88856C7.20348 25.7301 8.26952 26.7962 8.26952 28.1111V31.2857C8.26952 32.6006 7.20348 33.6666 5.88856 33.6666H2.71396C1.39904 33.6666 0.333008 32.6006 0.333008 31.2857V28.1111C0.333008 26.7962 1.39904 25.7301 2.71396 25.7301ZM18.587 13.0317H15.4124C14.0974 13.0317 13.0314 14.0978 13.0314 15.4127V18.5873C13.0314 19.9022 14.0974 20.9682 15.4124 20.9682H18.587C19.9019 20.9682 20.9679 19.9022 20.9679 18.5873V15.4127C20.9679 14.0978 19.9019 13.0317 18.587 13.0317ZM2.71396 13.0317H5.88856C7.20348 13.0317 8.26952 14.0978 8.26952 15.4127V18.5873C8.26952 19.9022 7.20348 20.9682 5.88856 20.9682H2.71396C1.39904 20.9682 0.333008 19.9022 0.333008 18.5873V15.4127C0.333008 14.0978 1.39904 13.0317 2.71396 13.0317Z" fill="#FF0066"/>
<path fill-rule="evenodd" clip-rule="evenodd" d="M28.1106 13.0317H31.2852C32.6001 13.0317 33.6662 14.0978 33.6662 15.4127V18.5873C33.6662 19.9022 32.6001 20.9682 31.2852 20.9682H28.1106C26.7957 20.9682 25.7297 19.9022 25.7297 18.5873V15.4127C25.7297 14.0978 26.7957 13.0317 28.1106 13.0317ZM18.5868 25.7302H15.4122C14.0973 25.7302 13.0312 26.7962 13.0312 28.1111V31.2857C13.0312 32.6006 14.0973 33.6667 15.4122 33.6667H18.5868C19.9017 33.6667 20.9678 32.6006 20.9678 31.2857V28.1111C20.9678 26.7962 19.9017 25.7302 18.5868 25.7302ZM31.2852 25.7302H28.1106C26.7957 25.7302 25.7297 26.7962 25.7297 28.1111V31.2857C25.7297 32.6006 26.7957 33.6667 28.1106 33.6667H31.2852C32.6001 33.6667 33.6662 32.6006 33.6662 31.2857V28.1111C33.6662 26.7962 32.6001 25.7302 31.2852 25.7302Z" fill="#979797"/>
</svg>
