<svg xmlns="http://www.w3.org/2000/svg" width="40" height="38" viewBox="0 0 40 38" fill="none">
    <path fill-rule="evenodd" clip-rule="evenodd"
        d="M37.2195 0H2.78052C1.24495 0 3.05176e-05 1.21528 3.05176e-05 2.71429V6.33333C3.05176e-05 7.83234 1.24495 9.04762 2.78052 9.04762H37.2195C38.7551 9.04762 40 7.83234 40 6.33333V2.71429C40 1.21528 38.7551 0 37.2195 0ZM37.3058 28.9523H2.69427C1.20633 28.9523 3.05176e-05 30.1675 3.05176e-05 31.6665V35.2856C3.05176e-05 36.7846 1.20633 37.9999 2.69427 37.9999H37.3058C38.7937 37.9999 40 36.7846 40 35.2856V31.6665C40 30.1675 38.7937 28.9523 37.3058 28.9523ZM2.69427 14.4761H37.3058C38.7937 14.4761 40 15.6914 40 17.1904V20.8095C40 22.3085 38.7937 23.5237 37.3058 23.5237H2.69427C1.20633 23.5237 3.05176e-05 22.3085 3.05176e-05 20.8095V17.1904C3.05176e-05 15.6914 1.20633 14.4761 2.69427 14.4761Z"
        fill="#3AAFA9" />
</svg>