<svg width="31" height="30" viewBox="0 0 31 30" fill="none" xmlns="http://www.w3.org/2000/svg">
    <path
        d="M12.5983 20.8466C12.253 20.8466 11.972 20.5694 11.972 20.2287C11.972 19.8873 11.6917 19.6107 11.3458 19.6107C10.9999 19.6107 10.7196 19.8873 10.7196 20.2287C10.7196 21.0367 11.2463 21.7251 11.9787 21.9785V22.5195C11.9787 22.8609 12.259 23.1375 12.6049 23.1375C12.9508 23.1375 13.2311 22.8609 13.2311 22.5195V21.974C13.9565 21.7171 14.4769 21.0318 14.4769 20.2287C14.4769 19.2064 13.6341 18.3747 12.5983 18.3747C12.253 18.3747 11.972 18.0974 11.972 17.7567C11.972 17.4159 12.253 17.1387 12.5983 17.1387C12.9435 17.1387 13.2245 17.4159 13.2245 17.7567C13.2245 18.0981 13.5048 18.3747 13.8507 18.3747C14.1965 18.3747 14.4769 18.0981 14.4769 17.7567C14.4769 16.9535 13.9565 16.2683 13.2311 16.0113V15.1038C13.2311 14.7624 12.9508 14.4858 12.6049 14.4858C12.259 14.4858 11.9787 14.7624 11.9787 15.1038V16.0068C11.2463 16.26 10.7196 16.9485 10.7196 17.7567C10.7196 18.779 11.5624 19.6107 12.5983 19.6107C12.9435 19.6107 13.2245 19.8878 13.2245 20.2287C13.2245 20.5694 12.9435 20.8466 12.5983 20.8466Z"
        fill="white" />
    <path fill-rule="evenodd" clip-rule="evenodd"
        d="M12.8823 25.6938C10.3445 25.6938 8.55537 25.3731 7.25223 24.6846C5.55847 23.7896 4.69971 22.2581 4.69971 20.132C4.69971 17.0543 6.46552 14.2121 8.97807 12.7155C8.68029 12.3874 8.49879 11.9543 8.49879 11.4803C8.49879 10.7417 8.93877 10.1028 9.57363 9.80493L8.52963 6.64565C8.46747 6.45736 8.50041 6.2512 8.61813 6.09107C8.73603 5.93078 8.92443 5.83599 9.12501 5.83599H11.1109C11.3694 5.11662 12.0658 4.60004 12.8823 4.60004C13.6987 4.60004 14.3947 5.11662 14.6533 5.83599H16.6396C16.8402 5.83599 17.0286 5.93078 17.1465 6.09107C17.2642 6.2512 17.2972 6.45736 17.235 6.64565L16.191 9.80493C16.8259 10.1028 17.2659 10.7417 17.2659 11.4803C17.2659 11.954 17.0845 12.3867 16.7872 12.7147C17.5987 13.1979 18.3352 13.8277 18.9637 14.5789C19.0232 14.5732 19.0836 14.5701 19.1445 14.5701H24.1961C25.2319 14.5701 26.0747 15.4018 26.0747 16.4241C26.0747 16.8985 25.893 17.3318 25.5948 17.66C25.8929 17.9883 26.0747 18.4216 26.0747 18.896C26.0747 19.3704 25.893 19.8036 25.5948 20.132C25.8929 20.4603 26.0747 20.8935 26.0747 21.3679C26.0747 21.8424 25.893 22.2756 25.5948 22.6039C25.8929 22.9322 26.0747 23.3654 26.0747 23.8398C26.0747 24.8621 25.2319 25.6938 24.1961 25.6938H19.1445C18.5692 25.6938 18.0537 25.4369 17.7088 25.0337C16.5013 25.4826 14.9472 25.6938 12.8823 25.6938ZM24.1961 19.514C24.5413 19.514 24.8223 19.2367 24.8223 18.896C24.8223 18.5553 24.5413 18.278 24.1961 18.278H19.1445C18.7993 18.278 18.5183 18.5553 18.5183 18.896C18.5183 19.2367 18.7993 19.514 19.1445 19.514H24.1961ZM24.8223 21.3679C24.8223 21.7086 24.5413 21.9859 24.1961 21.9859H19.1445C18.7993 21.9859 18.5183 21.7086 18.5183 21.3679C18.5183 21.0272 18.7993 20.75 19.1445 20.75H24.1961C24.5413 20.75 24.8223 21.0272 24.8223 21.3679ZM19.1445 24.4578H24.1961C24.5413 24.4578 24.8223 24.1805 24.8223 23.8398C24.8223 23.4992 24.5413 23.2219 24.1961 23.2219H19.1445C18.7993 23.2219 18.5183 23.4992 18.5183 23.8398C18.5183 24.1805 18.7993 24.4578 19.1445 24.4578ZM24.8223 16.4241C24.8223 16.7647 24.5413 17.0421 24.1961 17.0421H19.1445C18.7993 17.0421 18.5183 16.7647 18.5183 16.4241C18.5183 16.0834 18.7993 15.8061 19.1445 15.8061H24.1961C24.5413 15.8061 24.8223 16.0834 24.8223 16.4241ZM10.3956 12.0982H15.3693C15.3747 12.0981 15.38 12.0982 15.3852 12.0982H15.3872C15.7324 12.0982 16.0134 11.8209 16.0134 11.4803C16.0134 11.1402 15.7336 10.8634 15.3892 10.8624H15.3874L15.3828 10.8622H10.3817L10.3773 10.8624H10.3755C10.0311 10.8634 9.75123 11.1402 9.75123 11.4803C9.75123 11.8209 10.0322 12.0982 10.3774 12.0982H10.3789H10.3845C10.3881 12.0981 10.3918 12.0981 10.3956 12.0982ZM11.6299 7.07196C11.9758 7.07196 12.2561 6.79532 12.2561 6.45398C12.2561 6.11328 12.5371 5.83599 12.8823 5.83599C13.2276 5.83599 13.5085 6.11328 13.5085 6.45398V7.68993C13.5085 8.03127 13.7889 8.30793 14.1348 8.30793C14.4807 8.30793 14.761 8.03127 14.761 7.68993V7.07196H15.7768L14.9327 9.62631H10.8319L9.98787 7.07196H11.6299ZM15.2626 13.3342H10.4996C7.81647 14.4395 5.95215 17.2172 5.95215 20.132C5.95215 21.8129 6.55309 22.9132 7.84335 23.5949C8.95755 24.1836 10.5588 24.4578 12.8823 24.4578C14.7965 24.4578 16.2075 24.2724 17.2668 23.8777C17.2668 23.8735 17.2666 23.8694 17.2665 23.8652C17.2662 23.8568 17.2659 23.8484 17.2659 23.8398C17.2659 23.3654 17.4477 22.9322 17.7458 22.6039C17.4477 22.2756 17.2659 21.8424 17.2659 21.3679C17.2659 20.8935 17.4477 20.4603 17.7458 20.132C17.4477 19.8036 17.2659 19.3704 17.2659 18.896C17.2659 18.4216 17.4477 17.9883 17.7458 17.66C17.4477 17.3318 17.2659 16.8985 17.2659 16.4241C17.2659 15.9235 17.4682 15.4691 17.796 15.1352C17.0752 14.3406 16.2109 13.7251 15.2626 13.3342Z"
        fill="white" />
</svg>