<svg width="20" height="20" viewBox="0 0 20 20" fill="none" xmlns="http://www.w3.org/2000/svg">
    <g clip-path="url(#clip0_3904_1389)">
        <path
            d="M5.57788 9.89691C5.1162 9.89691 4.65904 9.80598 4.23251 9.6293C3.80597 9.45263 3.41841 9.19367 3.09196 8.86721C2.7655 8.54075 2.50654 8.15319 2.32987 7.72666C2.15319 7.30012 2.06226 6.84297 2.06226 6.38129C2.06226 5.91961 2.15319 5.46245 2.32987 5.03592C2.50654 4.60938 2.7655 4.22182 3.09196 3.89536C3.41841 3.56891 3.80597 3.30995 4.23251 3.13327C4.65904 2.9566 5.1162 2.86566 5.57788 2.86566C6.51028 2.86566 7.4045 3.23606 8.0638 3.89536C8.72311 4.55467 9.09351 5.44889 9.09351 6.38129C9.09351 7.31369 8.72311 8.2079 8.0638 8.86721C7.4045 9.52652 6.51028 9.89691 5.57788 9.89691ZM5.96851 17.7094C5.0361 17.7094 4.14189 17.339 3.48258 16.6797C2.82328 16.0204 2.45288 15.1262 2.45288 14.1938C2.45288 13.2614 2.82328 12.3672 3.48258 11.7079C4.14189 11.0486 5.0361 10.6782 5.96851 10.6782C6.90091 10.6782 7.79512 11.0486 8.45443 11.7079C9.11374 12.3672 9.48413 13.2614 9.48413 14.1938C9.48413 15.1262 9.11374 16.0204 8.45443 16.6797C7.79512 17.339 6.90091 17.7094 5.96851 17.7094ZM13.781 9.89691C13.3193 9.89691 12.8622 9.80598 12.4356 9.6293C12.0091 9.45263 11.6215 9.19367 11.2951 8.86721C10.9686 8.54075 10.7097 8.15319 10.533 7.72666C10.3563 7.30012 10.2654 6.84297 10.2654 6.38129C10.2654 5.91961 10.3563 5.46245 10.533 5.03592C10.7097 4.60938 10.9686 4.22182 11.2951 3.89536C11.6215 3.56891 12.0091 3.30995 12.4356 3.13327C12.8622 2.9566 13.3193 2.86566 13.781 2.86566C14.7134 2.86566 15.6076 3.23606 16.2669 3.89536C16.9262 4.55467 17.2966 5.44889 17.2966 6.38129C17.2966 7.31369 16.9262 8.2079 16.2669 8.86721C15.6076 9.52652 14.7134 9.89691 13.781 9.89691ZM13.781 17.7094C12.8486 17.7094 11.9544 17.339 11.2951 16.6797C10.6358 16.0204 10.2654 15.1262 10.2654 14.1938C10.2654 13.2614 10.6358 12.3672 11.2951 11.7079C11.9544 11.0486 12.8486 10.6782 13.781 10.6782C14.7134 10.6782 15.6076 11.0486 16.2669 11.7079C16.9262 12.3672 17.2966 13.2614 17.2966 14.1938C17.2966 15.1262 16.9262 16.0204 16.2669 16.6797C15.6076 17.339 14.7134 17.7094 13.781 17.7094ZM5.57788 8.33441C6.09588 8.33441 6.59267 8.12864 6.95895 7.76236C7.32523 7.39607 7.53101 6.89929 7.53101 6.38129C7.53101 5.86329 7.32523 5.3665 6.95895 5.00022C6.59267 4.63394 6.09588 4.42816 5.57788 4.42816C5.05988 4.42816 4.5631 4.63394 4.19681 5.00022C3.83053 5.3665 3.62476 5.86329 3.62476 6.38129C3.62476 6.89929 3.83053 7.39607 4.19681 7.76236C4.5631 8.12864 5.05988 8.33441 5.57788 8.33441ZM5.96851 16.1469C6.48651 16.1469 6.98329 15.9411 7.34957 15.5749C7.71586 15.2086 7.92163 14.7118 7.92163 14.1938C7.92163 13.6758 7.71586 13.179 7.34957 12.8127C6.98329 12.4464 6.48651 12.2407 5.96851 12.2407C5.45051 12.2407 4.95372 12.4464 4.58744 12.8127C4.22116 13.179 4.01538 13.6758 4.01538 14.1938C4.01538 14.7118 4.22116 15.2086 4.58744 15.5749C4.95372 15.9411 5.45051 16.1469 5.96851 16.1469ZM13.781 8.33441C14.299 8.33441 14.7958 8.12864 15.1621 7.76236C15.5284 7.39607 15.7341 6.89929 15.7341 6.38129C15.7341 5.86329 15.5284 5.3665 15.1621 5.00022C14.7958 4.63394 14.299 4.42816 13.781 4.42816C13.263 4.42816 12.7662 4.63394 12.3999 5.00022C12.0337 5.3665 11.8279 5.86329 11.8279 6.38129C11.8279 6.89929 12.0337 7.39607 12.3999 7.76236C12.7662 8.12864 13.263 8.33441 13.781 8.33441ZM13.781 16.1469C14.299 16.1469 14.7958 15.9411 15.1621 15.5749C15.5284 15.2086 15.7341 14.7118 15.7341 14.1938C15.7341 13.6758 15.5284 13.179 15.1621 12.8127C14.7958 12.4464 14.299 12.2407 13.781 12.2407C13.263 12.2407 12.7662 12.4464 12.3999 12.8127C12.0337 13.179 11.8279 13.6758 11.8279 14.1938C11.8279 14.7118 12.0337 15.2086 12.3999 15.5749C12.7662 15.9411 13.263 16.1469 13.781 16.1469Z"
            fill="white" />
    </g>
    <defs>
        <clipPath id="clip0_3904_1389">
            <rect width="18.75" height="18.75" fill="white" transform="translate(0.499756 0.912537)" />
        </clipPath>
    </defs>
</svg>