<svg width="31" height="30" viewBox="0 0 31 30" fill="none" xmlns="http://www.w3.org/2000/svg">
    <path fill-rule="evenodd" clip-rule="evenodd"
        d="M23.4051 10.9025H22.4103L17.5756 6.13136C17.3306 5.88964 16.9334 5.88964 16.6884 6.13136L15.2501 7.55081L13.8117 6.13136C13.5668 5.88964 13.1696 5.88964 12.9246 6.13136L8.08987 10.9025H6.67688C6.33042 10.9025 6.04956 11.1797 6.04956 11.5215V23.9027C6.04956 24.2445 6.33042 24.5217 6.67688 24.5217H20.8959H23.4051C24.4428 24.5217 25.2871 23.6886 25.2871 22.6646V20.1883V15.2359V12.7596C25.2871 11.7356 24.4428 10.9025 23.4051 10.9025ZM17.1321 7.44458L20.6361 10.9025H18.6465L16.1373 8.42628L17.1321 7.44458ZM14.8066 8.86402L13.3682 7.44458L9.86415 10.9025H16.8722L14.8066 8.86402ZM21.5232 22.6646C21.5232 23.0059 21.2418 23.2836 20.8959 23.2836H7.30417V12.1406H8.34969H18.3866H20.8959C21.2418 12.1406 21.5232 12.4184 21.5232 12.7597V14.6168H19.6413C17.9118 14.6168 16.5047 16.0054 16.5047 17.7121C16.5047 19.4189 17.9118 20.8074 19.6413 20.8074H21.5232V22.6646ZM23.4051 23.2836C23.751 23.2836 24.0324 23.0059 24.0324 22.6646V20.8074H22.7778V22.6646C22.7778 22.8816 22.7396 23.0898 22.67 23.2836H23.4051ZM24.0324 19.5693H22.1505H19.6413C18.6036 19.5693 17.7593 18.7361 17.7593 17.7121C17.7593 16.688 18.6036 15.8549 19.6413 15.8549H22.1505H24.0324V19.5693ZM22.7778 14.6168H24.0324V12.7596C24.0324 12.4182 23.751 12.1406 23.4051 12.1406H22.67C22.7396 12.3344 22.7778 12.5427 22.7778 12.7596V14.6168Z"
        fill="white" />
    <path
        d="M22.4104 10.9024L22.3051 11.0092C22.3332 11.0369 22.371 11.0524 22.4104 11.0524V10.9024ZM15.2502 7.55079L15.1448 7.65756C15.2033 7.7152 15.2972 7.7152 15.3556 7.65755L15.2502 7.55079ZM8.08996 10.9024V11.0524C8.1294 11.0524 8.16726 11.0369 8.19532 11.0092L8.08996 10.9024ZM20.6362 10.9025V11.0525C20.6971 11.0525 20.7518 11.0157 20.7749 10.9594C20.798 10.9032 20.7849 10.8385 20.7415 10.7957L20.6362 10.9025ZM17.1322 7.44456L17.2375 7.33779C17.1791 7.28015 17.0852 7.28015 17.0268 7.33779L17.1322 7.44456ZM18.6466 10.9025L18.5413 11.0092C18.5694 11.037 18.6071 11.0525 18.6466 11.0525V10.9025ZM16.1374 8.42625L16.032 8.31949C16.0034 8.34768 15.9874 8.38613 15.9874 8.42625C15.9874 8.46638 16.0034 8.50484 16.032 8.53302L16.1374 8.42625ZM13.3683 7.44456L13.4737 7.33779C13.4152 7.28015 13.3213 7.28015 13.2629 7.33779L13.3683 7.44456ZM9.86425 10.9025L9.75889 10.7957C9.71557 10.8385 9.70237 10.9032 9.72547 10.9594C9.74857 11.0157 9.80341 11.0525 9.86425 11.0525V10.9025ZM16.8723 10.9025V11.0525C16.9332 11.0525 16.988 11.0157 17.0111 10.9594C17.0342 10.9032 17.021 10.8385 16.9777 10.7957L16.8723 10.9025ZM7.30427 23.2836H7.15427C7.15427 23.3664 7.22143 23.4336 7.30427 23.4336V23.2836ZM7.30427 12.1406V11.9906C7.22143 11.9906 7.15427 12.0577 7.15427 12.1406H7.30427ZM21.5233 14.6168V14.7668C21.6061 14.7668 21.6733 14.6997 21.6733 14.6168H21.5233ZM21.5233 20.8074H21.6733C21.6733 20.7245 21.6061 20.6574 21.5233 20.6574V20.8074ZM24.0325 20.8074H24.1825C24.1825 20.7245 24.1154 20.6574 24.0325 20.6574V20.8074ZM22.7779 20.8074V20.6574C22.6951 20.6574 22.6279 20.7245 22.6279 20.8074H22.7779ZM22.67 23.2836L22.5289 23.2329C22.5124 23.2788 22.5193 23.3299 22.5474 23.3699C22.5754 23.4099 22.6212 23.4336 22.67 23.4336V23.2836ZM24.0325 19.5693V19.7193C24.1154 19.7193 24.1825 19.6521 24.1825 19.5693H24.0325ZM24.0325 15.8549H24.1825C24.1825 15.772 24.1154 15.7049 24.0325 15.7049V15.8549ZM24.0325 14.6168V14.7668C24.1154 14.7668 24.1825 14.6997 24.1825 14.6168H24.0325ZM22.7779 14.6168H22.6279C22.6279 14.6997 22.6951 14.7668 22.7779 14.7668V14.6168ZM22.67 12.1405V11.9905C22.6212 11.9905 22.5754 12.0144 22.5474 12.0543C22.5193 12.0942 22.5124 12.1453 22.5289 12.1913L22.67 12.1405ZM22.4104 11.0524H23.4052V10.7524H22.4104V11.0524ZM17.4703 6.2381L22.3051 11.0092L22.5158 10.7957L17.6811 6.02457L17.4703 6.2381ZM16.7939 6.23811C16.9804 6.05402 17.2838 6.05403 17.4703 6.2381L17.6811 6.02457C17.3777 5.7252 16.8865 5.72522 16.5832 6.02456L16.7939 6.23811ZM15.3556 7.65755L16.7939 6.23811L16.5832 6.02456L15.1448 7.44402L15.3556 7.65755ZM13.7065 6.2381L15.1448 7.65756L15.3556 7.44402L13.9172 6.02457L13.7065 6.2381ZM13.03 6.23811C13.2166 6.05402 13.52 6.05403 13.7065 6.2381L13.9172 6.02457C13.6138 5.7252 13.1227 5.72522 12.8194 6.02456L13.03 6.23811ZM8.19532 11.0092L13.03 6.23811L12.8194 6.02456L7.9846 10.7957L8.19532 11.0092ZM6.67698 11.0524H8.08996V10.7524H6.67698V11.0524ZM6.19966 11.5215C6.19966 11.2644 6.41149 11.0524 6.67698 11.0524V10.7524C6.24955 10.7524 5.89966 11.095 5.89966 11.5215H6.19966ZM6.19966 23.9026V11.5215H5.89966V23.9026H6.19966ZM6.67698 24.3717C6.41149 24.3717 6.19966 24.1598 6.19966 23.9026H5.89966C5.89966 24.3292 6.24955 24.6717 6.67698 24.6717V24.3717ZM20.896 24.3717H6.67698V24.6717H20.896V24.3717ZM23.4052 24.3717H20.896V24.6717H23.4052V24.3717ZM25.1372 22.6645C25.1372 23.6039 24.362 24.3717 23.4052 24.3717V24.6717C24.5239 24.6717 25.4372 23.7733 25.4372 22.6645H25.1372ZM25.1372 20.1883V22.6645H25.4372V20.1883H25.1372ZM25.1372 15.2359V20.1883H25.4372V15.2359H25.1372ZM25.1372 12.7596V15.2359H25.4372V12.7596H25.1372ZM23.4052 11.0524C24.362 11.0524 25.1372 11.8203 25.1372 12.7596H25.4372C25.4372 11.6508 24.5239 10.7524 23.4052 10.7524V11.0524ZM20.7415 10.7957L17.2375 7.33779L17.0268 7.55132L20.5308 11.0092L20.7415 10.7957ZM18.6466 11.0525H20.6362V10.7525H18.6466V11.0525ZM16.032 8.53302L18.5413 11.0092L18.752 10.7957L16.2427 8.31949L16.032 8.53302ZM17.0268 7.33779L16.032 8.31949L16.2427 8.53302L17.2375 7.55132L17.0268 7.33779ZM13.2629 7.55132L14.7013 8.9708L14.912 8.75724L13.4737 7.33779L13.2629 7.55132ZM9.96961 11.0092L13.4737 7.55132L13.2629 7.33779L9.75889 10.7957L9.96961 11.0092ZM16.8723 10.7525H9.86425V11.0525H16.8723V10.7525ZM14.7013 8.9708L16.7669 11.0092L16.9777 10.7957L14.912 8.75724L14.7013 8.9708ZM20.896 23.4336C21.3229 23.4336 21.6733 23.0906 21.6733 22.6645H21.3733C21.3733 22.9212 21.1609 23.1336 20.896 23.1336V23.4336ZM7.30427 23.4336H20.896V23.1336H7.30427V23.4336ZM7.15427 12.1406V23.2836H7.45427V12.1406H7.15427ZM8.34978 11.9906H7.30427V12.2906H8.34978V11.9906ZM18.3867 11.9906H8.34978V12.2906H18.3867V11.9906ZM20.896 11.9906H18.3867V12.2906H20.896V11.9906ZM21.6733 12.7597C21.6733 12.3336 21.3229 11.9906 20.896 11.9906V12.2906C21.1609 12.2906 21.3733 12.503 21.3733 12.7597H21.6733ZM21.6733 14.6168V12.7597H21.3733V14.6168H21.6733ZM19.6414 14.7668H21.5233V14.4668H19.6414V14.7668ZM16.6548 17.7121C16.6548 16.09 17.9928 14.7668 19.6414 14.7668V14.4668C17.8309 14.4668 16.3548 15.9207 16.3548 17.7121H16.6548ZM19.6414 20.6574C17.9928 20.6574 16.6548 19.3341 16.6548 17.7121H16.3548C16.3548 19.5036 17.8309 20.9574 19.6414 20.9574V20.6574ZM21.5233 20.6574H19.6414V20.9574H21.5233V20.6574ZM21.6733 22.6645V20.8074H21.3733V22.6645H21.6733ZM23.8825 22.6645C23.8825 22.9212 23.6702 23.1336 23.4052 23.1336V23.4336C23.8321 23.4336 24.1825 23.0906 24.1825 22.6645H23.8825ZM23.8825 20.8074V22.6645H24.1825V20.8074H23.8825ZM22.7779 20.9574H24.0325V20.6574H22.7779V20.9574ZM22.9279 22.6645V20.8074H22.6279V22.6645H22.9279ZM22.8112 23.3343C22.8865 23.1247 22.9279 22.8993 22.9279 22.6645H22.6279C22.6279 22.8638 22.5928 23.0549 22.5289 23.2329L22.8112 23.3343ZM23.4052 23.1336H22.67V23.4336H23.4052V23.1336ZM22.1506 19.7193H24.0325V19.4193H22.1506V19.7193ZM19.6414 19.7193H22.1506V19.4193H19.6414V19.7193ZM17.6094 17.7121C17.6094 18.8208 18.5227 19.7193 19.6414 19.7193V19.4193C18.6846 19.4193 17.9094 18.6514 17.9094 17.7121H17.6094ZM19.6414 15.7049C18.5227 15.7049 17.6094 16.6033 17.6094 17.7121H17.9094C17.9094 16.7727 18.6846 16.0049 19.6414 16.0049V15.7049ZM22.1506 15.7049H19.6414V16.0049H22.1506V15.7049ZM24.0325 15.7049H22.1506V16.0049H24.0325V15.7049ZM24.1825 19.5693V15.8549H23.8825V19.5693H24.1825ZM24.0325 14.4668H22.7779V14.7668H24.0325V14.4668ZM23.8825 12.7596V14.6168H24.1825V12.7596H23.8825ZM23.4052 12.2905C23.6702 12.2905 23.8825 12.5029 23.8825 12.7596H24.1825C24.1825 12.3335 23.8321 11.9905 23.4052 11.9905V12.2905ZM22.67 12.2905H23.4052V11.9905H22.67V12.2905ZM22.9279 12.7596C22.9279 12.5249 22.8865 12.2994 22.8112 12.0898L22.5289 12.1913C22.5928 12.3693 22.6279 12.5604 22.6279 12.7596H22.9279ZM22.9279 14.6168V12.7596H22.6279V14.6168H22.9279Z"
        fill="white" />
    <path
        d="M19.6415 18.3313C19.9879 18.3313 20.2688 18.0541 20.2688 17.7122C20.2688 17.3703 19.9879 17.0931 19.6415 17.0931C19.295 17.0931 19.0142 17.3703 19.0142 17.7122C19.0142 18.0541 19.295 18.3313 19.6415 18.3313Z"
        fill="white" stroke="white" stroke-width="0.3" stroke-linejoin="round" />
</svg>