<svg width="21" height="22" viewBox="0 0 21 22" fill="none" xmlns="http://www.w3.org/2000/svg">
    <path fill-rule="evenodd" clip-rule="evenodd"
        d="M14.6271 1.42909C17.6779 1.42909 20.1599 3.91106 20.1599 6.96184C20.1599 9.8056 18.0032 12.1547 15.2397 12.4605V14.6636C16.2998 14.7769 17.1283 15.6766 17.1283 16.7664C17.1283 17.9327 16.1795 18.8814 15.0132 18.8814H11.4055C11.4055 20.4218 10.1709 21.5661 8.74408 21.5661C7.31908 21.5661 6.08266 20.4243 6.08266 18.8814H2.47497C1.30868 18.8814 0.359863 17.9327 0.359863 16.7664C0.359863 15.6766 1.18831 14.7769 2.24847 14.6635V10.1842C2.24847 8.74336 2.71032 7.37866 3.58417 6.23764C4.33454 5.25783 5.36298 4.50443 6.51496 4.08207V2.88912C6.51496 1.66003 7.51492 0.660095 8.74402 0.660095C9.94757 0.660095 10.9308 1.61908 10.9711 2.81293C11.9468 1.95223 13.2269 1.42909 14.6271 1.42909ZM18.9348 6.96184C18.9348 4.5865 17.0024 2.65405 14.627 2.65405C12.2465 2.65405 10.3192 4.59279 10.3193 6.96184C10.3193 9.3364 12.2505 11.2684 14.6248 11.2696L14.627 11.2695L14.6292 11.2696C17.0036 11.2684 18.9348 9.3364 18.9348 6.96184ZM7.73998 2.88912C7.73998 2.33548 8.1904 1.88506 8.74402 1.88506C9.2977 1.88506 9.74813 2.33548 9.74813 2.88912V3.76583C9.09293 3.66419 8.4034 3.66289 7.73998 3.76591V2.88912ZM9.46811 4.96301C6.24256 4.52093 3.47337 7.04974 3.47337 10.1842V14.6512H14.0145V12.4605C10.434 12.0644 8.14858 8.35684 9.46811 4.96301ZM8.74402 20.3412C7.9831 20.3412 7.30756 19.7369 7.30756 18.8814H10.1805C10.1805 19.7333 9.50824 20.3412 8.74402 20.3412ZM15.0131 17.6564C15.504 17.6564 15.9033 17.2571 15.9033 16.7663C15.9033 16.2755 15.5039 15.8762 15.0131 15.8762H2.47494C1.98409 15.8762 1.58479 16.2755 1.58479 16.7663C1.58479 17.2571 1.98409 17.6564 2.47494 17.6564H15.0131Z"
        fill="white" />
    <path
        d="M15.2396 12.4605L15.233 12.4009L15.1796 12.4068V12.4605H15.2396ZM15.2396 14.6635H15.1796V14.7174L15.2333 14.7231L15.2396 14.6635ZM11.4054 18.8814V18.8214H11.3454V18.8814H11.4054ZM6.08261 18.8814H6.14261V18.8214H6.08261V18.8814ZM2.24841 14.6634L2.25479 14.7231L2.30841 14.7174V14.6634H2.24841ZM6.51491 4.08201L6.53555 4.13835L6.57491 4.12391V4.08201H6.51491ZM10.971 2.81287L10.911 2.81489L10.9154 2.94199L11.0107 2.85786L10.971 2.81287ZM14.6247 11.2695V11.3296L14.6281 11.3294L14.6247 11.2695ZM14.627 11.2694L14.6303 11.2091L14.6237 11.2095L14.627 11.2694ZM14.6292 11.2695L14.6258 11.3295H14.6292V11.2695ZM9.74807 3.76577L9.73883 3.82506L9.80807 3.8358V3.76577H9.74807ZM7.73993 3.76585H7.67993V3.83588L7.74911 3.82514L7.73993 3.76585ZM9.46805 4.96295L9.52397 4.9847L9.55151 4.91383L9.47615 4.90351L9.46805 4.96295ZM3.47331 14.6511H3.41331V14.7111H3.47331V14.6511ZM14.0145 14.6511V14.7111H14.0745V14.6511H14.0145ZM14.0145 12.4605H14.0745V12.4067L14.0211 12.4008L14.0145 12.4605ZM7.30751 18.8814V18.8214H7.24751V18.8814H7.30751ZM10.1804 18.8814H10.2404V18.8214H10.1804V18.8814ZM20.2198 6.96178C20.2198 3.87787 17.711 1.36903 14.6271 1.36903V1.48903C17.6447 1.48903 20.0998 3.94414 20.0998 6.96178H20.2198ZM15.2462 12.5201C18.0397 12.211 20.2198 9.8365 20.2198 6.96178H20.0998C20.0998 9.77458 17.9664 12.0984 15.233 12.4009L15.2462 12.5201ZM15.2996 14.6635V12.4605H15.1796V14.6635H15.2996ZM17.1882 16.7663C17.1882 15.6455 16.3362 14.7204 15.246 14.6038L15.2333 14.7231C16.2632 14.8333 17.0682 15.7076 17.0682 16.7663H17.1882ZM15.0131 18.9414C16.2125 18.9414 17.1882 17.9657 17.1882 16.7663H17.0682C17.0682 17.8994 16.1463 18.8214 15.0131 18.8214V18.9414ZM11.4054 18.9414H15.0131V18.8214H11.4054V18.9414ZM8.74403 21.6261C10.203 21.6261 11.4654 20.4558 11.4654 18.8814H11.3454C11.3454 20.3876 10.1387 21.5061 8.74403 21.5061V21.6261ZM6.02261 18.8814C6.02261 20.4584 7.28693 21.6261 8.74403 21.6261V21.5061C7.35113 21.5061 6.14261 20.39 6.14261 18.8814H6.02261ZM2.47491 18.9414H6.08261V18.8214H2.47491V18.9414ZM0.299805 16.7663C0.299805 17.9657 1.27548 18.9414 2.47491 18.9414V18.8214C1.34176 18.8214 0.419805 17.8994 0.419805 16.7663H0.299805ZM2.24203 14.6038C1.15174 14.7204 0.299805 15.6455 0.299805 16.7663H0.419805C0.419805 15.7076 1.22476 14.8332 2.25479 14.7231L2.24203 14.6038ZM2.18841 10.1841V14.6634H2.30841V10.1841H2.18841ZM3.53648 6.2011C2.65458 7.35262 2.18841 8.7301 2.18841 10.1841H2.30841C2.30841 8.75644 2.76594 7.40458 3.63174 6.27406L3.53648 6.2011ZM6.49427 4.02568C5.33162 4.45195 4.29381 5.2122 3.53648 6.2011L3.63174 6.27406C4.37516 5.30334 5.39421 4.55681 6.53555 4.13835L6.49427 4.02568ZM6.45491 2.88906V4.08201H6.57491V2.88906H6.45491ZM8.74397 0.600037C7.48169 0.600037 6.45491 1.62683 6.45491 2.88906H6.57491C6.57491 1.69311 7.54799 0.720037 8.74397 0.720037V0.600037ZM11.031 2.81084C10.9896 1.58481 9.98003 0.600037 8.74397 0.600037V0.720037C9.91499 0.720037 10.8718 1.65323 10.911 2.81489L11.031 2.81084ZM14.6271 1.36903C13.2116 1.36903 11.9175 1.89791 10.9313 2.76787L11.0107 2.85786C11.9759 2.00642 13.2421 1.48903 14.6271 1.48903V1.36903ZM14.627 2.71399C16.9692 2.71399 18.8748 4.61958 18.8748 6.96178H18.9948C18.9948 4.55331 17.0354 2.59399 14.627 2.59399V2.71399ZM10.3792 6.96178C10.3791 4.62577 12.2796 2.71399 14.627 2.71399V2.59399C12.2132 2.59399 10.2591 4.5597 10.2592 6.96178H10.3792ZM14.6248 11.2095C12.2836 11.2083 10.3792 9.30322 10.3792 6.96178H10.2592C10.2592 9.36946 12.2173 11.3284 14.6247 11.3296L14.6248 11.2095ZM14.6237 11.2095L14.6214 11.2096L14.6281 11.3294L14.6303 11.3293L14.6237 11.2095ZM14.6325 11.2096L14.6303 11.2091L14.6237 11.3293L14.6258 11.3295L14.6325 11.2096ZM18.8748 6.96178C18.8748 9.30322 16.9703 11.2083 14.6291 11.2095L14.6292 11.3295C17.0366 11.3283 18.9948 9.36946 18.9948 6.96178H18.8748ZM8.74397 1.825C8.15723 1.825 7.67993 2.30228 7.67993 2.88906H7.79993C7.79993 2.36856 8.22347 1.945 8.74397 1.945V1.825ZM9.80807 2.88906C9.80807 2.30228 9.33077 1.825 8.74397 1.825V1.945C9.26447 1.945 9.68807 2.36856 9.68807 2.88906H9.80807ZM9.80807 3.76577V2.88906H9.68807V3.76577H9.80807ZM7.74911 3.82514C8.40641 3.72307 9.08969 3.72437 9.73883 3.82506L9.75725 3.70648C9.09599 3.60391 8.40023 3.60259 7.73069 3.70656L7.74911 3.82514ZM7.67993 2.88906V3.76585H7.79993V2.88906H7.67993ZM3.53331 10.1841C3.53331 7.0852 6.27119 4.58536 9.45989 5.0224L9.47615 4.90351C6.21377 4.45637 3.41331 7.01416 3.41331 10.1841H3.53331ZM3.53331 14.6511V10.1841H3.41331V14.6511H3.53331ZM14.0145 14.5911H3.47331V14.7111H14.0145V14.5911ZM13.9545 12.4605V14.6511H14.0745V12.4605H13.9545ZM9.41213 4.94121C8.07821 8.37214 10.3884 12.1196 14.0079 12.5201L14.0211 12.4008C10.4793 12.009 8.21885 8.34148 9.52397 4.9847L9.41213 4.94121ZM7.24751 18.8814C7.24751 19.7713 7.95125 20.4011 8.74397 20.4011V20.2811C8.01491 20.2811 7.36751 19.7024 7.36751 18.8814H7.24751ZM10.1804 18.8214H7.30751V18.9414H10.1804V18.8214ZM8.74397 20.4011C9.54017 20.4011 10.2404 19.7675 10.2404 18.8814H10.1204C10.1204 19.6989 9.47615 20.2811 8.74397 20.2811V20.4011ZM15.8432 16.7662C15.8432 17.2239 15.4707 17.5964 15.0131 17.5964V17.7164C15.537 17.7164 15.9632 17.2902 15.9632 16.7662H15.8432ZM15.0131 15.9361C15.4707 15.9361 15.8432 16.3086 15.8432 16.7662H15.9632C15.9632 16.2423 15.537 15.8161 15.0131 15.8161V15.9361ZM2.47488 15.9361H15.0131V15.8161H2.47488V15.9361ZM1.64473 16.7662C1.64473 16.3085 2.01717 15.9361 2.47488 15.9361V15.8161C1.9509 15.8161 1.52474 16.2422 1.52474 16.7662H1.64473ZM2.47488 17.5964C2.01717 17.5964 1.64473 17.2239 1.64473 16.7662H1.52474C1.52474 17.2902 1.9509 17.7164 2.47488 17.7164V17.5964ZM15.0131 17.5964H2.47488V17.7164H15.0131V17.5964Z"
        fill="white" />
    <path
        d="M14.2029 7.40972C14.4352 7.62644 14.7948 7.62962 15.0308 7.41674L16.8515 5.77516C17.1027 5.54866 17.1228 5.16137 16.8963 4.91013C16.6697 4.65889 16.2825 4.63884 16.0312 4.86538L14.6277 6.13082L13.9863 5.53249C13.739 5.30175 13.3514 5.31518 13.1207 5.56255C12.89 5.8099 12.9034 6.19742 13.1507 6.42818L14.2029 7.40972Z"
        fill="white" stroke="white" stroke-width="0.12" />
</svg>