<svg width="50" height="51" viewBox="0 0 50 51" fill="none" xmlns="http://www.w3.org/2000/svg">
<path fill-rule="evenodd" clip-rule="evenodd" d="M9.34155 15.063C9.88034 15.063 10.3171 14.6262 10.3171 14.0875V10.9656H13.4388C13.9777 10.9656 14.4143 10.5288 14.4143 9.98999C14.4143 9.45108 13.9777 9.0144 13.4388 9.0144H9.34155C8.80264 9.0144 8.36597 9.45108 8.36597 9.98999V14.0875C8.36597 14.6262 8.80264 15.063 9.34155 15.063ZM22.8047 34.0545C22.8047 34.5933 23.2413 35.0301 23.7802 35.0301H24.6258C25.1645 35.0301 25.6013 34.5933 25.6013 34.0545C25.6013 33.5156 25.1645 33.0789 24.6258 33.0789H23.7802C23.2413 33.0789 22.8047 33.5156 22.8047 34.0545ZM24.4957 22.0222C24.4957 22.561 24.0589 22.9978 23.5201 22.9978C22.9812 22.9978 22.5445 22.561 22.5445 22.0222V21.1767C22.5445 20.6378 22.9812 20.2011 23.5201 20.2011C24.0589 20.2011 24.4957 20.6378 24.4957 21.1767V22.0222ZM29.5037 31.9732C29.5037 32.512 29.9404 32.9488 30.4793 32.9488H31.3248C31.8636 32.9488 32.3004 32.512 32.3004 31.9732C32.3004 31.4343 31.8636 30.9976 31.3248 30.9976H30.4793C29.9404 30.9976 29.5037 31.4343 29.5037 31.9732ZM10.3497 26.64H14.8894C14.8764 26.7031 14.8699 26.7683 14.8699 26.8351V29.7619C14.8699 30.3007 15.3066 30.7375 15.8455 30.7375C16.3843 30.7375 16.8211 30.3007 16.8211 29.7619V26.8351C16.8211 26.7683 16.8146 26.7031 16.8015 26.64H25.4062V27.7457H20.2681C19.7292 27.7457 19.2925 28.1823 19.2925 28.7213C19.2925 29.26 19.7292 29.6968 20.2681 29.6968H26.3818C26.9206 29.6968 27.3574 29.26 27.3574 28.7213V26.64H30.9996V29.5017C30.9996 30.0405 31.4363 30.4773 31.9752 30.4773C32.514 30.4773 32.9508 30.0405 32.9508 29.5017V26.64H39.6823C40.2211 26.64 40.6579 26.2032 40.6579 25.6644C40.6579 25.1255 40.2211 24.6888 39.6823 24.6888H35.2271V22.8027H36.2027C36.7415 22.8027 37.1783 22.3659 37.1783 21.8271C37.1783 21.2882 36.7415 20.8515 36.2027 20.8515H31.3248C30.7859 20.8515 30.3492 21.2882 30.3492 21.8271C30.3492 22.3659 30.7859 22.8027 31.3248 22.8027H33.276V24.6888H27.3574V22.1523C27.3574 21.6134 26.9206 21.1767 26.3818 21.1767C25.8429 21.1767 25.4062 21.6134 25.4062 22.1523V24.6888H10.3497C9.81075 24.6888 9.37408 25.1255 9.37408 25.6644C9.37408 26.2032 9.81075 26.64 10.3497 26.64ZM28.2029 13.6972C27.664 13.6972 27.2273 14.1339 27.2273 14.6728V19.8109C27.2273 20.3497 27.664 20.7865 28.2029 20.7865C28.7417 20.7865 29.1785 20.3497 29.1785 19.8109V14.6728C29.1785 14.1339 28.7417 13.6972 28.2029 13.6972ZM21.4388 15.063H23.6502V14.6728C23.6502 14.1339 24.0868 13.6972 24.6257 13.6972C25.1645 13.6972 25.6013 14.1339 25.6013 14.6728V17.9248C25.6013 18.4636 25.1645 18.9004 24.6257 18.9004C24.0868 18.9004 23.6502 18.4636 23.6502 17.9248V17.0142H21.4388V17.4695C21.4388 18.0083 21.002 18.4451 20.4632 18.4451C19.9243 18.4451 19.4877 18.0083 19.4877 17.4695V14.6728C19.4877 14.1339 19.9243 13.6972 20.4632 13.6972C21.002 13.6972 21.4388 14.1339 21.4388 14.6728V15.063ZM12.6583 21.7621C12.6583 22.3009 13.0952 22.7377 13.6339 22.7377H20.8535C21.3923 22.7377 21.8291 22.3009 21.8291 21.7621C21.8291 21.2232 21.3923 20.7865 20.8535 20.7865H13.6339C13.0952 20.7865 12.6583 21.2232 12.6583 21.7621ZM34.9019 35.6804V36.656C34.9019 37.1948 35.3386 37.6316 35.8775 37.6316C36.4163 37.6316 36.8531 37.1948 36.8531 36.656V30.8025C36.8531 30.264 36.4163 29.8269 35.8775 29.8269C35.3386 29.8269 34.9019 30.264 34.9019 30.8025V33.7293H31.65C31.1111 33.7293 30.6744 34.1663 30.6744 34.7049C30.6744 35.2436 31.1111 35.6804 31.65 35.6804H34.9019ZM27.8777 37.6316H24.9509C24.412 37.6316 23.9754 37.1948 23.9754 36.656C23.9754 36.1171 24.412 35.6804 24.9509 35.6804H26.9021V31.648C26.9021 31.1091 27.3388 30.6724 27.8777 30.6724C28.4165 30.6724 28.8533 31.1091 28.8533 31.648V36.656C28.8533 37.1948 28.4165 37.6316 27.8777 37.6316ZM19.5527 31.7131C19.5527 31.1741 19.9894 30.7375 20.5283 30.7375C21.0671 30.7375 21.5039 31.1741 21.5039 31.7131V34.5748C21.5039 35.1136 21.0671 35.5504 20.5283 35.5504C19.9894 35.5504 19.5527 35.1136 19.5527 34.5748V31.7131ZM17.7316 31.583H13.6341C13.0952 31.583 12.6586 32.0197 12.6586 32.5586V36.656C12.6586 37.1948 13.0952 37.6316 13.6341 37.6316H17.7316C18.2704 37.6316 18.7072 37.1948 18.7072 36.656V32.5586C18.7072 32.0197 18.2704 31.583 17.7316 31.583ZM16.756 33.5342H14.6097V35.6804H16.756V33.5342ZM36.3978 13.6972H32.3004C31.7615 13.6972 31.3248 14.1339 31.3248 14.6728V18.7703C31.3248 19.3091 31.7615 19.7459 32.3004 19.7459H36.3978C36.9366 19.7459 37.3734 19.3091 37.3734 18.7703V14.6728C37.3734 14.1339 36.9366 13.6972 36.3978 13.6972ZM35.4222 15.6484H33.276V17.7947H35.4222V15.6484ZM12.6586 14.6728C12.6586 14.1339 13.0952 13.6972 13.6341 13.6972H17.7316C18.2704 13.6972 18.7072 14.1339 18.7072 14.6728V18.7703C18.7072 19.3091 18.2704 19.7459 17.7316 19.7459H13.6341C13.0952 19.7459 12.6586 19.3091 12.6586 18.7703V14.6728ZM16.756 15.6484V17.7947H14.6097V15.6484H16.756ZM40.6904 36.2658C40.1515 36.2658 39.7148 36.7025 39.7148 37.2414V40.3633H36.5931C36.0544 40.3633 35.6175 40.7999 35.6175 41.3388C35.6175 41.8776 36.0544 42.3144 36.5931 42.3144H40.6904C41.2292 42.3144 41.666 41.8776 41.666 41.3388V37.2414C41.666 36.7025 41.2292 36.2658 40.6904 36.2658ZM8.36597 37.2414V41.3388C8.36597 41.8776 8.80264 42.3144 9.34155 42.3144H13.4388C13.9777 42.3144 14.4143 41.8776 14.4143 41.3388C14.4143 40.7999 13.9777 40.3633 13.4388 40.3633H10.3171V37.2414C10.3171 36.7025 9.88034 36.2658 9.34155 36.2658C8.80264 36.2658 8.36597 36.7025 8.36597 37.2414ZM41.666 9.98999V14.0875C41.666 14.6262 41.2292 15.063 40.6904 15.063C40.1515 15.063 39.7148 14.6262 39.7148 14.0875V10.9656H36.5931C36.0544 10.9656 35.6175 10.5288 35.6175 9.98999C35.6175 9.45108 36.0544 9.0144 36.5931 9.0144H40.6904C41.2292 9.0144 41.666 9.45108 41.666 9.98999Z" fill="#FFC025"/>
</svg>
