<svg width="44" height="43" viewBox="0 0 44 43" fill="none" xmlns="http://www.w3.org/2000/svg">
<path fill-rule="evenodd" clip-rule="evenodd" d="M34.8195 13.5624H33.1615L25.1036 5.61056C24.6953 5.2077 24.0333 5.2077 23.625 5.61056L21.2278 7.97631L18.8305 5.61056C18.4223 5.2077 17.7602 5.2077 17.352 5.61056L9.29406 13.5624H6.93909C6.36165 13.5624 5.89355 14.0244 5.89355 14.5942V35.2294C5.89355 35.7992 6.36165 36.2612 6.93909 36.2612H30.6374H34.8195C36.549 36.2612 37.9561 34.8726 37.9561 33.1659V29.0388V20.7848V16.6577C37.9561 14.9509 36.549 13.5624 34.8195 13.5624ZM24.3644 7.79926L30.2044 13.5625H26.8885L22.7064 9.43542L24.3644 7.79926ZM20.4886 10.165L18.0913 7.79926L12.2512 13.5625H23.9313L20.4886 10.165ZM31.683 33.1659C31.683 33.7348 31.2139 34.1977 30.6374 34.1977H7.98457V15.626H9.72709H26.4553H30.6374C31.2139 15.626 31.683 16.0889 31.683 16.6578V19.753H28.5464C25.6639 19.753 23.3188 22.0673 23.3188 24.9118C23.3188 27.7564 25.6639 30.0706 28.5464 30.0706H31.683V33.1659ZM34.8195 34.1977C35.396 34.1977 35.865 33.7348 35.865 33.1659V30.0706H33.774V33.1659C33.774 33.5276 33.7102 33.8747 33.5942 34.1977H34.8195ZM35.865 28.0071H32.7285H28.5464C26.8169 28.0071 25.4098 26.6185 25.4098 24.9118C25.4098 23.205 26.8169 21.8165 28.5464 21.8165H32.7285H35.865V28.0071ZM33.774 19.753H35.865V16.6577C35.865 16.0887 35.396 15.6259 34.8195 15.6259H33.5942C33.7103 15.9489 33.774 16.2961 33.774 16.6577V19.753Z" fill="#FFC025"/>
<path d="M33.1615 13.5624L32.9859 13.7404C33.0327 13.7865 33.0958 13.8124 33.1615 13.8124V13.5624ZM25.1036 5.61056L24.928 5.7885V5.7885L25.1036 5.61056ZM23.625 5.61056L23.4494 5.4326L23.4494 5.43262L23.625 5.61056ZM21.2278 7.97631L21.0522 8.15426C21.1496 8.25033 21.3061 8.25033 21.4034 8.15425L21.2278 7.97631ZM18.8305 5.61056L18.6549 5.7885V5.7885L18.8305 5.61056ZM17.352 5.61056L17.1764 5.4326L17.1764 5.43261L17.352 5.61056ZM9.29406 13.5624V13.8124C9.35979 13.8124 9.42288 13.7865 9.46966 13.7404L9.29406 13.5624ZM30.2044 13.5625V13.8125C30.3059 13.8125 30.3972 13.7512 30.4357 13.6574C30.4742 13.5636 30.4522 13.4558 30.38 13.3845L30.2044 13.5625ZM24.3644 7.79926L24.54 7.62132C24.4426 7.52524 24.2861 7.52524 24.1888 7.62132L24.3644 7.79926ZM26.8885 13.5625L26.7129 13.7404C26.7597 13.7866 26.8227 13.8125 26.8885 13.8125V13.5625ZM22.7064 9.43542L22.5308 9.25748C22.4832 9.30446 22.4564 9.36855 22.4564 9.43542C22.4564 9.5023 22.4832 9.56639 22.5308 9.61337L22.7064 9.43542ZM18.0913 7.79926L18.2669 7.62132C18.1695 7.52524 18.013 7.52524 17.9157 7.62132L18.0913 7.79926ZM20.4886 10.165L20.6642 9.98707L20.4886 10.165ZM12.2512 13.5625L12.0756 13.3845C12.0034 13.4558 11.9814 13.5636 12.0199 13.6574C12.0584 13.7512 12.1498 13.8125 12.2512 13.8125V13.5625ZM23.9313 13.5625V13.8125C24.0328 13.8125 24.1241 13.7512 24.1626 13.6574C24.2011 13.5636 24.1791 13.4558 24.1069 13.3845L23.9313 13.5625ZM7.98457 34.1977H7.73457C7.73457 34.3357 7.8465 34.4477 7.98457 34.4477V34.1977ZM7.98457 15.626V15.376C7.8465 15.376 7.73457 15.4879 7.73457 15.626H7.98457ZM31.683 19.753V20.003C31.821 20.003 31.933 19.8911 31.933 19.753H31.683ZM31.683 30.0706H31.933C31.933 29.9325 31.821 29.8206 31.683 29.8206V30.0706ZM35.865 30.0706H36.115C36.115 29.9325 36.0031 29.8206 35.865 29.8206V30.0706ZM33.774 30.0706V29.8206C33.636 29.8206 33.524 29.9325 33.524 30.0706H33.774ZM33.5942 34.1977L33.3589 34.1131C33.3314 34.1897 33.3429 34.2749 33.3897 34.3415C33.4365 34.4081 33.5128 34.4477 33.5942 34.4477V34.1977ZM35.865 28.0071V28.2571C36.0031 28.2571 36.115 28.1451 36.115 28.0071H35.865ZM35.865 21.8165H36.115C36.115 21.6784 36.0031 21.5665 35.865 21.5665V21.8165ZM35.865 19.753V20.003C36.0031 20.003 36.115 19.8911 36.115 19.753H35.865ZM33.774 19.753H33.524C33.524 19.8911 33.636 20.003 33.774 20.003V19.753ZM33.5942 15.6259V15.3759C33.5128 15.3759 33.4365 15.4156 33.3897 15.4821C33.3429 15.5487 33.3314 15.6339 33.3589 15.7105L33.5942 15.6259ZM33.1615 13.8124H34.8195V13.3124H33.1615V13.8124ZM24.928 5.7885L32.9859 13.7404L33.3371 13.3845L25.2792 5.43261L24.928 5.7885ZM23.8006 5.78851C24.1115 5.4817 24.6171 5.48172 24.928 5.7885L25.2792 5.43261C24.7736 4.93367 23.955 4.93369 23.4494 5.4326L23.8006 5.78851ZM21.4034 8.15425L23.8006 5.7885L23.4494 5.43262L21.0522 7.79837L21.4034 8.15425ZM18.6549 5.7885L21.0522 8.15426L21.4034 7.79837L19.0061 5.43261L18.6549 5.7885ZM17.5275 5.78851C17.8385 5.4817 18.3441 5.48172 18.6549 5.7885L19.0061 5.43261C18.5005 4.93367 17.682 4.93369 17.1764 5.4326L17.5275 5.78851ZM9.46966 13.7404L17.5276 5.7885L17.1764 5.43261L9.11846 13.3845L9.46966 13.7404ZM6.93909 13.8124H9.29406V13.3124H6.93909V13.8124ZM6.14355 14.5942C6.14355 14.1656 6.4966 13.8124 6.93909 13.8124V13.3124C6.22671 13.3124 5.64355 13.8833 5.64355 14.5942H6.14355ZM6.14355 35.2294V14.5942H5.64355V35.2294H6.14355ZM6.93909 36.0112C6.4966 36.0112 6.14355 35.658 6.14355 35.2294H5.64355C5.64355 35.9403 6.22671 36.5112 6.93909 36.5112V36.0112ZM30.6374 36.0112H6.93909V36.5112H30.6374V36.0112ZM34.8195 36.0112H30.6374V36.5112H34.8195V36.0112ZM37.7061 33.1659C37.7061 34.7315 36.4141 36.0112 34.8195 36.0112V36.5112C36.6839 36.5112 38.2061 35.0138 38.2061 33.1659H37.7061ZM37.7061 29.0388V33.1659H38.2061V29.0388H37.7061ZM37.7061 20.7848V29.0388H38.2061V20.7848H37.7061ZM37.7061 16.6577V20.7848H38.2061V16.6577H37.7061ZM34.8195 13.8124C36.4141 13.8124 37.7061 15.0921 37.7061 16.6577H38.2061C38.2061 14.8097 36.6839 13.3124 34.8195 13.3124V13.8124ZM30.38 13.3845L24.54 7.62132L24.1888 7.9772L30.0288 13.7404L30.38 13.3845ZM26.8885 13.8125H30.2044V13.3125H26.8885V13.8125ZM22.5308 9.61337L26.7129 13.7404L27.0641 13.3845L22.882 9.25748L22.5308 9.61337ZM24.1888 7.62132L22.5308 9.25748L22.882 9.61337L24.54 7.9772L24.1888 7.62132ZM17.9157 7.9772L20.313 10.343L20.6642 9.98707L18.2669 7.62132L17.9157 7.9772ZM12.4268 13.7404L18.2669 7.9772L17.9157 7.62132L12.0756 13.3845L12.4268 13.7404ZM23.9313 13.3125H12.2512V13.8125H23.9313V13.3125ZM20.313 10.343L23.7557 13.7404L24.1069 13.3845L20.6642 9.98707L20.313 10.343ZM30.6374 34.4477C31.3489 34.4477 31.933 33.876 31.933 33.1659H31.433C31.433 33.5936 31.079 33.9477 30.6374 33.9477V34.4477ZM7.98457 34.4477H30.6374V33.9477H7.98457V34.4477ZM7.73457 15.626V34.1977H8.23457V15.626H7.73457ZM9.72709 15.376H7.98457V15.876H9.72709V15.376ZM26.4553 15.376H9.72709V15.876H26.4553V15.376ZM30.6374 15.376H26.4553V15.876H30.6374V15.376ZM31.933 16.6578C31.933 15.9477 31.3489 15.376 30.6374 15.376V15.876C31.079 15.876 31.433 16.23 31.433 16.6578H31.933ZM31.933 19.753V16.6578H31.433V19.753H31.933ZM28.5464 20.003H31.683V19.503H28.5464V20.003ZM23.5688 24.9118C23.5688 22.2084 25.7988 20.003 28.5464 20.003V19.503C25.529 19.503 23.0688 21.9261 23.0688 24.9118H23.5688ZM28.5464 29.8206C25.7988 29.8206 23.5688 27.6152 23.5688 24.9118H23.0688C23.0688 27.8976 25.529 30.3206 28.5464 30.3206V29.8206ZM31.683 29.8206H28.5464V30.3206H31.683V29.8206ZM31.933 33.1659V30.0706H31.433V33.1659H31.933ZM35.615 33.1659C35.615 33.5936 35.2611 33.9477 34.8195 33.9477V34.4477C35.5309 34.4477 36.115 33.876 36.115 33.1659H35.615ZM35.615 30.0706V33.1659H36.115V30.0706H35.615ZM33.774 30.3206H35.865V29.8206H33.774V30.3206ZM34.024 33.1659V30.0706H33.524V33.1659H34.024ZM33.8294 34.2822C33.955 33.9329 34.024 33.5572 34.024 33.1659H33.524C33.524 33.498 33.4655 33.8165 33.3589 34.1131L33.8294 34.2822ZM34.8195 33.9477H33.5942V34.4477H34.8195V33.9477ZM32.7285 28.2571H35.865V27.7571H32.7285V28.2571ZM28.5464 28.2571H32.7285V27.7571H28.5464V28.2571ZM25.1598 24.9118C25.1598 26.7597 26.682 28.2571 28.5464 28.2571V27.7571C26.9518 27.7571 25.6598 26.4773 25.6598 24.9118H25.1598ZM28.5464 21.5665C26.682 21.5665 25.1598 23.0639 25.1598 24.9118H25.6598C25.6598 23.3462 26.9518 22.0665 28.5464 22.0665V21.5665ZM32.7285 21.5665H28.5464V22.0665H32.7285V21.5665ZM35.865 21.5665H32.7285V22.0665H35.865V21.5665ZM36.115 28.0071V21.8165H35.615V28.0071H36.115ZM35.865 19.503H33.774V20.003H35.865V19.503ZM35.615 16.6577V19.753H36.115V16.6577H35.615ZM34.8195 15.8759C35.2611 15.8759 35.615 16.2299 35.615 16.6577H36.115C36.115 15.9475 35.5309 15.3759 34.8195 15.3759V15.8759ZM33.5942 15.8759H34.8195V15.3759H33.5942V15.8759ZM34.024 16.6577C34.024 16.2665 33.955 15.8907 33.8294 15.5414L33.3589 15.7105C33.4655 16.0071 33.524 16.3257 33.524 16.6577H34.024ZM34.024 19.753V16.6577H33.524V19.753H34.024Z" fill="#FFC025"/>
<ellipse cx="28.5465" cy="24.9118" rx="1.04554" ry="1.03178" fill="#FFC025" stroke="#FFC025" stroke-width="0.5" stroke-linejoin="round"/>
</svg>
