<svg width="50" height="49" viewBox="0 0 50 49" fill="none" xmlns="http://www.w3.org/2000/svg">
<path fill-rule="evenodd" clip-rule="evenodd" d="M14.6651 10.4428C17.8063 7.44894 22.8507 7.34911 26.1199 10.1446L26.4516 10.4441L30.8311 14.6512C31.8422 15.6149 32.5806 16.8218 32.9643 18.1383C33.2337 19.0629 32.6658 20.0206 31.6956 20.2774C30.8002 20.5143 29.8752 20.0714 29.5263 19.2747L29.4514 19.0683C29.2715 18.4512 28.9528 17.8766 28.5207 17.3868L28.2481 17.1035L23.8686 12.8966C22.1312 11.2407 19.3506 11.1627 17.5116 12.6631L17.243 12.9L12.8313 17.105C12.0437 17.8557 11.5715 18.8243 11.4762 19.8691L11.4583 20.2642V32.9375C11.4583 35.298 13.39 37.2374 15.8254 37.395L16.1458 37.4053H24.9349C25.9417 37.4053 26.7578 38.1832 26.7578 39.1427C26.7578 40.0285 26.0624 40.7594 25.1636 40.8666L24.9349 40.8802H16.1458C11.6896 40.8802 8.03983 37.5301 7.82272 33.3333L7.8125 32.9374V20.2642C7.8125 18.2951 8.56048 16.4333 9.92698 14.9766L10.2532 14.6478L14.6651 10.4428ZM35.1562 21.2717C39.0631 21.2717 42.1875 23.3562 42.1875 26.1117C42.1875 28.8672 39.0631 30.9518 35.1562 30.9518C31.2494 30.9518 28.125 28.8672 28.125 26.1117C28.125 23.3562 31.2494 21.2717 35.1562 21.2717ZM32.4395 25.3912C33.1195 24.9861 34.115 24.7466 35.1562 24.7466C36.1975 24.7466 37.193 24.9861 37.873 25.3912C38.3169 25.6556 38.5417 25.9366 38.5417 26.1117C38.5417 26.2869 38.3168 26.5679 37.873 26.8323C37.193 27.2374 36.1975 27.4769 35.1562 27.4769C34.115 27.4769 33.1195 27.2374 32.4395 26.8323C31.9956 26.5678 31.7708 26.2869 31.7708 26.1117C31.7708 25.9365 31.9957 25.6556 32.4395 25.3912ZM20.5729 16.5557C21.7595 16.5557 22.7214 17.4725 22.7214 18.6034C22.7214 19.7343 21.7595 20.6511 20.5729 20.6511C19.3864 20.6511 18.4245 19.7343 18.4245 18.6034C18.4245 17.4725 19.3864 16.5557 20.5729 16.5557ZM39.2302 31.282C40.0457 30.7192 41.1853 30.8929 41.7759 31.6701C42.3663 32.4473 42.1841 33.5336 41.3687 34.0965C39.6653 35.2723 37.4371 35.916 35.0911 35.916C32.7451 35.916 30.517 35.2724 28.8135 34.0964C27.9981 33.5335 27.8158 32.4472 28.4064 31.6701C28.9971 30.8929 30.1368 30.7192 30.9521 31.2821C33.0618 32.7385 36.6051 32.8152 38.8657 31.512L39.2302 31.282ZM39.2302 36.2463C40.0457 35.6834 41.1854 35.8571 41.7759 36.6343C42.3665 37.4114 42.1842 38.4977 41.3688 39.0607C39.6653 40.2366 37.4372 40.8802 35.0911 40.8802C32.7451 40.8802 30.5169 40.2366 28.8136 39.0607C27.9982 38.4978 27.816 37.4115 28.4064 36.6343C28.997 35.8572 30.1368 35.6835 30.9521 36.2463C33.1791 37.7836 37.0033 37.7836 39.2302 36.2463Z" fill="#FF0066"/>
</svg>
