<svg width="50" height="49" viewBox="0 0 50 49" fill="none" xmlns="http://www.w3.org/2000/svg">
<path fill-rule="evenodd" clip-rule="evenodd" d="M33.5634 16.5633C33.5634 21.2841 29.7436 26.9858 25 26.9858C20.2564 26.9858 16.4366 21.2841 16.4366 16.5634C16.4366 11.8416 20.2782 8 25 8C29.7218 8 33.5634 11.8416 33.5634 16.5633Z" fill="#FF0066"/>
<path fill-rule="evenodd" clip-rule="evenodd" d="M40.9846 40.5469L40.5458 37.9136C39.6319 32.4303 34.9338 28.4504 29.3748 28.4504H20.6252C15.0663 28.4504 10.3681 32.4303 9.45415 37.9137L9.01535 40.5469C8.96086 40.8736 9.05297 41.2077 9.26707 41.4604C9.48106 41.7131 9.79559 41.8588 10.1268 41.8588H39.8731C40.2043 41.8588 40.5188 41.7131 40.7328 41.4604C40.947 41.2077 41.0391 40.8736 40.9846 40.5469Z" fill="#FF0066"/>
</svg>
