<svg width="50" height="49" viewBox="0 0 50 49" fill="none" xmlns="http://www.w3.org/2000/svg">
<path fill-rule="evenodd" clip-rule="evenodd" d="M33.5634 16.5633C33.5634 21.2841 29.7436 26.9858 25 26.9858C20.2564 26.9858 16.4366 21.2841 16.4366 16.5634C16.4366 11.8416 20.2782 8 25 8C29.7218 8 33.5634 11.8416 33.5634 16.5633ZM31.3098 16.5634C31.3098 13.0841 28.4793 10.2535 25 10.2535C21.5207 10.2535 18.6901 13.0841 18.6901 16.5634C18.6901 20.1643 21.6609 24.7324 25 24.7324C28.339 24.7324 31.3098 20.1643 31.3098 16.5634Z" fill="#FF0066"/>
<path d="M25 27.4858C27.5802 27.4858 29.8524 25.9389 31.4571 23.8494C33.0638 21.7572 34.0634 19.0466 34.0634 16.5633H33.0634C33.0634 18.8008 32.153 21.3014 30.664 23.2403C29.1728 25.1819 27.1633 26.4858 25 26.4858V27.4858ZM15.9366 16.5634C15.9366 19.0467 16.9362 21.7573 18.5429 23.8494C20.1476 25.9389 22.4198 27.4858 25 27.4858V26.4858C22.8366 26.4858 20.8271 25.1819 19.336 23.2403C17.847 21.3014 16.9366 18.8008 16.9366 16.5634H15.9366ZM25 7.5C20.002 7.5 15.9366 11.5654 15.9366 16.5634H16.9366C16.9366 12.1177 20.5543 8.5 25 8.5V7.5ZM34.0634 16.5633C34.0634 11.5654 29.9979 7.5 25 7.5V8.5C29.4456 8.5 33.0634 12.1177 33.0634 16.5633H34.0634ZM25 10.7535C28.2031 10.7535 30.8098 13.3602 30.8098 16.5634H31.8098C31.8098 12.808 28.7554 9.7535 25 9.7535V10.7535ZM19.1901 16.5634C19.1901 13.3602 21.7969 10.7535 25 10.7535V9.7535C21.2446 9.7535 18.1901 12.808 18.1901 16.5634H19.1901ZM25 24.2324C23.5601 24.2324 22.1135 23.2361 20.997 21.7038C19.8884 20.1823 19.1901 18.241 19.1901 16.5634H18.1901C18.1901 18.4866 18.9772 20.6298 20.1888 22.2927C21.3925 23.9446 23.1008 25.2324 25 25.2324V24.2324ZM30.8098 16.5634C30.8098 18.241 30.1115 20.1823 29.003 21.7038C27.8865 23.2361 26.4399 24.2324 25 24.2324V25.2324C26.8991 25.2324 28.6075 23.9446 29.8112 22.2927C31.0228 20.6298 31.8098 18.4866 31.8098 16.5634H30.8098Z" fill="#FF0066"/>
<path fill-rule="evenodd" clip-rule="evenodd" d="M40.9846 40.5469L40.5458 37.9136C39.6319 32.4303 34.9338 28.4504 29.3748 28.4504H20.6252C15.0663 28.4504 10.3681 32.4303 9.45415 37.9137L9.01535 40.5469C8.96086 40.8736 9.05297 41.2077 9.26707 41.4604C9.48106 41.7131 9.79559 41.8588 10.1268 41.8588H39.8731C40.2043 41.8588 40.5188 41.7131 40.7328 41.4604C40.947 41.2077 41.0391 40.8736 40.9846 40.5469Z" fill="#FF0066"/>
</svg>
