<svg width="34" height="36" viewBox="0 0 34 36" fill="none" xmlns="http://www.w3.org/2000/svg">
<path fill-rule="evenodd" clip-rule="evenodd" d="M25.5633 9.56325C25.5633 14.2841 21.7435 19.9858 16.9999 19.9858C12.2563 19.9858 8.43652 14.2841 8.43652 9.56337C8.43652 4.84157 12.2781 1 16.9999 1C21.7217 1 25.5633 4.84157 25.5633 9.56325ZM23.3097 9.56332C23.3097 6.08405 20.4791 3.25346 16.9998 3.25346C13.5205 3.25346 10.69 6.08405 10.69 9.56332C10.69 13.1642 13.6608 17.7324 16.9998 17.7324C20.3389 17.7324 23.3097 13.1642 23.3097 9.56332Z" fill="#FF0066"/>
<path d="M16.9999 20.2358C19.4759 20.2358 21.6824 18.7496 23.2587 16.6971C24.836 14.6433 25.8133 11.9852 25.8133 9.56325H25.3133C25.3133 11.8622 24.3806 14.4154 22.8621 16.3926C21.3426 18.3711 19.2675 19.7358 16.9999 19.7358V20.2358ZM8.18652 9.56337C8.18652 11.9852 9.16377 14.6433 10.7411 16.6971C12.3174 18.7496 14.5239 20.2358 16.9999 20.2358V19.7358C14.7323 19.7358 12.6571 18.3711 11.1376 16.3926C9.61917 14.4154 8.68652 11.8623 8.68652 9.56337H8.18652ZM16.9999 0.75C12.14 0.75 8.18652 4.7035 8.18652 9.56337H8.68652C8.68652 4.97964 12.4162 1.25 16.9999 1.25V0.75ZM25.8133 9.56325C25.8133 4.7035 21.8598 0.75 16.9999 0.75V1.25C21.5836 1.25 25.3133 4.97965 25.3133 9.56325H25.8133ZM16.9998 3.50346C20.341 3.50346 23.0597 6.22212 23.0597 9.56332H23.5597C23.5597 5.94598 20.6172 3.00346 16.9998 3.00346V3.50346ZM10.94 9.56332C10.94 6.22212 13.6586 3.50346 16.9998 3.50346V3.00346C13.3825 3.00346 10.44 5.94598 10.44 9.56332H10.94ZM16.9998 17.4824C15.4451 17.4824 13.9331 16.4132 12.7948 14.851C11.6605 13.2942 10.94 11.3024 10.94 9.56332H10.44C10.44 11.4252 11.2049 13.5179 12.3907 15.1454C13.5726 16.7675 15.2155 17.9824 16.9998 17.9824V17.4824ZM23.0597 9.56332C23.0597 11.3024 22.3392 13.2942 21.2048 14.851C20.0666 16.4132 18.5545 17.4824 16.9998 17.4824V17.9824C18.7842 17.9824 20.4271 16.7675 21.6089 15.1454C22.7948 13.5179 23.5597 11.4252 23.5597 9.56332H23.0597Z" fill="#FF0066"/>
<path fill-rule="evenodd" clip-rule="evenodd" d="M32.9846 33.547L32.5458 30.9138C31.6319 25.4304 26.9338 21.4506 21.3748 21.4506H12.6252C7.06631 21.4506 2.36812 25.4304 1.45415 30.9139L1.01535 33.547C0.96086 33.8737 1.05297 34.2078 1.26707 34.4605C1.48106 34.7133 1.79559 34.859 2.12677 34.859H31.8731C32.2043 34.859 32.5188 34.7133 32.7328 34.4605C32.947 34.2078 33.0391 33.8737 32.9846 33.547ZM18.3095 23.7041L17.0003 24.8169L15.6911 23.7041H18.3095ZM27.4227 30.014V32.6055H30.5432L30.3231 31.2843C29.6132 27.0254 26.0533 23.8991 21.7784 23.7131L17.7299 27.1541C17.5196 27.3328 17.2599 27.4223 17.0002 27.4223C16.7405 27.4223 16.4808 27.3328 16.2704 27.1541L12.222 23.7131C7.94705 23.8991 4.38707 27.0254 3.67728 31.2844L3.45714 32.6055H6.57753V30.014C6.57753 29.3916 7.082 28.8872 7.70434 28.8872C8.32668 28.8872 8.83115 29.3917 8.83115 30.014V32.6055H25.1691V30.014C25.1691 29.3916 25.6737 28.8872 26.2959 28.8872C26.9182 28.8872 27.4227 29.3917 27.4227 30.014Z" fill="#FF0066"/>
<path d="M32.5458 30.9138L32.7924 30.8727L32.7924 30.8727L32.5458 30.9138ZM32.9846 33.547L32.738 33.5881L32.7381 33.5881L32.9846 33.547ZM1.45415 30.9139L1.20755 30.8728L1.20755 30.8728L1.45415 30.9139ZM1.01535 33.547L1.26195 33.5881L1.26195 33.5881L1.01535 33.547ZM1.26707 34.4605L1.45787 34.299L1.45783 34.2989L1.26707 34.4605ZM32.7328 34.4605L32.5421 34.2989L32.542 34.299L32.7328 34.4605ZM17.0003 24.8169L16.8384 25.0074C16.9317 25.0868 17.0688 25.0868 17.1622 25.0074L17.0003 24.8169ZM18.3095 23.7041L18.4714 23.8946C18.5513 23.8267 18.5803 23.7163 18.5442 23.6179C18.508 23.5195 18.4143 23.4541 18.3095 23.4541V23.7041ZM15.6911 23.7041V23.4541C15.5863 23.4541 15.4926 23.5195 15.4564 23.6179C15.4203 23.7163 15.4493 23.8267 15.5292 23.8946L15.6911 23.7041ZM27.4227 32.6055H27.1727C27.1727 32.7436 27.2846 32.8555 27.4227 32.8555V32.6055ZM30.5432 32.6055V32.8555C30.6167 32.8555 30.6865 32.8232 30.734 32.7671C30.7815 32.711 30.8019 32.6369 30.7898 32.5644L30.5432 32.6055ZM30.3231 31.2843L30.5697 31.2432L30.5697 31.2432L30.3231 31.2843ZM21.7784 23.7131L21.7893 23.4633C21.7263 23.4606 21.6645 23.4818 21.6165 23.5226L21.7784 23.7131ZM17.7299 27.1541L17.8918 27.3446L17.8918 27.3446L17.7299 27.1541ZM16.2704 27.1541L16.1085 27.3446L16.1085 27.3446L16.2704 27.1541ZM12.222 23.7131L12.3839 23.5226C12.3358 23.4818 12.2741 23.4606 12.2111 23.4633L12.222 23.7131ZM3.67728 31.2844L3.43068 31.2433L3.43068 31.2433L3.67728 31.2844ZM3.45714 32.6055L3.21054 32.5644C3.19846 32.6369 3.21889 32.711 3.26639 32.7671C3.31389 32.8232 3.38366 32.8555 3.45714 32.8555V32.6055ZM6.57753 32.6055V32.8555C6.7156 32.8555 6.82753 32.7436 6.82753 32.6055H6.57753ZM8.83115 32.6055H8.58115C8.58115 32.7436 8.69308 32.8555 8.83115 32.8555V32.6055ZM25.1691 32.6055V32.8555C25.3072 32.8555 25.4191 32.7436 25.4191 32.6055H25.1691ZM32.2992 30.9549L32.738 33.5881L33.2312 33.5059L32.7924 30.8727L32.2992 30.9549ZM21.3748 21.7006C26.8116 21.7006 31.4054 25.5921 32.2993 30.9549L32.7924 30.8727C31.8584 25.2688 27.056 21.2006 21.3748 21.2006V21.7006ZM12.6252 21.7006H21.3748V21.2006H12.6252V21.7006ZM1.70075 30.955C2.59462 25.5921 7.18852 21.7006 12.6252 21.7006V21.2006C6.9441 21.2006 2.14161 25.2688 1.20755 30.8728L1.70075 30.955ZM1.26195 33.5881L1.70075 30.955L1.20755 30.8728L0.768754 33.5059L1.26195 33.5881ZM1.45783 34.2989C1.2912 34.1022 1.21955 33.8423 1.26195 33.5881L0.768759 33.5059C0.702165 33.9052 0.81475 34.3133 1.07631 34.6221L1.45783 34.2989ZM2.12677 34.609C1.86904 34.609 1.62431 34.4956 1.45787 34.299L1.07627 34.6221C1.3378 34.931 1.72215 35.109 2.12677 35.109V34.609ZM31.8731 34.609H2.12677V35.109H31.8731V34.609ZM32.542 34.299C32.3756 34.4956 32.1309 34.609 31.8731 34.609V35.109C32.2777 35.109 32.6621 34.931 32.9236 34.6221L32.542 34.299ZM32.7381 33.5881C32.7804 33.8423 32.7088 34.1022 32.5421 34.2989L32.9235 34.6222C33.1852 34.3134 33.2978 33.9052 33.2312 33.5059L32.7381 33.5881ZM17.1622 25.0074L18.4714 23.8946L18.1476 23.5136L16.8384 24.6264L17.1622 25.0074ZM15.5292 23.8946L16.8384 25.0074L17.1622 24.6264L15.853 23.5136L15.5292 23.8946ZM18.3095 23.4541H15.6911V23.9541H18.3095V23.4541ZM27.6727 32.6055V30.014H27.1727V32.6055H27.6727ZM30.5432 32.3555H27.4227V32.8555H30.5432V32.3555ZM30.0765 31.3254L30.2966 32.6466L30.7898 32.5644L30.5697 31.2432L30.0765 31.3254ZM21.7675 23.9629C25.9248 24.1437 29.3861 27.1833 30.0765 31.3254L30.5697 31.2432C29.8403 26.8674 26.1818 23.6544 21.7893 23.4633L21.7675 23.9629ZM17.8918 27.3446L21.9403 23.9036L21.6165 23.5226L17.568 26.9636L17.8918 27.3446ZM17.0002 27.6723C17.3173 27.6723 17.6349 27.5629 17.8918 27.3446L17.568 26.9636C17.4043 27.1027 17.2024 27.1723 17.0002 27.1723V27.6723ZM16.1085 27.3446C16.3655 27.5629 16.683 27.6723 17.0002 27.6723V27.1723C16.7979 27.1723 16.5961 27.1027 16.4323 26.9636L16.1085 27.3446ZM12.06 23.9036L16.1085 27.3446L16.4323 26.9636L12.3839 23.5226L12.06 23.9036ZM3.92388 31.3255C4.61419 27.1833 8.07558 24.1437 12.2328 23.9629L12.2111 23.4633C7.81852 23.6544 4.15994 26.8674 3.43068 31.2433L3.92388 31.3255ZM3.70374 32.6466L3.92388 31.3255L3.43068 31.2433L3.21054 32.5644L3.70374 32.6466ZM6.57753 32.3555H3.45714V32.8555H6.57753V32.3555ZM6.32753 30.014V32.6055H6.82753V30.014H6.32753ZM7.70434 28.6372C6.94392 28.6372 6.32753 29.2536 6.32753 30.014H6.82753C6.82753 29.5297 7.22007 29.1372 7.70434 29.1372V28.6372ZM9.08115 30.014C9.08115 29.2537 8.46477 28.6372 7.70434 28.6372V29.1372C8.1886 29.1372 8.58115 29.5298 8.58115 30.014H9.08115ZM9.08115 32.6055V30.014H8.58115V32.6055H9.08115ZM25.1691 32.3555H8.83115V32.8555H25.1691V32.3555ZM24.9191 30.014V32.6055H25.4191V30.014H24.9191ZM26.2959 28.6372C25.5356 28.6372 24.9191 29.2535 24.9191 30.014H25.4191C25.4191 29.5297 25.8117 29.1372 26.2959 29.1372V28.6372ZM27.6727 30.014C27.6727 29.2537 27.0563 28.6372 26.2959 28.6372V29.1372C26.7802 29.1372 27.1727 29.5298 27.1727 30.014H27.6727Z" fill="#FF0066"/>
</svg>
