<svg width="35" height="36" viewBox="0 0 35 36" fill="none" xmlns="http://www.w3.org/2000/svg">
<path fill-rule="evenodd" clip-rule="evenodd" d="M24.7788 2.28165C29.8634 2.28165 34 6.41828 34 11.5029C34 16.2425 30.4055 20.1577 25.7997 20.6674V24.3391C27.5666 24.528 28.9474 26.0275 28.9474 27.8438C28.9474 29.7876 27.366 31.3689 25.4222 31.3689H19.4094C19.4094 33.9362 17.3518 35.8434 14.9737 35.8434C12.5987 35.8434 10.538 33.9403 10.538 31.3689H4.52517C2.58136 31.3689 1 29.7876 1 27.8438C1 26.0275 2.38074 24.528 4.14768 24.339V16.8735C4.14768 14.4721 4.91743 12.1976 6.37384 10.2959C7.62446 8.66289 9.33852 7.40723 11.2585 6.70329V4.71504C11.2585 2.66656 12.9251 1 14.9736 1C16.9795 1 18.6182 2.5983 18.6854 4.58805C20.3115 3.15355 22.4451 2.28165 24.7788 2.28165ZM31.9583 11.5029C31.9583 7.54401 28.7375 4.32325 24.7786 4.32325C20.811 4.32325 17.5989 7.55449 17.599 11.5029C17.599 15.4605 20.8178 18.6805 24.7749 18.6825L24.7786 18.6823L24.7823 18.6825C28.7395 18.6805 31.9583 15.4605 31.9583 11.5029ZM13.3002 4.71504C13.3002 3.79231 14.0509 3.04161 14.9736 3.04161C15.8964 3.04161 16.6471 3.79231 16.6471 4.71504V6.17622C15.5551 6.00683 14.4059 6.00466 13.3002 6.17636V4.71504ZM16.1804 8.17153C10.8045 7.43472 6.18917 11.6494 6.18917 16.8735V24.3185H23.7578V20.6674C17.7902 20.0071 13.9812 13.8279 16.1804 8.17153ZM14.9736 33.8018C13.7054 33.8018 12.5795 32.7947 12.5795 31.3689H17.3677C17.3677 32.7886 16.2473 33.8018 14.9736 33.8018ZM25.4221 29.3272C26.2402 29.3272 26.9057 28.6617 26.9057 27.8436C26.9057 27.0256 26.2401 26.3601 25.4221 26.3601H4.52512C3.70705 26.3601 3.04155 27.0256 3.04155 27.8436C3.04155 28.6617 3.70705 29.3272 4.52512 29.3272H25.4221Z" fill="#FF0066"/>
<path d="M25.7997 20.6674L25.7887 20.5681L25.6997 20.5779V20.6674H25.7997ZM25.7997 24.3391H25.6997V24.4289L25.7891 24.4385L25.7997 24.3391ZM19.4094 31.3689V31.2689H19.3094V31.3689H19.4094ZM10.538 31.3689H10.638V31.2689H10.538V31.3689ZM4.14768 24.339L4.15831 24.4384L4.24768 24.4289V24.339H4.14768ZM6.37384 10.2959L6.45323 10.3567L6.45323 10.3567L6.37384 10.2959ZM11.2585 6.70329L11.2929 6.79718L11.3585 6.77313V6.70329H11.2585ZM18.6854 4.58805L18.5854 4.59143L18.5926 4.80325L18.7515 4.66304L18.6854 4.58805ZM17.599 11.5029H17.699V11.5029L17.599 11.5029ZM24.7749 18.6825L24.7749 18.7826L24.7805 18.7823L24.7749 18.6825ZM24.7786 18.6823L24.7842 18.5818L24.7731 18.5824L24.7786 18.6823ZM24.7823 18.6825L24.7767 18.7825L24.7823 18.7825L24.7823 18.6825ZM16.6471 6.17622L16.6317 6.27504L16.7471 6.29293V6.17622H16.6471ZM13.3002 6.17636H13.2002V6.29308L13.3155 6.27517L13.3002 6.17636ZM16.1804 8.17153L16.2736 8.20777L16.3195 8.08966L16.1939 8.07246L16.1804 8.17153ZM6.18917 24.3185H6.08917V24.4185H6.18917V24.3185ZM23.7578 24.3185V24.4185H23.8578V24.3185H23.7578ZM23.7578 20.6674H23.8578V20.5778L23.7688 20.568L23.7578 20.6674ZM12.5795 31.3689V31.2689H12.4795V31.3689H12.5795ZM17.3677 31.3689H17.4677V31.2689H17.3677V31.3689ZM34.1 11.5029C34.1 6.36305 29.9186 2.18165 24.7788 2.18165V2.38165C29.8081 2.38165 33.9 6.47351 33.9 11.5029H34.1ZM25.8107 20.7668C30.4665 20.2516 34.1 16.2941 34.1 11.5029H33.9C33.9 16.1909 30.3444 20.0639 25.7887 20.5681L25.8107 20.7668ZM25.8997 24.3391V20.6674H25.6997V24.3391H25.8997ZM29.0474 27.8438C29.0474 25.9757 27.6274 24.434 25.8103 24.2396L25.7891 24.4385C27.5057 24.6221 28.8474 26.0792 28.8474 27.8438H29.0474ZM25.4222 31.4689C27.4212 31.4689 29.0474 29.8428 29.0474 27.8438H28.8474C28.8474 29.7323 27.3108 31.2689 25.4222 31.2689V31.4689ZM19.4094 31.4689H25.4222V31.2689H19.4094V31.4689ZM14.9737 35.9434C17.4054 35.9434 19.5094 33.993 19.5094 31.3689H19.3094C19.3094 33.8793 17.2982 35.7434 14.9737 35.7434V35.9434ZM10.438 31.3689C10.438 33.9972 12.5452 35.9434 14.9737 35.9434V35.7434C12.6522 35.7434 10.638 33.8833 10.638 31.3689H10.438ZM4.52517 31.4689H10.538V31.2689H4.52517V31.4689ZM0.9 27.8438C0.9 29.8428 2.52613 31.4689 4.52517 31.4689V31.2689C2.63659 31.2689 1.1 29.7323 1.1 27.8438H0.9ZM4.13704 24.2396C2.31989 24.4339 0.9 25.9758 0.9 27.8438H1.1C1.1 26.0792 2.44159 24.622 4.15831 24.4384L4.13704 24.2396ZM4.04768 16.8735V24.339H4.24768V16.8735H4.04768ZM6.29445 10.2351C4.82463 12.1543 4.04768 14.4501 4.04768 16.8735H4.24768C4.24768 14.494 5.01022 12.2409 6.45323 10.3567L6.29445 10.2351ZM11.2241 6.6094C9.28636 7.31985 7.55667 8.58694 6.29445 10.2351L6.45323 10.3567C7.69225 8.73884 9.39068 7.49462 11.2929 6.79718L11.2241 6.6094ZM11.1585 4.71504V6.70329H11.3585V4.71504H11.1585ZM14.9736 0.9C12.8698 0.9 11.1585 2.61133 11.1585 4.71504H11.3585C11.3585 2.72179 12.9803 1.1 14.9736 1.1V0.9ZM18.7853 4.58467C18.7163 2.54129 17.0337 0.9 14.9736 0.9V1.1C16.9253 1.1 18.52 2.65532 18.5854 4.59143L18.7853 4.58467ZM24.7788 2.18165C22.4197 2.18165 20.2628 3.06313 18.6192 4.51306L18.7515 4.66304C20.3601 3.24397 22.4705 2.38165 24.7788 2.38165V2.18165ZM24.7786 4.42325C28.6823 4.42325 31.8583 7.59924 31.8583 11.5029H32.0583C32.0583 7.48879 28.7927 4.22325 24.7786 4.22325V4.42325ZM17.699 11.5029C17.6989 7.60955 20.8664 4.42325 24.7786 4.42325V4.22325C20.7556 4.22325 17.4989 7.49944 17.499 11.5029L17.699 11.5029ZM24.775 18.5825C20.873 18.5805 17.699 15.4053 17.699 11.5029H17.499C17.499 15.5157 20.7625 18.7805 24.7749 18.7825L24.775 18.5825ZM24.7731 18.5824L24.7694 18.5826L24.7805 18.7823L24.7842 18.7821L24.7731 18.5824ZM24.7878 18.5826L24.7842 18.5824L24.7731 18.7821L24.7767 18.7823L24.7878 18.5826ZM31.8583 11.5029C31.8583 15.4053 28.6842 18.5805 24.7822 18.5825L24.7823 18.7825C28.7947 18.7805 32.0583 15.5157 32.0583 11.5029H31.8583ZM14.9736 2.94161C13.9957 2.94161 13.2002 3.73708 13.2002 4.71504H13.4002C13.4002 3.84754 14.1061 3.14161 14.9736 3.14161V2.94161ZM16.7471 4.71504C16.7471 3.73708 15.9516 2.94161 14.9736 2.94161V3.14161C15.8411 3.14161 16.5471 3.84754 16.5471 4.71504H16.7471ZM16.7471 6.17622V4.71504H16.5471V6.17622H16.7471ZM13.3155 6.27517C14.411 6.10506 15.5498 6.10722 16.6317 6.27504L16.6624 6.0774C15.5603 5.90645 14.4007 5.90425 13.2848 6.07754L13.3155 6.27517ZM13.2002 4.71504V6.17636H13.4002V4.71504H13.2002ZM6.28917 16.8735C6.28917 11.7086 10.8523 7.54221 16.1668 8.27061L16.1939 8.07246C10.7566 7.32722 6.08917 11.5902 6.08917 16.8735H6.28917ZM6.28917 24.3185V16.8735H6.08917V24.3185H6.28917ZM23.7578 24.2185H6.18917V24.4185H23.7578V24.2185ZM23.6578 20.6674V24.3185H23.8578V20.6674H23.6578ZM16.0872 8.13529C13.864 13.8535 17.7144 20.0993 23.7469 20.7668L23.7688 20.568C17.8659 19.9149 14.0984 13.8024 16.2736 8.20777L16.0872 8.13529ZM12.4795 31.3689C12.4795 32.8521 13.6524 33.9018 14.9736 33.9018V33.7018C13.7585 33.7018 12.6795 32.7373 12.6795 31.3689H12.4795ZM17.3677 31.2689H12.5795V31.4689H17.3677V31.2689ZM14.9736 33.9018C16.3006 33.9018 17.4677 32.8457 17.4677 31.3689H17.2677C17.2677 32.7315 16.1939 33.7018 14.9736 33.7018V33.9018ZM26.8057 27.8436C26.8057 28.6065 26.1849 29.2272 25.4221 29.2272V29.4272C26.2954 29.4272 27.0057 28.7169 27.0057 27.8436H26.8057ZM25.4221 26.4601C26.1849 26.4601 26.8057 27.0809 26.8057 27.8436H27.0057C27.0057 26.9704 26.2953 26.2601 25.4221 26.2601V26.4601ZM4.52512 26.4601H25.4221V26.2601H4.52512V26.4601ZM3.14155 27.8436C3.14155 27.0808 3.76228 26.4601 4.52512 26.4601V26.2601C3.65182 26.2601 2.94155 26.9703 2.94155 27.8436H3.14155ZM4.52512 29.2272C3.76228 29.2272 3.14155 28.6065 3.14155 27.8436H2.94155C2.94155 28.7169 3.65182 29.4272 4.52512 29.4272V29.2272ZM25.4221 29.2272H4.52512V29.4272H25.4221V29.2272Z" fill="#FF0066"/>
<path d="M24.0719 12.2493C24.4591 12.6105 25.0584 12.6158 25.4518 12.261L28.4863 9.52502C28.9049 9.14753 28.9384 8.50204 28.5609 8.08331C28.1832 7.66458 27.5379 7.63116 27.1191 8.00872L24.78 10.1178L23.711 9.12058C23.2987 8.73601 22.6528 8.7584 22.2682 9.17067C21.8837 9.58293 21.9061 10.2288 22.3183 10.6134L24.0719 12.2493Z" fill="#FF0066" stroke="#FF0066" stroke-width="0.2"/>
</svg>
