<svg width="225" height="65" viewBox="0 0 225 65" fill="none" xmlns="http://www.w3.org/2000/svg">
<g clip-path="url(#clip0_1002_33907)">
<path d="M222.682 32.917C221.863 31.5513 220.841 30.318 219.652 29.2593C220.319 28.9484 220.927 28.5226 221.447 28.0014L221.701 27.747L221.919 27.4643C222.806 26.2109 223.286 24.7147 223.293 23.1791V23.0603V22.9444C223.165 20.1686 222.105 17.438 220.135 14.8318L220.104 14.7922L220.076 14.7527C218.914 13.2703 217.542 11.9657 216.002 10.8801C214.539 9.85473 212.959 9.00645 211.296 8.35301C209.654 7.70666 207.948 7.233 206.208 6.93965C204.565 6.65983 202.902 6.51706 201.236 6.51282C198.879 6.51826 196.531 6.79234 194.237 7.32974C192.074 7.82427 189.997 8.63885 188.075 9.74657C186.907 8.07881 184.965 7.0499 182.633 7.0499H154.225C152.762 7.0469 151.316 7.35927 149.985 7.96575C149.023 7.47164 147.956 7.21847 146.875 7.22798H142.129C139.483 7.21203 136.933 8.22566 135.02 10.0547C134.831 10.2328 134.656 10.4193 134.48 10.62C134.39 10.555 134.299 10.4843 134.198 10.4193C132.322 9.16853 130.229 8.27891 128.027 7.79615V7.1234C128.025 5.23562 127.274 3.4258 125.939 2.09094C124.604 0.75608 122.794 0.00517869 120.907 0.00293445H120.729C119.508 0.00151735 118.309 0.316061 117.246 0.915954C116.183 0.316061 114.984 0.00151735 113.764 0.00293445H113.585C111.716 0.0124404 109.925 0.756134 108.598 2.07376C107.271 3.39138 106.515 5.17744 106.493 7.04707H106.397C105.291 7.05807 104.193 7.24117 103.144 7.58979C101.891 7.99593 100.731 8.64422 99.7289 9.49782L99.5254 9.67307C97.5408 8.54938 95.3857 7.75782 93.1456 7.32974C90.944 6.89256 88.705 6.67102 86.4604 6.66828C79.9929 6.66828 74.8709 8.14666 71.2782 11.0638L71.2443 11.0921L71.2104 11.1203C70.956 11.3323 70.7129 11.55 70.4754 11.7705C69.7048 11.0643 68.8659 10.4365 67.971 9.89639C65.8886 8.65413 63.6051 7.7855 61.2236 7.32974C59.022 6.89283 56.783 6.67129 54.5385 6.66828C48.071 6.66828 42.949 8.14666 39.3563 11.0638L39.3195 11.0921L39.2856 11.1203C39.0274 11.3352 38.7787 11.5557 38.5394 11.7818C37.765 11.0718 36.9223 10.4403 36.0236 9.89639C33.9412 8.65413 31.6578 7.7855 29.2762 7.32974C27.0746 6.89283 24.8357 6.67129 22.5911 6.66828C16.1208 6.66828 11.0016 8.14666 7.40606 11.0638L7.37214 11.0921L7.33822 11.1203C5.48331 12.6284 3.99329 14.5363 2.97956 16.7013C1.96583 18.8663 1.4546 21.2324 1.48412 23.6229C1.48412 26.5372 2.15687 29.1406 3.46281 31.3482C2.95883 31.9905 2.50253 32.6689 2.09753 33.3778C0.724505 35.7496 0.0019548 38.4418 0.00293067 41.1823C0.00293067 44.5065 0.780283 47.4435 2.30953 49.9112C3.73312 52.216 5.66737 54.1628 7.96293 55.6013C10.1981 56.9926 12.6596 57.9818 15.236 58.5241C17.6562 59.0505 20.1256 59.3177 22.6024 59.3213C25.0388 59.3132 27.4674 59.046 29.8472 58.5241C32.3857 57.9883 34.8196 57.0411 37.0525 55.72C37.5858 55.3978 38.0993 55.053 38.5931 54.6855C39.0142 55.0077 39.4411 55.313 39.9103 55.6013C42.146 56.9915 44.6074 57.9807 47.1834 58.5241C49.6036 59.0505 52.073 59.3177 54.5498 59.3213C56.9871 59.3132 59.4166 59.046 61.7974 58.5241C64.3357 57.9873 66.7694 57.0402 69.0027 55.72C69.5304 55.3997 70.0382 55.0577 70.5263 54.694C70.9484 55.0143 71.3847 55.3168 71.8351 55.6013C74.0695 56.9921 76.53 57.9813 79.1053 58.5241C81.5256 59.0503 83.9949 59.3176 86.4717 59.3213C88.909 59.3134 91.3386 59.0461 93.7194 58.5241C95.3504 58.1751 96.9415 57.6608 98.4682 56.9893C99.6515 58.0148 101.165 58.5789 102.731 58.5779H106.538C106.715 60.3331 107.537 61.9604 108.843 63.1455C110.15 64.3306 111.85 64.9894 113.614 64.9945H113.792C115.012 64.9959 116.212 64.6813 117.274 64.0814C118.337 64.6813 119.537 64.9959 120.757 64.9945H120.935C122.823 64.9922 124.632 64.2413 125.967 62.9064C127.302 61.5716 128.053 59.7618 128.055 57.874V57.8485L128.533 57.7355C130.123 57.3471 131.658 56.7602 133.101 55.9886C133.701 56.8535 134.505 57.5573 135.442 58.0379C136.378 58.5186 137.419 58.7613 138.472 58.7446H146.895C147.795 58.7618 148.688 58.5886 149.516 58.2364C150.345 57.8842 151.089 57.361 151.701 56.7009C152.849 55.476 153.483 53.8571 153.473 52.1782V26.834H155.904V51.9916C155.896 52.9184 156.089 53.8358 156.47 54.6805C156.852 55.5253 157.412 56.2773 158.112 56.8847C159.328 57.97 160.902 58.5679 162.533 58.5637H170.73C172.428 58.5929 174.073 57.9662 175.321 56.814C175.977 56.1962 176.497 55.4482 176.848 54.6178C177.199 53.7874 177.373 52.893 177.359 51.9916V26.834H179.792C180.025 28.6599 180.601 30.4254 181.488 32.0379C182.286 33.469 183.299 34.7693 184.49 35.8936C183.201 35.9944 181.967 36.4667 180.94 37.2532L180.657 37.4709L180.406 37.7224C179.816 38.311 179.349 39.0108 179.031 39.7814C178.714 40.5519 178.553 41.3779 178.557 42.2112V42.3073C178.629 45.5325 179.764 48.6438 181.785 51.1578C183.021 52.8329 184.565 54.2559 186.336 55.3497C187.915 56.3255 189.6 57.1174 191.359 57.71C193.109 58.2991 194.916 58.7055 196.75 58.9227C198.386 59.12 200.032 59.221 201.68 59.2251C204.13 59.2147 206.572 58.9485 208.967 58.4309C211.534 57.8993 214 56.9643 216.274 55.6607C218.677 54.2751 220.721 52.3445 222.241 50.0243C223.9 47.5057 224.743 44.498 224.743 41.0862C224.717 37.909 224.033 35.1586 222.682 32.917Z" fill="#000324"/>
<path d="M40.1503 41.2503C40.1503 43.6605 39.6161 45.6967 38.5476 47.3588C37.504 48.9962 36.0928 50.3677 34.4263 51.3642C32.6748 52.4009 30.7649 53.1429 28.7729 53.5606C26.7469 54.006 24.6793 54.2343 22.605 54.2418C20.4903 54.239 18.3819 54.0107 16.3156 53.5606C14.3185 53.1438 12.4105 52.3783 10.6792 51.2992C9.04027 50.272 7.66001 48.8811 6.64545 47.2344C5.61653 45.5761 5.10208 43.5597 5.10208 41.1853C5.0976 39.3311 5.58532 37.509 6.51543 35.905C7.41883 34.292 8.72732 32.9426 10.3117 31.99C10.5887 31.8317 10.6085 31.6536 10.371 31.4557C7.84208 29.6749 6.57667 27.0649 6.57478 23.6258C6.57478 20.1471 7.91936 17.2798 10.6085 15.0241C13.2995 12.8476 17.2946 11.7593 22.5937 11.7593C24.5053 11.7611 26.4121 11.9505 28.2867 12.3246C30.0899 12.6602 31.8199 13.3109 33.3974 14.2468C34.8919 15.1478 36.1445 16.3993 37.0466 17.8932C37.9757 19.4159 38.4402 21.3003 38.4402 23.5466C38.4402 26.9066 37.2341 29.5364 34.822 31.436C34.7811 31.4595 34.748 31.4946 34.7269 31.5368C34.7058 31.579 34.6976 31.6265 34.7033 31.6734C34.7045 31.7341 34.7215 31.7935 34.7528 31.8455C34.784 31.8976 34.8284 31.9406 34.8814 31.9702C36.5216 32.8602 37.8709 34.2036 38.7681 35.8399C39.6908 37.4928 40.1672 39.3574 40.1503 41.2503V41.2503Z" fill="#FF0066"/>
<path d="M28.9963 41.2502C29.0141 40.4522 28.8189 39.6639 28.431 38.9662C28.0615 38.3206 27.5549 37.7639 26.947 37.3352C26.3281 36.8971 25.6346 36.5753 24.9004 36.3855C24.1451 36.192 23.3679 36.097 22.5882 36.1028C21.7983 36.0979 21.0109 36.1929 20.2449 36.3855C19.4996 36.571 18.7952 36.8931 18.1672 37.3352C17.5656 37.7583 17.0599 38.3035 16.6832 38.9352C16.3136 39.6453 16.1206 40.4341 16.1206 41.2347C16.1206 42.0353 16.3136 42.824 16.6832 43.5342C17.0527 44.1798 17.5593 44.7365 18.1672 45.1652C18.7983 45.6084 19.5012 45.9393 20.2449 46.1432C21.7765 46.5805 23.3999 46.5805 24.9315 46.1432C25.6669 45.9426 26.3601 45.6113 26.9781 45.1652C27.5717 44.7298 28.0668 44.174 28.431 43.5342C28.8189 42.8366 29.0141 42.0482 28.9963 41.2502Z" fill="white"/>
<path d="M16.8953 24.1515C16.8826 24.8442 17.0564 25.5276 17.3985 26.1302C17.7274 26.6895 18.1728 27.1715 18.7044 27.5435C19.2622 27.9301 19.8858 28.2118 20.5446 28.3746C21.2128 28.5493 21.9005 28.6386 22.5911 28.6403C23.273 28.6432 23.9518 28.548 24.6066 28.3576C25.2603 28.1722 25.8811 27.8861 26.4468 27.5096C26.9875 27.1476 27.4428 26.672 27.781 26.116C28.1273 25.5225 28.3016 24.8442 28.2841 24.1571C28.3033 23.4421 28.1295 22.7352 27.781 22.1106C27.4521 21.5512 27.0067 21.0692 26.475 20.6972C25.9264 20.3144 25.3137 20.033 24.6659 19.8662C23.3049 19.5081 21.8745 19.5081 20.5135 19.8662C19.8657 20.033 19.253 20.3144 18.7044 20.6972C18.1728 21.0692 17.7274 21.5512 17.3985 22.1106C17.0509 22.7335 16.8771 23.4384 16.8953 24.1515Z" fill="white"/>
<path d="M101.239 51.9915V17.2994C101.214 16.4979 101.388 15.7028 101.744 14.9843C102.063 14.374 102.495 13.8308 103.019 13.3844C103.516 12.9589 104.093 12.6361 104.715 12.4346C105.263 12.2527 105.835 12.1573 106.411 12.152H121.006C122.911 12.1394 124.812 12.3231 126.679 12.7004C128.351 13.0333 129.943 13.688 131.366 14.6282C132.723 15.5557 133.825 16.8109 134.568 18.2774C135.36 19.802 135.755 21.6864 135.755 23.9308C135.774 25.5625 135.332 27.1662 134.481 28.5581C133.615 29.9562 132.398 31.1025 130.95 31.8823C132.72 32.5835 134.196 33.8706 135.131 35.5288C136.112 37.1491 136.636 39.0052 136.646 40.8995C136.646 43.191 136.24 45.1283 135.427 46.7112C134.655 48.2497 133.527 49.582 132.137 50.5979C130.684 51.6385 129.041 52.3847 127.301 52.7943C125.388 53.2576 123.426 53.4864 121.458 53.4755H102.72C102.33 53.4641 101.959 53.304 101.684 53.0281C101.409 52.7521 101.249 52.3812 101.239 51.9915V51.9915ZM119.748 28.4988C121.093 28.4988 122.182 28.1332 123.013 27.402C123.844 26.6709 124.258 25.6127 124.256 24.2277C124.256 22.8454 123.832 21.8052 122.982 21.1183C122.06 20.4014 120.915 20.0329 119.748 20.078H109.068C109.501 20.0717 109.93 20.1557 110.328 20.3246C110.726 20.4935 111.085 20.7436 111.381 21.0589C111.676 21.3381 111.912 21.6736 112.075 22.0455C112.238 22.4173 112.325 22.8181 112.331 23.2242V26.783C112.354 27.2033 112.522 27.6027 112.805 27.9137C112.96 28.109 113.16 28.2646 113.387 28.3678C113.614 28.4711 113.862 28.5188 114.111 28.5073L119.748 28.4988ZM120.282 45.459C121.707 45.459 122.864 45.0633 123.753 44.2718C124.643 43.4803 125.087 42.3496 125.087 40.8797C125.087 39.4551 124.632 38.3178 123.722 37.4679C122.787 36.6077 121.552 36.1497 120.282 36.1931H109.068C109.501 36.1864 109.93 36.27 110.328 36.4384C110.726 36.6068 111.084 36.8563 111.381 37.1711C111.675 37.4505 111.911 37.786 112.074 38.1579C112.237 38.5297 112.324 38.9304 112.331 39.3364V43.6669C112.344 44.1006 112.5 44.5177 112.774 44.8541C112.932 45.0544 113.136 45.2132 113.369 45.3166C113.602 45.4201 113.857 45.4651 114.111 45.4477L120.282 45.459Z" fill="#FF0066"/>
<path d="M136.991 52.1811V17.4777C136.969 16.7854 137.096 16.0964 137.362 15.4569C137.628 14.8173 138.028 14.242 138.534 13.7691C139.012 13.3009 139.578 12.9316 140.198 12.6823C140.819 12.433 141.483 12.3086 142.152 12.3162H146.898C147.096 12.3015 147.295 12.3311 147.479 12.403C147.664 12.4749 147.831 12.5872 147.967 12.7317C148.105 12.8725 148.212 13.0398 148.284 13.2234C148.355 13.407 148.389 13.6033 148.382 13.8002V52.1811C148.389 52.3781 148.355 52.5743 148.284 52.7579C148.212 52.9415 148.105 53.1088 147.967 53.2496C147.831 53.3941 147.664 53.5064 147.479 53.5783C147.295 53.6502 147.096 53.6799 146.898 53.6652H138.475C138.277 53.6753 138.08 53.6439 137.895 53.5729C137.71 53.5019 137.543 53.3929 137.403 53.2531C137.263 53.1132 137.154 52.9455 137.083 52.7608C137.012 52.5762 136.98 52.3787 136.991 52.1811V52.1811Z" fill="#FF0066"/>
<path d="M182.647 12.1353C183.676 12.1353 184.19 12.6497 184.19 13.6786V20.262C184.205 20.4598 184.176 20.6584 184.104 20.8433C184.032 21.0282 183.919 21.1946 183.775 21.3305C183.625 21.473 183.447 21.5833 183.252 21.6548C183.058 21.7262 182.851 21.7573 182.644 21.746H168.938C169.804 21.7448 170.637 22.0862 171.253 22.6958C171.562 22.9602 171.811 23.2871 171.985 23.655C172.158 24.0229 172.252 24.4233 172.259 24.83V51.9918C172.272 52.1937 172.242 52.3961 172.17 52.5853C172.099 52.7745 171.987 52.9461 171.843 53.0885C171.532 53.3615 171.126 53.5006 170.713 53.4758H162.515C162.121 53.4758 161.74 53.3275 161.45 53.0603C161.296 52.929 161.173 52.7648 161.091 52.5799C161.009 52.395 160.969 52.194 160.975 51.9918V23.5862C160.985 23.3359 160.94 23.0864 160.842 22.8557C160.744 22.625 160.596 22.4188 160.409 22.252C160.082 21.9372 159.648 21.7576 159.194 21.7489H150.592C150.386 21.7601 150.179 21.729 149.984 21.6576C149.79 21.5862 149.612 21.4758 149.462 21.3333C149.317 21.1974 149.205 21.031 149.133 20.8461C149.061 20.6613 149.031 20.4627 149.046 20.2649V17.2403C149.019 16.5416 149.149 15.8457 149.426 15.2038C149.703 14.5619 150.121 13.9905 150.649 13.5316C151.621 12.6412 152.89 12.1444 154.208 12.1381L182.647 12.1353Z" fill="#FF0066"/>
<path d="M219.629 41.0888C219.629 43.5009 219.075 45.5475 217.967 47.2284C216.88 48.8901 215.417 50.2721 213.696 51.2621C211.887 52.2974 209.925 53.0379 207.884 53.4556C205.841 53.9006 203.756 54.1298 201.665 54.1397C200.218 54.1354 198.772 54.0458 197.335 53.8712C195.851 53.6979 194.389 53.3701 192.973 52.8931C191.581 52.4243 190.248 51.7974 188.999 51.0246C187.76 50.2606 186.682 49.2631 185.824 48.0877C184.461 46.4279 183.689 44.3612 183.631 42.2138C183.626 42.0494 183.656 41.8858 183.717 41.7331C183.778 41.5804 183.87 41.4419 183.987 41.3263C184.255 41.1064 184.588 40.9812 184.934 40.9701H192.767C193.185 40.9505 193.602 41.032 193.982 41.2075C194.34 41.4204 194.652 41.7019 194.901 42.0358C195.515 43.2164 196.538 44.1336 197.778 44.6165C199.022 45.0786 200.339 45.3105 201.665 45.3006C202.34 45.2942 203.013 45.2442 203.681 45.1508C204.411 45.0571 205.129 44.8778 205.818 44.6165C206.458 44.3738 207.039 43.997 207.522 43.5113C207.763 43.2597 207.95 42.9618 208.072 42.6358C208.194 42.3097 208.248 41.9623 208.232 41.6146C208.257 41.1559 208.154 40.6992 207.935 40.2957C207.715 39.8922 207.387 39.558 206.988 39.3306C206.201 38.8559 205.365 38.4673 204.495 38.1716C203.862 37.9832 203.08 37.7655 202.151 37.5187C201.222 37.2718 200.144 37.0155 198.918 36.7498C197.132 36.4023 195.37 35.9463 193.64 35.3845C192.02 34.8691 190.488 34.1063 189.1 33.1232C187.779 32.1812 186.685 30.9556 185.898 29.5361C185.088 28.0907 184.682 26.3004 184.682 24.1653C184.682 21.904 185.186 19.9762 186.195 18.3819C187.18 16.8027 188.507 15.4649 190.079 14.4669C191.711 13.4371 193.507 12.6943 195.39 12.2706C197.305 11.8221 199.266 11.5936 201.233 11.5894C202.615 11.5927 203.994 11.7118 205.357 11.9455C206.746 12.1804 208.108 12.5593 209.419 13.0762C210.708 13.5824 211.933 14.239 213.068 15.0323C214.202 15.8295 215.211 16.7896 216.064 17.8816C217.408 19.6586 218.119 21.4187 218.199 23.1619C218.192 23.5962 218.069 24.0207 217.842 24.3915C217.726 24.5085 217.587 24.6005 217.434 24.6618C217.281 24.7231 217.117 24.7523 216.952 24.7476H208.706C207.836 24.7476 207.166 24.1088 206.691 23.3965C206.545 22.8653 206.258 22.3836 205.86 22.0029C205.455 21.622 204.983 21.3209 204.466 21.1153C203.941 20.9005 203.394 20.7413 202.835 20.6405C202.307 20.5435 201.77 20.4934 201.233 20.4906C200.628 20.4914 200.023 20.5311 199.424 20.6094C198.844 20.6786 198.281 20.8499 197.762 21.1153C197.27 21.3705 196.843 21.735 196.515 22.181C196.162 22.6942 195.985 23.3083 196.012 23.9307C196.012 25.0784 196.605 25.9886 197.793 26.6613C198.978 27.2945 201.172 27.9465 204.376 28.6174C206.266 28.9334 208.138 29.3495 209.984 29.864C211.712 30.3304 213.361 31.0506 214.877 32.001C216.283 32.8928 217.461 34.1008 218.317 35.5287C219.192 36.9797 219.629 38.8331 219.629 41.0888Z" fill="#FF0066"/>
<path d="M72.0976 41.2503C72.0976 43.6605 71.5643 45.6967 70.4977 47.3588C69.453 48.9963 68.0409 50.3678 66.3735 51.3642C64.622 52.4008 62.7121 53.1427 60.7201 53.5606C58.6932 54.006 56.6247 54.2343 54.5495 54.2418C52.4347 54.2389 50.3264 54.0105 48.2601 53.5606C46.2638 53.1438 44.3568 52.3783 42.6264 51.2992C40.9861 50.2729 39.6047 48.8819 38.5899 47.2344C37.561 45.5761 37.0475 43.5597 37.0493 41.1853C37.0449 39.3311 37.5326 37.509 38.4627 35.905C39.3645 34.2908 40.6734 32.9411 42.259 31.99C42.5416 31.8317 42.5416 31.6536 42.3183 31.4557C39.7856 29.6749 38.5202 27.0649 38.5221 23.6258C38.5221 20.1471 39.8666 17.2798 42.5558 15.0241C45.243 12.8476 49.2371 11.7593 54.5381 11.7593C56.4507 11.7611 58.3584 11.9505 60.2339 12.3246C62.0296 12.6649 63.7517 13.3174 65.322 14.2524C66.8149 15.1546 68.0663 16.406 68.9685 17.8989C69.8975 19.4215 70.363 21.306 70.3649 23.5523C70.3649 26.9123 69.1578 29.5421 66.7438 31.4416C66.7029 31.4651 66.6698 31.5002 66.6487 31.5424C66.6276 31.5847 66.6194 31.6322 66.6251 31.6791C66.6263 31.7398 66.6434 31.7991 66.6746 31.8512C66.7058 31.9033 66.7502 31.9462 66.8032 31.9759C68.45 32.8613 69.8064 34.2029 70.7097 35.8399C71.6344 37.4922 72.1127 39.3569 72.0976 41.2503V41.2503Z" fill="white"/>
<path d="M60.9466 41.2502C60.9643 40.4522 60.7692 39.6639 60.3813 38.9663C60.0118 38.3207 59.5052 37.7639 58.8972 37.3353C58.2783 36.8972 57.5848 36.5753 56.8507 36.3855C56.0954 36.1917 55.3182 36.0967 54.5384 36.1028C53.7486 36.0981 52.9612 36.1931 52.1951 36.3855C51.4499 36.5711 50.7455 36.8931 50.1175 37.3353C49.5167 37.7585 49.012 38.3036 48.6363 38.9352C48.2648 39.6448 48.0708 40.4338 48.0708 41.2347C48.0708 42.0356 48.2648 42.8246 48.6363 43.5342C49.005 44.1795 49.5106 44.7363 50.1175 45.1652C50.7486 45.6084 51.4514 45.9393 52.1951 46.1433C53.7268 46.5805 55.3502 46.5805 56.8818 46.1433C57.6173 45.9432 58.3106 45.6119 58.9283 45.1652C59.522 44.7298 60.0171 44.1741 60.3813 43.5342C60.7692 42.8366 60.9643 42.0483 60.9466 41.2502Z" fill="#FF0066"/>
<path d="M48.8425 24.1515C48.8306 24.8445 49.0054 25.5279 49.3485 26.1302C49.6756 26.6899 50.1202 27.1721 50.6516 27.5435C51.2093 27.9301 51.8329 28.2118 52.4917 28.3746C53.16 28.549 53.8476 28.6383 54.5383 28.6403C55.2202 28.6434 55.899 28.5482 56.5537 28.3576C57.2074 28.1722 57.8283 27.8861 58.3939 27.5096C58.9346 27.1475 59.3899 26.672 59.7281 26.116C60.0753 25.5227 60.2505 24.8444 60.2341 24.1571C60.2524 23.4419 60.0777 22.7349 59.7281 22.1106C59.3993 21.5521 58.955 21.0702 58.425 20.6972C57.8754 20.3144 57.2618 20.033 56.6131 19.8662C55.2521 19.5081 53.8216 19.5081 52.4607 19.8662C51.8129 20.033 51.2001 20.3144 50.6516 20.6972C50.1202 21.0687 49.6756 21.5508 49.3485 22.1106C48.9999 22.7332 48.8251 23.4381 48.8425 24.1515V24.1515Z" fill="#FF0066"/>
<path d="M104.023 41.2503C104.023 43.6605 103.489 45.6967 102.42 47.3588C101.376 48.9969 99.9639 50.3686 98.2959 51.3642C96.5443 52.4008 94.6345 53.1427 92.6425 53.5606C90.6157 54.0061 88.5471 54.2345 86.4718 54.2418C84.358 54.2389 82.2506 54.0105 80.1852 53.5606C78.1881 53.1438 76.2801 52.3783 74.5488 51.2992C72.9093 50.2728 71.5289 48.8817 70.5151 47.2344C69.4862 45.5761 68.9717 43.5597 68.9717 41.1853C68.9672 39.3311 69.455 37.509 70.3851 35.905C71.2876 34.2914 72.5963 32.9418 74.1813 31.99C74.4584 31.8317 74.4781 31.6536 74.2407 31.4557C71.708 29.6749 70.4425 27.0649 70.4444 23.6258C70.4444 20.1471 71.789 17.2798 74.4781 15.0241C77.1654 12.8476 81.1595 11.7593 86.4605 11.7593C88.373 11.761 90.2808 11.9503 92.1563 12.3246C93.9521 12.6645 95.6743 13.317 97.2444 14.2524C98.739 15.1534 99.9915 16.405 100.894 17.8989C101.821 19.4215 102.285 21.306 102.287 23.5523C102.287 26.9123 101.081 29.5421 98.669 31.4416C98.6281 31.4651 98.595 31.5002 98.5739 31.5424C98.5528 31.5847 98.5446 31.6322 98.5503 31.6791C98.5515 31.7398 98.5686 31.7991 98.5998 31.8512C98.631 31.9033 98.6754 31.9462 98.7284 31.9759C100.365 32.8629 101.713 34.201 102.612 35.8315C103.548 37.4836 104.034 39.3518 104.023 41.2503Z" fill="#FF0066"/>
<path d="M92.8684 41.2502C92.8848 40.4524 92.6897 39.6644 92.3031 38.9663C91.9336 38.3206 91.427 37.7639 90.8191 37.3353C90.2001 36.8971 89.5067 36.5753 88.7725 36.3855C88.0163 36.1918 87.2381 36.0967 86.4574 36.1028C85.6676 36.0981 84.8802 36.1931 84.1141 36.3855C83.37 36.5718 82.6666 36.8938 82.0393 37.3353C81.4377 37.7583 80.932 38.3035 80.5553 38.9352C80.1857 39.6453 79.9927 40.4341 79.9927 41.2347C79.9927 42.0353 80.1857 42.8241 80.5553 43.5342C80.9248 44.1798 81.4314 44.7366 82.0393 45.1652C82.6697 45.6079 83.3715 45.9387 84.1141 46.1433C85.6457 46.5805 87.2691 46.5805 88.8008 46.1433C89.5365 45.9438 90.2299 45.6124 90.8473 45.1652C91.4418 44.7299 91.9379 44.1742 92.3031 43.5342C92.6897 42.8361 92.8848 42.0481 92.8684 41.2502Z" fill="white"/>
<path d="M80.7674 24.1515C80.7547 24.8442 80.9285 25.5276 81.2706 26.1302C81.5994 26.6895 82.0448 27.1715 82.5765 27.5435C83.1332 27.9301 83.7559 28.2118 84.4138 28.3746C85.0821 28.549 85.7697 28.6383 86.4604 28.6403C87.1432 28.6434 87.8229 28.5482 88.4786 28.3576C89.1321 28.1716 89.7529 27.8856 90.3188 27.5096C90.8586 27.1464 91.3137 26.6711 91.653 26.116C91.9982 25.522 92.1723 24.844 92.1562 24.1571C92.174 23.4423 92.0003 22.7357 91.653 22.1106C91.3241 21.5512 90.8787 21.0692 90.3471 20.6972C89.7985 20.3144 89.1858 20.033 88.538 19.8662C87.177 19.5081 85.7466 19.5081 84.3856 19.8662C83.7378 20.033 83.1251 20.3144 82.5765 20.6972C82.0448 21.0692 81.5994 21.5512 81.2706 22.1106C80.923 22.7335 80.7492 23.4384 80.7674 24.1515V24.1515Z" fill="white"/>
<path d="M113.789 5.08789H113.613C112.491 5.08789 111.581 5.99783 111.581 7.12029V12.9489C111.581 14.0714 112.491 14.9813 113.613 14.9813H113.789C114.911 14.9813 115.821 14.0714 115.821 12.9489V7.12029C115.821 5.99783 114.911 5.08789 113.789 5.08789Z" fill="#FF0066"/>
<path d="M120.932 5.08789H120.757C119.634 5.08789 118.724 5.99783 118.724 7.12029V12.9489C118.724 14.0714 119.634 14.9813 120.757 14.9813H120.932C122.054 14.9813 122.964 14.0714 122.964 12.9489V7.12029C122.964 5.99783 122.054 5.08789 120.932 5.08789Z" fill="#FF0066"/>
<path d="M113.789 50.0186H113.613C112.491 50.0186 111.581 50.9285 111.581 52.051V57.8796C111.581 59.0021 112.491 59.912 113.613 59.912H113.789C114.911 59.912 115.821 59.0021 115.821 57.8796V52.051C115.821 50.9285 114.911 50.0186 113.789 50.0186Z" fill="#FF0066"/>
<path d="M120.932 50.0186H120.757C119.634 50.0186 118.724 50.9285 118.724 52.051V57.8796C118.724 59.0021 119.634 59.912 120.757 59.912H120.932C122.054 59.912 122.964 59.0021 122.964 57.8796V52.051C122.964 50.9285 122.054 50.0186 120.932 50.0186Z" fill="#FF0066"/>
<path d="M40.1503 41.2503C40.1503 43.6605 39.6161 45.6967 38.5476 47.3588C37.504 48.9962 36.0928 50.3677 34.4263 51.3642C32.6748 52.4009 30.7649 53.1429 28.7729 53.5606C26.7469 54.006 24.6793 54.2343 22.605 54.2418C20.4903 54.239 18.3819 54.0107 16.3156 53.5606C14.3185 53.1438 12.4105 52.3783 10.6792 51.2992C9.04027 50.272 7.66001 48.8811 6.64545 47.2344C5.61653 45.5761 5.10208 43.5597 5.10208 41.1853C5.0976 39.3311 5.58532 37.509 6.51543 35.905C7.41883 34.292 8.72732 32.9426 10.3117 31.99C10.5887 31.8317 10.6085 31.6536 10.371 31.4557C7.84208 29.6749 6.57667 27.0649 6.57478 23.6258C6.57478 20.1471 7.91936 17.2798 10.6085 15.0241C13.2995 12.8476 17.2946 11.7593 22.5937 11.7593C24.5053 11.7611 26.4121 11.9505 28.2867 12.3246C30.0899 12.6602 31.8199 13.3109 33.3974 14.2468C34.8919 15.1478 36.1445 16.3993 37.0466 17.8932C37.9757 19.4159 38.4402 21.3003 38.4402 23.5466C38.4402 26.9066 37.2341 29.5364 34.822 31.436C34.7811 31.4595 34.748 31.4946 34.7269 31.5368C34.7058 31.579 34.6976 31.6265 34.7033 31.6734C34.7045 31.7341 34.7215 31.7935 34.7528 31.8455C34.784 31.8976 34.8284 31.9406 34.8814 31.9702C36.5216 32.8602 37.8709 34.2036 38.7681 35.8399C39.6908 37.4928 40.1672 39.3574 40.1503 41.2503V41.2503Z" fill="#FF4940"/>
<path d="M28.9963 41.2502C29.0141 40.4522 28.8189 39.6639 28.431 38.9662C28.0615 38.3206 27.5549 37.7639 26.947 37.3352C26.3281 36.8971 25.6346 36.5753 24.9004 36.3855C24.1451 36.192 23.3679 36.097 22.5882 36.1028C21.7983 36.0979 21.0109 36.1929 20.2449 36.3855C19.4996 36.571 18.7952 36.8931 18.1672 37.3352C17.5656 37.7583 17.0599 38.3035 16.6832 38.9352C16.3136 39.6453 16.1206 40.4341 16.1206 41.2347C16.1206 42.0353 16.3136 42.824 16.6832 43.5342C17.0527 44.1798 17.5593 44.7365 18.1672 45.1652C18.7983 45.6084 19.5012 45.9393 20.2449 46.1432C21.7765 46.5805 23.3999 46.5805 24.9315 46.1432C25.6669 45.9426 26.3601 45.6113 26.9781 45.1652C27.5717 44.7298 28.0668 44.174 28.431 43.5342C28.8189 42.8366 29.0141 42.0482 28.9963 41.2502Z" fill="#000324"/>
<path d="M16.8953 24.1515C16.8826 24.8442 17.0564 25.5276 17.3985 26.1302C17.7274 26.6895 18.1728 27.1715 18.7044 27.5435C19.2622 27.9301 19.8858 28.2118 20.5446 28.3746C21.2128 28.5493 21.9005 28.6386 22.5911 28.6403C23.273 28.6432 23.9518 28.548 24.6066 28.3576C25.2603 28.1722 25.8811 27.8861 26.4468 27.5096C26.9875 27.1476 27.4428 26.672 27.781 26.116C28.1273 25.5225 28.3016 24.8442 28.2841 24.1571C28.3033 23.4421 28.1295 22.7352 27.781 22.1106C27.4521 21.5512 27.0067 21.0692 26.475 20.6972C25.9264 20.3144 25.3137 20.033 24.6659 19.8662C23.3049 19.5081 21.8745 19.5081 20.5135 19.8662C19.8657 20.033 19.253 20.3144 18.7044 20.6972C18.1728 21.0692 17.7274 21.5512 17.3985 22.1106C17.0509 22.7335 16.8771 23.4384 16.8953 24.1515Z" fill="#000324"/>
<path d="M101.239 51.9915V17.2994C101.214 16.4979 101.388 15.7028 101.744 14.9843C102.063 14.374 102.495 13.8308 103.019 13.3844C103.516 12.9589 104.093 12.6361 104.715 12.4346C105.263 12.2527 105.835 12.1573 106.411 12.152H121.006C122.911 12.1394 124.812 12.3231 126.679 12.7004C128.351 13.0333 129.943 13.688 131.366 14.6282C132.723 15.5557 133.825 16.8109 134.568 18.2774C135.36 19.802 135.755 21.6864 135.755 23.9308C135.774 25.5625 135.332 27.1662 134.481 28.5581C133.615 29.9562 132.398 31.1025 130.95 31.8823C132.72 32.5835 134.196 33.8706 135.131 35.5288C136.112 37.1491 136.636 39.0052 136.646 40.8995C136.646 43.191 136.24 45.1283 135.427 46.7112C134.655 48.2497 133.527 49.582 132.137 50.5979C130.684 51.6385 129.041 52.3847 127.301 52.7943C125.388 53.2576 123.426 53.4864 121.458 53.4755H102.72C102.33 53.4641 101.959 53.304 101.684 53.0281C101.409 52.7521 101.249 52.3812 101.239 51.9915V51.9915ZM119.748 28.4988C121.093 28.4988 122.182 28.1332 123.013 27.402C123.844 26.6709 124.258 25.6127 124.256 24.2277C124.256 22.8454 123.832 21.8052 122.982 21.1183C122.06 20.4014 120.915 20.0329 119.748 20.078H109.068C109.501 20.0717 109.93 20.1557 110.328 20.3246C110.726 20.4935 111.085 20.7436 111.381 21.0589C111.676 21.3381 111.912 21.6736 112.075 22.0455C112.238 22.4173 112.325 22.8181 112.331 23.2242V26.783C112.354 27.2033 112.522 27.6027 112.805 27.9137C112.96 28.109 113.16 28.2646 113.387 28.3678C113.614 28.4711 113.862 28.5188 114.111 28.5073L119.748 28.4988ZM120.282 45.459C121.707 45.459 122.864 45.0633 123.753 44.2718C124.643 43.4803 125.087 42.3496 125.087 40.8797C125.087 39.4551 124.632 38.3178 123.722 37.4679C122.787 36.6077 121.552 36.1497 120.282 36.1931H109.068C109.501 36.1864 109.93 36.27 110.328 36.4384C110.726 36.6068 111.084 36.8563 111.381 37.1711C111.675 37.4505 111.911 37.786 112.074 38.1579C112.237 38.5297 112.324 38.9304 112.331 39.3364V43.6669C112.344 44.1006 112.5 44.5177 112.774 44.8541C112.932 45.0544 113.136 45.2132 113.369 45.3166C113.602 45.4201 113.857 45.4651 114.111 45.4477L120.282 45.459Z" fill="#FF0066"/>
<path d="M136.991 52.1811V17.4777C136.969 16.7854 137.096 16.0964 137.362 15.4569C137.628 14.8173 138.028 14.242 138.534 13.7691C139.012 13.3009 139.578 12.9316 140.198 12.6823C140.819 12.433 141.483 12.3086 142.152 12.3162H146.898C147.096 12.3015 147.295 12.3311 147.479 12.403C147.664 12.4749 147.831 12.5872 147.967 12.7317C148.105 12.8725 148.212 13.0398 148.284 13.2234C148.355 13.407 148.389 13.6033 148.382 13.8002V52.1811C148.389 52.3781 148.355 52.5743 148.284 52.7579C148.212 52.9415 148.105 53.1088 147.967 53.2496C147.831 53.3941 147.664 53.5064 147.479 53.5783C147.295 53.6502 147.096 53.6799 146.898 53.6652H138.475C138.277 53.6753 138.08 53.6439 137.895 53.5729C137.71 53.5019 137.543 53.3929 137.403 53.2531C137.263 53.1132 137.154 52.9455 137.083 52.7608C137.012 52.5762 136.98 52.3787 136.991 52.1811V52.1811Z" fill="#FF0066"/>
<path d="M182.647 12.1353C183.676 12.1353 184.19 12.6497 184.19 13.6786V20.262C184.205 20.4598 184.176 20.6584 184.104 20.8433C184.032 21.0282 183.919 21.1946 183.775 21.3305C183.625 21.473 183.447 21.5833 183.252 21.6548C183.058 21.7262 182.851 21.7573 182.644 21.746H168.938C169.804 21.7448 170.637 22.0862 171.253 22.6958C171.562 22.9602 171.811 23.2871 171.985 23.655C172.158 24.0229 172.252 24.4233 172.259 24.83V51.9918C172.272 52.1937 172.242 52.3961 172.17 52.5853C172.099 52.7745 171.987 52.9461 171.843 53.0885C171.532 53.3615 171.126 53.5006 170.713 53.4758H162.515C162.121 53.4758 161.74 53.3275 161.45 53.0603C161.296 52.929 161.173 52.7648 161.091 52.5799C161.009 52.395 160.969 52.194 160.975 51.9918V23.5862C160.985 23.3359 160.94 23.0864 160.842 22.8557C160.744 22.625 160.596 22.4188 160.409 22.252C160.082 21.9372 159.648 21.7576 159.194 21.7489H150.592C150.386 21.7601 150.179 21.729 149.984 21.6576C149.79 21.5862 149.612 21.4758 149.462 21.3333C149.317 21.1974 149.205 21.031 149.133 20.8461C149.061 20.6613 149.031 20.4627 149.046 20.2649V17.2403C149.019 16.5416 149.149 15.8457 149.426 15.2038C149.703 14.5619 150.121 13.9905 150.649 13.5316C151.621 12.6412 152.89 12.1444 154.208 12.1381L182.647 12.1353Z" fill="#FF0066"/>
<path d="M219.629 41.0888C219.629 43.5009 219.075 45.5475 217.967 47.2284C216.88 48.8901 215.417 50.2721 213.696 51.2621C211.887 52.2974 209.925 53.0379 207.884 53.4556C205.841 53.9006 203.756 54.1298 201.665 54.1397C200.218 54.1354 198.772 54.0458 197.335 53.8712C195.851 53.6979 194.389 53.3701 192.973 52.8931C191.581 52.4243 190.248 51.7974 188.999 51.0246C187.76 50.2606 186.682 49.2631 185.824 48.0877C184.461 46.4279 183.689 44.3612 183.631 42.2138C183.626 42.0494 183.656 41.8858 183.717 41.7331C183.778 41.5804 183.87 41.4419 183.987 41.3263C184.255 41.1064 184.588 40.9812 184.934 40.9701H192.767C193.185 40.9505 193.602 41.032 193.982 41.2075C194.34 41.4204 194.652 41.7019 194.901 42.0358C195.515 43.2164 196.538 44.1336 197.778 44.6165C199.022 45.0786 200.339 45.3105 201.665 45.3006C202.34 45.2942 203.013 45.2442 203.681 45.1508C204.411 45.0571 205.129 44.8778 205.818 44.6165C206.458 44.3738 207.039 43.997 207.522 43.5113C207.763 43.2597 207.95 42.9618 208.072 42.6358C208.194 42.3097 208.248 41.9623 208.232 41.6146C208.257 41.1559 208.154 40.6992 207.935 40.2957C207.715 39.8922 207.387 39.558 206.988 39.3306C206.201 38.8559 205.365 38.4673 204.495 38.1716C203.862 37.9832 203.08 37.7655 202.151 37.5187C201.222 37.2718 200.144 37.0155 198.918 36.7498C197.132 36.4023 195.37 35.9463 193.64 35.3845C192.02 34.8691 190.488 34.1063 189.1 33.1232C187.779 32.1812 186.685 30.9556 185.898 29.5361C185.088 28.0907 184.682 26.3004 184.682 24.1653C184.682 21.904 185.186 19.9762 186.195 18.3819C187.18 16.8027 188.507 15.4649 190.079 14.4669C191.711 13.4371 193.507 12.6943 195.39 12.2706C197.305 11.8221 199.266 11.5936 201.233 11.5894C202.615 11.5927 203.994 11.7118 205.357 11.9455C206.746 12.1804 208.108 12.5593 209.419 13.0762C210.708 13.5824 211.933 14.239 213.068 15.0323C214.202 15.8295 215.211 16.7896 216.064 17.8816C217.408 19.6586 218.119 21.4187 218.199 23.1619C218.192 23.5962 218.069 24.0207 217.842 24.3915C217.726 24.5085 217.587 24.6005 217.434 24.6618C217.281 24.7231 217.117 24.7523 216.952 24.7476H208.706C207.836 24.7476 207.166 24.1088 206.691 23.3965C206.545 22.8653 206.258 22.3836 205.86 22.0029C205.455 21.622 204.983 21.3209 204.466 21.1153C203.941 20.9005 203.394 20.7413 202.835 20.6405C202.307 20.5435 201.77 20.4934 201.233 20.4906C200.628 20.4914 200.023 20.5311 199.424 20.6094C198.844 20.6786 198.281 20.8499 197.762 21.1153C197.27 21.3705 196.843 21.735 196.515 22.181C196.162 22.6942 195.985 23.3083 196.012 23.9307C196.012 25.0784 196.605 25.9886 197.793 26.6613C198.978 27.2945 201.172 27.9465 204.376 28.6174C206.266 28.9334 208.138 29.3495 209.984 29.864C211.712 30.3304 213.361 31.0506 214.877 32.001C216.283 32.8928 217.461 34.1008 218.317 35.5287C219.192 36.9797 219.629 38.8331 219.629 41.0888Z" fill="#FF0066"/>
<path d="M72.0976 41.2503C72.0976 43.6605 71.5643 45.6967 70.4977 47.3588C69.453 48.9963 68.0409 50.3678 66.3735 51.3642C64.622 52.4008 62.7121 53.1427 60.7201 53.5606C58.6932 54.006 56.6247 54.2343 54.5495 54.2418C52.4347 54.2389 50.3264 54.0105 48.2601 53.5606C46.2638 53.1438 44.3568 52.3783 42.6264 51.2992C40.9861 50.2729 39.6047 48.8819 38.5899 47.2344C37.561 45.5761 37.0475 43.5597 37.0493 41.1853C37.0449 39.3311 37.5326 37.509 38.4627 35.905C39.3645 34.2908 40.6734 32.9411 42.259 31.99C42.5416 31.8317 42.5416 31.6536 42.3183 31.4557C39.7856 29.6749 38.5202 27.0649 38.5221 23.6258C38.5221 20.1471 39.8666 17.2798 42.5558 15.0241C45.243 12.8476 49.2371 11.7593 54.5381 11.7593C56.4507 11.7611 58.3584 11.9505 60.2339 12.3246C62.0296 12.6649 63.7517 13.3174 65.322 14.2524C66.8149 15.1546 68.0663 16.406 68.9685 17.8989C69.8975 19.4215 70.363 21.306 70.3649 23.5523C70.3649 26.9123 69.1578 29.5421 66.7438 31.4416C66.7029 31.4651 66.6698 31.5002 66.6487 31.5424C66.6276 31.5847 66.6194 31.6322 66.6251 31.6791C66.6263 31.7398 66.6434 31.7991 66.6746 31.8512C66.7058 31.9033 66.7502 31.9462 66.8032 31.9759C68.45 32.8613 69.8064 34.2029 70.7097 35.8399C71.6344 37.4922 72.1127 39.3569 72.0976 41.2503V41.2503Z" fill="#3AD29F"/>
<path d="M60.9466 41.2502C60.9643 40.4522 60.7692 39.6639 60.3813 38.9663C60.0118 38.3207 59.5052 37.7639 58.8972 37.3353C58.2783 36.8972 57.5848 36.5753 56.8507 36.3855C56.0954 36.1917 55.3182 36.0967 54.5384 36.1028C53.7486 36.0981 52.9612 36.1931 52.1951 36.3855C51.4499 36.5711 50.7455 36.8931 50.1175 37.3353C49.5167 37.7585 49.012 38.3036 48.6363 38.9352C48.2648 39.6448 48.0708 40.4338 48.0708 41.2347C48.0708 42.0356 48.2648 42.8246 48.6363 43.5342C49.005 44.1795 49.5106 44.7363 50.1175 45.1652C50.7486 45.6084 51.4514 45.9393 52.1951 46.1433C53.7268 46.5805 55.3502 46.5805 56.8818 46.1433C57.6173 45.9432 58.3106 45.6119 58.9283 45.1652C59.522 44.7298 60.0171 44.1741 60.3813 43.5342C60.7692 42.8366 60.9643 42.0483 60.9466 41.2502Z" fill="#000324"/>
<path d="M48.8425 24.1515C48.8306 24.8445 49.0054 25.5279 49.3485 26.1302C49.6756 26.6899 50.1202 27.1721 50.6516 27.5435C51.2093 27.9301 51.8329 28.2118 52.4917 28.3746C53.16 28.549 53.8476 28.6383 54.5383 28.6403C55.2202 28.6434 55.899 28.5482 56.5537 28.3576C57.2074 28.1722 57.8283 27.8861 58.3939 27.5096C58.9346 27.1475 59.3899 26.672 59.7281 26.116C60.0753 25.5227 60.2505 24.8444 60.2341 24.1571C60.2524 23.4419 60.0777 22.7349 59.7281 22.1106C59.3993 21.5521 58.955 21.0702 58.425 20.6972C57.8754 20.3144 57.2618 20.033 56.6131 19.8662C55.2521 19.5081 53.8216 19.5081 52.4607 19.8662C51.8129 20.033 51.2001 20.3144 50.6516 20.6972C50.1202 21.0687 49.6756 21.5508 49.3485 22.1106C48.9999 22.7332 48.8251 23.4381 48.8425 24.1515V24.1515Z" fill="#000324"/>
<path d="M104.023 41.2503C104.023 43.6605 103.489 45.6967 102.42 47.3588C101.376 48.9969 99.9639 50.3686 98.2959 51.3642C96.5443 52.4008 94.6345 53.1427 92.6425 53.5606C90.6157 54.0061 88.5471 54.2345 86.4718 54.2418C84.358 54.2389 82.2506 54.0105 80.1852 53.5606C78.1881 53.1438 76.2801 52.3783 74.5488 51.2992C72.9093 50.2728 71.5289 48.8817 70.5151 47.2344C69.4862 45.5761 68.9717 43.5597 68.9717 41.1853C68.9672 39.3311 69.455 37.509 70.3851 35.905C71.2876 34.2914 72.5963 32.9418 74.1813 31.99C74.4584 31.8317 74.4781 31.6536 74.2407 31.4557C71.708 29.6749 70.4425 27.0649 70.4444 23.6258C70.4444 20.1471 71.789 17.2798 74.4781 15.0241C77.1654 12.8476 81.1595 11.7593 86.4605 11.7593C88.373 11.761 90.2808 11.9503 92.1563 12.3246C93.9521 12.6645 95.6743 13.317 97.2444 14.2524C98.739 15.1534 99.9915 16.405 100.894 17.8989C101.821 19.4215 102.285 21.306 102.287 23.5523C102.287 26.9123 101.081 29.5421 98.669 31.4416C98.6281 31.4651 98.595 31.5002 98.5739 31.5424C98.5528 31.5847 98.5446 31.6322 98.5503 31.6791C98.5515 31.7398 98.5686 31.7991 98.5998 31.8512C98.631 31.9033 98.6754 31.9462 98.7284 31.9759C100.365 32.8629 101.713 34.201 102.612 35.8315C103.548 37.4836 104.034 39.3518 104.023 41.2503Z" fill="#FFC025"/>
<path d="M92.8684 41.2502C92.8848 40.4524 92.6897 39.6644 92.3031 38.9663C91.9336 38.3206 91.427 37.7639 90.8191 37.3353C90.2001 36.8971 89.5067 36.5753 88.7725 36.3855C88.0163 36.1918 87.2381 36.0967 86.4574 36.1028C85.6676 36.0981 84.8802 36.1931 84.1141 36.3855C83.37 36.5718 82.6666 36.8938 82.0393 37.3353C81.4377 37.7583 80.932 38.3035 80.5553 38.9352C80.1857 39.6453 79.9927 40.4341 79.9927 41.2347C79.9927 42.0353 80.1857 42.8241 80.5553 43.5342C80.9248 44.1798 81.4314 44.7366 82.0393 45.1652C82.6697 45.6079 83.3715 45.9387 84.1141 46.1433C85.6457 46.5805 87.2691 46.5805 88.8008 46.1433C89.5365 45.9438 90.2299 45.6124 90.8473 45.1652C91.4418 44.7299 91.9379 44.1742 92.3031 43.5342C92.6897 42.8361 92.8848 42.0481 92.8684 41.2502Z" fill="#000324"/>
<path d="M80.7674 24.1515C80.7547 24.8442 80.9285 25.5276 81.2706 26.1302C81.5994 26.6895 82.0448 27.1715 82.5765 27.5435C83.1332 27.9301 83.7559 28.2118 84.4138 28.3746C85.0821 28.549 85.7697 28.6383 86.4604 28.6403C87.1432 28.6434 87.8229 28.5482 88.4786 28.3576C89.1321 28.1716 89.7529 27.8856 90.3188 27.5096C90.8586 27.1464 91.3137 26.6711 91.653 26.116C91.9982 25.522 92.1723 24.844 92.1562 24.1571C92.174 23.4423 92.0003 22.7357 91.653 22.1106C91.3241 21.5512 90.8787 21.0692 90.3471 20.6972C89.7985 20.3144 89.1858 20.033 88.538 19.8662C87.177 19.5081 85.7466 19.5081 84.3856 19.8662C83.7378 20.033 83.1251 20.3144 82.5765 20.6972C82.0448 21.0692 81.5994 21.5512 81.2706 22.1106C80.923 22.7335 80.7492 23.4384 80.7674 24.1515V24.1515Z" fill="#000324"/>
<path d="M113.789 5.08789H113.613C112.491 5.08789 111.581 5.99783 111.581 7.12029V12.9489C111.581 14.0714 112.491 14.9813 113.613 14.9813H113.789C114.911 14.9813 115.821 14.0714 115.821 12.9489V7.12029C115.821 5.99783 114.911 5.08789 113.789 5.08789Z" fill="#FF0066"/>
<path d="M120.932 5.08789H120.757C119.634 5.08789 118.724 5.99783 118.724 7.12029V12.9489C118.724 14.0714 119.634 14.9813 120.757 14.9813H120.932C122.054 14.9813 122.964 14.0714 122.964 12.9489V7.12029C122.964 5.99783 122.054 5.08789 120.932 5.08789Z" fill="#FF0066"/>
<path d="M113.789 50.0186H113.613C112.491 50.0186 111.581 50.9285 111.581 52.051V57.8796C111.581 59.0021 112.491 59.912 113.613 59.912H113.789C114.911 59.912 115.821 59.0021 115.821 57.8796V52.051C115.821 50.9285 114.911 50.0186 113.789 50.0186Z" fill="#FF0066"/>
<path d="M120.932 50.0186H120.757C119.634 50.0186 118.724 50.9285 118.724 52.051V57.8796C118.724 59.0021 119.634 59.912 120.757 59.912H120.932C122.054 59.912 122.964 59.0021 122.964 57.8796V52.051C122.964 50.9285 122.054 50.0186 120.932 50.0186Z" fill="#FF0066"/>
</g>
<defs>
<clipPath id="clip0_1002_33907">
<rect width="224.714" height="65" fill="white"/>
</clipPath>
</defs>
</svg>
