<svg width="200" height="59" viewBox="0 0 200 59" fill="none" xmlns="http://www.w3.org/2000/svg">
<g clip-path="url(#clip0_2411_10999)">
<path d="M198.191 29.9967C197.461 28.7834 196.552 27.6876 195.494 26.7463C196.089 26.4706 196.63 26.0915 197.092 25.6267L197.318 25.4003L197.509 25.1487C198.301 24.0329 198.728 22.7001 198.735 21.3322V21.2115V21.1083C198.621 18.6353 197.675 16.205 195.924 13.8854L195.897 13.8502L195.869 13.8149C194.837 12.4971 193.616 11.3383 192.246 10.3758C190.944 9.45813 189.538 8.69808 188.057 8.11159C186.595 7.53738 185.078 7.11584 183.529 6.85368C182.067 6.60258 180.587 6.47466 179.104 6.47127C177.008 6.47567 174.92 6.71876 172.879 7.19583C170.954 7.63554 169.106 8.36057 167.395 9.34687C166.356 7.86253 164.628 6.94677 162.552 6.94677H137.258C135.96 6.94574 134.677 7.22463 133.497 7.76441C132.642 7.32301 131.692 7.09677 130.729 7.10527H126.518C124.163 7.09213 121.894 7.99412 120.191 9.62108C120.022 9.77958 119.864 9.94562 119.71 10.1242C119.627 10.0639 119.549 10.001 119.459 9.94312C117.788 8.8372 115.927 8.05149 113.969 7.62604V7.02728C113.967 5.34779 113.299 3.73765 112.111 2.55007C110.924 1.3625 109.314 0.694445 107.634 0.692447H107.476C106.39 0.690418 105.322 0.969495 104.376 1.50253C103.43 0.9748 102.365 0.699293 101.282 0.702505H101.126C99.4569 0.70438 97.856 1.36371 96.6698 2.53767C95.4836 3.71162 94.8077 5.30565 94.7885 6.97444H94.7029C93.7185 6.98423 92.7416 7.1472 91.8072 7.45749C90.6929 7.81943 89.6604 8.39638 88.7681 9.15566L88.587 9.31416C86.8215 8.31047 84.9033 7.60335 82.9088 7.221C80.9492 6.83284 78.9565 6.63651 76.9589 6.63481C71.2027 6.63481 66.6566 7.95058 63.4464 10.5444L63.4162 10.5696L63.386 10.5947C63.1596 10.7834 62.9432 10.9771 62.7319 11.1733C62.0449 10.5462 61.2984 9.98751 60.5029 9.50535C58.646 8.3997 56.6103 7.62666 54.4876 7.221C52.528 6.83297 50.5353 6.63664 48.5377 6.63481C42.7815 6.63481 38.2228 7.95058 35.0252 10.5444L34.9925 10.5696L34.9623 10.5947C34.7342 10.7893 34.5128 10.9855 34.2981 11.1834C33.6083 10.5523 32.8584 9.99028 32.0591 9.50535C30.2068 8.40133 28.1764 7.62834 26.0588 7.221C24.0993 6.83297 22.1066 6.63664 20.1089 6.63481C14.3502 6.63481 9.79407 7.95058 6.59395 10.5444L6.56376 10.5696L6.53357 10.5947C4.88335 11.936 3.55741 13.6327 2.65478 15.5582C1.75216 17.4837 1.29615 19.5882 1.3208 21.7146C1.3208 24.3109 1.91956 26.628 3.08187 28.5929C2.63334 29.1637 2.2272 29.7666 1.86673 30.3967C0.64471 32.5076 0.00163478 34.9038 0.00250332 37.3429C0.00250332 40.3015 0.694354 42.9154 2.05541 45.1143C3.32253 47.1648 5.04407 48.8967 7.08705 50.1761C9.07589 51.4154 11.2669 52.2959 13.5603 52.7774C15.7143 53.2459 17.9121 53.4837 20.1165 53.4869C22.2838 53.482 24.4444 53.2467 26.562 52.785C28.822 52.3103 30.9885 51.4672 32.9748 50.2893C33.4479 50.0069 33.9056 49.6995 34.3459 49.3685C34.7208 49.6553 35.1133 49.927 35.5183 50.1836C37.5047 51.4223 39.6932 52.3028 41.984 52.785C44.138 53.2534 46.3358 53.4913 48.5402 53.4944C50.7094 53.4873 52.8718 53.2494 54.9907 52.785C57.2505 52.3095 59.4169 51.4664 61.4036 50.2893C61.8716 50.0094 62.3243 49.7046 62.7596 49.376C63.1353 49.6595 63.5236 49.9287 63.9244 50.1836C65.9126 51.4225 68.1027 52.3029 70.3951 52.785C72.5492 53.2533 74.7469 53.4911 76.9513 53.4944C79.1206 53.4874 81.2829 53.2496 83.4019 52.785C84.853 52.4736 86.269 52.0168 87.6284 51.4214C88.6819 52.3333 90.029 52.8344 91.4223 52.8328H94.8111C94.9659 54.3987 95.6969 55.8513 96.8624 56.9085C98.0279 57.9656 99.5447 58.552 101.118 58.5537H101.282C102.368 58.5552 103.437 58.2762 104.384 57.7437C105.33 58.2767 106.398 58.5558 107.483 58.5537H107.642C109.322 58.5518 110.932 57.8834 112.12 56.6952C113.308 55.5071 113.975 53.8963 113.977 52.2164V52.1938L114.404 52.0931C115.819 51.7475 117.185 51.2251 118.47 50.5384C118.657 50.8077 118.868 51.0603 119.099 51.2931C119.645 51.8364 120.293 52.2661 121.006 52.5571C121.719 52.8482 122.482 52.9949 123.252 52.9888H130.75C131.55 53.0039 132.345 52.85 133.082 52.537C133.819 52.224 134.481 51.759 135.026 51.1723C136.047 50.0815 136.612 48.6411 136.604 47.147V24.5852H138.767V46.9759C138.761 47.8007 138.933 48.6171 139.272 49.3689C139.611 50.1208 140.11 50.7901 140.732 51.3308C141.816 52.2951 143.217 52.8262 144.667 52.8227H151.963C153.474 52.8483 154.937 52.2916 156.049 51.2679C156.632 50.7173 157.094 50.0515 157.407 49.3126C157.719 48.5737 157.874 47.778 157.863 46.9759V24.5852H160.029C160.237 26.2108 160.749 27.7828 161.538 29.2193C162.24 30.4897 163.13 31.6466 164.177 32.6509C163.029 32.7391 161.931 33.1596 161.017 33.861L160.766 34.0522L160.542 34.2761C160.017 34.8005 159.601 35.4239 159.319 36.1101C159.036 36.7963 158.893 37.5317 158.897 38.2737V38.3568C158.949 41.1971 159.903 43.8463 161.77 46.2363C162.87 47.7258 164.245 48.9913 165.82 49.9647C167.225 50.8339 168.725 51.5396 170.291 52.068C171.848 52.5926 173.456 52.9535 175.088 53.1447C176.544 53.3203 178.009 53.4102 179.476 53.4139C181.657 53.4058 183.83 53.1688 185.962 52.707C188.246 52.2337 190.441 51.4025 192.465 50.244C194.603 49.0092 196.422 47.2902 197.776 45.2249C199.253 42.9834 200.003 40.3065 200.003 37.2699C200.003 34.4396 199.399 31.9917 198.191 29.9967Z" fill="white"/>
<path d="M34.4944 32.5981C33.6933 31.1469 32.4927 29.9559 31.0351 29.1665C30.9897 29.1412 30.9514 29.105 30.9237 29.061C30.896 29.017 30.8798 28.9668 30.8766 28.9149C30.8715 28.8732 30.8788 28.8309 30.8976 28.7933C30.9164 28.7557 30.9459 28.7245 30.9823 28.7036C33.1274 27.0146 34.2009 24.6741 34.2025 21.6819C34.2025 19.6693 33.7891 17.9921 32.9622 16.6503C32.1596 15.3198 31.0448 14.205 29.7143 13.4024C28.3169 12.5698 26.7841 11.9891 25.1858 11.6866C23.5174 11.3536 21.8203 11.1851 20.119 11.1834C15.4027 11.1834 11.847 12.1512 9.45192 14.0867C7.06021 16.0993 5.86353 18.6512 5.86185 21.7423C5.86185 24.8049 6.98809 27.1278 9.24059 28.7111C9.45192 28.8788 9.43431 29.0373 9.18776 29.1866C7.77822 30.0352 6.61381 31.236 5.80902 32.671C4.98154 34.0988 4.54748 35.7204 4.55111 37.3706C4.55111 39.4839 5.00899 41.2793 5.92474 42.7569C6.82782 44.2218 8.05629 45.4589 9.51481 46.3722C11.0557 47.3326 12.7539 48.0139 14.5314 48.3848C16.3702 48.7867 18.2468 48.9899 20.1291 48.9911C21.9753 48.9858 23.8157 48.7825 25.6186 48.3848C27.3959 48.0145 29.1 47.354 30.6628 46.43C32.1399 45.5355 33.3881 44.3089 34.3082 42.8475C35.2592 41.3682 35.7347 39.5551 35.7347 37.4083C35.7455 35.7245 35.3181 34.0667 34.4944 32.5981V32.5981ZM15.4924 20.3762C15.7847 19.8781 16.1812 19.449 16.6547 19.1183C17.143 18.7776 17.6883 18.5271 18.2648 18.3787C19.4766 18.0634 20.7488 18.0634 21.9606 18.3787C22.5371 18.5271 23.0824 18.7776 23.5707 19.1183C24.0442 19.449 24.4407 19.8781 24.733 20.3762C25.0435 20.932 25.1982 21.5613 25.1808 22.1977C25.1971 22.8084 25.042 23.4115 24.733 23.9386C24.4313 24.4336 24.0262 24.8575 23.5455 25.1814C23.0422 25.5166 22.4896 25.7713 21.9077 25.9362C21.3249 26.1055 20.7208 26.1903 20.114 26.1878C19.4978 26.1811 18.8849 26.0966 18.29 25.9362C17.7047 25.7917 17.1506 25.5419 16.6547 25.199C16.1812 24.8683 15.7847 24.4392 15.4924 23.9411C15.1875 23.4051 15.0328 22.7967 15.0446 22.1801C15.0304 21.5496 15.185 20.9268 15.4924 20.3762V20.3762ZM25.3041 39.4361C24.98 40.0055 24.5393 40.5002 24.011 40.8877C23.4615 41.2857 22.8444 41.5807 22.1895 41.7582C20.8263 42.1473 19.3815 42.1473 18.0183 41.7582C17.356 41.5777 16.7302 41.2831 16.1692 40.8877C15.6281 40.5062 15.1772 40.0107 14.8484 39.4361C14.5194 38.8045 14.3476 38.1028 14.3476 37.3907C14.3476 36.6786 14.5194 35.9769 14.8484 35.3453C15.1829 34.7819 15.633 34.2957 16.1692 33.9189C16.728 33.5253 17.355 33.2387 18.0183 33.0736C18.7001 32.9022 19.4009 32.8177 20.1039 32.822C20.7978 32.8168 21.4896 32.9014 22.1618 33.0736C22.8152 33.2425 23.4324 33.5289 23.9833 33.9189C24.5244 34.3004 24.9752 34.7959 25.3041 35.3705C25.6329 35.9976 25.8047 36.6952 25.8047 37.4033C25.8047 38.1114 25.6329 38.8089 25.3041 39.4361V39.4361Z" fill="#FF0066"/>
<path d="M121.924 47.1445V16.2553C121.905 15.6391 122.018 15.026 122.255 14.4569C122.492 13.8877 122.847 13.3756 123.298 12.9545C124.158 12.1146 125.316 11.6497 126.518 11.6614H130.742C130.918 11.6483 131.095 11.6747 131.259 11.7387C131.424 11.8027 131.572 11.9026 131.693 12.0312C131.816 12.1566 131.912 12.3054 131.975 12.4689C132.039 12.6323 132.069 12.8069 132.063 12.9822V47.1445C132.069 47.3194 132.039 47.4938 131.976 47.6568C131.912 47.8199 131.816 47.9683 131.693 48.093C131.572 48.2216 131.424 48.3215 131.259 48.3855C131.095 48.4495 130.918 48.4759 130.742 48.4628H123.245C123.069 48.4718 122.894 48.4439 122.73 48.3809C122.565 48.3178 122.416 48.2211 122.292 48.0969C122.167 47.9726 122.07 47.8237 122.007 47.6597C121.944 47.4956 121.915 47.3201 121.924 47.1445Z" fill="#FF0066"/>
<path d="M162.555 11.5029C163.47 11.5029 163.928 11.9608 163.928 12.8765V18.7384C163.941 18.914 163.914 19.0902 163.85 19.2542C163.786 19.4182 163.686 19.566 163.558 19.6869C163.425 19.8137 163.266 19.9119 163.093 19.9755C162.92 20.039 162.736 20.0667 162.552 20.0567H150.358C151.129 20.0551 151.869 20.3591 152.416 20.902C152.692 21.1373 152.915 21.4285 153.069 21.7564C153.224 22.0843 153.308 22.4414 153.314 22.804V46.986C153.326 47.1657 153.299 47.3458 153.235 47.5142C153.171 47.6827 153.072 47.8354 152.944 47.9621C152.666 48.2027 152.305 48.3255 151.938 48.3043H144.642C144.291 48.3043 143.952 48.1723 143.693 47.9345C143.556 47.8186 143.446 47.673 143.373 47.5088C143.3 47.3445 143.265 47.1658 143.271 46.986V21.6945C143.28 21.4717 143.239 21.2496 143.152 21.0443C143.065 20.839 142.934 20.6555 142.768 20.507C142.477 20.2251 142.09 20.0641 141.686 20.0567H134.043C133.859 20.0667 133.675 20.039 133.502 19.9755C133.328 19.9119 133.17 19.8137 133.036 19.6869C132.908 19.5663 132.808 19.4186 132.744 19.2545C132.68 19.0904 132.654 18.9141 132.667 18.7384V16.044C132.642 15.4221 132.758 14.8028 133.005 14.2315C133.252 13.6603 133.624 13.1517 134.093 12.7432C134.958 11.9512 136.086 11.5091 137.258 11.5029H162.555Z" fill="#FF0066"/>
<path d="M195.474 37.2699C195.474 39.4184 194.981 41.2399 193.995 42.7343C193.028 44.2132 191.725 45.4432 190.193 46.3244C188.583 47.2459 186.836 47.9058 185.018 48.2792C183.2 48.6734 181.345 48.8766 179.484 48.8855C178.195 48.8825 176.908 48.8036 175.629 48.649C174.308 48.4939 173.007 48.2013 171.747 47.776C170.506 47.362 169.316 46.8056 168.203 46.1181C167.1 45.438 166.141 44.5502 165.377 43.5041C164.111 41.8856 163.46 40.1438 163.425 38.2788C163.421 38.132 163.447 37.986 163.501 37.8497C163.556 37.7134 163.638 37.5897 163.742 37.4863C163.98 37.2903 164.277 37.1788 164.585 37.1693H171.556C171.928 37.1519 172.3 37.2244 172.638 37.3806C172.957 37.5704 173.235 37.8218 173.456 38.1203C174.003 39.1705 174.913 39.9866 176.017 40.4172C177.123 40.8277 178.296 41.0331 179.476 41.0235C180.076 41.0188 180.675 40.9751 181.27 40.8927C181.92 40.8094 182.559 40.6498 183.172 40.4172C183.746 40.2043 184.267 39.8705 184.701 39.4386C184.917 39.2156 185.085 38.9507 185.194 38.6603C185.303 38.37 185.351 38.0603 185.335 37.7504C185.357 37.3423 185.266 36.936 185.07 36.577C184.875 36.2181 184.583 35.9205 184.228 35.7177C183.528 35.2959 182.784 34.9509 182.009 34.6887C181.446 34.521 180.751 34.3273 179.924 34.1075C179.097 33.8878 178.138 33.6589 177.046 33.4207C175.457 33.1114 173.888 32.7056 172.349 32.2056C170.906 31.7469 169.543 31.068 168.308 30.1929C167.132 29.3531 166.159 28.2615 165.458 26.9978C164.737 25.7131 164.376 24.1197 164.376 22.2178C164.376 20.2051 164.825 18.4885 165.722 17.0679C166.6 15.6629 167.781 14.4723 169.179 13.5835C170.632 12.6678 172.23 12.0075 173.906 11.6312C175.61 11.2301 177.355 11.0258 179.106 11.0224C180.336 11.0252 181.563 11.1313 182.774 11.3394C184.012 11.5481 185.224 11.8854 186.392 12.3457C187.54 12.7961 188.63 13.3813 189.64 14.0892C190.648 14.7984 191.547 15.652 192.307 16.6226C193.503 18.2076 194.136 19.7741 194.206 21.3222C194.2 21.7095 194.09 22.0882 193.889 22.4191C193.786 22.5232 193.662 22.6051 193.526 22.6596C193.389 22.7142 193.243 22.7402 193.097 22.736H185.758C184.983 22.736 184.387 22.1675 183.964 21.5335C183.835 21.0605 183.579 20.6316 183.225 20.2932C182.865 19.9534 182.444 19.6845 181.984 19.5007C181.516 19.3091 181.028 19.1675 180.53 19.0781C180.06 18.9917 179.584 18.947 179.106 18.9447C178.568 18.9467 178.03 18.9819 177.496 19.0504C176.98 19.1132 176.48 19.2656 176.017 19.5007C175.579 19.7279 175.199 20.0534 174.907 20.4517C174.593 20.9083 174.435 21.455 174.459 22.009C174.459 23.0304 174.988 23.8397 176.044 24.4367C177.098 25.0003 179.051 25.5814 181.904 26.1802C183.585 26.4604 185.25 26.8299 186.893 27.2872C188.431 27.7017 189.9 28.3427 191.25 29.1891C192.502 29.9832 193.55 31.0593 194.312 32.3314C195.087 33.6195 195.474 35.2657 195.474 37.2699Z" fill="#FF0066"/>
<path d="M62.9281 32.5981C62.127 31.1469 60.9265 29.9559 59.4689 29.1665C59.4235 29.1412 59.3851 29.105 59.3574 29.061C59.3297 29.017 59.3136 28.9668 59.3104 28.9149C59.3053 28.8732 59.3126 28.8309 59.3314 28.7933C59.3502 28.7557 59.3796 28.7245 59.4161 28.7036C61.5646 27.0146 62.638 24.6741 62.6363 21.6819C62.6363 19.6693 62.2229 17.9921 61.396 16.6503C60.5941 15.3201 59.4802 14.2053 58.1506 13.4024C56.753 12.5702 55.2203 11.9895 53.6221 11.6866C51.9528 11.3536 50.2549 11.185 48.5527 11.1834C43.8364 11.1834 40.2816 12.1512 37.8882 14.0867C35.4931 16.0993 34.2956 18.6512 34.2956 21.7423C34.2956 24.8049 35.4227 27.1278 37.6769 28.7111C37.8882 28.8872 37.8681 29.0457 37.624 29.1866C36.2132 30.0344 35.0478 31.2354 34.2428 32.671C33.4163 34.0992 32.9823 35.7205 32.9849 37.3706C32.9849 39.4839 33.4419 41.2793 34.356 42.7569C35.2591 44.2218 36.4875 45.4589 37.9461 46.3722C39.4872 47.3322 41.1853 48.0135 42.9626 48.3848C44.8015 48.7865 46.6781 48.9898 48.5603 48.9911C50.4074 48.9858 52.2486 48.7825 54.0523 48.3848C55.8252 48.013 57.525 47.3526 59.084 46.43C60.5665 45.5381 61.8194 44.3111 62.742 42.8475C63.6929 41.3682 64.1684 39.5551 64.1684 37.4083C64.1793 35.7245 63.7518 34.0667 62.9281 32.5981V32.5981ZM43.9211 20.3762C44.2118 19.8777 44.6075 19.4484 45.0809 19.1183C45.5692 18.7776 46.1145 18.5271 46.691 18.3787C47.9028 18.0634 49.175 18.0634 50.3868 18.3787C50.9641 18.5271 51.5103 18.7776 51.9994 19.1183C52.4717 19.4497 52.8672 19.8786 53.1592 20.3762C53.4705 20.9318 53.6261 21.5611 53.6095 22.1977C53.6251 22.8087 53.469 23.4118 53.1592 23.9386C52.8583 24.4342 52.4531 24.8583 51.9717 25.1814C51.4684 25.5166 50.9158 25.7713 50.3339 25.9362C49.7512 26.1057 49.1471 26.1904 48.5402 26.1878C47.9248 26.1813 47.3128 26.0967 46.7187 25.9362C46.1325 25.7922 45.5775 25.5423 45.0809 25.199C44.6075 24.869 44.2118 24.4397 43.9211 23.9411C43.6143 23.4057 43.4586 22.797 43.4708 22.1801C43.4566 21.5493 43.6122 20.9263 43.9211 20.3762V20.3762ZM53.7328 39.4361C53.4087 40.0055 52.9681 40.5002 52.4397 40.8877C51.8905 41.2862 51.2733 41.5812 50.6182 41.7582C49.2551 42.1473 47.8102 42.1473 46.447 41.7582C45.7847 41.5777 45.159 41.2831 44.5979 40.8877C44.057 40.5067 43.6069 40.011 43.2796 39.4361C42.9343 38.8152 42.7607 38.1135 42.7764 37.4033C42.7541 36.6843 42.9281 35.9729 43.2796 35.3453C43.6125 34.7814 44.0619 34.2951 44.5979 33.9189C45.1568 33.5253 45.7837 33.2387 46.447 33.0736C47.1289 32.9023 47.8296 32.8178 48.5326 32.822C49.2266 32.8168 49.9183 32.9014 50.5906 33.0736C51.244 33.2425 51.8612 33.5289 52.412 33.9189C52.9531 34.3004 53.404 34.7959 53.7328 35.3705C54.0633 35.9971 54.236 36.6948 54.236 37.4033C54.236 38.1117 54.0633 38.8094 53.7328 39.4361V39.4361Z" fill="#FF0066"/>
<path d="M120.276 32.3339C119.443 30.858 118.13 29.7117 116.555 29.086C117.844 28.3929 118.927 27.3735 119.698 26.1299C120.455 24.8908 120.848 23.4636 120.832 22.0115C120.832 19.9988 120.48 18.3216 119.776 16.9799C119.114 15.6753 118.133 14.559 116.925 13.7345C115.66 12.8967 114.243 12.3139 112.754 12.0187C111.662 11.7912 110.554 11.6424 109.441 11.5734V7.0449C109.439 6.56623 109.249 6.10754 108.91 5.76907C108.572 5.4306 108.113 5.23987 107.634 5.23854H107.476C106.997 5.23987 106.538 5.43052 106.199 5.76892C105.86 6.10731 105.669 6.566 105.667 7.0449V11.5105H103.083V7.03734C103.082 6.55824 102.891 6.09918 102.552 5.76064C102.213 5.4221 101.753 5.23165 101.274 5.23099H101.118C100.639 5.23231 100.18 5.42298 99.8416 5.76138C99.5027 6.09978 99.3114 6.55844 99.3094 7.03734V11.5029H94.6954C94.1815 11.5117 93.6722 11.6009 93.1859 11.7671C92.6318 11.9464 92.1188 12.2337 91.6764 12.6124C91.2095 13.0101 90.8242 13.4945 90.5418 14.0389C90.2249 14.6775 90.0703 15.3843 90.0915 16.0968V46.986C90.1004 47.3333 90.2425 47.6638 90.4883 47.9092C90.7342 48.1546 91.065 48.296 91.4123 48.3043H99.2993V52.2164C99.3007 52.6957 99.4917 53.1551 99.8306 53.494C100.17 53.8329 100.629 54.024 101.108 54.0253H101.282C101.761 54.0246 102.221 53.8338 102.56 53.4947C102.899 53.1557 103.09 52.6959 103.091 52.2164V48.3043H105.674V52.2164C105.676 52.6957 105.867 53.1551 106.206 53.494C106.545 53.8329 107.004 54.024 107.483 54.0253H107.642C108.121 54.024 108.58 53.8329 108.919 53.4939C109.257 53.1548 109.447 52.6955 109.448 52.2164V48.2691C110.752 48.1992 112.047 48.008 113.315 47.698C114.864 47.3335 116.326 46.6694 117.62 45.7432C118.856 44.8399 119.86 43.6549 120.548 42.2865C121.271 40.8776 121.632 39.1526 121.632 37.1114C121.621 35.4255 121.153 33.7742 120.276 32.3339V32.3339ZM106.565 18.5799C107.603 18.5388 108.623 18.8659 109.443 19.5032C110.2 20.1188 110.578 21.0412 110.578 22.2706C110.578 23.5 110.209 24.4418 109.471 25.0959C108.731 25.745 107.763 26.0704 106.565 26.072H101.561C101.339 26.0821 101.118 26.0395 100.916 25.9477C100.714 25.8558 100.537 25.7174 100.399 25.5437C100.147 25.2665 99.9978 24.9113 99.9761 24.5374V21.3775C99.9707 21.0162 99.8931 20.6596 99.748 20.3286C99.6028 19.9977 99.393 19.6991 99.1308 19.4504C98.8671 19.1702 98.5479 18.9481 98.1936 18.7982C97.8392 18.6483 97.4575 18.574 97.0729 18.5799H106.565ZM110.13 40.1204C109.337 40.8248 108.307 41.177 107.041 41.177H101.561C101.335 41.1925 101.108 41.1524 100.901 41.0603C100.693 40.9683 100.511 40.827 100.371 40.6487C100.127 40.3493 99.9883 39.978 99.9761 39.592V35.7378C99.9704 35.3765 99.8927 35.02 99.7476 34.6891C99.6024 34.3582 99.3928 34.0596 99.1308 33.8107C98.8671 33.5305 98.5479 33.3084 98.1936 33.1585C97.8392 33.0086 97.4575 32.9343 97.0729 32.9402H107.051C108.18 32.9027 109.28 33.3102 110.112 34.0748C110.922 34.8313 111.327 35.8435 111.327 37.1114C111.327 38.4197 110.932 39.4226 110.14 40.1204H110.13Z" fill="#FF0066"/>
<path d="M91.3393 32.5981C90.5384 31.1476 89.3389 29.9567 87.8825 29.1665C87.8371 29.1412 87.7988 29.105 87.7711 29.061C87.7434 29.017 87.7272 28.9668 87.724 28.9149C87.719 28.8732 87.7263 28.8309 87.7451 28.7933C87.7638 28.7557 87.7933 28.7245 87.8297 28.7036C89.9749 27.0146 91.0483 24.6741 91.05 21.6819C91.05 19.6693 90.6365 17.9921 89.8097 16.6503C89.0071 15.3198 87.8922 14.205 86.5617 13.4024C85.1643 12.5698 83.6315 11.9891 82.0333 11.6866C80.364 11.3534 78.6661 11.1849 76.9639 11.1834C72.2476 11.1834 68.6927 12.1512 66.2993 14.0867C63.9043 16.0993 62.7076 18.6512 62.7093 21.7423C62.7093 24.8049 63.8355 27.1278 66.088 28.7111C66.2993 28.8788 66.2817 29.0373 66.0352 29.1866C64.6251 30.0345 63.4605 31.2355 62.6564 32.671C61.829 34.0988 61.3949 35.7204 61.3985 37.3706C61.3985 39.4839 61.8564 41.2793 62.7722 42.7569C63.6738 44.2229 64.9026 45.4603 66.3622 46.3722C67.9032 47.3326 69.6013 48.0139 71.3788 48.3848C73.2168 48.7865 75.0926 48.9898 76.974 48.9911C78.821 48.9859 80.6623 48.7826 82.466 48.3848C84.2389 48.013 85.9387 47.3526 87.4976 46.43C88.9797 45.5375 90.2324 44.3107 91.1556 42.8475C92.1066 41.3682 92.5813 39.5551 92.5796 37.4083C92.5916 35.7243 92.1641 34.0663 91.3393 32.5981ZM72.3323 20.3762C72.6246 19.8781 73.0211 19.449 73.4946 19.1183C73.9828 18.7776 74.5281 18.5271 75.1047 18.3787C76.3165 18.0634 77.5887 18.0634 78.8004 18.3787C79.377 18.5271 79.9223 18.7776 80.4106 19.1183C80.8841 19.449 81.2805 19.8781 81.5729 20.3762C81.8823 20.9324 82.0369 21.5614 82.0207 22.1977C82.0354 22.8082 81.8803 23.4109 81.5729 23.9386C81.2711 24.4343 80.865 24.8584 80.3829 25.1814C79.8804 25.5166 79.3287 25.7712 78.7476 25.9362C78.164 26.1057 77.559 26.1905 76.9513 26.1878C76.336 26.1811 75.724 26.0965 75.1299 25.9362C74.5444 25.7921 73.9902 25.5423 73.4946 25.199C73.0211 24.8683 72.6246 24.4392 72.3323 23.9411C72.0274 23.4051 71.8727 22.7967 71.8845 22.1801C71.8703 21.5496 72.0249 20.9268 72.3323 20.3762ZM82.144 39.4361C81.8181 40.0051 81.3768 40.4996 80.8483 40.8877C80.2994 41.2867 79.6821 41.5817 79.0269 41.7582C77.6637 42.1473 76.2188 42.1473 74.8556 41.7582C74.1943 41.5772 73.5695 41.2826 73.009 40.8877C72.4679 40.5062 72.0171 40.0107 71.6882 39.4361C71.3593 38.8045 71.1875 38.1028 71.1875 37.3907C71.1875 36.6786 71.3593 35.9769 71.6882 35.3453C72.0227 34.7819 72.4729 34.2957 73.009 33.9189C73.5673 33.5259 74.1934 33.2394 74.8556 33.0736C75.5375 32.9023 76.2382 32.8178 76.9413 32.822C77.6361 32.8166 78.3286 32.9011 79.0017 33.0736C79.6549 33.243 80.272 33.5294 80.8232 33.9189C81.3635 34.3012 81.8142 34.7965 82.144 35.3705C82.4728 35.9976 82.6446 36.6952 82.6446 37.4033C82.6446 38.1114 82.4728 38.8089 82.144 39.4361Z" fill="#FF0066"/>
</g>
<defs>
<clipPath id="clip0_2411_10999">
<rect width="200" height="57.8512" fill="white" transform="translate(0 0.702515)"/>
</clipPath>
</defs>
</svg>
