<svg width="204" height="50" viewBox="0 0 204 50" fill="none" xmlns="http://www.w3.org/2000/svg">
<g clip-path="url(#clip0)">
<path d="M59.1642 20.6735C59.1809 17.8218 58.1754 15.5433 56.1716 13.9049L56.1477 13.8858C54.5236 12.6272 52.6464 11.9799 50.5685 11.968L46.377 11.9417C44.2991 11.9274 42.4123 12.5507 40.7739 13.7903L40.75 13.8094C38.7247 15.4215 37.6906 17.6881 37.6738 20.5397C37.6643 22.0946 37.9772 23.5037 38.6053 24.7361C37.9628 25.9613 37.6309 27.3656 37.6213 28.9205C37.6046 31.7745 38.6101 34.0506 40.6139 35.689L40.6378 35.7081C42.2618 36.9668 44.1391 37.614 46.2169 37.626L50.4085 37.6522C50.43 37.6522 50.4515 37.6522 50.473 37.6522C52.527 37.6522 54.3899 37.0313 56.0116 35.8037L56.0354 35.7846C58.0608 34.1724 59.0949 31.9083 59.114 29.0542C59.1236 27.4994 58.8107 26.0903 58.1826 24.8579C58.825 23.6327 59.1546 22.2283 59.1642 20.6735ZM56.8045 20.6592C56.7949 22.0492 56.4773 23.2099 55.83 24.2059L55.4169 24.8412L55.8205 25.4812C56.4558 26.4867 56.7591 27.6499 56.7495 29.0399C56.7352 31.1679 56.0235 32.7681 54.5738 33.9288C53.3581 34.8459 52.0135 35.2902 50.4706 35.2902C50.4539 35.2902 50.4372 35.2902 50.4204 35.2902L46.2289 35.2639C44.6645 35.2543 43.3127 34.791 42.0947 33.85C40.6593 32.6702 39.9667 31.0628 39.981 28.9348C39.9905 27.5424 40.3082 26.3816 40.9554 25.3881L41.3686 24.7528L40.965 24.1127C40.3297 23.1096 40.0264 21.9465 40.0359 20.5541C40.0502 18.4261 40.762 16.8283 42.2117 15.6651C43.4417 14.7385 44.7983 14.2942 46.3626 14.3038L50.5542 14.3301C52.1185 14.3396 53.4704 14.8029 54.6884 15.744C56.1238 16.9238 56.8164 18.5312 56.8045 20.6592L57.9843 20.6663L56.8045 20.6592Z" fill="white"/>
<path d="M50.2957 27.0263L46.1973 27C45.562 27 45.0414 27.172 44.6473 27.5254C44.3559 27.7882 44.0048 28.2706 44 29.0779C43.9929 30.3174 44.824 31.1605 46.1161 31.2274C46.9114 31.268 47.7115 31.2871 48.514 31.2871C49.1183 31.2871 49.7225 31.2751 50.322 31.2513C51.6165 31.2011 52.4572 30.3676 52.4643 29.128C52.4739 27.8622 51.6213 27.0358 50.2957 27.0263Z" fill="white"/>
<path d="M81.2957 27.0263L77.1973 27C76.562 27 76.0414 27.172 75.6473 27.5254C75.3559 27.7882 75.0048 28.2706 75 29.0779C74.9929 30.3174 75.824 31.1605 77.1161 31.2274C77.9114 31.268 78.7115 31.2871 79.514 31.2871C80.1183 31.2871 80.7225 31.2751 81.322 31.2513C82.6165 31.2011 83.4572 30.3676 83.4643 29.128C83.4739 27.8622 82.6213 27.0358 81.2957 27.0263Z" fill="white"/>
<path d="M28.3312 20.4825C28.3479 17.6308 27.3424 15.3523 25.3386 13.7139L25.3147 13.6948C23.6906 12.4361 21.8134 11.7889 19.7355 11.7769L15.544 11.7507C13.4637 11.7363 11.5793 12.3597 9.94091 13.5992L9.91702 13.6184C7.89171 15.2305 6.85755 17.497 6.84083 20.3487C6.83128 21.9035 7.14415 23.3126 7.77229 24.545C7.12982 25.7703 6.79784 27.1746 6.78829 28.7294C6.77157 31.5835 7.77707 33.8596 9.78089 35.498L9.80477 35.5171C11.4288 36.7757 13.3061 37.423 15.3839 37.4349L19.5731 37.4612C19.5946 37.4612 19.6161 37.4612 19.6376 37.4612C21.6916 37.4612 23.5545 36.8402 25.1785 35.6126L25.2024 35.5935C27.2277 33.9814 28.2619 31.7172 28.281 28.8632C28.2906 27.3083 27.9777 25.8992 27.3495 24.6668C27.992 23.4392 28.3216 22.0373 28.3312 20.4825ZM24.9875 25.2878C25.6228 26.2909 25.9261 27.4564 25.9165 28.8464C25.9022 30.9745 25.1905 32.5746 23.7408 33.7354C22.5251 34.6525 21.1805 35.0967 19.6376 35.0967C19.6209 35.0967 19.6041 35.0967 19.5874 35.0967L15.3983 35.0705C13.8339 35.0609 12.4821 34.5976 11.264 33.6566C9.82865 32.4767 9.13603 30.8694 9.15036 28.7414C9.15992 27.3489 9.47757 26.1882 10.1248 25.1947L10.538 24.5594L10.132 23.9193C9.49667 22.9162 9.19335 21.7531 9.20291 20.3607C9.21724 18.2326 9.92896 16.6348 11.3787 15.4717C12.5944 14.557 13.9366 14.1104 15.4795 14.1104C15.4962 14.1104 15.5129 14.1104 15.5296 14.1104L19.7188 14.1366C21.2832 14.1462 22.635 14.6095 23.853 15.5505C25.2884 16.7304 25.981 18.3377 25.9667 20.4657C25.9571 21.8558 25.6395 23.0165 24.9923 24.0124L24.5791 24.6477L24.9875 25.2878Z" fill="white"/>
<path d="M19.3483 18.0598C17.9535 17.9905 16.5396 17.981 15.1424 18.0335C13.8479 18.0837 13.0072 18.9172 13 20.1568C12.9929 21.37 13.824 22.194 15.1161 22.2609C15.9114 22.3015 16.7115 22.3206 17.514 22.3206C18.1183 22.3206 18.7225 22.3087 19.322 22.2848C20.6165 22.2346 21.4572 21.4202 21.4643 20.2069C21.4739 18.9698 20.6427 18.1267 19.3483 18.0598Z" fill="white"/>
<path d="M50.3483 18.0598C48.9535 17.9905 47.5396 17.981 46.1424 18.0335C44.8479 18.0837 44.0072 18.9172 44 20.1568C43.9929 21.37 44.824 22.194 46.1161 22.2609C46.9114 22.3015 47.7115 22.3206 48.514 22.3206C49.1183 22.3206 49.7225 22.3087 50.322 22.2848C51.6165 22.2346 52.4572 21.4202 52.4643 20.2069C52.4739 18.9698 51.6427 18.1267 50.3483 18.0598Z" fill="white"/>
<path d="M19.3483 27.0598C17.9535 26.9905 16.5396 26.981 15.1424 27.0335C13.8479 27.0837 13.0072 27.9172 13 29.1568C12.9929 30.37 13.824 31.194 15.1161 31.2609C15.9114 31.3015 16.7115 31.3206 17.514 31.3206C18.1183 31.3206 18.7225 31.3087 19.322 31.2848C20.6165 31.2346 21.4572 30.4202 21.4643 29.2069C21.4739 27.9698 20.6427 27.1267 19.3483 27.0598Z" fill="white"/>
<path d="M81.3688 18.6744C79.974 18.6028 78.5601 18.5956 77.1629 18.6482C75.8684 18.6983 75.0277 19.5319 75.0206 20.7714C75.0134 21.9847 75.8445 22.8087 77.1366 22.8755C77.932 22.9161 78.7321 22.9352 79.5345 22.9352C80.1388 22.9352 80.743 22.9233 81.3425 22.8994C82.637 22.8493 83.4777 22.0348 83.4849 20.8216C83.4944 19.5868 82.6633 18.7413 81.3688 18.6744Z" fill="white"/>
<path d="M90.0006 20.8646C90.0174 18.0129 89.0119 15.7344 87.008 14.096L86.9842 14.0769C85.3601 12.8183 83.4828 12.171 81.405 12.1591L77.2158 12.1328C75.1332 12.1185 73.2512 12.7418 71.6128 13.9814L71.5889 14.0005C69.5636 15.6126 68.5294 17.8792 68.5127 20.7309C68.5031 22.2857 68.816 23.6948 69.4442 24.9272C68.8017 26.1524 68.4697 27.5567 68.4602 29.1116C68.4434 31.9656 69.4489 34.2417 71.4528 35.8801L71.4766 35.8992C73.1007 37.1579 74.978 37.8051 77.0558 37.8171L81.2474 37.8434C81.2689 37.8434 81.2903 37.8434 81.3095 37.8434C83.3634 37.8434 85.2263 37.2224 86.8504 35.9948L86.8743 35.9757C88.8996 34.3635 89.9338 32.0994 89.9529 29.2453C89.9624 27.6905 89.6496 26.2814 89.0214 25.049C89.6615 23.8238 89.9911 22.4194 90.0006 20.8646ZM87.6386 20.8503C87.629 22.2403 87.3114 23.401 86.6641 24.397L86.2509 25.0323L86.6546 25.6723C87.2899 26.6754 87.5932 27.841 87.5836 29.231C87.5693 31.359 86.8576 32.9592 85.4079 34.1199C84.1922 35.037 82.8499 35.4813 81.3047 35.4813C81.288 35.4813 81.2712 35.4813 81.2545 35.4813L77.063 35.455C75.4986 35.4455 74.1468 34.9821 72.9288 34.0411C71.4934 32.8613 70.8007 31.2539 70.8151 29.1259C70.8246 27.7335 71.1423 26.5727 71.7895 25.5792L72.2027 24.9439L71.7967 24.3038C71.1614 23.3007 70.8581 22.1376 70.8676 20.7452C70.8819 18.6172 71.5937 17.0194 73.0434 15.8562C74.2591 14.9415 75.6013 14.4949 77.1442 14.4949C77.1609 14.4949 77.1776 14.4949 77.1943 14.4949L81.3835 14.5212C82.9479 14.5307 84.2997 14.994 85.5177 15.9351C86.9603 17.1149 87.6529 18.7223 87.6386 20.8503L88.8184 20.8574L87.6386 20.8503Z" fill="white"/>
<path d="M96.3319 20.9052C96.3605 16.2622 94.7484 12.4457 91.5409 9.56055C88.6438 6.95726 85.1687 5.62456 81.216 5.60068L77.0269 5.5744C76.9887 5.5744 76.9529 5.5744 76.9146 5.5744C72.9739 5.5744 69.5203 6.86411 66.6543 9.40531C65.4315 10.4753 64.4308 11.691 63.6569 13.0332C62.9022 11.6814 61.9134 10.4538 60.7073 9.3671C57.8103 6.7638 54.3352 5.4311 50.3825 5.40722L46.191 5.38095C42.2072 5.35706 38.7131 6.64677 35.8184 9.21185C34.5956 10.2818 33.5948 11.4975 32.821 12.8397C32.0663 11.4879 31.0775 10.2603 29.8714 9.17364C26.9743 6.57034 23.4993 5.23765 19.5466 5.21376L15.3574 5.18988C15.3192 5.18988 15.2834 5.18988 15.2452 5.18988C11.3044 5.18988 7.85086 6.47959 4.98485 9.02079C1.74148 11.8653 0.0815792 15.6604 0.0529191 20.3057C0.0433657 21.7244 0.220103 23.1335 0.573578 24.4996C0.200996 25.861 0.00992887 27.2677 0.000375494 28.6864C-0.0282846 33.3317 1.58385 37.1483 4.78662 40.0263C7.65263 42.632 11.1277 43.967 15.1162 43.9909L19.3078 44.0172C23.2629 44.0411 26.7522 42.7538 29.6803 40.1863C30.9008 39.1163 31.9039 37.9007 32.6753 36.5584C33.43 37.9102 34.4164 39.1354 35.6201 40.2197C38.4862 42.8254 41.9612 44.1605 45.9497 44.1844L50.1413 44.2107C54.094 44.2345 57.5858 42.9472 60.5139 40.3798C61.7343 39.3098 62.7374 38.0941 63.5089 36.7519C64.2636 38.1037 65.25 39.3289 66.4537 40.4132C69.3197 43.0189 72.7947 44.354 76.7833 44.3778L80.9724 44.4041C81.0106 44.4041 81.0465 44.4041 81.0823 44.4041C84.9896 44.4041 88.4432 43.1144 91.345 40.5732C94.5884 37.7311 96.2459 33.9336 96.2769 29.2907C96.2865 27.8744 96.0978 26.4653 95.7157 25.0967C96.1169 23.7282 96.3223 22.3215 96.3319 20.9052ZM93.356 25.4263C93.7357 26.6754 93.9244 27.9699 93.9173 29.2692C93.8934 33.2649 92.5416 36.3793 89.7902 38.7915C87.2992 40.9744 84.4522 42.0373 81.0895 42.0373C81.056 42.0373 81.0226 42.0373 80.9892 42.0373L76.8 42.011C73.3656 41.9895 70.4995 40.8932 68.0395 38.6554C66.425 37.2033 65.2858 35.4598 64.6529 33.4679L63.5518 29.9976L62.4078 33.4536C61.751 35.4359 60.5903 37.165 58.9591 38.598C56.468 40.781 53.6211 41.8438 50.2583 41.8438C50.2249 41.8438 50.1914 41.8438 50.158 41.8438L45.9665 41.8175C42.532 41.796 39.6684 40.6998 37.206 38.4619C35.5915 37.0098 34.4522 35.2663 33.8193 33.2744L32.7183 29.8042L31.5743 33.2625C30.9175 35.2448 29.7568 36.974 28.1255 38.407C25.6345 40.5899 22.7876 41.6527 19.4248 41.6527C19.3913 41.6527 19.3579 41.6527 19.3245 41.6527L15.1329 41.6265C11.6985 41.605 8.83247 40.5087 6.37248 38.2708C3.64738 35.8276 2.33857 32.6964 2.36245 28.7007C2.36961 27.3895 2.56307 26.0927 2.93087 24.8412L3.0288 24.514L2.93565 24.1844C2.58218 22.9305 2.40544 21.6289 2.41499 20.3177C2.43888 16.322 3.78829 13.2076 6.54683 10.7905C9.03071 8.5885 11.9087 7.52807 15.3431 7.54957L19.5323 7.57584C22.938 7.59733 25.8041 8.69358 28.2927 10.9315C29.9072 12.3836 31.0465 14.1295 31.6794 16.1189L32.7804 19.5892L33.9244 16.1309C34.5812 14.1486 35.742 12.417 37.3804 10.9816C39.8642 8.77956 42.7422 7.71914 46.1766 7.74063L50.3682 7.7669C53.774 7.7884 56.64 8.88465 59.1286 11.1225C60.7431 12.5746 61.8824 14.3205 62.5153 16.31L63.6163 19.7803L64.7603 16.322C65.4171 14.3396 66.5779 12.6081 68.2163 11.1727C70.7002 8.97063 73.5781 7.9102 77.0126 7.9317L81.2017 7.95797C84.6075 7.97947 87.4735 9.07572 89.9622 11.3136C92.6825 13.7593 93.9937 16.8904 93.9698 20.8861C93.9626 22.1877 93.7572 23.4774 93.3608 24.7218L93.2485 25.0728L93.356 25.4263Z" fill="#FF0066"/>
<path d="M201.727 25.2412C200.805 23.7461 199.59 22.509 198.109 21.5608C197.648 21.267 197.166 20.9947 196.659 20.7464H198.31C199.332 20.7464 200.294 20.3141 201.02 19.5331C201.706 18.7951 202.069 17.8995 202.069 16.9393L202.062 16.7554C201.933 14.8065 201.164 12.9006 199.776 11.0951C198.947 9.9582 197.949 8.97182 196.805 8.16456C195.704 7.38835 194.505 6.75305 193.234 6.28015C192.014 5.82637 190.741 5.492 189.444 5.29138C188.192 5.09792 186.967 5 185.802 5C182.852 5 180.175 5.48006 177.846 6.42584L177.808 6.44256C176.208 7.12085 174.803 8.02842 173.614 9.15333C173.571 8.17411 173.167 7.25221 172.456 6.53809C171.703 5.78815 170.7 5.37497 169.628 5.37497H147.058C146.215 5.37497 145.379 5.5326 144.577 5.84309C143.769 6.15596 143.034 6.61452 142.382 7.21161C142.3 7.28565 142.224 7.36207 142.148 7.4385C141.99 7.14951 141.797 6.87963 141.567 6.63602C140.853 5.85025 139.836 5.42035 138.689 5.42035H134.928C133.132 5.42035 131.484 6.07953 130.158 7.32625C128.787 8.61595 128.064 10.3308 128.064 12.2821V12.6475C127.939 12.3322 127.806 12.0241 127.653 11.7327C126.814 10.1182 125.654 8.80463 124.206 7.82302C122.85 6.9059 121.269 6.25149 119.511 5.87891C117.918 5.54215 116.208 5.37258 114.424 5.37258H102.864C102.171 5.37258 101.436 5.49678 100.669 5.74278C99.8381 6.01266 99.0714 6.44017 98.3931 7.01576C97.7172 7.58897 97.156 8.28875 96.7237 9.10079C96.2436 10.0036 96 11.0592 96 12.2343V39.7409C96 40.7822 96.4132 41.771 97.1655 42.5257C97.9178 43.2756 98.9042 43.6888 99.9479 43.6888H114.806C116.654 43.6888 118.436 43.4786 120.103 43.0678C121.902 42.6236 123.516 41.8856 124.904 40.8777C126.196 39.9367 127.256 38.7449 128.068 37.331V39.7886C128.068 40.8323 128.481 41.8187 129.234 42.5734C129.986 43.3234 130.973 43.7366 132.016 43.7366H138.694C139.883 43.7366 140.92 43.2661 141.636 42.4063C142.286 41.6874 142.644 40.7655 142.644 39.7886V18.2219C143.132 18.4273 143.655 18.5371 144.197 18.5371H149.652V39.7456C149.652 40.8873 150.132 41.9286 150.98 42.6379C151.699 43.2899 152.64 43.6458 153.647 43.6458H160.182C161.19 43.6458 162.128 43.2899 162.847 42.6379C163.695 41.9286 164.175 40.8849 164.175 39.7456V18.5371H169.63C169.733 18.5371 169.833 18.53 169.934 18.5228C170.029 20.3356 170.466 21.9405 171.23 23.3043C172.069 24.7994 173.194 26.058 174.572 27.0444C175.178 27.4791 175.826 27.8732 176.511 28.2243H172.871C171.899 28.2243 170.973 28.5849 170.266 29.2393C169.492 29.951 169.064 30.9255 169.064 31.9859L169.069 32.1316C169.193 34.4817 169.898 36.5094 171.166 38.1622C172.329 39.6812 173.793 40.9159 175.518 41.8378C177.139 42.7048 178.931 43.3282 180.844 43.6912C182.656 44.0351 184.436 44.2095 186.134 44.2095C187.915 44.2095 189.769 44.0065 191.648 43.6076C193.628 43.1873 195.458 42.4827 197.089 41.5202C198.816 40.5004 200.261 39.1462 201.383 37.4911C202.589 35.7117 203.201 33.5598 203.201 31.0927C203.198 28.7951 202.704 26.8247 201.727 25.2412Z" fill="#FF0066"/>
<path d="M122.141 24.2011C123.333 23.5419 124.264 22.6654 124.938 21.5667C125.611 20.4705 125.948 19.2477 125.948 17.8982C125.948 16.1118 125.635 14.6143 125.007 13.4082C124.379 12.202 123.533 11.2372 122.468 10.5159C121.403 9.79459 120.163 9.28587 118.754 8.98733C117.343 8.68879 115.838 8.54071 114.24 8.54071H102.676C102.267 8.54071 101.821 8.61953 101.336 8.77716C100.849 8.93479 100.402 9.18556 99.996 9.52949C99.5876 9.87341 99.2509 10.2985 98.9858 10.7977C98.7183 11.2992 98.5869 11.9107 98.5869 12.6319V40.1385C98.5869 40.4514 98.7039 40.726 98.9404 40.9601C99.1744 41.1942 99.4491 41.3136 99.762 41.3136H114.62C116.249 41.3136 117.794 41.1344 119.251 40.7738C120.708 40.4132 121.986 39.8328 123.084 39.0351C124.18 38.235 125.05 37.2104 125.695 35.9565C126.337 34.7026 126.66 33.1669 126.66 31.3494C126.66 29.8758 126.261 28.4571 125.461 27.0934C124.656 25.7296 123.552 24.7647 122.141 24.2011Z" fill="#000324"/>
<path d="M138.503 8.59088H134.742C133.643 8.59088 132.688 8.9754 131.873 9.74206C131.056 10.5111 130.65 11.4903 130.65 12.6797V40.1863C130.65 40.4992 130.767 40.7738 131.004 41.0103C131.238 41.2443 131.513 41.3637 131.825 41.3637H138.503C138.881 41.3637 139.162 41.2396 139.349 40.9864C139.568 40.7667 139.678 40.5016 139.678 40.1863V9.76595C139.678 9.42202 139.568 9.1402 139.349 8.92047C139.162 8.70074 138.878 8.59088 138.503 8.59088Z" fill="#000324"/>
<path d="M169.442 8.54309H146.872C146.371 8.54309 145.877 8.63862 145.392 8.82492C144.904 9.01359 144.467 9.28825 144.076 9.64651C143.684 10.0071 143.371 10.4394 143.135 10.941C142.901 11.4425 142.781 11.9919 142.781 12.5866V14.9845C142.781 15.3308 142.905 15.6126 143.159 15.8299C143.409 16.0497 143.691 16.1595 144.004 16.1595H150.823C151.2 16.1595 151.527 16.2861 151.809 16.5369C152.091 16.7877 152.232 17.1316 152.232 17.571V40.1409C152.232 40.4848 152.356 40.7523 152.607 40.941C152.827 41.1607 153.108 41.2706 153.452 41.2706H159.987C160.331 41.2706 160.613 41.1607 160.832 40.941C161.083 40.7523 161.21 40.4872 161.21 40.1409V18.6052C161.21 17.9794 160.935 17.4134 160.386 16.9119C159.836 16.4103 159.218 16.1595 158.528 16.1595H169.435C169.779 16.1595 170.07 16.0497 170.305 15.8299C170.539 15.6102 170.658 15.3284 170.658 14.9845V9.71816C170.658 9.40528 170.541 9.13062 170.305 8.89418C170.075 8.66012 169.786 8.54309 169.442 8.54309Z" fill="#000324"/>
<path d="M199.179 27.091C198.474 25.947 197.557 25.0155 196.428 24.2943C195.3 23.573 194.006 23.0165 192.549 22.6248C191.092 22.2331 189.626 21.8964 188.152 21.6145C185.582 21.0819 183.827 20.5637 182.886 20.0621C181.945 19.5295 181.474 18.8249 181.474 17.946C181.474 17.3824 181.598 16.919 181.852 16.5584C182.102 16.1978 182.432 15.9088 182.838 15.6891C183.244 15.4693 183.693 15.3284 184.178 15.2663C184.663 15.2042 185.143 15.1708 185.611 15.1708C186.707 15.1708 187.679 15.3905 188.527 15.83C189.31 16.3005 189.798 16.8641 189.984 17.5233C190.359 18.087 190.877 18.3712 191.536 18.3712H198.119C198.369 18.3712 198.596 18.2613 198.802 18.0416C199.005 17.8218 199.107 17.5878 199.107 17.337C199.014 15.9255 198.434 14.5307 197.369 13.1526C196.709 12.2427 195.926 11.4688 195.018 10.824C194.109 10.1815 193.129 9.66564 192.081 9.27157C191.03 8.87988 189.948 8.59805 188.837 8.42609C187.724 8.25413 186.652 8.16815 185.616 8.16815C183.012 8.16815 180.71 8.57656 178.704 9.39098C176.855 10.1744 175.358 11.3112 174.214 12.7992C173.07 14.2871 172.496 16.0664 172.496 18.1347C172.496 19.797 172.816 21.199 173.461 22.343C174.104 23.487 174.949 24.4352 176 25.1875C177.051 25.9398 178.25 26.5441 179.597 26.9979C180.944 27.4517 182.339 27.8195 183.781 28.1013C184.753 28.29 185.606 28.4715 186.344 28.641C187.08 28.813 187.715 28.9945 188.248 29.1808C188.938 29.4005 189.595 29.6991 190.223 30.0741C190.848 30.4514 191.164 31.0604 191.164 31.9083C191.164 32.5364 190.975 33.0452 190.6 33.4368C190.223 33.8285 189.776 34.1271 189.26 34.3301C188.742 34.5331 188.178 34.6668 187.567 34.7289C186.955 34.791 186.416 34.8221 185.945 34.8221C184.88 34.8221 183.853 34.643 182.867 34.2823C181.88 33.9217 181.135 33.241 180.633 32.2379C180.321 31.925 180.053 31.7053 179.833 31.5787C179.707 31.5166 179.575 31.4689 179.435 31.4378C179.294 31.4068 179.129 31.39 178.94 31.39H172.687C172.406 31.39 172.162 31.4856 171.959 31.6719C171.756 31.8605 171.653 32.0946 171.653 32.3764C171.746 34.1629 172.255 35.6604 173.182 36.8665C174.106 38.0726 175.257 39.0447 176.638 39.7827C178.016 40.5183 179.53 41.0437 181.176 41.359C182.821 41.6719 184.412 41.8295 185.948 41.8295C187.545 41.8295 189.191 41.648 190.884 41.2897C192.578 40.9291 194.113 40.3416 195.491 39.5271C196.869 38.7127 198.006 37.6475 198.9 36.3291C199.793 35.0132 200.239 33.3986 200.239 31.4856C200.237 29.7015 199.886 28.2374 199.179 27.091Z" fill="#000324"/>
<path d="M113.464 21.6754C114.529 21.6754 115.392 21.3864 116.051 20.8061C116.71 20.2257 117.037 19.3874 117.037 18.2911C117.037 17.1949 116.7 16.3709 116.027 15.8216C115.353 15.2747 114.498 15 113.464 15H105C105.721 15 106.333 15.2579 106.834 15.7762C107.336 16.2945 107.587 16.8653 107.587 17.4934V20.3141C107.587 20.5959 107.711 20.8944 107.964 21.2073C108.215 21.5202 108.559 21.6778 108.998 21.6778H113.464V21.6754Z" fill="#FF0066"/>
<path d="M113.676 34.9677C114.803 34.9677 115.721 34.6548 116.427 34.0267C117.132 33.401 117.485 32.5053 117.485 31.347C117.485 30.2197 117.125 29.3193 116.404 28.6434C115.682 27.9699 114.772 27.6331 113.676 27.6331H104.789C105.51 27.6331 106.122 27.8911 106.623 28.4093C107.125 28.9276 107.376 29.4984 107.376 30.1265V33.5586C107.376 33.8715 107.493 34.1867 107.729 34.4996C107.963 34.8125 108.317 34.9701 108.787 34.9701H113.676V34.9677Z" fill="#FF0066"/>
<path d="M108.569 8.41653C107.702 8.41653 107 7.73107 107 6.8856V1.53093C107 0.685455 107.702 0 108.569 0C109.436 0 110.138 0.685455 110.138 1.53093V6.88799C110.138 7.73107 109.436 8.41653 108.569 8.41653Z" fill="#FF0066"/>
<path d="M113.246 8.41653C112.379 8.41653 111.677 7.73107 111.677 6.8856V1.53093C111.677 0.685455 112.379 0 113.246 0C114.113 0 114.815 0.685455 114.815 1.53093V6.88799C114.815 7.73107 114.113 8.41653 113.246 8.41653Z" fill="#FF0066"/>
<path d="M108.569 50.4189C107.702 50.4189 107 49.7335 107 48.888V43.5309C107 42.6855 107.702 42 108.569 42C109.436 42 110.138 42.6855 110.138 43.5309V48.888C110.138 49.7335 109.436 50.4189 108.569 50.4189Z" fill="#FF0066"/>
<path d="M113.246 50.4189C112.379 50.4189 111.677 49.7335 111.677 48.888V43.5309C111.677 42.6855 112.379 42 113.246 42C114.113 42 114.815 42.6855 114.815 43.5309V48.888C114.815 49.7335 114.113 50.4189 113.246 50.4189Z" fill="#FF0066"/>
</g>
<defs>
<clipPath id="clip0">
<rect width="203.009" height="50" fill="white"/>
</clipPath>
</defs>
</svg>
