<svg width="216" height="55" viewBox="0 0 216 55" fill="none" xmlns="http://www.w3.org/2000/svg">
<g clip-path="url(#clip0_1002_26401)">
<path d="M35.175 36.264C35.175 38.6858 34.6391 40.7294 33.5672 42.395C32.5201 44.0369 31.1044 45.4118 29.4326 46.4105C27.6755 47.4505 25.7594 48.1949 23.761 48.6139C21.7288 49.0621 19.6544 49.2912 17.5733 49.2973C15.4517 49.2959 13.3364 49.0668 11.2637 48.6139C9.26021 48.1958 7.34607 47.4278 5.60918 46.3452C3.96515 45.3158 2.58046 43.9214 1.56253 42.2702C0.530304 40.6028 0.0141855 38.579 0.0141855 36.1988C0.0101004 34.3387 0.49936 32.5109 1.43208 30.9016C2.33922 29.2841 3.65172 27.9305 5.24053 26.974C5.51844 26.8152 5.53829 26.6365 5.30009 26.438C2.76301 24.6534 1.49352 22.035 1.49163 18.5829C1.49163 15.093 2.84051 12.2166 5.53828 9.95364C8.23795 7.77198 12.2459 6.68115 17.562 6.68115C19.4797 6.68299 21.3926 6.87295 23.2733 7.24831C25.0748 7.58928 26.8025 8.24387 28.3777 9.1823C29.8774 10.087 31.134 11.3436 32.0387 12.8433C32.9688 14.3727 33.4348 16.2633 33.4367 18.5149C33.4367 21.8876 32.2268 24.5258 29.8069 26.4295C29.7658 26.4531 29.7327 26.4883 29.7115 26.5307C29.6903 26.5731 29.6821 26.6207 29.6878 26.6677C29.689 26.7287 29.7061 26.7882 29.7375 26.8404C29.7688 26.8927 29.8133 26.9358 29.8665 26.9655C31.5094 27.8553 32.8627 29.1977 33.7657 30.8335C34.6995 32.4904 35.1853 34.3621 35.175 36.264V36.264Z" fill="#FF0066"/>
<path d="M23.9962 36.2638C24.0137 35.4633 23.8179 34.6725 23.429 33.9725C23.0583 33.3248 22.5501 32.7663 21.9402 32.3363C21.3193 31.8967 20.6236 31.5739 19.8871 31.3834C19.1294 31.1893 18.3497 31.094 17.5675 31.0999C16.775 31.095 15.9851 31.1903 15.2166 31.3834C14.4689 31.5696 13.7623 31.8927 13.1323 32.3363C12.528 32.761 12.0206 33.309 11.6435 33.9441C11.2727 34.6561 11.0791 35.4469 11.0791 36.2496C11.0791 37.0523 11.2727 37.8432 11.6435 38.5551C12.0135 39.2033 12.5218 39.762 13.1323 40.1914C13.7652 40.6369 14.4704 40.9698 15.2166 41.1754C16.7537 41.6101 18.3812 41.6101 19.9183 41.1754C20.6561 40.9731 21.3516 40.6398 21.9714 40.1914C22.5676 39.7553 23.0644 39.1976 23.429 38.5551C23.8182 37.8553 24.0139 37.0644 23.9962 36.2638V36.2638Z" fill="white"/>
<path d="M11.8451 19.1247C11.8318 19.8197 12.0061 20.5054 12.3498 21.1097C12.6794 21.6712 13.1263 22.1548 13.66 22.5276C14.2183 22.9151 14.8431 23.1968 15.5032 23.3585C16.1739 23.5393 16.8647 23.6346 17.5592 23.6421C18.2439 23.6403 18.9249 23.54 19.5811 23.3443C20.2369 23.1584 20.8598 22.8714 21.4272 22.4936C21.9697 22.1293 22.4264 21.6512 22.7657 21.0927C23.1139 20.4986 23.2888 19.8188 23.2704 19.1303C23.29 18.413 23.1156 17.7037 22.7657 17.0772C22.4362 16.5158 21.9893 16.0321 21.4555 15.6593C20.9052 15.2753 20.2905 14.9929 19.6406 14.8256C18.2748 14.4702 16.8407 14.4702 15.4749 14.8256C14.825 14.9929 14.2103 15.2753 13.66 15.6593C13.1263 16.0321 12.6794 16.5158 12.3498 17.0772C12.0009 17.702 11.8265 18.4092 11.8451 19.1247V19.1247Z" fill="white"/>
<path d="M96.4563 47.0656V12.2478C96.4324 11.4447 96.6067 10.648 96.9639 9.92817C97.2822 9.31455 97.7165 8.76851 98.2428 8.32029C98.7422 7.89444 99.3202 7.57072 99.9443 7.36747C100.492 7.18011 101.067 7.07965 101.646 7.06971H116.287C118.206 7.05966 120.121 7.24974 122.001 7.63687C123.679 7.96962 125.276 8.62654 126.703 9.57086C128.065 10.5006 129.171 11.76 129.916 13.2319C130.71 14.7575 131.107 16.648 131.107 18.9034C131.125 20.5402 130.682 22.1491 129.828 23.5456C128.959 24.9474 127.738 26.0964 126.286 26.8776C128.061 27.583 129.541 28.875 130.48 30.5386C131.465 32.1638 131.991 34.0261 132 35.9266C132 38.2293 131.593 40.1737 130.778 41.7598C130.003 43.3023 128.871 44.638 127.477 45.6562C126.019 46.7001 124.37 47.4487 122.625 47.8596C120.706 48.3243 118.738 48.5538 116.763 48.543H97.9564C97.565 48.5337 97.1921 48.3742 96.915 48.0976C96.6378 47.821 96.4777 47.4485 96.4676 47.0571L96.4563 47.0656ZM115.025 23.4974C116.375 23.4974 117.467 23.1306 118.3 22.3971C119.134 21.6636 119.55 20.6021 119.548 19.2125C119.548 17.823 119.122 16.7832 118.269 16.0932C117.344 15.3747 116.195 15.0061 115.025 15.0524H104.314C104.748 15.0457 105.178 15.1296 105.577 15.2985C105.977 15.4674 106.337 15.7178 106.634 16.0336C106.929 16.3139 107.166 16.6505 107.33 17.0235C107.493 17.3966 107.581 17.7985 107.587 18.2058V21.7761C107.611 22.1975 107.779 22.5979 108.063 22.9104C108.219 23.1061 108.419 23.2622 108.647 23.3657C108.874 23.4692 109.123 23.5173 109.373 23.5059L115.025 23.4974ZM115.561 40.5121C116.99 40.5121 118.151 40.1151 119.043 39.3211C119.936 38.527 120.382 37.3927 120.382 35.9181C120.382 34.4889 119.925 33.348 119.012 32.4953C118.074 31.6334 116.834 31.1741 115.561 31.2164H104.314C104.748 31.2097 105.178 31.2935 105.577 31.4625C105.977 31.6314 106.337 31.8818 106.634 32.1976C106.93 32.4784 107.166 32.8155 107.33 33.189C107.493 33.5625 107.581 33.9649 107.587 34.3726V38.717C107.6 39.1514 107.756 39.5693 108.032 39.9052C108.19 40.1062 108.395 40.2654 108.629 40.3692C108.863 40.473 109.118 40.5182 109.373 40.5007L115.561 40.5121Z" fill="#FF0066"/>
<path d="M132.324 47.2439V12.4262C132.303 11.732 132.43 11.0414 132.697 10.4004C132.964 9.7593 133.364 9.18252 133.872 8.70845C134.351 8.23827 134.918 7.86725 135.541 7.61665C136.164 7.36604 136.83 7.24079 137.502 7.24803H142.263C142.461 7.23389 142.66 7.26393 142.846 7.33601C143.031 7.4081 143.198 7.52043 143.335 7.66489C143.473 7.80614 143.581 7.97394 143.653 8.15817C143.725 8.3424 143.758 8.53926 143.752 8.73682V47.2439C143.758 47.4411 143.725 47.6376 143.653 47.8214C143.582 48.0052 143.473 48.1725 143.335 48.313C143.199 48.4586 143.032 48.5717 142.846 48.6439C142.661 48.716 142.461 48.7454 142.263 48.7299H133.812C133.614 48.74 133.416 48.7085 133.231 48.6375C133.046 48.5664 132.878 48.4574 132.738 48.3174C132.598 48.1774 132.488 48.0095 132.417 47.8246C132.346 47.6397 132.314 47.4419 132.324 47.2439V47.2439Z" fill="#FF0066"/>
<path d="M178.124 7.06983C179.156 7.06983 179.672 7.58593 179.672 8.61815V15.2255C179.686 15.4235 179.656 15.6221 179.584 15.807C179.512 15.9919 179.4 16.1585 179.255 16.2946C179.104 16.4376 178.926 16.5482 178.731 16.6199C178.536 16.6916 178.328 16.7228 178.121 16.7115H164.367C165.236 16.7097 166.07 17.0523 166.687 17.6643C166.998 17.9295 167.249 18.2578 167.424 18.6274C167.598 18.997 167.692 19.3995 167.699 19.8082V47.0657C167.713 47.2682 167.682 47.4713 167.61 47.6611C167.539 47.8509 167.427 48.0231 167.283 48.166C166.969 48.4372 166.562 48.5755 166.148 48.5516H157.924C157.528 48.553 157.146 48.4041 156.855 48.1348C156.7 48.0042 156.577 47.8401 156.494 47.6549C156.412 47.4698 156.372 47.2683 156.379 47.0657V18.5576C156.389 18.3064 156.344 18.0562 156.246 17.8247C156.147 17.5933 155.999 17.3864 155.812 17.2191C155.484 16.9013 155.049 16.7198 154.592 16.7115H145.963C145.756 16.7228 145.548 16.6916 145.353 16.6199C145.158 16.5482 144.98 16.4376 144.829 16.2946C144.684 16.159 144.571 15.9925 144.499 15.8075C144.427 15.6224 144.397 15.4236 144.412 15.2255V12.1884C144.385 11.4879 144.515 10.7901 144.793 10.1467C145.071 9.50322 145.491 8.93047 146.02 8.4707C147.002 7.56836 148.288 7.06831 149.621 7.06983H178.124Z" fill="#FF0066"/>
<path d="M215.23 36.1137C215.23 38.5355 214.675 40.5886 213.563 42.2731C212.474 43.9408 211.005 45.3273 209.278 46.3197C207.463 47.3585 205.494 48.1022 203.445 48.5231C201.395 48.969 199.304 49.198 197.206 49.2065C195.754 49.2032 194.303 49.1142 192.862 48.94C191.373 48.7652 189.906 48.4354 188.486 47.956C187.091 47.4894 185.754 46.8633 184.502 46.09C183.26 45.3245 182.178 44.3248 181.317 43.1465C179.89 41.3202 179.156 39.356 179.117 37.2537C179.112 37.0883 179.141 36.9237 179.203 36.7701C179.264 36.6164 179.357 36.477 179.474 36.3605C179.742 36.1395 180.077 36.0139 180.424 36.0031H188.282C188.702 35.9835 189.12 36.0652 189.501 36.2414C189.861 36.4553 190.174 36.7387 190.423 37.0751C191.04 38.2589 192.066 39.1788 193.31 39.6641C194.557 40.1268 195.879 40.3584 197.209 40.3476C197.885 40.3422 198.561 40.293 199.231 40.2001C199.964 40.1061 200.684 39.9263 201.375 39.6641C202.021 39.4238 202.609 39.0488 203.099 38.5639C203.341 38.3114 203.53 38.0123 203.652 37.6846C203.775 37.357 203.83 37.0077 203.814 36.6582C203.838 36.1981 203.735 35.7402 203.515 35.3356C203.294 34.9309 202.966 34.5955 202.566 34.3669C201.776 33.8915 200.938 33.5026 200.065 33.2071C199.429 33.018 198.646 32.7997 197.714 32.552C196.782 32.3043 195.7 32.0463 194.47 31.7778C192.679 31.4292 190.911 30.9718 189.175 30.4081C187.549 29.8923 186.012 29.127 184.621 28.1395C183.296 27.1928 182.198 25.9625 181.408 24.5381C180.595 23.0918 180.189 21.2958 180.189 19.1501C180.189 16.8815 180.694 14.9474 181.706 13.3481C182.694 11.7628 184.025 10.4196 185.602 9.41768C187.24 8.38665 189.042 7.64247 190.931 7.21711C192.852 6.76591 194.819 6.53661 196.792 6.53369C198.178 6.53733 199.561 6.65589 200.927 6.88816C202.321 7.12475 203.688 7.50487 205.005 8.02248C206.298 8.53012 207.527 9.18981 208.666 9.98767C209.802 10.7871 210.815 11.7493 211.672 12.8433C213.019 14.6299 213.733 16.3956 213.813 18.1405C213.806 18.5771 213.682 19.004 213.455 19.3769C213.339 19.4944 213.199 19.5867 213.046 19.6481C212.892 19.7096 212.727 19.7389 212.562 19.7343H204.29C203.417 19.7343 202.744 19.0934 202.268 18.3788C202.123 17.8456 201.834 17.3622 201.434 16.9807C201.029 16.5977 200.554 16.2946 200.036 16.0874C199.508 15.8715 198.959 15.7118 198.397 15.611C197.868 15.5145 197.33 15.4652 196.792 15.4636C196.185 15.4643 195.579 15.5041 194.977 15.5827C194.396 15.6512 193.831 15.8221 193.31 16.0874C192.816 16.3435 192.388 16.7104 192.059 17.1594C191.705 17.6741 191.527 18.2903 191.554 18.9147C191.554 20.066 192.15 20.9782 193.341 21.6512C194.528 22.2865 196.73 22.9415 199.946 23.6164C201.841 23.9318 203.718 24.3493 205.569 24.867C207.303 25.3334 208.958 26.0549 210.48 27.008C211.892 27.9031 213.074 29.1161 213.932 30.5499C214.797 31.9981 215.23 33.8527 215.23 36.1137Z" fill="#FF0066"/>
<path d="M67.2248 36.264C67.2248 38.6858 66.6889 40.7294 65.617 42.395C64.571 44.0378 63.1551 45.413 61.4824 46.4105C59.7252 47.4503 57.8092 48.1947 55.8108 48.6139C53.7776 49.0621 51.7023 49.2912 49.6203 49.2973C47.4987 49.2958 45.3834 49.0667 43.3107 48.6139C41.3073 48.1953 39.3933 47.4274 37.6561 46.3452C36.0115 45.3166 34.6266 43.922 33.6095 42.2702C32.5773 40.6028 32.0621 38.579 32.064 36.1988C32.0611 34.3389 32.5503 32.5113 33.4819 30.9016C34.3893 29.2833 35.7029 27.9296 37.2932 26.974C37.5767 26.8152 37.5767 26.6365 37.3527 26.438C34.8118 24.6534 33.5414 22.035 33.5414 18.5829C33.5414 15.093 34.8912 12.2166 37.5909 9.95364C40.2887 7.77198 44.2957 6.68115 49.6118 6.68115C51.5305 6.68298 53.4443 6.87294 55.3259 7.24831C57.1273 7.58973 58.8549 8.24429 60.4303 9.1823C61.929 10.0873 63.1846 11.3439 64.0885 12.8433C65.0224 14.3727 65.4884 16.2633 65.4865 18.5149C65.4865 21.8876 64.2766 24.5258 61.8567 26.4295C61.8156 26.4531 61.7824 26.4883 61.7613 26.5307C61.7401 26.5731 61.7319 26.6207 61.7376 26.6677C61.7388 26.7287 61.7559 26.7882 61.7872 26.8404C61.8186 26.8927 61.8631 26.9358 61.9162 26.9655C63.5592 27.8553 64.9125 29.1977 65.8154 30.8335C66.7493 32.4904 67.2351 34.3621 67.2248 36.264V36.264Z" fill="white"/>
<path d="M56.0407 36.2638C56.0581 35.4633 55.8623 34.6725 55.4736 33.9725C55.1029 33.3248 54.5947 32.7663 53.9848 32.3363C53.3639 31.8967 52.6682 31.5739 51.9317 31.3834C51.1739 31.1893 50.3942 31.094 49.612 31.0999C48.8196 31.0952 48.0297 31.1904 47.2611 31.3834C46.5135 31.5696 45.8068 31.8927 45.1768 32.3363C44.5727 32.7603 44.0661 33.3085 43.6909 33.9441C43.2947 34.6515 43.0986 35.4534 43.1237 36.2638C43.106 37.0644 43.3017 37.8553 43.6909 38.5551C44.059 39.2038 44.5665 39.7627 45.1768 40.1914C45.8098 40.6369 46.5149 40.9698 47.2611 41.1754C48.7982 41.6101 50.4258 41.6101 51.9629 41.1754C52.7009 40.9737 53.3964 40.6404 54.016 40.1914C54.6122 39.7553 55.109 39.1976 55.4736 38.5551C55.8627 37.8553 56.0585 37.0644 56.0407 36.2638V36.2638Z" fill="#FF0066"/>
<path d="M43.8949 19.1247C43.8812 19.8201 44.0566 20.5062 44.4025 21.1097C44.7301 21.6717 45.1762 22.1555 45.7098 22.5276C46.2688 22.9157 46.8947 23.1974 47.5559 23.3585C48.2255 23.5395 48.9154 23.6347 49.609 23.6421C50.2938 23.6405 50.9747 23.5402 51.6309 23.3443C52.2868 23.1584 52.9096 22.8714 53.477 22.4936C54.0202 22.1301 54.4771 21.6519 54.8155 21.0927C55.1647 20.4988 55.3406 19.819 55.3231 19.1303C55.3418 18.4127 55.1664 17.7034 54.8155 17.0772C54.4864 16.5164 54.0405 16.0328 53.5082 15.6593C52.9568 15.2753 52.3412 14.9929 51.6904 14.8256C50.3246 14.4702 48.8905 14.4702 47.5247 14.8256C46.8748 14.9929 46.2601 15.2753 45.7098 15.6593C45.1762 16.0314 44.7301 16.5152 44.4025 17.0772C44.0518 17.7014 43.8764 18.4089 43.8949 19.1247V19.1247Z" fill="#FF0066"/>
<path d="M99.2498 36.264C99.2498 38.6858 98.7147 40.7294 97.6447 42.395C96.5973 44.0376 95.1805 45.4127 93.5073 46.4105C91.7501 47.4503 89.8341 48.1947 87.8357 48.6139C85.8026 49.0623 83.7272 49.2914 81.6452 49.2973C79.5198 49.2968 77.4007 49.0677 75.3243 48.6139C73.3208 48.1958 71.4066 47.4278 69.6697 46.3452C68.0244 45.3174 66.6394 43.9227 65.6231 42.2702C64.5908 40.6028 64.0747 38.579 64.0747 36.1988C64.0706 34.3387 64.5599 32.5109 65.4926 30.9016C66.3989 29.2834 67.7116 27.9297 69.3011 26.974C69.579 26.8152 69.5988 26.6365 69.3606 26.438C66.8198 24.6534 65.5503 22.035 65.5522 18.5829C65.5522 15.093 66.9011 12.2166 69.5988 9.95364C72.2947 7.77198 76.3017 6.68115 81.6197 6.68115C83.5384 6.68284 85.4522 6.8728 87.3338 7.24831C89.1402 7.58769 90.8729 8.24232 92.4524 9.1823C93.9521 10.087 95.2087 11.3436 96.1134 12.8433C97.0435 14.3727 97.5095 16.2633 97.5114 18.5149C97.5114 21.8876 96.3015 24.5258 93.8816 26.4295C93.8405 26.4531 93.8074 26.4883 93.7862 26.5307C93.765 26.5731 93.7568 26.6207 93.7625 26.6677C93.7637 26.7287 93.7808 26.7882 93.8122 26.8404C93.8435 26.8927 93.888 26.9358 93.9412 26.9655C95.5827 27.8562 96.9348 29.1985 97.8375 30.8335C98.7736 32.4896 99.2604 34.3617 99.2498 36.264V36.264Z" fill="#FF0066"/>
<path d="M88.0626 36.2638C88.079 35.4634 87.8833 34.6729 87.4954 33.9725C87.1238 33.3255 86.6158 32.7672 86.0066 32.3363C85.3854 31.8973 84.6898 31.5745 83.9535 31.3835C83.1948 31.1891 82.4142 31.0938 81.631 31.0999C80.8386 31.0952 80.0488 31.1905 79.2802 31.3835C78.5336 31.5703 77.828 31.8934 77.1987 32.3363C76.5944 32.761 76.087 33.309 75.7099 33.9442C75.3391 34.6561 75.1455 35.447 75.1455 36.2497C75.1455 37.0524 75.3391 37.8432 75.7099 38.5552C76.0799 39.2033 76.5882 39.762 77.1987 40.1914C77.8309 40.6364 78.535 40.9693 79.2802 41.1754C80.8173 41.6102 82.4448 41.6102 83.9819 41.1754C84.7202 40.9743 85.4158 40.6409 86.035 40.1914C86.6313 39.7546 87.1289 39.1971 87.4954 38.5552C87.8833 37.8548 88.079 37.0643 88.0626 36.2638Z" fill="white"/>
<path d="M75.9222 19.1247C75.9089 19.8197 76.0833 20.5054 76.427 21.1097C76.7565 21.6712 77.2034 22.1548 77.7371 22.5276C78.2952 22.9156 78.9201 23.1973 79.5804 23.3585C80.2501 23.5392 80.9399 23.6345 81.6335 23.6421C82.3192 23.6405 83.0011 23.5402 83.6583 23.3443C84.3132 23.1584 84.9351 22.8713 85.5015 22.4936C86.0455 22.1301 86.5034 21.652 86.8428 21.0927C87.1894 20.4979 87.3641 19.8186 87.3476 19.1303C87.3659 18.4131 87.1916 17.7042 86.8428 17.0772C86.5133 16.5158 86.0664 16.0321 85.5327 15.6593C84.9824 15.2753 84.3677 14.9929 83.7178 14.8256C82.3519 14.4702 80.9179 14.4702 79.552 14.8256C78.9021 14.9929 78.2875 15.2753 77.7371 15.6593C77.2034 16.0321 76.7565 16.5158 76.427 17.0772C76.0781 17.702 75.9037 18.4092 75.9222 19.1247V19.1247Z" fill="white"/>
<path d="M109.05 0H108.874C107.748 0 106.835 0.912859 106.835 2.03893V7.88631C106.835 9.01238 107.748 9.92524 108.874 9.92524H109.05C110.176 9.92524 111.089 9.01238 111.089 7.88631V2.03893C111.089 0.912859 110.176 0 109.05 0Z" fill="#FF0066"/>
<path d="M116.216 0H116.04C114.914 0 114.001 0.912859 114.001 2.03893V7.88631C114.001 9.01238 114.914 9.92524 116.04 9.92524H116.216C117.342 9.92524 118.255 9.01238 118.255 7.88631V2.03893C118.255 0.912859 117.342 0 116.216 0Z" fill="#FF0066"/>
<path d="M109.05 45.0747H108.874C107.748 45.0747 106.835 45.9876 106.835 47.1136V52.961C106.835 54.0871 107.748 54.9999 108.874 54.9999H109.05C110.176 54.9999 111.089 54.0871 111.089 52.961V47.1136C111.089 45.9876 110.176 45.0747 109.05 45.0747Z" fill="#FF0066"/>
<path d="M116.216 45.0747H116.04C114.914 45.0747 114.001 45.9876 114.001 47.1136V52.961C114.001 54.0871 114.914 54.9999 116.04 54.9999H116.216C117.342 54.9999 118.255 54.0871 118.255 52.961V47.1136C118.255 45.9876 117.342 45.0747 116.216 45.0747Z" fill="#FF0066"/>
</g>
<defs>
<clipPath id="clip0_1002_26401">
<rect width="215.227" height="55" fill="white"/>
</clipPath>
</defs>
</svg>
