<svg width="25" height="25" viewBox="0 0 25 25" fill="none" xmlns="http://www.w3.org/2000/svg">
<path fill-rule="evenodd" clip-rule="evenodd" d="M20.7275 12.9581L20.7666 12.8678L20.7953 12.7797L20.8202 12.6659L20.8319 12.557L20.8319 12.4433L20.82 12.3323L20.7953 12.22L20.7555 12.104L20.7275 12.0419L20.6686 11.9375L20.592 11.8332L15.3836 5.58316C15.0153 5.14121 14.3585 5.08149 13.9166 5.44979C13.5086 5.78976 13.4263 6.37558 13.7058 6.8113L13.7832 6.91688L17.5678 11.4583L5.20841 11.4584C4.63312 11.4584 4.16675 11.9247 4.16675 12.5C4.16675 13.0753 4.63312 13.5417 5.20841 13.5417L17.5678 13.5417L13.7832 18.0832C13.4432 18.4911 13.4679 19.0822 13.8214 19.4604L13.9166 19.5503C14.3245 19.8902 14.9156 19.8655 15.2938 19.5121L15.3836 19.4169L20.5984 13.1591C20.6488 13.0976 20.6922 13.0302 20.7275 12.9581Z" fill="white"/>
</svg>
