<svg width="67" height="67" viewBox="0 0 67 67" fill="none" xmlns="http://www.w3.org/2000/svg">
<path fill-rule="evenodd" clip-rule="evenodd" d="M30.1152 19.5733C31.3783 18.3876 32.1673 16.7027 32.1673 14.8335C32.1673 12.0177 30.3769 9.62015 27.8724 8.71708C28.1121 8.68395 28.3569 8.66683 28.6057 8.66683C31.4842 8.66683 33.8356 10.9604 33.9321 13.8157C36.2655 11.7572 39.3272 10.506 42.6761 10.506C49.9725 10.506 55.9085 16.442 55.9085 23.7384C55.9085 30.5397 50.7504 36.158 44.1411 36.8895V42.1582C46.6766 42.4294 48.658 44.5811 48.658 47.1874C48.658 49.9768 46.3888 52.246 43.5994 52.246H34.9711C34.9711 55.93 32.0185 58.6669 28.6059 58.6669C25.1978 58.6669 22.2406 55.9359 22.2406 52.246H13.6123C10.8229 52.246 8.55371 49.9768 8.55371 47.1874C8.55371 44.5811 10.5351 42.4293 13.0706 42.1581V31.4451C13.0706 27.9992 14.1752 24.7353 16.2651 22.0064C17.3617 20.5745 18.7066 19.3448 20.2155 18.3744C20.7738 19.2323 21.5293 19.9503 22.4175 20.4641C18.5903 22.6357 16.0003 26.7572 16.0003 31.4451V42.1287H41.2112V36.8894C32.8636 35.9658 27.4595 27.517 30.1152 19.5733ZM30.1152 19.5733C30.1839 19.3678 30.258 19.1626 30.3376 18.9579C27.4474 18.5618 24.7104 19.163 22.4175 20.4641C23.3735 21.017 24.4834 21.3335 25.6673 21.3335C27.3879 21.3335 28.9525 20.6649 30.1152 19.5733ZM20.2155 18.3744C19.5525 17.3557 19.1673 16.1396 19.1673 14.8335C19.1673 11.2436 22.0774 8.3335 25.6673 8.3335C26.4414 8.3335 27.1838 8.46881 27.8724 8.71708C25.2785 9.07547 23.2746 11.3071 23.2746 13.9979V16.851C22.2029 17.2439 21.176 17.7566 20.2155 18.3744ZM42.6761 13.4357C48.357 13.4357 52.9788 18.0575 52.9788 23.7384C52.9788 29.4176 48.3599 34.0382 42.6813 34.041L42.6761 34.0408L42.6708 34.041C36.9923 34.0382 32.3733 29.4175 32.3733 23.7384C32.3732 18.0725 36.9826 13.4357 42.6761 13.4357ZM28.6057 11.5965C27.2815 11.5965 26.2043 12.6738 26.2043 13.9979V16.0949C27.7909 15.8485 29.44 15.8516 31.007 16.0947V13.9979C31.007 12.6738 29.9298 11.5965 28.6057 11.5965ZM25.1701 52.2459C25.1701 54.292 26.7858 55.7371 28.6057 55.7371C30.4334 55.7371 32.0412 54.2832 32.0412 52.2459H25.1701ZM45.7281 47.1873C45.7281 48.3613 44.7731 49.3162 43.5992 49.3162H13.6122C12.4383 49.3162 11.4833 48.3613 11.4833 47.1873C11.4833 46.0134 12.4383 45.0584 13.6122 45.0584H43.5992C44.773 45.0584 45.7281 46.0135 45.7281 47.1873Z" fill="#FF0066"/>
<path d="M33.9321 13.8157L33.4324 13.8325L33.4682 14.8917L34.2629 14.1906L33.9321 13.8157ZM44.1411 36.8895L44.0861 36.3925L43.6411 36.4418V36.8895H44.1411ZM44.1411 42.1582H43.6411V42.6076L44.0879 42.6554L44.1411 42.1582ZM34.9711 52.246V51.746H34.4711V52.246H34.9711ZM22.2406 52.246H22.7406V51.746H22.2406V52.246ZM13.0706 42.1581L13.1238 42.6553L13.5706 42.6075V42.1581H13.0706ZM16.2651 22.0064L16.6621 22.3104L16.6621 22.3104L16.2651 22.0064ZM16.0003 42.1287H15.5003V42.6287H16.0003V42.1287ZM41.2112 42.1287V42.6287H41.7112V42.1287H41.2112ZM41.2112 36.8894H41.7112V36.4417L41.2662 36.3924L41.2112 36.8894ZM30.3376 18.9579L30.8036 19.1391L31.0332 18.5486L30.4055 18.4626L30.3376 18.9579ZM23.2746 16.851L23.4467 17.3205L23.7746 17.2002V16.851H23.2746ZM42.6813 34.041L42.6536 34.5403L42.6676 34.5411L42.6816 34.541L42.6813 34.041ZM42.6761 34.0408L42.7039 33.5415L42.6761 33.54L42.6483 33.5415L42.6761 34.0408ZM42.6708 34.041L42.6705 34.541L42.6846 34.5411L42.6986 34.5403L42.6708 34.041ZM32.3733 23.7384L32.8733 23.7384L32.8733 23.7384L32.3733 23.7384ZM26.2043 16.0949H25.7043V16.6785L26.281 16.5889L26.2043 16.0949ZM31.007 16.0947L30.9304 16.5888L31.507 16.6782V16.0947H31.007ZM25.1701 52.2459V51.7459H24.6701V52.2459H25.1701ZM32.0412 52.2459H32.5412V51.7459H32.0412V52.2459ZM31.6673 14.8335C31.6673 16.5589 30.9396 18.1136 29.773 19.2088L30.4574 19.9379C31.817 18.6615 32.6673 16.8464 32.6673 14.8335H31.6673ZM27.7028 9.18744C30.0153 10.0213 31.6673 12.2351 31.6673 14.8335H32.6673C32.6673 11.8004 30.7384 9.21901 28.042 8.24672L27.7028 9.18744ZM27.9408 9.21237C28.158 9.18237 28.3799 9.16683 28.6057 9.16683V8.16683C28.334 8.16683 28.0663 8.18554 27.8039 8.22179L27.9408 9.21237ZM28.6057 9.16683C31.2134 9.16683 33.345 11.2455 33.4324 13.8325L34.4318 13.7988C34.3263 10.6753 31.755 8.16683 28.6057 8.16683V9.16683ZM34.2629 14.1906C36.5089 12.2093 39.4542 11.006 42.6761 11.006V10.006C39.2003 10.006 36.0222 11.3051 33.6014 13.4407L34.2629 14.1906ZM42.6761 11.006C49.6963 11.006 55.4085 16.7182 55.4085 23.7384H56.4085C56.4085 16.1659 50.2486 10.006 42.6761 10.006V11.006ZM55.4085 23.7384C55.4085 30.2817 50.4452 35.6888 44.0861 36.3925L44.1961 37.3864C51.0556 36.6273 56.4085 30.7977 56.4085 23.7384H55.4085ZM43.6411 36.8895V42.1582H44.6411V36.8895H43.6411ZM44.0879 42.6554C46.3723 42.8997 48.158 44.8397 48.158 47.1874H49.158C49.158 44.3225 46.9808 41.9591 44.1943 41.6611L44.0879 42.6554ZM48.158 47.1874C48.158 49.7006 46.1126 51.746 43.5994 51.746V52.746C46.6649 52.746 49.158 50.2529 49.158 47.1874H48.158ZM43.5994 51.746H34.9711V52.746H43.5994V51.746ZM34.4711 52.246C34.4711 55.6457 31.7505 58.1669 28.6059 58.1669V59.1669C32.2864 59.1669 35.4711 56.2143 35.4711 52.246H34.4711ZM28.6059 58.1669C25.4652 58.1669 22.7406 55.6511 22.7406 52.246H21.7406C21.7406 56.2207 24.9303 59.1669 28.6059 59.1669V58.1669ZM22.2406 51.746H13.6123V52.746H22.2406V51.746ZM13.6123 51.746C11.0991 51.746 9.05371 49.7006 9.05371 47.1874H8.05371C8.05371 50.2529 10.5468 52.746 13.6123 52.746V51.746ZM9.05371 47.1874C9.05371 44.8397 10.8393 42.8996 13.1238 42.6553L13.0174 41.661C10.2308 41.959 8.05371 44.3225 8.05371 47.1874H9.05371ZM13.5706 42.1581V31.4451H12.5706V42.1581H13.5706ZM13.5706 31.4451C13.5706 28.1087 14.6392 24.9518 16.6621 22.3104L15.8682 21.7024C13.7112 24.5188 12.5706 27.8896 12.5706 31.4451H13.5706ZM16.6621 22.3104C17.7229 20.9253 19.0247 19.7347 20.4859 18.7949L19.945 17.9538C18.3885 18.9549 17.0005 20.2238 15.8682 21.7024L16.6621 22.3104ZM22.6679 20.0312C21.8478 19.5569 21.1501 18.8939 20.6345 18.1016L19.7964 18.6471C20.3975 19.5708 21.2107 20.3436 22.1672 20.8969L22.6679 20.0312ZM22.1708 20.0292C18.1941 22.2857 15.5003 26.5693 15.5003 31.4451H16.5003C16.5003 26.9452 18.9865 22.9858 22.6643 20.8989L22.1708 20.0292ZM15.5003 31.4451V42.1287H16.5003V31.4451H15.5003ZM16.0003 42.6287H41.2112V41.6287H16.0003V42.6287ZM41.7112 42.1287V36.8894H40.7112V42.1287H41.7112ZM41.2662 36.3924C33.2346 35.5038 28.0349 27.3728 30.5894 19.7319L29.641 19.4148C26.8841 27.6613 32.4926 36.4278 41.1562 37.3864L41.2662 36.3924ZM30.5894 19.7319C30.6556 19.534 30.7269 19.3364 30.8036 19.1391L29.8716 18.7768C29.7891 18.9889 29.7123 19.2017 29.641 19.4148L30.5894 19.7319ZM30.4055 18.4626C27.403 18.0511 24.5558 18.6759 22.1708 20.0292L22.6643 20.8989C24.865 19.6502 27.4918 19.0726 30.2697 19.4533L30.4055 18.4626ZM25.6673 20.8335C24.5737 20.8335 23.5498 20.5414 22.6679 20.0312L22.1672 20.8969C23.1972 21.4927 24.3932 21.8335 25.6673 21.8335V20.8335ZM29.773 19.2088C28.6993 20.2168 27.2558 20.8335 25.6673 20.8335V21.8335C27.5201 21.8335 29.2057 21.113 30.4574 19.9379L29.773 19.2088ZM20.6345 18.1016C20.0228 17.1616 19.6673 16.0398 19.6673 14.8335H18.6673C18.6673 16.2393 19.0822 17.5497 19.7964 18.6471L20.6345 18.1016ZM19.6673 14.8335C19.6673 11.5198 22.3536 8.8335 25.6673 8.8335V7.8335C21.8013 7.8335 18.6673 10.9675 18.6673 14.8335H19.6673ZM25.6673 8.8335C26.3827 8.8335 27.0679 8.9585 27.7028 9.18744L28.042 8.24672C27.2998 7.97912 26.5 7.8335 25.6673 7.8335V8.8335ZM23.7746 13.9979C23.7746 11.5605 25.5906 9.5371 27.9408 9.21237L27.8039 8.22179C24.9664 8.61384 22.7746 11.0536 22.7746 13.9979H23.7746ZM23.7746 16.851V13.9979H22.7746V16.851H23.7746ZM20.4859 18.7949C21.416 18.1967 22.41 17.7005 23.4467 17.3205L23.1025 16.3816C21.9958 16.7873 20.936 17.3165 19.945 17.9538L20.4859 18.7949ZM53.4788 23.7384C53.4788 17.7813 48.6332 12.9357 42.6761 12.9357V13.9357C48.0809 13.9357 52.4788 18.3336 52.4788 23.7384H53.4788ZM42.6816 34.541C48.6361 34.5381 53.4788 29.6937 53.4788 23.7384H52.4788C52.4788 29.1415 48.0836 33.5384 42.6811 33.541L42.6816 34.541ZM42.6483 34.54L42.6536 34.5403L42.7091 33.5418L42.7039 33.5415L42.6483 34.54ZM42.6986 34.5403L42.7039 34.54L42.6483 33.5415L42.643 33.5418L42.6986 34.5403ZM31.8733 23.7384C31.8733 29.6936 36.716 34.5381 42.6705 34.541L42.671 33.541C37.2686 33.5384 32.8733 29.1415 32.8733 23.7384H31.8733ZM42.6761 12.9357C36.7056 12.9357 31.8732 17.7972 31.8733 23.7384L32.8733 23.7384C32.8732 18.3478 37.2596 13.9357 42.6761 13.9357V12.9357ZM26.7043 13.9979C26.7043 12.9499 27.5577 12.0965 28.6057 12.0965V11.0965C27.0054 11.0965 25.7043 12.3976 25.7043 13.9979H26.7043ZM26.7043 16.0949V13.9979H25.7043V16.0949H26.7043ZM31.0837 15.6006C29.4662 15.3497 27.7654 15.3464 26.1276 15.6008L26.281 16.5889C27.8165 16.3505 29.4139 16.3535 30.9304 16.5888L31.0837 15.6006ZM30.507 13.9979V16.0947H31.507V13.9979H30.507ZM28.6057 12.0965C29.6536 12.0965 30.507 12.9499 30.507 13.9979H31.507C31.507 12.3976 30.2059 11.0965 28.6057 11.0965V12.0965ZM28.6057 55.2371C27.0511 55.2371 25.6701 54.0051 25.6701 52.2459H24.6701C24.6701 54.579 26.5206 56.2371 28.6057 56.2371V55.2371ZM31.5412 52.2459C31.5412 53.9979 30.1666 55.2371 28.6057 55.2371V56.2371C30.7002 56.2371 32.5412 54.5686 32.5412 52.2459H31.5412ZM25.1701 52.7459H32.0412V51.7459H25.1701V52.7459ZM43.5992 49.8162C45.0493 49.8162 46.2281 48.6374 46.2281 47.1873H45.2281C45.2281 48.0851 44.497 48.8162 43.5992 48.8162V49.8162ZM13.6122 49.8162H43.5992V48.8162H13.6122V49.8162ZM10.9833 47.1873C10.9833 48.6374 12.1621 49.8162 13.6122 49.8162V48.8162C12.7144 48.8162 11.9833 48.0851 11.9833 47.1873H10.9833ZM13.6122 44.5584C12.1621 44.5584 10.9833 45.7373 10.9833 47.1873H11.9833C11.9833 46.2896 12.7144 45.5584 13.6122 45.5584V44.5584ZM43.5992 44.5584H13.6122V45.5584H43.5992V44.5584ZM46.2281 47.1873C46.2281 45.7374 45.0492 44.5584 43.5992 44.5584V45.5584C44.4969 45.5584 45.2281 46.2897 45.2281 47.1873H46.2281Z" fill="#FF0066"/>
<path d="M40.2381 29.6567C41.1831 30.538 42.6454 30.551 43.6056 29.6852L51.0107 23.0084C52.0324 22.0871 52.1139 20.5119 51.1927 19.4901C50.2712 18.4682 48.6963 18.3867 47.6743 19.308L41.9661 24.4549L39.3574 22.0214C38.3512 21.0829 36.775 21.1375 35.8365 22.1436C34.8982 23.1497 34.9528 24.7259 35.9587 25.6644L40.2381 29.6567Z" fill="white"/>
</svg>
