<svg width="200" height="59" viewBox="0 0 200 59" fill="none" xmlns="http://www.w3.org/2000/svg">
<g clip-path="url(#clip0_2411_10978)">
<g clip-path="url(#clip1_2411_10978)">
<path d="M198.191 29.848C197.461 28.6347 196.552 27.5388 195.494 26.5975C196.089 26.3219 196.63 25.9428 197.092 25.478L197.318 25.2516L197.509 25C198.301 23.8841 198.728 22.5514 198.735 21.1835V21.0627V20.9596C198.621 18.4865 197.675 16.0562 195.924 13.7367L195.897 13.7014L195.869 13.6662C194.837 12.3483 193.616 11.1895 192.246 10.2271C190.944 9.3094 189.538 8.54934 188.057 7.96286C186.595 7.38865 185.078 6.96711 183.529 6.70495C182.067 6.45385 180.587 6.32592 179.104 6.32254C177.008 6.32694 174.92 6.57003 172.879 7.0471C170.954 7.48681 169.106 8.21184 167.395 9.19813C166.356 7.7138 164.628 6.79803 162.552 6.79803H137.258C135.96 6.79701 134.677 7.0759 133.497 7.61567C132.642 7.17428 131.692 6.94803 130.729 6.95653H126.518C124.163 6.94339 121.894 7.84539 120.191 9.47235C120.022 9.63084 119.864 9.79689 119.71 9.97551C119.627 9.91513 119.549 9.85224 119.459 9.79438C117.788 8.68847 115.927 7.90276 113.969 7.47731V6.87854C113.967 5.19905 113.299 3.58892 112.111 2.40134C110.924 1.21376 109.314 0.54571 107.634 0.543712H107.476C106.39 0.541683 105.322 0.82076 104.376 1.3538C103.43 0.826065 102.365 0.550558 101.282 0.55377H101.126C99.4569 0.555645 97.856 1.21498 96.6698 2.38893C95.4836 3.56288 94.8077 5.15691 94.7885 6.8257H94.7029C93.7185 6.83549 92.7416 6.99847 91.8072 7.30875C90.6929 7.6707 89.6604 8.24764 88.7681 9.00693L88.587 9.16543C86.8215 8.16174 84.9033 7.45462 82.9088 7.07226C80.9492 6.6841 78.9565 6.48778 76.9589 6.48607C71.2027 6.48607 66.6566 7.80184 63.4464 10.3956L63.4162 10.4208L63.386 10.446C63.1596 10.6347 62.9432 10.8284 62.7319 11.0246C62.0449 10.3974 61.2984 9.83878 60.5029 9.35661C58.646 8.25097 56.6103 7.47792 54.4876 7.07226C52.528 6.68423 50.5353 6.48791 48.5377 6.48607C42.7815 6.48607 38.2228 7.80184 35.0252 10.3956L34.9925 10.4208L34.9623 10.446C34.7342 10.6405 34.5128 10.8368 34.2981 11.0347C33.6083 10.4036 32.8584 9.84154 32.0591 9.35661C30.2068 8.25259 28.1764 7.4796 26.0588 7.07226C24.0993 6.68423 22.1066 6.48791 20.1089 6.48607C14.3502 6.48607 9.79407 7.80184 6.59395 10.3956L6.56376 10.4208L6.53357 10.446C4.88335 11.7872 3.55741 13.484 2.65478 15.4095C1.75216 17.335 1.29615 19.4395 1.3208 21.5659C1.3208 24.1622 1.91956 26.4793 3.08187 28.4441C2.63334 29.015 2.2272 29.6178 1.86673 30.248C0.64471 32.3589 0.00163478 34.755 0.00250332 37.1942C0.00250332 40.1528 0.694354 42.7667 2.05541 44.9655C3.32253 47.0161 5.04407 48.748 7.08705 50.0273C9.07589 51.2667 11.2669 52.1471 13.5603 52.6287C15.7143 53.0972 17.9121 53.335 20.1165 53.3382C22.2838 53.3333 24.4444 53.098 26.562 52.6362C28.822 52.1616 30.9885 51.3185 32.9748 50.1406C33.4479 49.8582 33.9056 49.5508 34.3459 49.2198C34.7208 49.5066 35.1133 49.7783 35.5183 50.0349C37.5047 51.2736 39.6932 52.154 41.984 52.6362C44.138 53.1047 46.3358 53.3425 48.5402 53.3457C50.7094 53.3385 52.8718 53.1007 54.9907 52.6362C57.2505 52.1607 59.4169 51.3176 61.4036 50.1406C61.8716 49.8607 62.3243 49.5558 62.7596 49.2273C63.1353 49.5108 63.5236 49.7799 63.9244 50.0349C65.9126 51.2737 68.1027 52.1542 70.3951 52.6362C72.5492 53.1046 74.7469 53.3424 76.9513 53.3457C79.1206 53.3387 81.2829 53.1008 83.4019 52.6362C84.853 52.3249 86.269 51.8681 87.6284 51.2727C88.6819 52.1845 90.029 52.6857 91.4223 52.684H94.8111C94.9659 54.25 95.6969 55.7025 96.8624 56.7597C98.0279 57.8169 99.5447 58.4033 101.118 58.405H101.282C102.368 58.4064 103.437 58.1274 104.384 57.5949C105.33 58.128 106.398 58.407 107.483 58.405H107.642C109.322 58.403 110.932 57.7346 112.12 56.5465C113.308 55.3584 113.975 53.7476 113.977 52.0677V52.045L114.404 51.9444C115.819 51.5988 117.185 51.0764 118.47 50.3896C118.657 50.659 118.868 50.9115 119.099 51.1444C119.645 51.6877 120.293 52.1173 121.006 52.4084C121.719 52.6995 122.482 52.8462 123.252 52.84H130.75C131.55 52.8552 132.345 52.7012 133.082 52.3882C133.819 52.0752 134.481 51.6102 135.026 51.0236C136.047 49.9328 136.612 48.4924 136.604 46.9983V24.4364H138.767V46.8272C138.761 47.652 138.933 48.4684 139.272 49.2202C139.611 49.972 140.11 50.6414 140.732 51.1821C141.816 52.1464 143.217 52.6775 144.667 52.674H151.963C153.474 52.6996 154.937 52.1429 156.049 51.1192C156.632 50.5686 157.094 49.9027 157.407 49.1639C157.719 48.425 157.874 47.6293 157.863 46.8272V24.4364H160.029C160.237 26.0621 160.749 27.6341 161.538 29.0706C162.24 30.3409 163.13 31.4979 164.177 32.5021C163.029 32.5903 161.931 33.0108 161.017 33.7123L160.766 33.9035L160.542 34.1274C160.017 34.6518 159.601 35.2751 159.319 35.9613C159.036 36.6475 158.893 37.383 158.897 38.125V38.208C158.949 41.0484 159.903 43.6975 161.77 46.0876C162.87 47.5771 164.245 48.8426 165.82 49.816C167.225 50.6852 168.725 51.3909 170.291 51.9192C171.848 52.4439 173.456 52.8048 175.088 52.996C176.544 53.1716 178.009 53.2615 179.476 53.2652C181.657 53.2571 183.83 53.0201 185.962 52.5583C188.246 52.085 190.441 51.2537 192.465 50.0953C194.603 48.8605 196.422 47.1414 197.776 45.0762C199.253 42.8346 200.003 40.1578 200.003 37.1212C200.003 34.2909 199.399 31.843 198.191 29.848Z" fill="white"/>
<path d="M34.4944 32.4493C33.6933 30.9981 32.4927 29.8072 31.0351 29.0177C30.9897 28.9925 30.9514 28.9562 30.9237 28.9122C30.896 28.8683 30.8798 28.818 30.8766 28.7662C30.8715 28.7245 30.8788 28.6822 30.8976 28.6446C30.9164 28.607 30.9459 28.5758 30.9823 28.5548C33.1274 26.8659 34.2009 24.5253 34.2025 21.5332C34.2025 19.5205 33.7891 17.8433 32.9622 16.5016C32.1596 15.1711 31.0448 14.0562 29.7143 13.2536C28.3169 12.4211 26.7841 11.8403 25.1858 11.5378C23.5174 11.2048 21.8203 11.0363 20.119 11.0347C15.4027 11.0347 11.847 12.0024 9.45192 13.9379C7.06021 15.9506 5.86353 18.5025 5.86185 21.5936C5.86185 24.6562 6.98809 26.9791 9.24059 28.5624C9.45192 28.7301 9.43431 28.8886 9.18776 29.0379C7.77822 29.8865 6.61381 31.0873 5.80902 32.5223C4.98154 33.95 4.54748 35.5716 4.55111 37.2218C4.55111 39.3351 5.00899 41.1306 5.92474 42.6082C6.82782 44.0731 8.05629 45.3102 9.51481 46.2234C11.0557 47.1839 12.7539 47.8652 14.5314 48.2361C16.3702 48.6379 18.2468 48.8412 20.1291 48.8424C21.9753 48.837 23.8157 48.6338 25.6186 48.2361C27.3959 47.8657 29.1 47.2053 30.6628 46.2813C32.1399 45.3868 33.3881 44.1601 34.3082 42.6988C35.2592 41.2195 35.7347 39.4064 35.7347 37.2596C35.7455 35.5757 35.3181 33.918 34.4944 32.4493V32.4493ZM15.4924 20.2275C15.7847 19.7294 16.1812 19.3003 16.6547 18.9696C17.143 18.6289 17.6883 18.3784 18.2648 18.2299C19.4766 17.9146 20.7488 17.9146 21.9606 18.2299C22.5371 18.3784 23.0824 18.6289 23.5707 18.9696C24.0442 19.3003 24.4407 19.7294 24.733 20.2275C25.0435 20.7833 25.1982 21.4125 25.1808 22.0489C25.1971 22.6597 25.042 23.2628 24.733 23.7899C24.4313 24.2848 24.0262 24.7088 23.5455 25.0327C23.0422 25.3679 22.4896 25.6225 21.9077 25.7874C21.3249 25.9568 20.7208 26.0415 20.114 26.039C19.4978 26.0324 18.8849 25.9478 18.29 25.7874C17.7047 25.6429 17.1506 25.3931 16.6547 25.0503C16.1812 24.7196 15.7847 24.2905 15.4924 23.7924C15.1875 23.2563 15.0328 22.6479 15.0446 22.0313C15.0304 21.4009 15.185 20.7781 15.4924 20.2275V20.2275ZM25.3041 39.2873C24.98 39.8568 24.5393 40.3514 24.011 40.739C23.4615 41.137 22.8444 41.4319 22.1895 41.6094C20.8263 41.9986 19.3815 41.9986 18.0183 41.6094C17.356 41.4289 16.7302 41.1344 16.1692 40.739C15.6281 40.3574 15.1772 39.8619 14.8484 39.2873C14.5194 38.6557 14.3476 37.9541 14.3476 37.242C14.3476 36.5298 14.5194 35.8282 14.8484 35.1966C15.1829 34.6331 15.633 34.1469 16.1692 33.7701C16.728 33.3766 17.355 33.09 18.0183 32.9248C18.7001 32.7534 19.4009 32.6689 20.1039 32.6732C20.7978 32.668 21.4896 32.7526 22.1618 32.9248C22.8152 33.0938 23.4324 33.3802 23.9833 33.7701C24.5244 34.1516 24.9752 34.6472 25.3041 35.2218C25.6329 35.8489 25.8047 36.5464 25.8047 37.2545C25.8047 37.9626 25.6329 38.6602 25.3041 39.2873V39.2873Z" fill="#FFCC33"/>
<path d="M121.924 46.9958V16.1065C121.905 15.4904 122.018 14.8773 122.255 14.3081C122.492 13.739 122.847 13.2269 123.298 12.8058C124.158 11.9659 125.316 11.5009 126.518 11.5127H130.742C130.918 11.4996 131.095 11.526 131.259 11.59C131.424 11.654 131.572 11.7539 131.693 11.8825C131.816 12.0078 131.912 12.1567 131.975 12.3201C132.039 12.4836 132.069 12.6582 132.063 12.8335V46.9958C132.069 47.1707 132.039 47.345 131.976 47.5081C131.912 47.6712 131.816 47.8196 131.693 47.9442C131.572 48.0728 131.424 48.1728 131.259 48.2367C131.095 48.3007 130.918 48.3271 130.742 48.3141H123.245C123.069 48.3231 122.894 48.2952 122.73 48.2321C122.565 48.1691 122.416 48.0723 122.292 47.9481C122.167 47.8239 122.07 47.675 122.007 47.5109C121.944 47.3469 121.915 47.1714 121.924 46.9958Z" fill="#FF0066"/>
<path d="M162.555 11.3542C163.47 11.3542 163.928 11.812 163.928 12.7278V18.5897C163.941 18.7653 163.914 18.9414 163.85 19.1054C163.786 19.2694 163.686 19.4172 163.558 19.5381C163.425 19.6649 163.266 19.7631 163.093 19.8267C162.92 19.8903 162.736 19.9179 162.552 19.9079H150.358C151.129 19.9064 151.869 20.2103 152.416 20.7533C152.692 20.9885 152.915 21.2798 153.069 21.6077C153.224 21.9356 153.308 22.2927 153.314 22.6552V46.8373C153.326 47.017 153.299 47.1971 153.235 47.3655C153.171 47.5339 153.072 47.6867 152.944 47.8134C152.666 48.054 152.305 48.1767 151.938 48.1556H144.642C144.291 48.1555 143.952 48.0235 143.693 47.7857C143.556 47.6698 143.446 47.5243 143.373 47.36C143.3 47.1957 143.265 47.017 143.271 46.8373V21.5457C143.28 21.3229 143.239 21.1009 143.152 20.8956C143.065 20.6902 142.934 20.5068 142.768 20.3583C142.477 20.0764 142.09 19.9154 141.686 19.9079H134.043C133.859 19.9179 133.675 19.8903 133.502 19.8267C133.328 19.7631 133.17 19.6649 133.036 19.5381C132.908 19.4176 132.808 19.2698 132.744 19.1057C132.68 18.9416 132.654 18.7653 132.667 18.5897V15.8952C132.642 15.2734 132.758 14.654 133.005 14.0828C133.252 13.5116 133.624 13.003 134.093 12.5945C134.958 11.8025 136.086 11.3604 137.258 11.3542H162.555Z" fill="#FF0066"/>
<path d="M195.474 37.1212C195.474 39.2697 194.981 41.0911 193.995 42.5855C193.028 44.0645 191.725 45.2944 190.193 46.1756C188.583 47.0972 186.836 47.757 185.018 48.1304C183.2 48.5247 181.345 48.7279 179.484 48.7367C178.195 48.7338 176.908 48.6548 175.629 48.5002C174.308 48.3452 173.007 48.0526 171.747 47.6273C170.506 47.2132 169.316 46.6569 168.203 45.9693C167.1 45.2893 166.141 44.4015 165.377 43.3554C164.111 41.7369 163.46 39.9951 163.425 38.13C163.421 37.9833 163.447 37.8373 163.501 37.7009C163.556 37.5646 163.638 37.441 163.742 37.3375C163.98 37.1415 164.277 37.0301 164.585 37.0206H171.556C171.928 37.0032 172.3 37.0756 172.638 37.2319C172.957 37.4217 173.235 37.6731 173.456 37.9715C174.003 39.0218 174.913 39.8379 176.017 40.2685C177.123 40.6789 178.296 40.8844 179.476 40.8748C180.076 40.8701 180.675 40.8264 181.27 40.744C181.92 40.6606 182.559 40.501 183.172 40.2685C183.746 40.0555 184.267 39.7218 184.701 39.2898C184.917 39.0669 185.085 38.802 185.194 38.5116C185.303 38.2212 185.351 37.9115 185.335 37.6017C185.357 37.1936 185.266 36.7873 185.07 36.4283C184.875 36.0693 184.583 35.7718 184.228 35.5689C183.528 35.1472 182.784 34.8022 182.009 34.54C181.446 34.3722 180.751 34.1785 179.924 33.9588C179.097 33.7391 178.138 33.5102 177.046 33.272C175.457 32.9627 173.888 32.5569 172.349 32.0568C170.906 31.5982 169.543 30.9193 168.308 30.0442C167.132 29.2043 166.159 28.1128 165.458 26.8491C164.737 25.5644 164.376 23.971 164.376 22.069C164.376 20.0564 164.825 18.3398 165.722 16.9192C166.6 15.5142 167.781 14.3236 169.179 13.4348C170.632 12.519 172.23 11.8587 173.906 11.4825C175.61 11.0813 177.355 10.8771 179.106 10.8737C180.336 10.8765 181.563 10.9825 182.774 11.1907C184.012 11.3994 185.224 11.7366 186.392 12.197C187.54 12.6473 188.63 13.2326 189.64 13.9404C190.648 14.6497 191.547 15.5033 192.307 16.4739C193.503 18.0588 194.136 19.6254 194.206 21.1734C194.2 21.5607 194.09 21.9394 193.889 22.2703C193.786 22.3745 193.662 22.4564 193.526 22.5109C193.389 22.5654 193.243 22.5914 193.097 22.5873H185.758C184.983 22.5873 184.387 22.0187 183.964 21.3848C183.835 20.9117 183.579 20.4829 183.225 20.1444C182.865 19.8046 182.444 19.5358 181.984 19.352C181.516 19.1604 181.028 19.0187 180.53 18.9293C180.06 18.8429 179.584 18.7983 179.106 18.796C178.568 18.7979 178.03 18.8332 177.496 18.9016C176.98 18.9644 176.48 19.1168 176.017 19.352C175.579 19.5792 175.199 19.9046 174.907 20.3029C174.593 20.7596 174.435 21.3063 174.459 21.8602C174.459 22.8817 174.988 23.6909 176.044 24.288C177.098 24.8515 179.051 25.4327 181.904 26.0315C183.585 26.3116 185.25 26.6811 186.893 27.1384C188.431 27.553 189.9 28.194 191.25 29.0404C192.502 29.8344 193.55 30.9106 194.312 32.1826C195.087 33.4707 195.474 35.1169 195.474 37.1212Z" fill="#FF0066"/>
<path d="M62.9281 32.4493C62.127 30.9981 60.9265 29.8072 59.4689 29.0177C59.4235 28.9925 59.3851 28.9562 59.3574 28.9122C59.3297 28.8683 59.3136 28.818 59.3104 28.7662C59.3053 28.7245 59.3126 28.6822 59.3314 28.6446C59.3502 28.607 59.3796 28.5758 59.4161 28.5548C61.5646 26.8659 62.638 24.5253 62.6363 21.5332C62.6363 19.5205 62.2229 17.8433 61.396 16.5016C60.5941 15.1713 59.4802 14.0566 58.1506 13.2536C56.753 12.4215 55.2203 11.8407 53.6221 11.5378C51.9528 11.2048 50.2549 11.0363 48.5527 11.0347C43.8364 11.0347 40.2816 12.0024 37.8882 13.9379C35.4931 15.9506 34.2956 18.5025 34.2956 21.5936C34.2956 24.6562 35.4227 26.9791 37.6769 28.5624C37.8882 28.7385 37.8681 28.897 37.624 29.0379C36.2132 29.8857 35.0478 31.0866 34.2428 32.5223C33.4163 33.9504 32.9823 35.5718 32.9849 37.2218C32.9849 39.3351 33.4419 41.1306 34.356 42.6082C35.2591 44.0731 36.4875 45.3102 37.9461 46.2234C39.4872 47.1835 41.1853 47.8647 42.9626 48.2361C44.8015 48.6378 46.6781 48.8411 48.5603 48.8424C50.4074 48.837 52.2486 48.6338 54.0523 48.2361C55.8252 47.8642 57.525 47.2038 59.084 46.2813C60.5665 45.3894 61.8194 44.1624 62.742 42.6988C63.6929 41.2195 64.1684 39.4064 64.1684 37.2596C64.1793 35.5757 63.7518 33.918 62.9281 32.4493V32.4493ZM43.9211 20.2275C44.2118 19.7289 44.6075 19.2996 45.0809 18.9696C45.5692 18.6289 46.1145 18.3784 46.691 18.2299C47.9028 17.9146 49.175 17.9146 50.3868 18.2299C50.9641 18.3783 51.5103 18.6288 51.9994 18.9696C52.4717 19.3009 52.8672 19.7299 53.1592 20.2275C53.4705 20.783 53.6261 21.4123 53.6095 22.0489C53.6251 22.6599 53.469 23.263 53.1592 23.7899C52.8583 24.2855 52.4531 24.7096 51.9717 25.0327C51.4684 25.3679 50.9158 25.6225 50.3339 25.7874C49.7512 25.957 49.1471 26.0417 48.5402 26.039C47.9248 26.0325 47.3128 25.948 46.7187 25.7874C46.1325 25.6434 45.5775 25.3936 45.0809 25.0503C44.6075 24.7202 44.2118 24.291 43.9211 23.7924C43.6143 23.257 43.4586 22.6483 43.4708 22.0313C43.4566 21.4006 43.6122 20.7776 43.9211 20.2275V20.2275ZM53.7328 39.2873C53.4087 39.8568 52.9681 40.3514 52.4397 40.739C51.8905 41.1374 51.2733 41.4324 50.6182 41.6094C49.2551 41.9986 47.8102 41.9986 46.447 41.6094C45.7847 41.4289 45.159 41.1344 44.5979 40.739C44.057 40.358 43.6069 39.8623 43.2796 39.2873C42.9343 38.6664 42.7607 37.9648 42.7764 37.2545C42.7541 36.5356 42.9281 35.8241 43.2796 35.1966C43.6125 34.6327 44.0619 34.1463 44.5979 33.7701C45.1568 33.3766 45.7837 33.09 46.447 32.9248C47.1289 32.7536 47.8296 32.6691 48.5326 32.6732C49.2266 32.668 49.9183 32.7526 50.5906 32.9248C51.244 33.0938 51.8612 33.3802 52.412 33.7701C52.9531 34.1516 53.404 34.6472 53.7328 35.2218C54.0633 35.8484 54.236 36.5461 54.236 37.2545C54.236 37.963 54.0633 38.6607 53.7328 39.2873V39.2873Z" fill="#FF0033"/>
<path d="M120.276 32.1852C119.443 30.7092 118.13 29.563 116.555 28.9372C117.844 28.2441 118.927 27.2248 119.698 25.9811C120.455 24.7421 120.848 23.3148 120.832 21.8628C120.832 19.8501 120.48 18.1729 119.776 16.8311C119.114 15.5266 118.133 14.4103 116.925 13.5857C115.66 12.748 114.243 12.1651 112.754 11.8699C111.662 11.6425 110.554 11.4936 109.441 11.4246V6.89616C109.439 6.41749 109.249 5.9588 108.91 5.62033C108.572 5.28186 108.113 5.09113 107.634 5.0898H107.476C106.997 5.09112 106.538 5.28177 106.199 5.62017C105.86 5.95857 105.669 6.41726 105.667 6.89616V11.3617H103.083V6.8886C103.082 6.4095 102.891 5.95044 102.552 5.6119C102.213 5.27335 101.753 5.08291 101.274 5.08224H101.118C100.639 5.08357 100.18 5.27423 99.8416 5.61263C99.5027 5.95103 99.3114 6.4097 99.3094 6.8886V11.3542H94.6954C94.1815 11.363 93.6722 11.4521 93.1859 11.6184C92.6318 11.7976 92.1188 12.0849 91.6764 12.4637C91.2095 12.8613 90.8242 13.3457 90.5418 13.8901C90.2249 14.5287 90.0703 15.2355 90.0915 15.9481V46.8373C90.1004 47.1845 90.2425 47.515 90.4883 47.7604C90.7342 48.0058 91.065 48.1473 91.4123 48.1556H99.2993V52.0677C99.3007 52.547 99.4917 53.0063 99.8306 53.3453C100.17 53.6842 100.629 53.8752 101.108 53.8765H101.282C101.761 53.8759 102.221 53.6851 102.56 53.346C102.899 53.0069 103.09 52.5472 103.091 52.0677V48.1556H105.674V52.0677C105.676 52.547 105.867 53.0063 106.206 53.3453C106.545 53.6842 107.004 53.8752 107.483 53.8765H107.642C108.121 53.8752 108.58 53.6841 108.919 53.3451C109.257 53.0061 109.447 52.5468 109.448 52.0677V48.1203C110.752 48.0504 112.047 47.8593 113.315 47.5493C114.864 47.1847 116.326 46.5206 117.62 45.5945C118.856 44.6911 119.86 43.5062 120.548 42.1377C121.271 40.7289 121.632 39.0039 121.632 36.9627C121.621 35.2768 121.153 33.6255 120.276 32.1852V32.1852ZM106.565 18.4312C107.603 18.3901 108.623 18.7171 109.443 19.3545C110.2 19.97 110.578 20.8925 110.578 22.1219C110.578 23.3513 110.209 24.293 109.471 24.9472C108.731 25.5962 107.763 25.9216 106.565 25.9233H101.561C101.339 25.9334 101.118 25.8907 100.916 25.7989C100.714 25.7071 100.537 25.5686 100.399 25.395C100.147 25.1177 99.9978 24.7625 99.9761 24.3886V21.2288C99.9707 20.8674 99.8931 20.5108 99.748 20.1799C99.6028 19.8489 99.393 19.5504 99.1308 19.3017C98.8671 19.0215 98.5479 18.7994 98.1936 18.6495C97.8392 18.4996 97.4575 18.4252 97.0729 18.4312H106.565ZM110.13 39.9716C109.337 40.676 108.307 41.0283 107.041 41.0283H101.561C101.335 41.0437 101.108 41.0037 100.901 40.9116C100.693 40.8195 100.511 40.6782 100.371 40.4999C100.127 40.2006 99.9883 39.8293 99.9761 39.4433V35.5891C99.9704 35.2278 99.8927 34.8713 99.7476 34.5404C99.6024 34.2095 99.3928 33.9108 99.1308 33.6619C98.8671 33.3818 98.5479 33.1597 98.1936 33.0098C97.8392 32.8599 97.4575 32.7855 97.0729 32.7915H107.051C108.18 32.754 109.28 33.1614 110.112 33.9261C110.922 34.6825 111.327 35.6947 111.327 36.9627C111.327 38.2709 110.932 39.2739 110.14 39.9716H110.13Z" fill="#FF0066"/>
<path d="M91.3393 32.4493C90.5384 30.9988 89.3389 29.808 87.8825 29.0177C87.8371 28.9925 87.7988 28.9562 87.7711 28.9122C87.7434 28.8683 87.7272 28.818 87.724 28.7662C87.719 28.7245 87.7263 28.6822 87.7451 28.6446C87.7638 28.607 87.7933 28.5758 87.8297 28.5548C89.9749 26.8659 91.0483 24.5253 91.05 21.5332C91.05 19.5205 90.6365 17.8433 89.8097 16.5016C89.0071 15.1711 87.8922 14.0562 86.5617 13.2536C85.1643 12.4211 83.6315 11.8403 82.0333 11.5378C80.364 11.2047 78.6661 11.0362 76.9639 11.0347C72.2476 11.0347 68.6927 12.0024 66.2993 13.9379C63.9043 15.9506 62.7076 18.5025 62.7093 21.5936C62.7093 24.6562 63.8355 26.9791 66.088 28.5624C66.2993 28.7301 66.2817 28.8886 66.0352 29.0379C64.6251 29.8857 63.4605 31.0867 62.6564 32.5223C61.829 33.95 61.3949 35.5716 61.3985 37.2218C61.3985 39.3351 61.8564 41.1306 62.7722 42.6082C63.6738 44.0742 64.9026 45.3116 66.3622 46.2234C67.9032 47.1839 69.6013 47.8652 71.3788 48.2361C73.2168 48.6378 75.0926 48.8411 76.974 48.8424C78.821 48.8372 80.6623 48.6339 82.466 48.2361C84.2389 47.8642 85.9387 47.2038 87.4976 46.2813C88.9797 45.3888 90.2324 44.1619 91.1556 42.6988C92.1066 41.2195 92.5813 39.4064 92.5796 37.2596C92.5916 35.5756 92.1641 33.9176 91.3393 32.4493ZM72.3323 20.2275C72.6246 19.7294 73.0211 19.3003 73.4946 18.9696C73.9828 18.6289 74.5281 18.3784 75.1047 18.2299C76.3165 17.9146 77.5887 17.9146 78.8004 18.2299C79.377 18.3784 79.9223 18.6289 80.4106 18.9696C80.8841 19.3003 81.2805 19.7294 81.5729 20.2275C81.8823 20.7837 82.0369 21.4127 82.0207 22.0489C82.0354 22.6595 81.8803 23.2622 81.5729 23.7899C81.2711 24.2856 80.865 24.7097 80.3829 25.0327C79.8804 25.3678 79.3287 25.6225 78.7476 25.7874C78.164 25.957 77.559 26.0417 76.9513 26.039C76.336 26.0323 75.724 25.9478 75.1299 25.7874C74.5444 25.6434 73.9902 25.3936 73.4946 25.0503C73.0211 24.7196 72.6246 24.2905 72.3323 23.7924C72.0274 23.2563 71.8727 22.6479 71.8845 22.0313C71.8703 21.4009 72.0249 20.7781 72.3323 20.2275ZM82.144 39.2873C81.8181 39.8563 81.3768 40.3508 80.8483 40.739C80.2994 41.1379 79.6821 41.4329 79.0269 41.6094C77.6637 41.9986 76.2188 41.9986 74.8556 41.6094C74.1943 41.4284 73.5695 41.1339 73.009 40.739C72.4679 40.3574 72.0171 39.8619 71.6882 39.2873C71.3593 38.6557 71.1875 37.9541 71.1875 37.242C71.1875 36.5298 71.3593 35.8282 71.6882 35.1966C72.0227 34.6331 72.4729 34.1469 73.009 33.7701C73.5673 33.3772 74.1934 33.0906 74.8556 32.9248C75.5375 32.7536 76.2382 32.6691 76.9413 32.6732C77.6361 32.6678 78.3286 32.7524 79.0017 32.9248C79.6549 33.0943 80.272 33.3807 80.8232 33.7701C81.3635 34.1524 81.8142 34.6478 82.144 35.2218C82.4728 35.8489 82.6446 36.5464 82.6446 37.2545C82.6446 37.9626 82.4728 38.6602 82.144 39.2873Z" fill="#4DCA49"/>
</g>
</g>
<defs>
<clipPath id="clip0_2411_10978">
<rect width="200" height="57.8512" fill="white" transform="translate(0 0.553772)"/>
</clipPath>
<clipPath id="clip1_2411_10978">
<rect width="200" height="57.8512" fill="white" transform="translate(0 0.553772)"/>
</clipPath>
</defs>
</svg>
