<svg width="200" height="58" viewBox="0 0 200 58" fill="none" xmlns="http://www.w3.org/2000/svg">
<g clip-path="url(#clip0_2411_10989)">
<path d="M198.191 29.2942C197.461 28.0809 196.552 26.985 195.494 26.0437C196.089 25.7681 196.63 25.389 197.092 24.9242L197.318 24.6978L197.509 24.4462C198.301 23.3304 198.728 21.9976 198.735 20.6297V20.5089V20.4058C198.621 17.9328 197.675 15.5025 195.924 13.1829L195.897 13.1477L195.869 13.1124C194.837 11.7945 193.616 10.6358 192.246 9.67331C190.944 8.75562 189.538 7.99556 188.057 7.40908C186.595 6.83487 185.078 6.41333 183.529 6.15117C182.067 5.90007 180.587 5.77214 179.104 5.76876C177.008 5.77316 174.92 6.01625 172.879 6.49332C170.954 6.93303 169.106 7.65806 167.395 8.64435C166.356 7.16002 164.628 6.24425 162.552 6.24425H137.258C135.96 6.24323 134.677 6.52212 133.497 7.06189C132.642 6.6205 131.692 6.39425 130.729 6.40275H126.518C124.163 6.38961 121.894 7.29161 120.191 8.91857C120.022 9.07706 119.864 9.24311 119.71 9.42173C119.627 9.36135 119.549 9.29846 119.459 9.2406C117.788 8.13469 115.927 7.34898 113.969 6.92353V6.32476C113.967 4.64527 113.299 3.03514 112.111 1.84756C110.924 0.659981 109.314 -0.00807003 107.634 -0.0100674H107.476C106.39 -0.0120964 105.322 0.266981 104.376 0.800019C103.43 0.272285 102.365 -0.00322209 101.282 -9.70159e-06H101.126C99.4569 0.00186518 97.856 0.6612 96.6698 1.83515C95.4836 3.0091 94.8077 4.60313 94.7885 6.27192H94.7029C93.7185 6.28171 92.7416 6.44469 91.8072 6.75497C90.6929 7.11692 89.6604 7.69386 88.7681 8.45315L88.587 8.61165C86.8215 7.60796 84.9033 6.90084 82.9088 6.51848C80.9492 6.13033 78.9565 5.934 76.9589 5.93229C71.2027 5.93229 66.6566 7.24806 63.4464 9.84187L63.4162 9.86704L63.386 9.89219C63.1596 10.0809 62.9432 10.2746 62.7319 10.4708C62.0449 9.84364 61.2984 9.285 60.5029 8.80284C58.646 7.69719 56.6103 6.92414 54.4876 6.51848C52.528 6.13045 50.5353 5.93413 48.5377 5.93229C42.7815 5.93229 38.2228 7.24806 35.0252 9.84187L34.9925 9.86704L34.9623 9.89219C34.7342 10.0867 34.5128 10.283 34.2981 10.4809C33.6083 9.84981 32.8584 9.28776 32.0591 8.80284C30.2068 7.69882 28.1764 6.92582 26.0588 6.51848C24.0993 6.13045 22.1066 5.93413 20.1089 5.93229C14.3502 5.93229 9.79407 7.24806 6.59395 9.84187L6.56376 9.86704L6.53357 9.89219C4.88335 11.2335 3.55741 12.9302 2.65478 14.8557C1.75216 16.7812 1.29615 18.8857 1.3208 21.0121C1.3208 23.6084 1.91956 25.9255 3.08187 27.8904C2.63334 28.4612 2.2272 29.0641 1.86673 29.6942C0.64471 31.8051 0.00163478 34.2012 0.00250332 36.6404C0.00250332 39.599 0.694354 42.2129 2.05541 44.4117C3.32253 46.4623 5.04407 48.1942 7.08705 49.4736C9.07589 50.7129 11.2669 51.5934 13.5603 52.0749C15.7143 52.5434 17.9121 52.7812 20.1165 52.7844C22.2838 52.7795 24.4444 52.5442 26.562 52.0825C28.822 51.6078 30.9885 50.7647 32.9748 49.5868C33.4479 49.3044 33.9056 48.997 34.3459 48.666C34.7208 48.9528 35.1133 49.2245 35.5183 49.4811C37.5047 50.7198 39.6932 51.6003 41.984 52.0825C44.138 52.5509 46.3358 52.7888 48.5402 52.7919C50.7094 52.7848 52.8718 52.5469 54.9907 52.0825C57.2505 51.607 59.4169 50.7639 61.4036 49.5868C61.8716 49.3069 62.3243 49.002 62.7596 48.6735C63.1353 48.957 63.5236 49.2262 63.9244 49.4811C65.9126 50.72 68.1027 51.6004 70.3951 52.0825C72.5492 52.5508 74.7469 52.7886 76.9513 52.7919C79.1206 52.7849 81.2829 52.5471 83.4019 52.0825C84.853 51.7711 86.269 51.3143 87.6284 50.7189C88.6819 51.6308 90.029 52.1319 91.4223 52.1303H94.8111C94.9659 53.6962 95.6969 55.1488 96.8624 56.2059C98.0279 57.2631 99.5447 57.8495 101.118 57.8512H101.282C102.368 57.8527 103.437 57.5736 104.384 57.0411C105.33 57.5742 106.398 57.8533 107.483 57.8512H107.642C109.322 57.8492 110.932 57.1808 112.12 55.9927C113.308 54.8046 113.975 53.1938 113.977 51.5139V51.4913L114.404 51.3906C115.819 51.045 117.185 50.5226 118.47 49.8358C118.657 50.1052 118.868 50.3578 119.099 50.5906C119.645 51.1339 120.293 51.5635 121.006 51.8546C121.719 52.1457 122.482 52.2924 123.252 52.2862H130.75C131.55 52.3014 132.345 52.1474 133.082 51.8344C133.819 51.5214 134.481 51.0564 135.026 50.4698C136.047 49.379 136.612 47.9386 136.604 46.4445V23.8827H138.767V46.2734C138.761 47.0982 138.933 47.9146 139.272 48.6664C139.611 49.4182 140.11 50.0876 140.732 50.6283C141.816 51.5926 143.217 52.1237 144.667 52.1202H151.963C153.474 52.1458 154.937 51.5891 156.049 50.5654C156.632 50.0148 157.094 49.3489 157.407 48.6101C157.719 47.8712 157.874 47.0755 157.863 46.2734V23.8827H160.029C160.237 25.5083 160.749 27.0803 161.538 28.5168C162.24 29.7872 163.13 30.9441 164.177 31.9484C163.029 32.0366 161.931 32.457 161.017 33.1585L160.766 33.3497L160.542 33.5736C160.017 34.098 159.601 34.7214 159.319 35.4076C159.036 36.0938 158.893 36.8292 158.897 37.5712V37.6543C158.949 40.4946 159.903 43.1438 161.77 45.5338C162.87 47.0233 164.245 48.2888 165.82 49.2622C167.225 50.1314 168.725 50.8371 170.291 51.3655C171.848 51.8901 173.456 52.251 175.088 52.4422C176.544 52.6178 178.009 52.7077 179.476 52.7114C181.657 52.7033 183.83 52.4663 185.962 52.0045C188.246 51.5312 190.441 50.7 192.465 49.5415C194.603 48.3067 196.422 46.5877 197.776 44.5224C199.253 42.2808 200.003 39.604 200.003 36.5674C200.003 33.7371 199.399 31.2892 198.191 29.2942Z" fill="#000D32"/>
<path d="M34.4944 31.8955C33.6933 30.4443 32.4927 29.2534 31.0351 28.464C30.9897 28.4387 30.9514 28.4024 30.9237 28.3585C30.896 28.3145 30.8798 28.2643 30.8766 28.2124C30.8715 28.1707 30.8788 28.1284 30.8976 28.0908C30.9164 28.0532 30.9459 28.022 30.9823 28.0011C33.1274 26.3121 34.2009 23.9716 34.2025 20.9794C34.2025 18.9668 33.7891 17.2895 32.9622 15.9478C32.1596 14.6173 31.0448 13.5025 29.7143 12.6999C28.3169 11.8673 26.7841 11.2866 25.1858 10.9841C23.5174 10.6511 21.8203 10.4825 20.119 10.4809C15.4027 10.4809 11.847 11.4487 9.45192 13.3842C7.06021 15.3968 5.86353 17.9487 5.86185 21.0398C5.86185 24.1024 6.98809 26.4253 9.24059 28.0086C9.45192 28.1763 9.43431 28.3348 9.18776 28.4841C7.77822 29.3327 6.61381 30.5335 5.80902 31.9685C4.98154 33.3962 4.54748 35.0179 4.55111 36.668C4.55111 38.7813 5.00899 40.5768 5.92474 42.0544C6.82782 43.5193 8.05629 44.7564 9.51481 45.6697C11.0557 46.6301 12.7539 47.3114 14.5314 47.6823C16.3702 48.0842 18.2468 48.2874 20.1291 48.2886C21.9753 48.2832 23.8157 48.08 25.6186 47.6823C27.3959 47.3119 29.1 46.6515 30.6628 45.7275C32.1399 44.833 33.3881 43.6064 34.3082 42.145C35.2592 40.6657 35.7347 38.8526 35.7347 36.7058C35.7455 35.0219 35.3181 33.3642 34.4944 31.8955V31.8955ZM15.4924 19.6737C15.7847 19.1756 16.1812 18.7465 16.6547 18.4158C17.143 18.0751 17.6883 17.8246 18.2648 17.6761C19.4766 17.3609 20.7488 17.3609 21.9606 17.6761C22.5371 17.8246 23.0824 18.0751 23.5707 18.4158C24.0442 18.7465 24.4407 19.1756 24.733 19.6737C25.0435 20.2295 25.1982 20.8588 25.1808 21.4952C25.1971 22.1059 25.042 22.709 24.733 23.2361C24.4313 23.731 24.0262 24.155 23.5455 24.4789C23.0422 24.8141 22.4896 25.0688 21.9077 25.2337C21.3249 25.403 20.7208 25.4877 20.114 25.4852C19.4978 25.4786 18.8849 25.3941 18.29 25.2337C17.7047 25.0891 17.1506 24.8394 16.6547 24.4965C16.1812 24.1658 15.7847 23.7367 15.4924 23.2386C15.1875 22.7025 15.0328 22.0942 15.0446 21.4775C15.0304 20.8471 15.185 20.2243 15.4924 19.6737V19.6737ZM25.3041 38.7335C24.98 39.303 24.5393 39.7977 24.011 40.1852C23.4615 40.5832 22.8444 40.8782 22.1895 41.0556C20.8263 41.4448 19.3815 41.4448 18.0183 41.0556C17.356 40.8752 16.7302 40.5806 16.1692 40.1852C15.6281 39.8037 15.1772 39.3082 14.8484 38.7335C14.5194 38.1019 14.3476 37.4003 14.3476 36.6882C14.3476 35.976 14.5194 35.2744 14.8484 34.6428C15.1829 34.0793 15.633 33.5932 16.1692 33.2164C16.728 32.8228 17.355 32.5362 18.0183 32.371C18.7001 32.1997 19.4009 32.1151 20.1039 32.1195C20.7978 32.1143 21.4896 32.1988 22.1618 32.371C22.8152 32.54 23.4324 32.8264 23.9833 33.2164C24.5244 33.5979 24.9752 34.0934 25.3041 34.668C25.6329 35.2951 25.8047 35.9926 25.8047 36.7008C25.8047 37.4089 25.6329 38.1064 25.3041 38.7335V38.7335Z" fill="#FF0066"/>
<path d="M121.924 46.442V15.5528C121.905 14.9366 122.018 14.3235 122.255 13.7544C122.492 13.1852 122.847 12.6731 123.298 12.252C124.158 11.4121 125.316 10.9472 126.518 10.9589H130.742C130.918 10.9458 131.095 10.9722 131.259 11.0362C131.424 11.1002 131.572 11.2001 131.693 11.3287C131.816 11.454 131.912 11.6029 131.975 11.7664C132.039 11.9298 132.069 12.1044 132.063 12.2797V46.442C132.069 46.6169 132.039 46.7912 131.976 46.9543C131.912 47.1174 131.816 47.2658 131.693 47.3905C131.572 47.519 131.424 47.619 131.259 47.683C131.095 47.747 130.918 47.7734 130.742 47.7603H123.245C123.069 47.7693 122.894 47.7414 122.73 47.6784C122.565 47.6153 122.416 47.5186 122.292 47.3944C122.167 47.2701 122.07 47.1212 122.007 46.9572C121.944 46.7931 121.915 46.6176 121.924 46.442Z" fill="#FF0066"/>
<path d="M162.555 10.8004C163.47 10.8004 163.928 11.2583 163.928 12.174V18.0359C163.941 18.2115 163.914 18.3877 163.85 18.5517C163.786 18.7157 163.686 18.8635 163.558 18.9844C163.425 19.1112 163.266 19.2094 163.093 19.2729C162.92 19.3365 162.736 19.3642 162.552 19.3542H150.358C151.129 19.3526 151.869 19.6566 152.416 20.1995C152.692 20.4348 152.915 20.726 153.069 21.0539C153.224 21.3818 153.308 21.7389 153.314 22.1015V46.2835C153.326 46.4632 153.299 46.6433 153.235 46.8117C153.171 46.9801 153.072 47.1329 152.944 47.2596C152.666 47.5002 152.305 47.623 151.938 47.6018H144.642C144.291 47.6018 143.952 47.4698 143.693 47.232C143.556 47.1161 143.446 46.9705 143.373 46.8063C143.3 46.642 143.265 46.4633 143.271 46.2835V20.992C143.28 20.7692 143.239 20.5471 143.152 20.3418C143.065 20.1365 142.934 19.953 142.768 19.8045C142.477 19.5226 142.09 19.3616 141.686 19.3542H134.043C133.859 19.3642 133.675 19.3365 133.502 19.2729C133.328 19.2094 133.17 19.1112 133.036 18.9844C132.908 18.8638 132.808 18.7161 132.744 18.552C132.68 18.3879 132.654 18.2115 132.667 18.0359V15.3415C132.642 14.7196 132.758 14.1003 133.005 13.529C133.252 12.9578 133.624 12.4492 134.093 12.0407C134.958 11.2487 136.086 10.8066 137.258 10.8004H162.555Z" fill="#FF0066"/>
<path d="M195.474 36.5674C195.474 38.7159 194.981 40.5374 193.995 42.0318C193.028 43.5107 191.725 44.7407 190.193 45.6219C188.583 46.5434 186.836 47.2033 185.018 47.5766C183.2 47.9709 181.345 48.1741 179.484 48.183C178.195 48.18 176.908 48.1011 175.629 47.9465C174.308 47.7914 173.007 47.4988 171.747 47.0735C170.506 46.6595 169.316 46.1031 168.203 45.4156C167.1 44.7355 166.141 43.8477 165.377 42.8016C164.111 41.1831 163.46 39.4413 163.425 37.5763C163.421 37.4295 163.447 37.2835 163.501 37.1472C163.556 37.0109 163.638 36.8872 163.742 36.7838C163.98 36.5878 164.277 36.4763 164.585 36.4668H171.556C171.928 36.4494 172.3 36.5219 172.638 36.6781C172.957 36.8679 173.235 37.1193 173.456 37.4178C174.003 38.468 174.913 39.2841 176.017 39.7147C177.123 40.1252 178.296 40.3306 179.476 40.321C180.076 40.3163 180.675 40.2726 181.27 40.1902C181.92 40.1068 182.559 39.9473 183.172 39.7147C183.746 39.5017 184.267 39.168 184.701 38.7361C184.917 38.5131 185.085 38.2482 185.194 37.9578C185.303 37.6674 185.351 37.3577 185.335 37.0479C185.357 36.6398 185.266 36.2335 185.07 35.8745C184.875 35.5156 184.583 35.218 184.228 35.0152C183.528 34.5934 182.784 34.2484 182.009 33.9862C181.446 33.8185 180.751 33.6248 179.924 33.405C179.097 33.1853 178.138 32.9564 177.046 32.7182C175.457 32.4089 173.888 32.0031 172.349 31.5031C170.906 31.0444 169.543 30.3655 168.308 29.4904C167.132 28.6505 166.159 27.559 165.458 26.2953C164.737 25.0106 164.376 23.4172 164.376 21.5153C164.376 19.5026 164.825 17.786 165.722 16.3654C166.6 14.9604 167.781 13.7698 169.179 12.881C170.632 11.9652 172.23 11.3049 173.906 10.9287C175.61 10.5276 177.355 10.3233 179.106 10.3199C180.336 10.3227 181.563 10.4288 182.774 10.6369C184.012 10.8456 185.224 11.1829 186.392 11.6432C187.54 12.0936 188.63 12.6788 189.64 13.3867C190.648 14.0959 191.547 14.9495 192.307 15.9201C193.503 17.5051 194.136 19.0716 194.206 20.6197C194.2 21.007 194.09 21.3856 193.889 21.7165C193.786 21.8207 193.662 21.9026 193.526 21.9571C193.389 22.0117 193.243 22.0377 193.097 22.0335H185.758C184.983 22.0335 184.387 21.465 183.964 20.831C183.835 20.358 183.579 19.9291 183.225 19.5907C182.865 19.2509 182.444 18.982 181.984 18.7982C181.516 18.6066 181.028 18.465 180.53 18.3755C180.06 18.2892 179.584 18.2445 179.106 18.2422C178.568 18.2441 178.03 18.2794 177.496 18.3479C176.98 18.4107 176.48 18.5631 176.017 18.7982C175.579 19.0254 175.199 19.3509 174.907 19.7492C174.593 20.2058 174.435 20.7525 174.459 21.3065C174.459 22.3279 174.988 23.1371 176.044 23.7342C177.098 24.2978 179.051 24.8789 181.904 25.4777C183.585 25.7578 185.25 26.1274 186.893 26.5847C188.431 26.9992 189.9 27.6402 191.25 28.4866C192.502 29.2806 193.55 30.3568 194.312 31.6289C195.087 32.917 195.474 34.5632 195.474 36.5674Z" fill="#FF0066"/>
<path d="M62.9281 31.8955C62.127 30.4443 60.9265 29.2534 59.4689 28.464C59.4235 28.4387 59.3851 28.4024 59.3574 28.3585C59.3297 28.3145 59.3136 28.2643 59.3104 28.2124C59.3053 28.1707 59.3126 28.1284 59.3314 28.0908C59.3502 28.0532 59.3796 28.022 59.4161 28.0011C61.5646 26.3121 62.638 23.9716 62.6363 20.9794C62.6363 18.9668 62.2229 17.2895 61.396 15.9478C60.5941 14.6176 59.4802 13.5028 58.1506 12.6999C56.753 11.8677 55.2203 11.287 53.6221 10.9841C51.9528 10.6511 50.2549 10.4825 48.5527 10.4809C43.8364 10.4809 40.2816 11.4487 37.8882 13.3842C35.4931 15.3968 34.2956 17.9487 34.2956 21.0398C34.2956 24.1024 35.4227 26.4253 37.6769 28.0086C37.8882 28.1847 37.8681 28.3432 37.624 28.4841C36.2132 29.3319 35.0478 30.5328 34.2428 31.9685C33.4163 33.3966 32.9823 35.018 32.9849 36.668C32.9849 38.7813 33.4419 40.5768 34.356 42.0544C35.2591 43.5193 36.4875 44.7564 37.9461 45.6697C39.4872 46.6297 41.1853 47.311 42.9626 47.6823C44.8015 48.084 46.6781 48.2873 48.5603 48.2886C50.4074 48.2832 52.2486 48.08 54.0523 47.6823C55.8252 47.3104 57.525 46.6501 59.084 45.7275C60.5665 44.8356 61.8194 43.6086 62.742 42.145C63.6929 40.6657 64.1684 38.8526 64.1684 36.7058C64.1793 35.0219 63.7518 33.3642 62.9281 31.8955V31.8955ZM43.9211 19.6737C44.2118 19.1751 44.6075 18.7459 45.0809 18.4158C45.5692 18.0751 46.1145 17.8246 46.691 17.6761C47.9028 17.3609 49.175 17.3609 50.3868 17.6761C50.9641 17.8246 51.5103 18.0751 51.9994 18.4158C52.4717 18.7471 52.8672 19.1761 53.1592 19.6737C53.4705 20.2292 53.6261 20.8585 53.6095 21.4952C53.6251 22.1061 53.469 22.7093 53.1592 23.2361C52.8583 23.7317 52.4531 24.1558 51.9717 24.4789C51.4684 24.8141 50.9158 25.0688 50.3339 25.2337C49.7512 25.4032 49.1471 25.4879 48.5402 25.4852C47.9248 25.4788 47.3128 25.3942 46.7187 25.2337C46.1325 25.0896 45.5775 24.8398 45.0809 24.4965C44.6075 24.1664 44.2118 23.7372 43.9211 23.2386C43.6143 22.7032 43.4586 22.0945 43.4708 21.4775C43.4566 20.8468 43.6122 20.2238 43.9211 19.6737V19.6737ZM53.7328 38.7335C53.4087 39.303 52.9681 39.7977 52.4397 40.1852C51.8905 40.5837 51.2733 40.8786 50.6182 41.0556C49.2551 41.4448 47.8102 41.4448 46.447 41.0556C45.7847 40.8752 45.159 40.5806 44.5979 40.1852C44.057 39.8042 43.6069 39.3085 43.2796 38.7335C42.9343 38.1127 42.7607 37.411 42.7764 36.7008C42.7541 35.9818 42.9281 35.2704 43.2796 34.6428C43.6125 34.0789 44.0619 33.5926 44.5979 33.2164C45.1568 32.8228 45.7837 32.5362 46.447 32.371C47.1289 32.1998 47.8296 32.1153 48.5326 32.1195C49.2266 32.1143 49.9183 32.1988 50.5906 32.371C51.244 32.54 51.8612 32.8264 52.412 33.2164C52.9531 33.5979 53.404 34.0934 53.7328 34.668C54.0633 35.2946 54.236 35.9923 54.236 36.7008C54.236 37.4092 54.0633 38.1069 53.7328 38.7335V38.7335Z" fill="#FF0066"/>
<path d="M120.276 31.6314C119.443 30.1554 118.13 29.0092 116.555 28.3835C117.844 27.6904 118.927 26.671 119.698 25.4274C120.455 24.1883 120.848 22.7611 120.832 21.309C120.832 19.2963 120.48 17.6191 119.776 16.2773C119.114 14.9728 118.133 13.8565 116.925 13.032C115.66 12.1942 114.243 11.6114 112.754 11.3162C111.662 11.0887 110.554 10.9399 109.441 10.8709V6.34238C109.439 5.86372 109.249 5.40502 108.91 5.06655C108.572 4.72808 108.113 4.53736 107.634 4.53603H107.476C106.997 4.53735 106.538 4.728 106.199 5.0664C105.86 5.4048 105.669 5.86349 105.667 6.34238V10.808H103.083V6.33483C103.082 5.85573 102.891 5.39667 102.552 5.05812C102.213 4.71958 101.753 4.52914 101.274 4.52847H101.118C100.639 4.5298 100.18 4.72046 99.8416 5.05886C99.5027 5.39726 99.3114 5.85593 99.3094 6.33483V10.8004H94.6954C94.1815 10.8092 93.6722 10.8984 93.1859 11.0646C92.6318 11.2439 92.1188 11.5312 91.6764 11.9099C91.2095 12.3075 90.8242 12.792 90.5418 13.3364C90.2249 13.9749 90.0703 14.6817 90.0915 15.3943V46.2835C90.1004 46.6308 90.2425 46.9613 90.4883 47.2067C90.7342 47.452 91.065 47.5935 91.4123 47.6018H99.2993V51.5139C99.3007 51.9932 99.4917 52.4525 99.8306 52.7915C100.17 53.1304 100.629 53.3214 101.108 53.3228H101.282C101.761 53.3221 102.221 53.1313 102.56 52.7922C102.899 52.4531 103.09 51.9934 103.091 51.5139V47.6018H105.674V51.5139C105.676 51.9932 105.867 52.4525 106.206 52.7915C106.545 53.1304 107.004 53.3214 107.483 53.3228H107.642C108.121 53.3214 108.58 53.1304 108.919 52.7913C109.257 52.4523 109.447 51.993 109.448 51.5139V47.5666C110.752 47.4967 112.047 47.3055 113.315 46.9955C114.864 46.6309 116.326 45.9669 117.62 45.0407C118.856 44.1374 119.86 42.9524 120.548 41.584C121.271 40.1751 121.632 38.4501 121.632 36.4089C121.621 34.723 121.153 33.0717 120.276 31.6314V31.6314ZM106.565 17.8774C107.603 17.8363 108.623 18.1633 109.443 18.8007C110.2 19.4163 110.578 20.3387 110.578 21.5681C110.578 22.7975 110.209 23.7393 109.471 24.3934C108.731 25.0425 107.763 25.3678 106.565 25.3695H101.561C101.339 25.3796 101.118 25.337 100.916 25.2451C100.714 25.1533 100.537 25.0149 100.399 24.8412C100.147 24.5639 99.9978 24.2088 99.9761 23.8349V20.675C99.9707 20.3137 99.8931 19.9571 99.748 19.6261C99.6028 19.2952 99.393 18.9966 99.1308 18.7479C98.8671 18.4677 98.5479 18.2456 98.1936 18.0957C97.8392 17.9458 97.4575 17.8715 97.0729 17.8774H106.565ZM110.13 39.4178C109.337 40.1223 108.307 40.4745 107.041 40.4745H101.561C101.335 40.4899 101.108 40.4499 100.901 40.3578C100.693 40.2657 100.511 40.1244 100.371 39.9462C100.127 39.6468 99.9883 39.2755 99.9761 38.8895V35.0353C99.9704 34.674 99.8927 34.3175 99.7476 33.9866C99.6024 33.6557 99.3928 33.3571 99.1308 33.1082C98.8671 32.828 98.5479 32.6059 98.1936 32.456C97.8392 32.3061 97.4575 32.2318 97.0729 32.2377H107.051C108.18 32.2002 109.28 32.6076 110.112 33.3723C110.922 34.1288 111.327 35.141 111.327 36.4089C111.327 37.7172 110.932 38.7201 110.14 39.4178H110.13Z" fill="#FF0066"/>
<path d="M91.3393 31.8955C90.5384 30.445 89.3389 29.2542 87.8825 28.464C87.8371 28.4387 87.7988 28.4024 87.7711 28.3585C87.7434 28.3145 87.7272 28.2643 87.724 28.2124C87.719 28.1707 87.7263 28.1284 87.7451 28.0908C87.7638 28.0532 87.7933 28.022 87.8297 28.0011C89.9749 26.3121 91.0483 23.9716 91.05 20.9794C91.05 18.9668 90.6365 17.2895 89.8097 15.9478C89.0071 14.6173 87.8922 13.5025 86.5617 12.6999C85.1643 11.8673 83.6315 11.2866 82.0333 10.9841C80.364 10.6509 78.6661 10.4824 76.9639 10.4809C72.2476 10.4809 68.6927 11.4487 66.2993 13.3842C63.9043 15.3968 62.7076 17.9487 62.7093 21.0398C62.7093 24.1024 63.8355 26.4253 66.088 28.0086C66.2993 28.1763 66.2817 28.3348 66.0352 28.4841C64.6251 29.332 63.4605 30.5329 62.6564 31.9685C61.829 33.3962 61.3949 35.0179 61.3985 36.668C61.3985 38.7813 61.8564 40.5768 62.7722 42.0544C63.6738 43.5204 64.9026 44.7578 66.3622 45.6697C67.9032 46.6301 69.6013 47.3114 71.3788 47.6823C73.2168 48.084 75.0926 48.2873 76.974 48.2886C78.821 48.2834 80.6623 48.0801 82.466 47.6823C84.2389 47.3104 85.9387 46.6501 87.4976 45.7275C88.9797 44.835 90.2324 43.6082 91.1556 42.145C92.1066 40.6657 92.5813 38.8526 92.5796 36.7058C92.5916 35.0218 92.1641 33.3638 91.3393 31.8955ZM72.3323 19.6737C72.6246 19.1756 73.0211 18.7465 73.4946 18.4158C73.9828 18.0751 74.5281 17.8246 75.1047 17.6761C76.3165 17.3609 77.5887 17.3609 78.8004 17.6761C79.377 17.8246 79.9223 18.0751 80.4106 18.4158C80.8841 18.7465 81.2805 19.1756 81.5729 19.6737C81.8823 20.2299 82.0369 20.8589 82.0207 21.4952C82.0354 22.1057 81.8803 22.7084 81.5729 23.2361C81.2711 23.7318 80.865 24.1559 80.3829 24.4789C79.8804 24.8141 79.3287 25.0687 78.7476 25.2337C78.164 25.4032 77.559 25.488 76.9513 25.4852C76.336 25.4785 75.724 25.394 75.1299 25.2337C74.5444 25.0896 73.9902 24.8398 73.4946 24.4965C73.0211 24.1658 72.6246 23.7367 72.3323 23.2386C72.0274 22.7025 71.8727 22.0942 71.8845 21.4775C71.8703 20.8471 72.0249 20.2243 72.3323 19.6737ZM82.144 38.7335C81.8181 39.3025 81.3768 39.797 80.8483 40.1852C80.2994 40.5841 79.6821 40.8792 79.0269 41.0556C77.6637 41.4448 76.2188 41.4448 74.8556 41.0556C74.1943 40.8747 73.5695 40.5801 73.009 40.1852C72.4679 39.8037 72.0171 39.3082 71.6882 38.7335C71.3593 38.1019 71.1875 37.4003 71.1875 36.6882C71.1875 35.976 71.3593 35.2744 71.6882 34.6428C72.0227 34.0793 72.4729 33.5932 73.009 33.2164C73.5673 32.8234 74.1934 32.5368 74.8556 32.371C75.5375 32.1998 76.2382 32.1153 76.9413 32.1195C77.6361 32.1141 78.3286 32.1986 79.0017 32.371C79.6549 32.5405 80.272 32.8269 80.8232 33.2164C81.3635 33.5987 81.8142 34.094 82.144 34.668C82.4728 35.2951 82.6446 35.9926 82.6446 36.7008C82.6446 37.4089 82.4728 38.1064 82.144 38.7335Z" fill="#FF0066"/>
</g>
<defs>
<clipPath id="clip0_2411_10989">
<rect width="200" height="57.8512" fill="white"/>
</clipPath>
</defs>
</svg>
