<svg width="200" height="59" viewBox="0 0 200 59" fill="none" xmlns="http://www.w3.org/2000/svg">
<g clip-path="url(#clip0_2411_11009)">
<path d="M198.191 29.6992C197.461 28.4859 196.552 27.3901 195.494 26.4488C196.089 26.1731 196.63 25.7941 197.092 25.3292L197.318 25.1028L197.509 24.8512C198.301 23.7354 198.728 22.4026 198.735 21.0347V20.914V20.8108C198.621 18.3378 197.675 15.9075 195.924 13.5879L195.897 13.5527L195.869 13.5175C194.837 12.1996 193.616 11.0408 192.246 10.0784C190.944 9.16066 189.538 8.4006 188.057 7.81412C186.595 7.23991 185.078 6.81836 183.529 6.55621C182.067 6.3051 180.587 6.17718 179.104 6.1738C177.008 6.1782 174.92 6.42128 172.879 6.89835C170.954 7.33807 169.106 8.0631 167.395 9.04939C166.356 7.56506 164.628 6.64929 162.552 6.64929H137.258C135.96 6.64827 134.677 6.92715 133.497 7.46693C132.642 7.02553 131.692 6.79929 130.729 6.80779H126.518C124.163 6.79465 121.894 7.69664 120.191 9.32361C120.022 9.4821 119.864 9.64815 119.71 9.82677C119.627 9.76639 119.549 9.7035 119.459 9.64564C117.788 8.53973 115.927 7.75402 113.969 7.32856V6.7298C113.967 5.05031 113.299 3.44018 112.111 2.2526C110.924 1.06502 109.314 0.396967 107.634 0.394969H107.476C106.39 0.392941 105.322 0.672018 104.376 1.20506C103.43 0.677322 102.365 0.401815 101.282 0.405027H101.126C99.4569 0.406902 97.856 1.06624 96.6698 2.24019C95.4836 3.41414 94.8077 5.00817 94.7885 6.67696H94.7029C93.7185 6.68675 92.7416 6.84972 91.8072 7.16001C90.6929 7.52196 89.6604 8.0989 88.7681 8.85818L88.587 9.01668C86.8215 8.013 84.9033 7.30588 82.9088 6.92352C80.9492 6.53536 78.9565 6.33904 76.9589 6.33733C71.2027 6.33733 66.6566 7.6531 63.4464 10.2469L63.4162 10.2721L63.386 10.2972C63.1596 10.4859 62.9432 10.6796 62.7319 10.8759C62.0449 10.2487 61.2984 9.69003 60.5029 9.20787C58.646 8.10222 56.6103 7.32918 54.4876 6.92352C52.528 6.53549 50.5353 6.33916 48.5377 6.33733C42.7815 6.33733 38.2228 7.6531 35.0252 10.2469L34.9925 10.2721L34.9623 10.2972C34.7342 10.4918 34.5128 10.688 34.2981 10.8859C33.6083 10.2548 32.8584 9.6928 32.0591 9.20787C30.2068 8.10385 28.1764 7.33086 26.0588 6.92352C24.0993 6.53549 22.1066 6.33916 20.1089 6.33733C14.3502 6.33733 9.79407 7.6531 6.59395 10.2469L6.56376 10.2721L6.53357 10.2972C4.88335 11.6385 3.55741 13.3352 2.65478 15.2607C1.75216 17.1862 1.29615 19.2907 1.3208 21.4171C1.3208 24.0135 1.91956 26.3305 3.08187 28.2954C2.63334 28.8662 2.2272 29.4691 1.86673 30.0992C0.64471 32.2102 0.00163478 34.6063 0.00250332 37.0454C0.00250332 40.004 0.694354 42.6179 2.05541 44.8168C3.32253 46.8674 5.04407 48.5992 7.08705 49.8786C9.07589 51.1179 11.2669 51.9984 13.5603 52.4799C15.7143 52.9484 17.9121 53.1862 20.1165 53.1894C22.2838 53.1845 24.4444 52.9492 26.562 52.4875C28.822 52.0129 30.9885 51.1697 32.9748 49.9918C33.4479 49.7094 33.9056 49.4021 34.3459 49.071C34.7208 49.3578 35.1133 49.6295 35.5183 49.8861C37.5047 51.1248 39.6932 52.0053 41.984 52.4875C44.138 52.956 46.3358 53.1938 48.5402 53.197C50.7094 53.1898 52.8718 52.952 54.9907 52.4875C57.2505 52.012 59.4169 51.1689 61.4036 49.9918C61.8716 49.7119 62.3243 49.4071 62.7596 49.0786C63.1353 49.362 63.5236 49.6312 63.9244 49.8861C65.9126 51.125 68.1027 52.0055 70.3951 52.4875C72.5492 52.9558 74.7469 53.1937 76.9513 53.197C79.1206 53.1899 81.2829 52.9521 83.4019 52.4875C84.853 52.1762 86.269 51.7193 87.6284 51.1239C88.6819 52.0358 90.029 52.5369 91.4223 52.5353H94.8111C94.9659 54.1012 95.6969 55.5538 96.8624 56.611C98.0279 57.6682 99.5447 58.2545 101.118 58.2563H101.282C102.368 58.2577 103.437 57.9787 104.384 57.4462C105.33 57.9792 106.398 58.2583 107.483 58.2563H107.642C109.322 58.2543 110.932 57.5859 112.12 56.3978C113.308 55.2096 113.975 53.5988 113.977 51.9189V51.8963L114.404 51.7957C115.819 51.45 117.185 50.9277 118.47 50.2409C118.657 50.5103 118.868 50.7628 119.099 50.9956C119.645 51.5389 120.293 51.9686 121.006 52.2596C121.719 52.5507 122.482 52.6974 123.252 52.6913H130.75C131.55 52.7064 132.345 52.5525 133.082 52.2395C133.819 51.9265 134.481 51.4615 135.026 50.8749C136.047 49.7841 136.612 48.3436 136.604 46.8496V24.2877H138.767V46.6785C138.761 47.5032 138.933 48.3196 139.272 49.0715C139.611 49.8233 140.11 50.4926 140.732 51.0334C141.816 51.9976 143.217 52.5288 144.667 52.5252H151.963C153.474 52.5508 154.937 51.9941 156.049 50.9705C156.632 50.4199 157.094 49.754 157.407 49.0151C157.719 48.2763 157.874 47.4805 157.863 46.6785V24.2877H160.029C160.237 25.9133 160.749 27.4853 161.538 28.9218C162.24 30.1922 163.13 31.3491 164.177 32.3534C163.029 32.4416 161.931 32.8621 161.017 33.5635L160.766 33.7547L160.542 33.9786C160.017 34.503 159.601 35.1264 159.319 35.8126C159.036 36.4988 158.893 37.2342 158.897 37.9763V38.0593C158.949 40.8996 159.903 43.5488 161.77 45.9388C162.87 47.4283 164.245 48.6938 165.82 49.6673C167.225 50.5365 168.725 51.2421 170.291 51.7705C171.848 52.2952 173.456 52.656 175.088 52.8473C176.544 53.0228 178.009 53.1127 179.476 53.1165C181.657 53.1083 183.83 52.8714 185.962 52.4095C188.246 51.9362 190.441 51.105 192.465 49.9465C194.603 48.7117 196.422 46.9927 197.776 44.9275C199.253 42.6859 200.003 40.009 200.003 36.9725C200.003 34.1422 199.399 31.6943 198.191 29.6992Z" fill="white"/>
<path d="M34.4944 32.3006C33.6933 30.8494 32.4927 29.6584 31.0351 28.869C30.9897 28.8437 30.9514 28.8075 30.9237 28.7635C30.896 28.7195 30.8798 28.6693 30.8766 28.6174C30.8715 28.5757 30.8788 28.5334 30.8976 28.4958C30.9164 28.4582 30.9459 28.427 30.9823 28.4061C33.1274 26.7171 34.2009 24.3766 34.2025 21.3844C34.2025 19.3718 33.7891 17.6946 32.9622 16.3528C32.1596 15.0223 31.0448 13.9075 29.7143 13.1049C28.3169 12.2723 26.7841 11.6916 25.1858 11.3891C23.5174 11.0561 21.8203 10.8876 20.119 10.8859C15.4027 10.8859 11.847 11.8537 9.45192 13.7892C7.06021 15.8018 5.86353 18.3537 5.86185 21.4448C5.86185 24.5074 6.98809 26.8303 9.24059 28.4136C9.45192 28.5813 9.43431 28.7398 9.18776 28.8891C7.77822 29.7377 6.61381 30.9385 5.80902 32.3735C4.98154 33.8013 4.54748 35.4229 4.55111 37.0731C4.55111 39.1864 5.00899 40.9818 5.92474 42.4594C6.82782 43.9243 8.05629 45.1614 9.51481 46.0747C11.0557 47.0351 12.7539 47.7164 14.5314 48.0873C16.3702 48.4892 18.2468 48.6924 20.1291 48.6936C21.9753 48.6883 23.8157 48.485 25.6186 48.0873C27.3959 47.717 29.1 47.0565 30.6628 46.1325C32.1399 45.238 33.3881 44.0114 34.3082 42.55C35.2592 41.0707 35.7347 39.2576 35.7347 37.1108C35.7455 35.427 35.3181 33.7692 34.4944 32.3006ZM15.4924 20.0787C15.7847 19.5806 16.1812 19.1515 16.6547 18.8208C17.143 18.4801 17.6883 18.2296 18.2648 18.0812C19.4766 17.7659 20.7488 17.7659 21.9606 18.0812C22.5371 18.2296 23.0824 18.4801 23.5707 18.8208C24.0442 19.1515 24.4407 19.5806 24.733 20.0787C25.0435 20.6345 25.1982 21.2638 25.1808 21.9002C25.1971 22.5109 25.042 23.114 24.733 23.6411C24.4313 24.1361 24.0262 24.56 23.5455 24.8839C23.0422 25.2191 22.4896 25.4738 21.9077 25.6387C21.3249 25.808 20.7208 25.8928 20.114 25.8903C19.4978 25.8836 18.8849 25.7991 18.29 25.6387C17.7047 25.4942 17.1506 25.2444 16.6547 24.9015C16.1812 24.5708 15.7847 24.1417 15.4924 23.6436C15.1875 23.1076 15.0328 22.4992 15.0446 21.8826C15.0304 21.2521 15.185 20.6293 15.4924 20.0787ZM25.3041 39.1386C24.98 39.708 24.5393 40.2027 24.011 40.5902C23.4615 40.9882 22.8444 41.2832 22.1895 41.4607C20.8263 41.8498 19.3815 41.8498 18.0183 41.4607C17.356 41.2802 16.7302 40.9856 16.1692 40.5902C15.6281 40.2087 15.1772 39.7132 14.8484 39.1386C14.5194 38.507 14.3476 37.8053 14.3476 37.0932C14.3476 36.3811 14.5194 35.6794 14.8484 35.0478C15.1829 34.4844 15.633 33.9982 16.1692 33.6214C16.728 33.2278 17.355 32.9412 18.0183 32.7761C18.7001 32.6047 19.4009 32.5202 20.1039 32.5245C20.7978 32.5193 21.4896 32.6039 22.1618 32.7761C22.8152 32.945 23.4324 33.2314 23.9833 33.6214C24.5244 34.0029 24.9752 34.4984 25.3041 35.073C25.6329 35.7001 25.8047 36.3977 25.8047 37.1058C25.8047 37.8139 25.6329 38.5114 25.3041 39.1386Z" fill="#000D32"/>
<path d="M121.924 46.847V15.9578C121.905 15.3416 122.018 14.7285 122.255 14.1594C122.492 13.5903 122.847 13.0781 123.298 12.6571C124.158 11.8172 125.316 11.3522 126.518 11.3639H130.742C130.918 11.3508 131.095 11.3772 131.259 11.4412C131.424 11.5052 131.572 11.6052 131.693 11.7338C131.816 11.8591 131.912 12.0079 131.975 12.1714C132.039 12.3348 132.069 12.5094 132.063 12.6847V46.847C132.069 47.022 132.039 47.1963 131.976 47.3593C131.912 47.5224 131.816 47.6708 131.693 47.7955C131.572 47.9241 131.424 48.024 131.259 48.088C131.095 48.152 130.918 48.1784 130.742 48.1653H123.245C123.069 48.1743 122.894 48.1464 122.73 48.0834C122.565 48.0203 122.416 47.9236 122.292 47.7994C122.167 47.6752 122.07 47.5262 122.007 47.3622C121.944 47.1981 121.915 47.0227 121.924 46.847Z" fill="#000D32"/>
<path d="M162.555 11.2054C163.47 11.2054 163.928 11.6633 163.928 12.5791V18.4409C163.941 18.6165 163.914 18.7927 163.85 18.9567C163.786 19.1207 163.686 19.2685 163.558 19.3894C163.425 19.5162 163.266 19.6144 163.093 19.678C162.92 19.7416 162.736 19.7692 162.552 19.7592H150.358C151.129 19.7576 151.869 20.0616 152.416 20.6045C152.692 20.8398 152.915 21.131 153.069 21.4589C153.224 21.7868 153.308 22.1439 153.314 22.5065V46.6885C153.326 46.8682 153.299 47.0484 153.235 47.2168C153.171 47.3852 153.072 47.5379 152.944 47.6647C152.666 47.9053 152.305 48.028 151.938 48.0068H144.642C144.291 48.0068 143.952 47.8748 143.693 47.637C143.556 47.5211 143.446 47.3756 143.373 47.2113C143.3 47.047 143.265 46.8683 143.271 46.6885V21.397C143.28 21.1742 143.239 20.9521 143.152 20.7468C143.065 20.5415 142.934 20.358 142.768 20.2095C142.477 19.9276 142.09 19.7666 141.686 19.7592H134.043C133.859 19.7692 133.675 19.7416 133.502 19.678C133.328 19.6144 133.17 19.5162 133.036 19.3894C132.908 19.2688 132.808 19.1211 132.744 18.957C132.68 18.7929 132.654 18.6166 132.667 18.4409V15.7465C132.642 15.1246 132.758 14.5053 133.005 13.9341C133.252 13.3628 133.624 12.8542 134.093 12.4457C134.958 11.6538 136.086 11.2116 137.258 11.2054H162.555Z" fill="#000D32"/>
<path d="M195.474 36.9725C195.474 39.121 194.981 40.9424 193.995 42.4368C193.028 43.9157 191.725 45.1457 190.193 46.0269C188.583 46.9485 186.836 47.6083 185.018 47.9817C183.2 48.3759 181.345 48.5792 179.483 48.588C178.195 48.5851 176.908 48.5061 175.629 48.3515C174.308 48.1964 173.007 47.9039 171.747 47.4785C170.506 47.0645 169.316 46.5082 168.203 45.8206C167.1 45.1405 166.141 44.2528 165.377 43.2066C164.111 41.5881 163.46 39.8464 163.425 37.9813C163.421 37.8346 163.447 37.6885 163.501 37.5522C163.556 37.4159 163.638 37.2922 163.742 37.1888C163.98 36.9928 164.277 36.8813 164.585 36.8718H171.556C171.928 36.8544 172.3 36.9269 172.638 37.0831C172.957 37.2729 173.235 37.5244 173.456 37.8228C174.003 38.8731 174.913 39.6891 176.017 40.1197C177.123 40.5302 178.296 40.7356 179.476 40.726C180.076 40.7213 180.675 40.6776 181.27 40.5952C181.92 40.5119 182.559 40.3523 183.172 40.1197C183.746 39.9068 184.267 39.573 184.701 39.1411C184.917 38.9181 185.085 38.6532 185.194 38.3629C185.303 38.0725 185.351 37.7628 185.335 37.453C185.357 37.0448 185.266 36.6385 185.07 36.2796C184.875 35.9206 184.583 35.623 184.228 35.4202C183.528 34.9984 182.784 34.6535 182.009 34.3912C181.446 34.2235 180.751 34.0298 179.924 33.8101C179.097 33.5903 178.138 33.3614 177.046 33.1233C175.457 32.8139 173.888 32.4081 172.349 31.9081C170.906 31.4494 169.543 30.7705 168.308 29.8955C167.132 29.0556 166.159 27.9641 165.458 26.7004C164.737 25.4156 164.376 23.8223 164.376 21.9203C164.376 19.9077 164.825 18.191 165.722 16.7704C166.6 15.3655 167.781 14.1749 169.179 13.286C170.632 12.3703 172.23 11.71 173.906 11.3337C175.61 10.9326 177.355 10.7283 179.106 10.7249C180.336 10.7278 181.563 10.8338 182.774 11.0419C184.012 11.2506 185.224 11.5879 186.392 12.0482C187.54 12.4986 188.63 13.0839 189.64 13.7917C190.648 14.5009 191.547 15.3545 192.307 16.3251C193.503 17.9101 194.136 19.4766 194.206 21.0247C194.2 21.412 194.09 21.7907 193.889 22.1216C193.786 22.2257 193.662 22.3076 193.526 22.3622C193.389 22.4167 193.243 22.4427 193.097 22.4386H185.758C184.983 22.4386 184.387 21.87 183.964 21.236C183.835 20.763 183.579 20.3341 183.225 19.9957C182.865 19.6559 182.444 19.387 181.984 19.2032C181.516 19.0117 181.028 18.87 180.53 18.7806C180.06 18.6942 179.584 18.6495 179.106 18.6472C178.568 18.6492 178.03 18.6844 177.496 18.7529C176.98 18.8157 176.48 18.9681 176.017 19.2032C175.579 19.4304 175.199 19.7559 174.907 20.1542C174.593 20.6108 174.435 21.1575 174.459 21.7115C174.459 22.7329 174.988 23.5422 176.044 24.1393C177.098 24.7028 179.051 25.284 181.904 25.8827C183.585 26.1629 185.25 26.5324 186.893 26.9897C188.431 27.4042 189.9 28.0452 191.25 28.8916C192.502 29.6857 193.55 30.7618 194.312 32.0339C195.087 33.322 195.474 34.9682 195.474 36.9725Z" fill="#000D32"/>
<path d="M62.9281 32.3006C62.127 30.8494 60.9265 29.6584 59.4689 28.869C59.4235 28.8437 59.3851 28.8075 59.3574 28.7635C59.3297 28.7195 59.3136 28.6693 59.3104 28.6174C59.3053 28.5757 59.3126 28.5334 59.3314 28.4958C59.3502 28.4582 59.3796 28.427 59.4161 28.4061C61.5646 26.7171 62.638 24.3766 62.6363 21.3844C62.6363 19.3718 62.2229 17.6946 61.396 16.3528C60.5941 15.0226 59.4802 13.9078 58.1506 13.1049C56.753 12.2727 55.2203 11.692 53.6221 11.3891C51.9528 11.0561 50.2549 10.8875 48.5527 10.8859C43.8364 10.8859 40.2816 11.8537 37.8882 13.7892C35.4931 15.8018 34.2956 18.3537 34.2956 21.4448C34.2956 24.5074 35.4227 26.8303 37.6769 28.4136C37.8882 28.5897 37.8681 28.7482 37.624 28.8891C36.2132 29.7369 35.0478 30.9379 34.2428 32.3735C33.4163 33.8017 32.9823 35.423 32.9849 37.0731C32.9849 39.1864 33.4419 40.9818 34.356 42.4594C35.2591 43.9243 36.4875 45.1614 37.9461 46.0747C39.4872 47.0347 41.1853 47.716 42.9626 48.0873C44.8014 48.489 46.6781 48.6923 48.5603 48.6936C50.4074 48.6883 52.2486 48.485 54.0523 48.0873C55.8252 47.7155 57.525 47.0551 59.084 46.1325C60.5665 45.2406 61.8194 44.0136 62.742 42.55C63.6929 41.0707 64.1684 39.2576 64.1684 37.1108C64.1793 35.427 63.7518 33.7692 62.9281 32.3006ZM43.9211 20.0787C44.2118 19.5802 44.6075 19.1509 45.0809 18.8208C45.5692 18.4801 46.1145 18.2296 46.691 18.0812C47.9028 17.7659 49.175 17.7659 50.3868 18.0812C50.9641 18.2296 51.5103 18.4801 51.9994 18.8208C52.4717 19.1522 52.8672 19.5811 53.1592 20.0787C53.4705 20.6343 53.6261 21.2635 53.6096 21.9002C53.6251 22.5112 53.469 23.1143 53.1592 23.6411C52.8583 24.1367 52.4531 24.5608 51.9718 24.8839C51.4684 25.2191 50.9158 25.4738 50.334 25.6387C49.7512 25.8082 49.1471 25.8929 48.5402 25.8903C47.9248 25.8838 47.3128 25.7992 46.7187 25.6387C46.1325 25.4947 45.5775 25.2448 45.0809 24.9015C44.6075 24.5715 44.2118 24.1422 43.9211 23.6436C43.6143 23.1082 43.4586 22.4995 43.4708 21.8826C43.4566 21.2518 43.6122 20.6288 43.9211 20.0787ZM53.7328 39.1386C53.4087 39.708 52.9681 40.2027 52.4397 40.5902C51.8905 40.9887 51.2733 41.2837 50.6182 41.4607C49.2551 41.8498 47.8102 41.8498 46.447 41.4607C45.7847 41.2802 45.159 40.9856 44.5979 40.5902C44.057 40.2092 43.6069 39.7135 43.2796 39.1386C42.9343 38.5177 42.7607 37.816 42.7764 37.1058C42.7541 36.3868 42.9281 35.6754 43.2796 35.0478C43.6125 34.4839 44.0619 33.9976 44.5979 33.6214C45.1568 33.2278 45.7837 32.9412 46.447 32.7761C47.1289 32.6048 47.8296 32.5203 48.5326 32.5245C49.2266 32.5193 49.9183 32.6039 50.5906 32.7761C51.244 32.945 51.8612 33.2314 52.412 33.6214C52.9531 34.0029 53.404 34.4984 53.7328 35.073C54.0633 35.6996 54.236 36.3974 54.236 37.1058C54.236 37.8142 54.0633 38.5119 53.7328 39.1386Z" fill="#000D32"/>
<path d="M120.276 32.0364C119.443 30.5605 118.13 29.4142 116.555 28.7885C117.844 28.0954 118.927 27.076 119.698 25.8324C120.455 24.5933 120.848 23.1661 120.832 21.714C120.832 19.7014 120.48 18.0241 119.776 16.6824C119.114 15.3778 118.133 14.2615 116.925 13.437C115.66 12.5992 114.243 12.0164 112.754 11.7212C111.662 11.4937 110.554 11.3449 109.441 11.2759V6.74741C109.439 6.26875 109.249 5.81005 108.91 5.47158C108.572 5.13311 108.113 4.94238 107.634 4.94106H107.476C106.997 4.94238 106.538 5.13303 106.199 5.47143C105.86 5.80983 105.669 6.26851 105.667 6.74741V11.213H103.083V6.73986C103.082 6.26076 102.891 5.8017 102.552 5.46315C102.213 5.12461 101.753 4.93417 101.274 4.9335H101.118C100.639 4.93483 100.18 5.12549 99.8416 5.46389C99.5027 5.80229 99.3114 6.26096 99.3094 6.73986V11.2054H94.6954C94.1815 11.2142 93.6722 11.3034 93.1859 11.4696C92.6318 11.6489 92.1188 11.9362 91.6764 12.3149C91.2095 12.7126 90.8242 13.197 90.5418 13.7414C90.2249 14.38 90.0703 15.0868 90.0915 15.7993V46.6885C90.1004 47.0358 90.2425 47.3663 90.4883 47.6117C90.7342 47.8571 91.065 47.9986 91.4123 48.0068H99.2993V51.9189C99.3007 52.3983 99.4917 52.8576 99.8306 53.1965C100.17 53.5355 100.629 53.7265 101.108 53.7278H101.282C101.761 53.7271 102.221 53.5363 102.56 53.1973C102.899 52.8582 103.09 52.3985 103.091 51.9189V48.0068H105.674V51.9189C105.676 52.3983 105.867 52.8576 106.206 53.1965C106.545 53.5355 107.004 53.7265 107.483 53.7278H107.642C108.121 53.7265 108.58 53.5354 108.919 53.1964C109.257 52.8574 109.447 52.398 109.448 51.9189V47.9716C110.752 47.9017 112.047 47.7105 113.315 47.4005C114.864 47.036 116.326 46.3719 117.62 45.4457C118.856 44.5424 119.86 43.3574 120.548 41.989C121.271 40.5801 121.632 38.8551 121.632 36.814C121.621 35.128 121.153 33.4767 120.276 32.0364ZM106.565 18.2824C107.603 18.2414 108.623 18.5684 109.443 19.2057C110.2 19.8213 110.578 20.7438 110.578 21.9731C110.578 23.2025 110.209 24.1443 109.471 24.7984C108.731 25.4475 107.763 25.7729 106.565 25.7745H101.561C101.339 25.7846 101.118 25.742 100.916 25.6502C100.714 25.5583 100.537 25.4199 100.399 25.2462C100.147 24.969 99.9978 24.6138 99.9761 24.2399V21.08C99.9707 20.7187 99.8931 20.3621 99.748 20.0311C99.6028 19.7002 99.393 19.4016 99.1308 19.1529C98.8671 18.8727 98.5479 18.6506 98.1936 18.5007C97.8392 18.3509 97.4575 18.2765 97.0729 18.2824H106.565ZM110.13 39.8229C109.337 40.5273 108.307 40.8795 107.041 40.8795H101.561C101.335 40.895 101.108 40.8549 100.901 40.7628C100.693 40.6708 100.511 40.5295 100.371 40.3512C100.127 40.0518 99.9883 39.6805 99.9761 39.2946V35.4403C99.9704 35.079 99.8927 34.7225 99.7476 34.3916C99.6024 34.0607 99.3928 33.7621 99.1308 33.5132C98.8671 33.233 98.5479 33.0109 98.1936 32.861C97.8392 32.7112 97.4575 32.6368 97.0729 32.6427H107.051C108.18 32.6052 109.28 33.0127 110.112 33.7774C110.922 34.5338 111.327 35.546 111.327 36.814C111.327 38.1222 110.932 39.1251 110.14 39.8229H110.13Z" fill="#000D32"/>
<path d="M91.3393 32.3006C90.5384 30.85 89.3389 29.6592 87.8825 28.869C87.8371 28.8437 87.7988 28.8075 87.7711 28.7635C87.7434 28.7195 87.7272 28.6693 87.7241 28.6174C87.719 28.5757 87.7263 28.5334 87.7451 28.4958C87.7638 28.4582 87.7933 28.427 87.8297 28.4061C89.9749 26.7171 91.0483 24.3766 91.05 21.3844C91.05 19.3718 90.6365 17.6946 89.8097 16.3528C89.0071 15.0223 87.8922 13.9075 86.5617 13.1049C85.1643 12.2723 83.6315 11.6916 82.0333 11.3891C80.364 11.0559 78.6661 10.8874 76.9639 10.8859C72.2476 10.8859 68.6927 11.8537 66.2993 13.7892C63.9043 15.8018 62.7076 18.3537 62.7093 21.4448C62.7093 24.5074 63.8355 26.8303 66.088 28.4136C66.2993 28.5813 66.2817 28.7398 66.0352 28.8891C64.6251 29.737 63.4605 30.938 62.6564 32.3735C61.829 33.8013 61.3949 35.4229 61.3985 37.0731C61.3985 39.1864 61.8564 40.9818 62.7722 42.4594C63.6738 43.9254 64.9026 45.1628 66.3622 46.0747C67.9032 47.0351 69.6013 47.7164 71.3788 48.0873C73.2168 48.489 75.0926 48.6923 76.974 48.6936C78.821 48.6884 80.6623 48.4851 82.466 48.0873C84.2389 47.7155 85.9387 47.0551 87.4976 46.1325C88.9797 45.24 90.2324 44.0132 91.1556 42.55C92.1066 41.0707 92.5813 39.2576 92.5796 37.1108C92.5916 35.4268 92.1641 33.7688 91.3393 32.3006ZM72.3323 20.0787C72.6246 19.5806 73.0211 19.1515 73.4946 18.8208C73.9828 18.4801 74.5281 18.2296 75.1047 18.0812C76.3165 17.7659 77.5887 17.7659 78.8004 18.0812C79.377 18.2296 79.9223 18.4801 80.4106 18.8208C80.8841 19.1515 81.2805 19.5806 81.5729 20.0787C81.8823 20.6349 82.0369 21.2639 82.0207 21.9002C82.0354 22.5107 81.8803 23.1134 81.5729 23.6411C81.2711 24.1368 80.865 24.5609 80.3829 24.8839C79.8804 25.2191 79.3287 25.4737 78.7476 25.6387C78.164 25.8082 77.559 25.893 76.9513 25.8903C76.336 25.8836 75.724 25.799 75.1299 25.6387C74.5444 25.4946 73.9902 25.2448 73.4946 24.9015C73.0211 24.5708 72.6246 24.1417 72.3323 23.6436C72.0274 23.1076 71.8727 22.4992 71.8845 21.8826C71.8703 21.2521 72.0249 20.6293 72.3323 20.0787ZM82.144 39.1386C81.8181 39.7076 81.3768 40.2021 80.8483 40.5902C80.2994 40.9892 79.6821 41.2842 79.0269 41.4607C77.6637 41.8498 76.2188 41.8498 74.8556 41.4607C74.1943 41.2797 73.5695 40.9851 73.009 40.5902C72.4679 40.2087 72.0171 39.7132 71.6882 39.1386C71.3593 38.507 71.1875 37.8053 71.1875 37.0932C71.1875 36.3811 71.3593 35.6794 71.6882 35.0478C72.0227 34.4844 72.4729 33.9982 73.009 33.6214C73.5673 33.2284 74.1934 32.9419 74.8556 32.7761C75.5375 32.6048 76.2382 32.5203 76.9413 32.5245C77.6361 32.5191 78.3286 32.6036 79.0017 32.7761C79.6549 32.9455 80.272 33.2319 80.8232 33.6214C81.3635 34.0037 81.8142 34.499 82.144 35.073C82.4728 35.7001 82.6446 36.3977 82.6446 37.1058C82.6446 37.8139 82.4728 38.5114 82.144 39.1386Z" fill="#000D32"/>
</g>
<defs>
<clipPath id="clip0_2411_11009">
<rect width="200" height="57.8512" fill="white" transform="translate(0 0.405029)"/>
</clipPath>
</defs>
</svg>
