<svg width="200" height="74" viewBox="0 0 200 74" fill="none" xmlns="http://www.w3.org/2000/svg">
<path fill-rule="evenodd" clip-rule="evenodd" d="M120.264 31.6377C119.432 30.1636 118.121 29.0189 116.548 28.394C117.835 27.7018 118.917 26.6837 119.686 25.4417C120.442 24.2042 120.835 22.7788 120.819 21.3286C120.819 19.3186 120.467 17.6435 119.764 16.3035C119.103 15.0007 118.124 13.8858 116.917 13.0623C115.653 12.2256 114.238 11.6436 112.751 11.3487C111.66 11.1216 110.555 10.9729 109.442 10.904V6.3814C109.441 5.90335 109.251 5.44526 108.913 5.10722C108.574 4.76919 108.116 4.57871 107.638 4.57738H107.48C107.002 4.57871 106.543 4.76911 106.205 5.10707C105.867 5.44503 105.676 5.90312 105.674 6.3814V10.8412H103.093V6.37386C103.092 5.89538 102.901 5.43691 102.562 5.09881C102.224 4.7607 101.765 4.5705 101.287 4.56984H101.131C100.653 4.57116 100.194 4.76158 99.8558 5.09954C99.5173 5.4375 99.3263 5.89558 99.3243 6.37386V10.8337H94.7162C94.203 10.8425 93.6944 10.9315 93.2087 11.0975C92.6553 11.2765 92.143 11.5635 91.7012 11.9417C91.2349 12.3388 90.85 12.8226 90.568 13.3663C90.2515 14.0041 90.0971 14.71 90.1182 15.4216V16.4751C90.0305 16.3033 89.9367 16.1364 89.8368 15.9744C89.0353 14.6456 87.9219 13.5323 86.5931 12.7307C85.1975 11.8992 83.6667 11.3192 82.0705 11.0171C80.4034 10.6844 78.7077 10.5161 77.0077 10.5146C72.2975 10.5146 68.7472 11.4811 66.3569 13.4141C63.965 15.4242 62.7698 17.9727 62.7715 21.0598C62.7715 24.1185 63.8963 26.4384 66.1459 28.0196C66.3569 28.1871 66.3394 28.3454 66.0931 28.4945C64.7747 29.2872 63.6712 30.389 62.8769 31.7027C62.0789 30.3434 60.9239 29.2264 59.5353 28.4744C59.49 28.4492 59.4517 28.413 59.424 28.369C59.3964 28.3251 59.3802 28.275 59.377 28.2232C59.3719 28.1815 59.3792 28.1393 59.398 28.1017C59.4168 28.0642 59.4462 28.033 59.4826 28.0121C61.6283 26.3253 62.7003 23.9878 62.6986 20.9995C62.6986 18.9895 62.2857 17.3144 61.46 15.9744C60.6591 14.6459 59.5466 13.5326 58.2187 12.7307C56.8229 11.8996 55.2922 11.3196 53.6961 11.0171C52.029 10.6845 50.3333 10.5162 48.6333 10.5146C43.9231 10.5146 40.3728 11.4811 37.9826 13.4141C35.5906 15.4242 34.3946 17.9727 34.3946 21.0598C34.3946 24.1185 35.5202 26.4384 37.7715 28.0196C37.9826 28.1955 37.9625 28.3538 37.7187 28.4945C36.394 29.2906 35.2859 30.3984 34.4899 31.7198C33.6916 30.3527 32.5328 29.2296 31.1384 28.4744C31.093 28.4492 31.0547 28.413 31.0271 28.369C30.9994 28.3251 30.9832 28.275 30.9801 28.2232C30.975 28.1815 30.9823 28.1393 31.001 28.1017C31.0198 28.0642 31.0492 28.033 31.0856 28.0121C33.228 26.3253 34.3 23.9878 34.3017 20.9995C34.3017 18.9895 33.8888 17.3144 33.063 15.9744C32.2614 14.6456 31.1481 13.5323 29.8193 12.7307C28.4236 11.8992 26.8929 11.3192 25.2967 11.0171C23.6304 10.6846 21.9355 10.5162 20.2364 10.5146C15.5261 10.5146 11.975 11.4811 9.58309 13.4141C7.19448 15.4242 5.99934 17.9727 5.99766 21.0598C5.99766 24.1185 7.12245 26.4384 9.37203 28.0196C9.58309 28.1871 9.5655 28.3454 9.31927 28.4945C7.91156 29.342 6.74865 30.5413 5.9449 31.9744C5.1185 33.4003 4.685 35.0198 4.68862 36.6679C4.68862 38.7784 5.14591 40.5716 6.06048 42.0473C6.96238 43.5103 8.18926 44.7457 9.6459 45.6578C11.1848 46.6171 12.8808 47.2975 14.656 47.6679C16.4924 48.0692 18.3666 48.2722 20.2464 48.2734C22.0903 48.268 23.9282 48.065 25.7288 47.6679C27.5038 47.298 29.2058 46.6384 30.7665 45.7156C32.2418 44.8223 33.4883 43.5972 34.4072 42.1377C34.4249 42.1103 34.4424 42.0827 34.4597 42.055C35.3611 43.5146 36.5863 44.7473 38.0403 45.6578C39.5795 46.6166 41.2754 47.297 43.0504 47.6679C44.8869 48.0691 46.7611 48.2721 48.6409 48.2734C50.4855 48.268 52.3243 48.0651 54.1258 47.6679C55.8964 47.2965 57.594 46.637 59.1509 45.7156C60.6315 44.8249 61.8828 43.5995 62.8042 42.1377C62.8188 42.1149 62.8334 42.0921 62.8478 42.0691C63.747 43.5237 64.9692 44.7517 66.4198 45.6578C67.9587 46.6171 69.6546 47.2975 71.4298 47.6679C73.2654 48.0691 75.1388 48.2721 77.0177 48.2734C78.8624 48.2682 80.7013 48.0652 82.5027 47.6679C84.2733 47.2965 85.9709 46.637 87.5278 45.7156C88.4994 45.1305 89.3723 44.4015 90.1182 43.5564V46.2709C90.1272 46.6177 90.2691 46.9477 90.5146 47.1928C90.7602 47.4379 91.0905 47.5792 91.4373 47.5874H99.3142V51.4945C99.3156 51.9732 99.5063 52.4319 99.8448 52.7704C100.183 53.1089 100.642 53.2997 101.121 53.301H101.294C101.773 53.3003 102.232 53.1098 102.571 52.7711C102.909 52.4325 103.1 51.9734 103.101 51.4945V47.5874H105.681V51.4945C105.682 51.9732 105.873 52.4319 106.212 52.7704C106.55 53.1089 107.009 53.2997 107.488 53.301H107.646C108.124 53.2997 108.583 53.1088 108.921 52.7703C109.259 52.4317 109.449 51.973 109.45 51.4945V47.5523C110.752 47.4824 112.045 47.2915 113.312 46.9819C114.858 46.6178 116.319 45.9546 117.611 45.0296C118.846 44.1275 119.848 42.9441 120.535 41.5774C121.257 40.1704 121.618 38.4476 121.618 36.409C121.607 34.7253 121.139 33.0762 120.264 31.6377ZM90.1182 30.1827V25.307C89.5867 26.3433 88.8338 27.245 87.8595 28.0121C87.8231 28.033 87.7937 28.0642 87.7749 28.1017C87.7561 28.1393 87.7488 28.1815 87.7539 28.2232C87.7571 28.275 87.7732 28.3251 87.8009 28.369C87.8286 28.413 87.8669 28.4492 87.9122 28.4744C88.7391 28.9231 89.4832 29.5012 90.1182 30.1827ZM106.571 17.9015C107.607 17.8605 108.625 18.1871 109.445 18.8236C110.2 19.4384 110.578 20.3596 110.578 21.5874C110.578 22.8152 110.21 23.7558 109.473 24.409C108.734 25.0573 107.766 25.3822 106.571 25.3839H101.573C101.352 25.394 101.131 25.3514 100.929 25.2597C100.727 25.168 100.55 25.0297 100.412 24.8563C100.161 24.5794 100.012 24.2247 99.9901 23.8512V20.6955C99.9847 20.3346 99.9073 19.9785 99.7623 19.6479C99.6173 19.3174 99.4077 19.0192 99.1459 18.7709C98.8826 18.491 98.5638 18.2692 98.2099 18.1195C97.8822 17.9809 97.531 17.907 97.1758 17.9015H106.571ZM110.131 39.4141C109.339 40.1176 108.31 40.4693 107.045 40.4693H101.573C101.347 40.4848 101.121 40.4448 100.913 40.3528C100.706 40.2609 100.525 40.1198 100.385 39.9417C100.141 39.6427 100.002 39.2719 99.9901 38.8864V35.0372C99.9844 34.6764 99.9068 34.3203 99.7619 33.9898C99.6169 33.6594 99.4075 33.3611 99.1459 33.1126C98.8826 32.8328 98.5638 32.6109 98.2099 32.4612C97.8822 32.3226 97.531 32.2487 97.1758 32.2432H107.055C108.184 32.2058 109.282 32.6127 110.113 33.3764C110.922 34.1318 111.327 35.1427 111.327 36.409C111.327 37.7156 110.931 38.7172 110.141 39.4141H110.131ZM195.364 36.5674C195.364 38.7131 194.872 40.5322 193.887 42.0246C192.921 43.5016 191.62 44.73 190.091 45.6101C188.482 46.5304 186.738 47.1894 184.922 47.5623C183.106 47.9561 181.253 48.159 179.395 48.1679C178.108 48.1649 176.823 48.0861 175.545 47.9317C174.226 47.7768 172.927 47.4846 171.668 47.0598C170.428 46.6463 169.241 46.0907 168.128 45.404C167.027 44.7249 166.069 43.8382 165.307 42.7935C164.042 41.1771 163.392 39.4375 163.357 37.5749C163.353 37.4283 163.379 37.2825 163.433 37.1464C163.488 37.0102 163.569 36.8867 163.674 36.7834C163.911 36.5877 164.207 36.4763 164.515 36.4668H171.478C171.849 36.4495 172.22 36.5219 172.558 36.6779C172.877 36.8674 173.154 37.1185 173.375 37.4166C173.922 38.4655 174.83 39.2805 175.932 39.7106C177.038 40.1205 178.208 40.3257 179.387 40.3161C179.986 40.3114 180.585 40.2677 181.179 40.1854C181.828 40.1022 182.466 39.9428 183.078 39.7106C183.651 39.4979 184.172 39.1646 184.606 38.7332C184.821 38.5105 184.988 38.246 185.097 37.956C185.206 37.666 185.254 37.3566 185.239 37.0472C185.261 36.6396 185.169 36.2339 184.974 35.8754C184.779 35.5168 184.488 35.2197 184.133 35.0171C183.434 34.5959 182.691 34.2514 181.917 33.9895C181.354 33.822 180.66 33.6285 179.834 33.4091C179.009 33.1896 178.05 32.961 176.96 32.7231C175.373 32.4142 173.807 32.0089 172.269 31.5096C170.828 31.0515 169.467 30.3735 168.234 29.4995C167.059 28.6607 166.087 27.5706 165.387 26.3086C164.667 25.0255 164.307 23.4342 164.307 21.5347C164.307 19.5246 164.755 17.8102 165.651 16.3915C166.527 14.9883 167.707 13.7993 169.103 12.9116C170.554 11.997 172.151 11.3376 173.824 10.9618C175.526 10.5612 177.269 10.3572 179.018 10.3538C180.246 10.3566 181.471 10.4625 182.681 10.6704C183.917 10.8788 185.128 11.2156 186.294 11.6754C187.441 12.1252 188.529 12.7097 189.538 13.4166C190.545 14.1249 191.442 14.9774 192.201 15.9467C193.395 17.5297 194.028 19.0941 194.098 20.6402C194.092 21.027 193.983 21.4052 193.782 21.7357C193.678 21.8397 193.555 21.9215 193.419 21.976C193.282 22.0304 193.137 22.0564 192.99 22.0523H185.661C184.887 22.0523 184.292 21.4844 183.869 20.8513C183.741 20.3789 183.485 19.9506 183.131 19.6126C182.771 19.2732 182.351 19.0047 181.892 18.8211C181.424 18.6298 180.937 18.4883 180.44 18.399C179.971 18.3127 179.495 18.2682 179.018 18.2658C178.48 18.2678 177.943 18.303 177.41 18.3714C176.895 18.4341 176.395 18.5863 175.932 18.8211C175.495 19.048 175.115 19.3731 174.824 19.7709C174.51 20.2269 174.353 20.7729 174.377 21.3261C174.377 22.3462 174.905 23.1544 175.96 23.7508C177.012 24.3136 178.962 24.894 181.812 25.492C183.491 25.7718 185.154 26.1408 186.794 26.5975C188.331 27.0115 189.797 27.6517 191.146 28.497C192.396 29.29 193.443 30.3648 194.204 31.6352C194.978 32.9216 195.364 34.5657 195.364 36.5674ZM15.6158 19.6955C15.9077 19.1981 16.3037 18.7695 16.7766 18.4392C17.2642 18.099 17.8088 17.8488 18.3846 17.7005C19.5948 17.3857 20.8654 17.3857 22.0756 17.7005C22.6514 17.8488 23.196 18.099 23.6836 18.4392C24.1565 18.7695 24.5524 19.1981 24.8444 19.6955C25.1545 20.2506 25.309 20.879 25.2916 21.5146C25.3079 22.1246 25.153 22.7269 24.8444 23.2533C24.5431 23.7476 24.1385 24.171 23.6585 24.4945C23.1557 24.8293 22.6039 25.0836 22.0228 25.2483C21.4408 25.4174 20.8374 25.502 20.2313 25.4995C19.616 25.4929 19.0039 25.4085 18.4097 25.2483C17.8252 25.104 17.2718 24.8545 16.7766 24.5121C16.3037 24.1818 15.9077 23.7533 15.6158 23.2558C15.3112 22.7204 15.1567 22.1128 15.1685 21.497C15.1543 20.8674 15.3088 20.2454 15.6158 19.6955ZM25.4147 38.7307C25.0911 39.2994 24.651 39.7934 24.1233 40.1805C23.5746 40.578 22.9582 40.8725 22.3042 41.0498C20.9428 41.4384 19.4998 41.4384 18.1384 41.0498C17.4769 40.8696 16.852 40.5754 16.2916 40.1805C15.7512 39.7994 15.301 39.3046 14.9725 38.7307C14.644 38.0999 14.4725 37.3992 14.4725 36.688C14.4725 35.9768 14.644 35.2761 14.9725 34.6453C15.3066 34.0825 15.7562 33.597 16.2916 33.2206C16.8498 32.8276 17.4759 32.5414 18.1384 32.3764C18.8193 32.2053 19.5192 32.1209 20.2213 32.1252C20.9143 32.12 21.6052 32.2044 22.2766 32.3764C22.9291 32.5452 23.5455 32.8312 24.0957 33.2206C24.636 33.6017 25.0863 34.0965 25.4147 34.6704C25.7431 35.2967 25.9147 35.9934 25.9147 36.7005C25.9147 37.4077 25.7431 38.1044 25.4147 38.7307ZM121.91 46.4291V15.5799C121.891 14.9645 122.004 14.3522 122.24 13.7838C122.477 13.2154 122.832 12.7039 123.282 12.2834C124.141 11.4446 125.297 10.9802 126.498 10.9919H130.716C130.892 10.9788 131.069 11.0052 131.233 11.0691C131.397 11.133 131.545 11.2329 131.666 11.3613C131.788 11.4864 131.884 11.6351 131.948 11.7983C132.011 11.9616 132.041 12.136 132.035 12.311V46.4291C132.041 46.6038 132.012 46.7779 131.948 46.9408C131.885 47.1036 131.789 47.2518 131.666 47.3763C131.545 47.5048 131.397 47.6046 131.233 47.6685C131.069 47.7324 130.892 47.7588 130.716 47.7457H123.229C123.053 47.7547 122.878 47.7268 122.714 47.6639C122.55 47.6009 122.401 47.5043 122.277 47.3802C122.153 47.2562 122.056 47.1074 121.993 46.9436C121.929 46.7798 121.901 46.6045 121.91 46.4291ZM163.859 12.2055C163.859 11.2909 163.402 10.8336 162.488 10.8336H137.224C136.053 10.8399 134.926 11.2814 134.063 12.0724C133.594 12.4803 133.223 12.9883 132.976 13.5588C132.73 14.1293 132.614 14.7478 132.638 15.3688V18.0598C132.625 18.2352 132.652 18.4113 132.716 18.5752C132.78 18.7391 132.879 18.8866 133.008 19.007C133.141 19.1337 133.299 19.2317 133.472 19.2952C133.645 19.3587 133.829 19.3863 134.013 19.3764H141.646C142.05 19.3838 142.436 19.5446 142.726 19.8261C142.892 19.9744 143.024 20.1577 143.111 20.3627C143.197 20.5678 143.238 20.7895 143.229 21.012V46.2708C143.223 46.4504 143.258 46.6289 143.331 46.7929C143.404 46.957 143.514 47.1023 143.651 47.2181C143.909 47.4556 144.247 47.5874 144.598 47.5874H151.885C152.251 47.6086 152.612 47.486 152.89 47.2457C153.017 47.1191 153.116 46.9666 153.18 46.7984C153.244 46.6302 153.271 46.4503 153.259 46.2708V22.1201C153.253 21.758 153.169 21.4014 153.015 21.0739C152.86 20.7464 152.638 20.4556 152.362 20.2206C151.818 19.6812 151.084 19.3779 150.319 19.3764H162.485C162.669 19.3863 162.853 19.3587 163.026 19.2952C163.198 19.2317 163.357 19.1337 163.49 19.007C163.618 18.8863 163.717 18.7387 163.781 18.5749C163.845 18.4111 163.872 18.2352 163.859 18.0598V12.2055ZM45.166 18.4392C44.6932 18.7689 44.2979 19.1976 44.0077 19.6955C43.6991 20.2449 43.5438 20.8671 43.5579 21.497C43.5458 22.1132 43.7012 22.7211 44.0077 23.2558C44.2979 23.7537 44.6932 24.1824 45.166 24.5121C45.6619 24.855 46.2162 25.1045 46.8017 25.2483C47.395 25.4086 48.0062 25.4931 48.6207 25.4995C49.2269 25.5022 49.8302 25.4176 50.4122 25.2483C50.9933 25.0836 51.5452 24.8293 52.0479 24.4945C52.5286 24.1718 52.9333 23.7482 53.2338 23.2533C53.5432 22.7272 53.6991 22.1248 53.6836 21.5146C53.7001 20.8788 53.5447 20.2503 53.2338 19.6955C52.9422 19.1986 52.5472 18.7702 52.0755 18.4392C51.587 18.0989 51.0416 17.8488 50.465 17.7005C49.2548 17.3857 47.9842 17.3857 46.774 17.7005C46.1982 17.8488 45.6536 18.099 45.166 18.4392ZM52.5152 40.1805C53.0429 39.7934 53.483 39.2994 53.8067 38.7307C54.1367 38.1049 54.3092 37.4081 54.3092 36.7005C54.3092 35.993 54.1367 35.2962 53.8067 34.6704C53.4782 34.0965 53.028 33.6017 52.4876 33.2206C51.9375 32.8312 51.3211 32.5452 50.6685 32.3764C49.9971 32.2044 49.3063 32.12 48.6132 32.1252C47.9111 32.121 47.2113 32.2054 46.5303 32.3764C45.8679 32.5414 45.2417 32.8276 44.6836 33.2206C44.1483 33.5964 43.6994 34.0821 43.367 34.6453C43.0159 35.272 42.8422 35.9825 42.8645 36.7005C42.8487 37.4099 43.0222 38.1106 43.367 38.7307C43.6938 39.3049 44.1434 39.8 44.6836 40.1805C45.2439 40.5754 45.8689 40.8696 46.5303 41.0498C47.8917 41.4384 49.3347 41.4384 50.6961 41.0498C51.3503 40.873 51.9668 40.5784 52.5152 40.1805ZM73.5429 18.4392C73.07 18.7695 72.674 19.1981 72.3821 19.6955C72.0751 20.2454 71.9207 20.8674 71.9348 21.497C71.923 22.1128 72.0775 22.7204 72.3821 23.2558C72.674 23.7533 73.07 24.1818 73.5429 24.5121C74.0379 24.8549 74.5913 25.1044 75.176 25.2483C75.7694 25.4084 76.3806 25.4928 76.9951 25.4995C77.6021 25.5022 78.2062 25.4176 78.7891 25.2483C79.3694 25.0835 79.9204 24.8292 80.4223 24.4945C80.9038 24.1719 81.3093 23.7484 81.6107 23.2533C81.9178 22.7263 82.0726 22.1244 82.0579 21.5146C82.0742 20.8792 81.9197 20.251 81.6107 19.6955C81.3187 19.1981 80.9228 18.7695 80.4499 18.4392C79.9623 18.099 79.4177 17.8488 78.8419 17.7005C77.6317 17.3857 76.3611 17.3857 75.1509 17.7005C74.5751 17.8488 74.0305 18.099 73.5429 18.4392ZM80.8871 40.1805C81.4149 39.7928 81.8557 39.299 82.1811 38.7307C82.5095 38.1044 82.681 37.4077 82.681 36.7005C82.681 35.9934 82.5095 35.2967 82.1811 34.6704C81.8518 34.0972 81.4016 33.6025 80.862 33.2206C80.3115 32.8317 79.6952 32.5457 79.0429 32.3764C78.3707 32.2042 77.679 32.1198 76.9851 32.1252C76.283 32.121 75.5831 32.2054 74.9022 32.3764C74.2407 32.542 73.6155 32.8282 73.0579 33.2206C72.5225 33.597 72.0729 34.0825 71.7388 34.6453C71.4103 35.2761 71.2388 35.9768 71.2388 36.688C71.2388 37.3992 71.4103 38.0999 71.7388 38.7307C72.0673 39.3046 72.5175 39.7994 73.0579 40.1805C73.6177 40.5749 74.2417 40.869 74.9022 41.0498C76.2636 41.4384 77.7066 41.4384 79.068 41.0498C79.7224 40.8735 80.3389 40.5789 80.8871 40.1805Z" fill="#FF0066"/>
<path d="M14.1457 57.0467C13.3022 57.0467 12.6559 57.3041 12.2067 57.819C11.7576 58.3339 11.533 59.0624 11.533 60.0045C11.533 60.9576 11.7795 61.6916 12.2724 62.2065C12.7764 62.7214 13.4501 62.9788 14.2936 62.9788C14.7428 62.9788 15.1207 62.9186 15.4275 62.7981C15.7452 62.6775 16.0464 62.5406 16.3312 62.3872C16.5175 62.5406 16.6599 62.7268 16.7585 62.9459C16.868 63.1541 16.9228 63.4006 16.9228 63.6854C16.9228 64.1346 16.6708 64.518 16.1669 64.8357C15.6739 65.1424 14.9181 65.2958 13.8992 65.2958C13.1653 65.2958 12.4751 65.1917 11.8288 64.9836C11.1824 64.7754 10.6182 64.4577 10.1362 64.0305C9.6542 63.5923 9.27077 63.0445 8.98595 62.3872C8.71207 61.719 8.57514 60.9248 8.57514 60.0045C8.57514 59.1501 8.70659 58.3996 8.96951 57.7533C9.24339 57.096 9.61038 56.5428 10.0705 56.0936C10.5415 55.6445 11.0893 55.3049 11.7137 55.0748C12.3382 54.8448 13.0064 54.7297 13.7185 54.7297C14.7263 54.7297 15.5041 54.8941 16.0519 55.2227C16.6106 55.5514 16.8899 55.9731 16.8899 56.488C16.8899 56.7728 16.8187 57.0193 16.6763 57.2275C16.5339 57.4356 16.3696 57.5999 16.1834 57.7204C15.8985 57.5342 15.5918 57.3754 15.2631 57.2439C14.9454 57.1124 14.573 57.0467 14.1457 57.0467ZM20.5649 64.9836C20.4554 65.0164 20.2801 65.0493 20.0391 65.0822C19.8091 65.115 19.568 65.1315 19.3161 65.1315C19.0751 65.1315 18.856 65.115 18.6588 65.0822C18.4726 65.0493 18.3137 64.9836 18.1822 64.885C18.0508 64.7864 17.9467 64.6549 17.87 64.4906C17.8043 64.3153 17.7714 64.0907 17.7714 63.8169V58.8871C17.7714 58.6352 17.8153 58.4215 17.9029 58.2463C18.0015 58.06 18.1384 57.8957 18.3137 57.7533C18.489 57.6109 18.7026 57.4849 18.9546 57.3754C19.2175 57.2548 19.4968 57.1508 19.7926 57.0631C20.0884 56.9755 20.3951 56.9098 20.7128 56.8659C21.0305 56.8112 21.3482 56.7838 21.6659 56.7838C22.1918 56.7838 22.608 56.8879 22.9148 57.096C23.2215 57.2932 23.3749 57.6218 23.3749 58.0819C23.3749 58.2353 23.353 58.3887 23.3092 58.5421C23.2653 58.6845 23.2106 58.8159 23.1448 58.9364C22.9148 58.9364 22.6793 58.9474 22.4382 58.9693C22.1972 58.9912 21.9617 59.0241 21.7317 59.0679C21.5016 59.1117 21.2825 59.161 21.0744 59.2158C20.8772 59.2596 20.7074 59.3144 20.5649 59.3801V64.9836ZM25.6906 62.9624C25.5701 62.6885 25.4387 62.3818 25.2962 62.0422C25.1648 61.7026 25.0224 61.3137 24.869 60.8755C24.7266 60.4373 24.5732 59.9388 24.4089 59.3801C24.2555 58.8104 24.0912 58.1586 23.9159 57.4246C24.0693 57.2713 24.272 57.1398 24.5239 57.0303C24.7868 56.9098 25.0717 56.8495 25.3784 56.8495C25.7618 56.8495 26.0795 56.9317 26.3315 57.096C26.5835 57.2494 26.7697 57.5452 26.8902 57.9834L28.1884 62.5023H28.2541C28.3855 62.1298 28.5115 61.7245 28.632 61.2863C28.7635 60.8481 28.8895 60.3989 29.01 59.9388C29.1305 59.4677 29.24 59.0022 29.3386 58.5421C29.4482 58.071 29.5413 57.6109 29.618 57.1617C30.0124 56.9536 30.4451 56.8495 30.9161 56.8495C31.2996 56.8495 31.6173 56.9317 31.8692 57.096C32.1212 57.2603 32.2472 57.5452 32.2472 57.9505C32.2472 58.2463 32.2088 58.5914 32.1321 58.9857C32.0555 59.3692 31.9514 59.78 31.8199 60.2182C31.6994 60.6564 31.5515 61.111 31.3763 61.5821C31.2119 62.0422 31.0366 62.4968 30.8504 62.9459C30.6642 63.3951 30.4725 63.8223 30.2753 64.2277C30.0781 64.6221 29.8864 64.9781 29.7001 65.2958C29.3934 65.8326 29.1086 66.2708 28.8457 66.6104C28.5827 66.95 28.3308 67.2129 28.0898 67.3991C27.8488 67.5963 27.6077 67.7278 27.3667 67.7935C27.1257 67.8702 26.8738 67.9085 26.6108 67.9085C26.1507 67.9085 25.7783 67.7716 25.4934 67.4977C25.2086 67.2239 25.0388 66.8678 24.984 66.4296C25.3346 66.1557 25.6852 65.849 26.0357 65.5094C26.3863 65.1808 26.704 64.8412 26.9888 64.4906C26.8026 64.4358 26.5999 64.3098 26.3808 64.1126C26.1726 63.9045 25.9426 63.5211 25.6906 62.9624ZM36.7022 56.7673C37.3595 56.7673 37.9675 56.855 38.5262 57.0303C39.0959 57.1946 39.5834 57.452 39.9887 57.8026C40.394 58.1532 40.7117 58.5968 40.9418 59.1336C41.1718 59.6595 41.2868 60.2894 41.2868 61.0234C41.2868 61.7245 41.1883 62.3379 40.9911 62.8638C40.7939 63.3896 40.5145 63.8333 40.153 64.1948C39.7915 64.5454 39.3533 64.8083 38.8384 64.9836C38.3345 65.1588 37.7703 65.2465 37.1459 65.2465C36.6748 65.2465 36.2366 65.1753 35.8313 65.0329V67.7606C35.7217 67.7935 35.5465 67.8264 35.3054 67.8592C35.0644 67.9031 34.8179 67.925 34.566 67.925C34.325 67.925 34.1059 67.9085 33.9087 67.8757C33.7225 67.8428 33.5636 67.7771 33.4321 67.6785C33.3007 67.5799 33.2021 67.443 33.1364 67.2677C33.0706 67.1034 33.0378 66.8843 33.0378 66.6104V58.7228C33.0378 58.427 33.098 58.186 33.2185 57.9998C33.35 57.8135 33.5253 57.6437 33.7444 57.4904C34.084 57.2713 34.5057 57.096 35.0097 56.9645C35.5136 56.8331 36.0778 56.7673 36.7022 56.7673ZM36.7351 63.0445C37.8634 63.0445 38.4276 62.3708 38.4276 61.0234C38.4276 60.3222 38.2852 59.8019 38.0004 59.4623C37.7265 59.1227 37.3266 58.9529 36.8008 58.9529C36.5927 58.9529 36.4064 58.9803 36.2421 59.035C36.0778 59.0788 35.9354 59.1336 35.8148 59.1994V62.8145C35.9463 62.8802 36.0887 62.935 36.2421 62.9788C36.3955 63.0226 36.5598 63.0445 36.7351 63.0445ZM45.1013 62.2558C45.1013 62.5406 45.1889 62.7433 45.3642 62.8638C45.5504 62.9843 45.8079 63.0445 46.1365 63.0445C46.3008 63.0445 46.4706 63.0336 46.6459 63.0117C46.8212 62.9788 46.9746 62.9405 47.106 62.8966C47.2046 63.0172 47.2868 63.1541 47.3525 63.3075C47.4292 63.4499 47.4675 63.6252 47.4675 63.8333C47.4675 64.2496 47.3087 64.5892 46.991 64.8521C46.6843 65.115 46.1365 65.2465 45.3478 65.2465C44.3837 65.2465 43.6388 65.0274 43.1129 64.5892C42.5981 64.151 42.3406 63.4389 42.3406 62.453V55.4199C42.4611 55.387 42.6309 55.3542 42.85 55.3213C43.0801 55.2775 43.3211 55.2556 43.5731 55.2556C44.0551 55.2556 44.4275 55.3432 44.6905 55.5185C44.9643 55.6828 45.1013 56.0388 45.1013 56.5866V57.6383H47.2539C47.3196 57.7588 47.3799 57.9121 47.4347 58.0984C47.5004 58.2737 47.5333 58.4708 47.5333 58.6899C47.5333 59.0734 47.4456 59.3527 47.2704 59.528C47.106 59.6923 46.8815 59.7745 46.5966 59.7745H45.1013V62.2558ZM56.714 61.0069C56.714 61.6861 56.61 62.2941 56.4018 62.8309C56.1937 63.3568 55.8979 63.8004 55.5145 64.1619C55.142 64.5235 54.6928 64.7973 54.167 64.9836C53.6412 65.1698 53.0551 65.2629 52.4087 65.2629C51.7624 65.2629 51.1763 65.1643 50.6505 64.9671C50.1246 64.7699 49.67 64.4906 49.2866 64.1291C48.9141 63.7566 48.6238 63.3075 48.4157 62.7816C48.2075 62.2558 48.1034 61.6642 48.1034 61.0069C48.1034 60.3606 48.2075 59.7745 48.4157 59.2486C48.6238 58.7228 48.9141 58.2791 49.2866 57.9176C49.67 57.5452 50.1246 57.2603 50.6505 57.0631C51.1763 56.8659 51.7624 56.7673 52.4087 56.7673C53.0551 56.7673 53.6412 56.8714 54.167 57.0796C54.6928 57.2768 55.142 57.5616 55.5145 57.9341C55.8979 58.2956 56.1937 58.7392 56.4018 59.2651C56.61 59.7909 56.714 60.3715 56.714 61.0069ZM50.9627 61.0069C50.9627 61.6752 51.0887 62.1901 51.3406 62.5516C51.6036 62.9021 51.9651 63.0774 52.4252 63.0774C52.8853 63.0774 53.2358 62.8966 53.4768 62.5351C53.7288 62.1736 53.8548 61.6642 53.8548 61.0069C53.8548 60.3496 53.7288 59.8457 53.4768 59.4951C53.2249 59.1336 52.8688 58.9529 52.4087 58.9529C51.9486 58.9529 51.5926 59.1336 51.3406 59.4951C51.0887 59.8457 50.9627 60.3496 50.9627 61.0069ZM69.9169 63.3732C69.9169 63.7128 69.8567 63.9648 69.7362 64.1291C69.6157 64.2934 69.424 64.4523 69.161 64.6056C69.0077 64.6933 68.816 64.7809 68.5859 64.8685C68.3559 64.9452 68.1039 65.011 67.83 65.0657C67.5561 65.1315 67.2658 65.1808 66.9591 65.2136C66.6633 65.2465 66.3675 65.2629 66.0718 65.2629C65.283 65.2629 64.5435 65.1588 63.8534 64.9507C63.1632 64.7316 62.5607 64.4084 62.0458 63.9812C61.5419 63.543 61.142 63.0007 60.8462 62.3544C60.5505 61.708 60.4026 60.9576 60.4026 60.1031C60.4026 59.2048 60.5614 58.4215 60.8791 57.7533C61.2078 57.085 61.635 56.5318 62.1608 56.0936C62.6976 55.6445 63.3056 55.3103 63.9848 55.0912C64.675 54.8721 65.3816 54.7626 66.1046 54.7626C67.1453 54.7626 67.967 54.9324 68.5695 55.272C69.183 55.6006 69.4897 56.0334 69.4897 56.5702C69.4897 56.855 69.4185 57.1015 69.2761 57.3096C69.1337 57.5178 68.9693 57.6821 68.7831 57.8026C68.5092 57.6383 68.1641 57.4794 67.7479 57.3261C67.3425 57.1617 66.8824 57.0796 66.3675 57.0796C65.4473 57.0796 64.7133 57.3425 64.1656 57.8683C63.6288 58.3942 63.3604 59.1227 63.3604 60.0538C63.3604 60.5578 63.4316 60.996 63.574 61.3684C63.7274 61.7299 63.9301 62.0312 64.182 62.2722C64.434 62.5023 64.7243 62.6775 65.0529 62.7981C65.3816 62.9076 65.7321 62.9624 66.1046 62.9624C66.3456 62.9624 66.5592 62.9405 66.7455 62.8966C66.9317 62.8528 67.0741 62.8035 67.1727 62.7488V61.2041H65.4145C65.3487 61.0836 65.283 60.9248 65.2173 60.7276C65.1625 60.5304 65.1351 60.3222 65.1351 60.1031C65.1351 59.7088 65.2227 59.4239 65.398 59.2486C65.5843 59.0734 65.8198 58.9857 66.1046 58.9857H68.8817C69.2103 58.9857 69.4623 59.0788 69.6376 59.2651C69.8238 59.4404 69.9169 59.6923 69.9169 60.021V63.3732ZM74.7499 63.2253C74.9362 63.2253 75.1388 63.2089 75.3579 63.176C75.588 63.1322 75.7578 63.0774 75.8673 63.0117V61.6971L74.6842 61.7957C74.3775 61.8176 74.1255 61.8833 73.9283 61.9929C73.7311 62.1024 73.6325 62.2667 73.6325 62.4858C73.6325 62.7049 73.7147 62.8857 73.879 63.0281C74.0543 63.1596 74.3446 63.2253 74.7499 63.2253ZM74.6185 56.7673C75.21 56.7673 75.7468 56.8276 76.2288 56.9481C76.7218 57.0686 77.1381 57.2548 77.4777 57.5068C77.8283 57.7478 78.0967 58.06 78.2829 58.4435C78.4691 58.8159 78.5622 59.2596 78.5622 59.7745V63.4554C78.5622 63.7402 78.4801 63.9757 78.3158 64.1619C78.1624 64.3372 77.9762 64.4906 77.7571 64.6221C77.045 65.0493 76.0426 65.2629 74.7499 65.2629C74.1693 65.2629 73.6435 65.2081 73.1724 65.0986C72.7123 64.989 72.3124 64.8247 71.9728 64.6056C71.6442 64.3865 71.3867 64.1072 71.2005 63.7676C71.0252 63.428 70.9376 63.0336 70.9376 62.5844C70.9376 61.8285 71.1622 61.2479 71.6113 60.8426C72.0605 60.4373 72.7561 60.1853 73.6982 60.0867L75.8509 59.8566V59.7416C75.8509 59.4239 75.7085 59.1994 75.4236 59.0679C75.1498 58.9255 74.7499 58.8543 74.2241 58.8543C73.8078 58.8543 73.4025 58.8981 73.0081 58.9857C72.6137 59.0734 72.2577 59.1829 71.94 59.3144C71.7976 59.2158 71.6771 59.0679 71.5785 58.8707C71.4799 58.6626 71.4306 58.4489 71.4306 58.2298C71.4306 57.945 71.4963 57.7204 71.6278 57.5561C71.7702 57.3808 71.9838 57.2329 72.2686 57.1124C72.5863 56.9919 72.9588 56.9043 73.386 56.8495C73.8242 56.7947 74.235 56.7673 74.6185 56.7673ZM83.7567 56.7673C84.2059 56.7673 84.6441 56.8331 85.0713 56.9645C85.5095 57.085 85.8875 57.2713 86.2052 57.5232C86.5338 57.3041 86.9008 57.1234 87.3061 56.981C87.7224 56.8386 88.2209 56.7673 88.8015 56.7673C89.2178 56.7673 89.6231 56.8221 90.0175 56.9317C90.4228 57.0412 90.7789 57.2165 91.0856 57.4575C91.4033 57.6876 91.6553 57.9998 91.8415 58.3942C92.0277 58.7776 92.1208 59.2486 92.1208 59.8074V64.9836C92.0113 65.0164 91.836 65.0493 91.595 65.0822C91.3649 65.115 91.1239 65.1315 90.872 65.1315C90.631 65.1315 90.4119 65.115 90.2147 65.0822C90.0284 65.0493 89.8696 64.9836 89.7381 64.885C89.6067 64.7864 89.5026 64.6549 89.4259 64.4906C89.3602 64.3153 89.3273 64.0907 89.3273 63.8169V59.8895C89.3273 59.5609 89.2342 59.3253 89.048 59.1829C88.8617 59.0295 88.6098 58.9529 88.2921 58.9529C88.1387 58.9529 87.9744 58.9912 87.7991 59.0679C87.6238 59.1336 87.4924 59.2048 87.4047 59.2815C87.4157 59.3253 87.4212 59.3692 87.4212 59.413C87.4212 59.4458 87.4212 59.4787 87.4212 59.5116V64.9836C87.3007 65.0164 87.1199 65.0493 86.8789 65.0822C86.6488 65.115 86.4133 65.1315 86.1723 65.1315C85.9313 65.1315 85.7122 65.115 85.515 65.0822C85.3288 65.0493 85.1699 64.9836 85.0385 64.885C84.907 64.7864 84.8029 64.6549 84.7262 64.4906C84.6605 64.3153 84.6276 64.0907 84.6276 63.8169V59.8895C84.6276 59.5609 84.5236 59.3253 84.3154 59.1829C84.1182 59.0295 83.8772 58.9529 83.5924 58.9529C83.3952 58.9529 83.2254 58.9857 83.083 59.0515C82.9406 59.1062 82.8201 59.161 82.7215 59.2158V64.9836C82.6119 65.0164 82.4367 65.0493 82.1956 65.0822C81.9656 65.115 81.7246 65.1315 81.4726 65.1315C81.2316 65.1315 81.0125 65.115 80.8153 65.0822C80.6291 65.0493 80.4702 64.9836 80.3388 64.885C80.2073 64.7864 80.1033 64.6549 80.0266 64.4906C79.9608 64.3153 79.928 64.0907 79.928 63.8169V58.8543C79.928 58.5585 79.9882 58.323 80.1087 58.1477C80.2402 57.9724 80.4155 57.8081 80.6346 57.6547C81.007 57.3918 81.4671 57.1782 82.0149 57.0138C82.5736 56.8495 83.1542 56.7673 83.7567 56.7673ZM93.5155 54.3025C93.625 54.2696 93.8003 54.2368 94.0413 54.2039C94.2823 54.1601 94.5288 54.1382 94.7808 54.1382C95.0218 54.1382 95.2354 54.1546 95.4216 54.1875C95.6188 54.2203 95.7831 54.2861 95.9146 54.3846C96.0461 54.4832 96.1446 54.6202 96.2104 54.7955C96.2761 54.9598 96.309 55.1789 96.309 55.4528V57.0631C96.5828 56.9536 96.8403 56.8769 97.0813 56.8331C97.3333 56.7893 97.6071 56.7673 97.9029 56.7673C98.4288 56.7673 98.9272 56.8605 99.3983 57.0467C99.8693 57.2329 100.286 57.5068 100.647 57.8683C101.009 58.2189 101.293 58.6571 101.502 59.1829C101.71 59.7088 101.814 60.3168 101.814 61.0069C101.814 61.719 101.704 62.3434 101.485 62.8802C101.277 63.4061 100.981 63.8443 100.598 64.1948C100.214 64.5454 99.7433 64.8138 99.1846 65C98.6369 65.1753 98.0289 65.2629 97.3606 65.2629C96.6376 65.2629 96.0241 65.1753 95.5202 65C95.0163 64.8357 94.589 64.6275 94.2385 64.3756C93.7565 64.036 93.5155 63.5978 93.5155 63.061V54.3025ZM97.3606 63.061C97.8646 63.061 98.2535 62.8912 98.5273 62.5516C98.8122 62.201 98.9546 61.6861 98.9546 61.0069C98.9546 60.3168 98.8122 59.8019 98.5273 59.4623C98.2425 59.1227 97.8591 58.9529 97.3771 58.9529C97.158 58.9529 96.9663 58.9748 96.8019 59.0186C96.6486 59.0624 96.4788 59.1281 96.2925 59.2158V62.7981C96.413 62.8747 96.5555 62.9405 96.7198 62.9952C96.8951 63.0391 97.1087 63.061 97.3606 63.061ZM105.676 64.9836C105.555 65.0055 105.374 65.0329 105.133 65.0657C104.903 65.1095 104.668 65.1315 104.427 65.1315C104.186 65.1315 103.967 65.115 103.769 65.0822C103.583 65.0493 103.424 64.9836 103.293 64.885C103.161 64.7864 103.057 64.6549 102.981 64.4906C102.915 64.3153 102.882 64.0907 102.882 63.8169V54.2861C103.003 54.2641 103.178 54.2368 103.408 54.2039C103.649 54.1601 103.89 54.1382 104.131 54.1382C104.372 54.1382 104.586 54.1546 104.772 54.1875C104.969 54.2203 105.133 54.2861 105.265 54.3846C105.396 54.4832 105.495 54.6202 105.561 54.7955C105.637 54.9598 105.676 55.1789 105.676 55.4528V64.9836ZM111.319 65.2629C110.673 65.2629 110.07 65.1753 109.512 65C108.964 64.8138 108.482 64.5399 108.066 64.1784C107.66 63.8169 107.337 63.3622 107.096 62.8145C106.866 62.2667 106.751 61.6259 106.751 60.8919C106.751 60.1689 106.866 59.5499 107.096 59.035C107.337 58.5092 107.649 58.0819 108.033 57.7533C108.416 57.4137 108.854 57.1672 109.347 57.0138C109.84 56.8495 110.344 56.7673 110.859 56.7673C111.44 56.7673 111.966 56.855 112.437 57.0303C112.919 57.2055 113.329 57.4466 113.669 57.7533C114.02 58.06 114.288 58.427 114.474 58.8543C114.671 59.2815 114.77 59.7471 114.77 60.251C114.77 60.6235 114.666 60.9083 114.458 61.1055C114.25 61.3027 113.959 61.4287 113.587 61.4835L109.528 62.0915C109.649 62.453 109.895 62.7268 110.268 62.9131C110.64 63.0884 111.067 63.176 111.549 63.176C111.998 63.176 112.42 63.1212 112.815 63.0117C113.22 62.8912 113.549 62.7542 113.8 62.6009C113.976 62.7104 114.124 62.8638 114.244 63.061C114.365 63.2582 114.425 63.4663 114.425 63.6854C114.425 64.1784 114.195 64.5454 113.735 64.7864C113.384 64.9726 112.99 65.0986 112.552 65.1643C112.113 65.2301 111.703 65.2629 111.319 65.2629ZM110.859 58.805C110.596 58.805 110.366 58.8488 110.169 58.9364C109.983 59.0241 109.829 59.1391 109.709 59.2815C109.588 59.413 109.495 59.5663 109.429 59.7416C109.375 59.9059 109.342 60.0757 109.331 60.251L112.141 59.7909C112.108 59.5718 111.987 59.3527 111.779 59.1336C111.571 58.9145 111.264 58.805 110.859 58.805ZM118.933 56.5702C118.933 56.0991 119.07 55.7266 119.344 55.4528C119.618 55.1789 119.99 55.0419 120.461 55.0419H125.884C125.961 55.1624 126.027 55.3213 126.081 55.5185C126.147 55.7157 126.18 55.9238 126.18 56.1429C126.18 56.5592 126.087 56.855 125.901 57.0303C125.725 57.2055 125.49 57.2932 125.194 57.2932H121.727V58.8214H125.424C125.501 58.9419 125.566 59.1008 125.621 59.2979C125.687 59.4842 125.72 59.6868 125.72 59.9059C125.72 60.3222 125.632 60.618 125.457 60.7933C125.282 60.9686 125.046 61.0562 124.75 61.0562H121.727V62.7816H125.95C126.027 62.9021 126.092 63.061 126.147 63.2582C126.213 63.4554 126.246 63.6635 126.246 63.8826C126.246 64.2989 126.153 64.6001 125.966 64.7864C125.791 64.9617 125.556 65.0493 125.26 65.0493H120.461C119.99 65.0493 119.618 64.9124 119.344 64.6385C119.07 64.3646 118.933 63.9921 118.933 63.5211V56.5702ZM127 58.312C127.088 57.8957 127.258 57.5561 127.51 57.2932C127.773 57.0303 128.096 56.8988 128.479 56.8988C128.841 56.8988 129.12 56.9864 129.317 57.1617C129.515 57.337 129.734 57.5835 129.975 57.9012L131.026 59.2815L132.785 56.8988C133.387 56.8988 133.864 57.0084 134.214 57.2275C134.565 57.4356 134.74 57.7204 134.74 58.0819C134.74 58.2244 134.718 58.3558 134.674 58.4763C134.641 58.5859 134.587 58.7009 134.51 58.8214C134.433 58.9419 134.335 59.0788 134.214 59.2322C134.094 59.3856 133.951 59.5663 133.787 59.7745L132.702 60.9905L134.855 63.8333C134.8 64.2496 134.636 64.5782 134.362 64.8192C134.088 65.0603 133.76 65.1808 133.376 65.1808C132.96 65.1698 132.626 65.0493 132.374 64.8192C132.133 64.5892 131.897 64.3098 131.667 63.9812L130.78 62.7159L129.104 65.1315C129.049 65.1315 128.989 65.1315 128.923 65.1315C128.857 65.1424 128.802 65.1479 128.759 65.1479C128.2 65.1479 127.773 65.0329 127.477 64.8028C127.192 64.5728 127.05 64.2879 127.05 63.9483C127.05 63.6854 127.11 63.4554 127.23 63.2582C127.362 63.05 127.581 62.7707 127.888 62.4201L129.202 60.8919L127 58.312ZM139.367 56.7673C140.025 56.7673 140.633 56.855 141.191 57.0303C141.761 57.1946 142.249 57.452 142.654 57.8026C143.059 58.1532 143.377 58.5968 143.607 59.1336C143.837 59.6595 143.952 60.2894 143.952 61.0234C143.952 61.7245 143.854 62.3379 143.656 62.8638C143.459 63.3896 143.18 63.8333 142.818 64.1948C142.457 64.5454 142.019 64.8083 141.504 64.9836C141 65.1588 140.436 65.2465 139.811 65.2465C139.34 65.2465 138.902 65.1753 138.497 65.0329V67.7606C138.387 67.7935 138.212 67.8264 137.971 67.8592C137.73 67.9031 137.483 67.925 137.231 67.925C136.99 67.925 136.771 67.9085 136.574 67.8757C136.388 67.8428 136.229 67.7771 136.097 67.6785C135.966 67.5799 135.867 67.443 135.802 67.2677C135.736 67.1034 135.703 66.8843 135.703 66.6104V58.7228C135.703 58.427 135.763 58.186 135.884 57.9998C136.015 57.8135 136.191 57.6437 136.41 57.4904C136.749 57.2713 137.171 57.096 137.675 56.9645C138.179 56.8331 138.743 56.7673 139.367 56.7673ZM139.4 63.0445C140.529 63.0445 141.093 62.3708 141.093 61.0234C141.093 60.3222 140.95 59.8019 140.666 59.4623C140.392 59.1227 139.992 58.9529 139.466 58.9529C139.258 58.9529 139.072 58.9803 138.907 59.035C138.743 59.0788 138.601 59.1336 138.48 59.1994V62.8145C138.612 62.8802 138.754 62.935 138.907 62.9788C139.061 63.0226 139.225 63.0445 139.4 63.0445ZM149.196 65.2629C148.55 65.2629 147.947 65.1753 147.389 65C146.841 64.8138 146.359 64.5399 145.943 64.1784C145.537 63.8169 145.214 63.3622 144.973 62.8145C144.743 62.2667 144.628 61.6259 144.628 60.8919C144.628 60.1689 144.743 59.5499 144.973 59.035C145.214 58.5092 145.526 58.0819 145.91 57.7533C146.293 57.4137 146.731 57.1672 147.224 57.0138C147.717 56.8495 148.221 56.7673 148.736 56.7673C149.317 56.7673 149.843 56.855 150.314 57.0303C150.796 57.2055 151.206 57.4466 151.546 57.7533C151.897 58.06 152.165 58.427 152.351 58.8543C152.548 59.2815 152.647 59.7471 152.647 60.251C152.647 60.6235 152.543 60.9083 152.335 61.1055C152.127 61.3027 151.836 61.4287 151.464 61.4835L147.405 62.0915C147.526 62.453 147.772 62.7268 148.144 62.9131C148.517 63.0884 148.944 63.176 149.426 63.176C149.875 63.176 150.297 63.1212 150.692 63.0117C151.097 62.8912 151.426 62.7542 151.677 62.6009C151.853 62.7104 152.001 62.8638 152.121 63.061C152.242 63.2582 152.302 63.4663 152.302 63.6854C152.302 64.1784 152.072 64.5454 151.612 64.7864C151.261 64.9726 150.867 65.0986 150.429 65.1643C149.99 65.2301 149.58 65.2629 149.196 65.2629ZM148.736 58.805C148.473 58.805 148.243 58.8488 148.046 58.9364C147.86 59.0241 147.706 59.1391 147.586 59.2815C147.465 59.413 147.372 59.5663 147.306 59.7416C147.252 59.9059 147.219 60.0757 147.208 60.251L150.018 59.7909C149.985 59.5718 149.864 59.3527 149.656 59.1336C149.448 58.9145 149.141 58.805 148.736 58.805ZM156.443 64.9836C156.333 65.0164 156.158 65.0493 155.917 65.0822C155.687 65.115 155.446 65.1315 155.194 65.1315C154.953 65.1315 154.734 65.115 154.537 65.0822C154.35 65.0493 154.192 64.9836 154.06 64.885C153.929 64.7864 153.825 64.6549 153.748 64.4906C153.682 64.3153 153.649 64.0907 153.649 63.8169V58.8871C153.649 58.6352 153.693 58.4215 153.781 58.2463C153.879 58.06 154.016 57.8957 154.192 57.7533C154.367 57.6109 154.58 57.4849 154.832 57.3754C155.095 57.2548 155.375 57.1508 155.67 57.0631C155.966 56.9755 156.273 56.9098 156.591 56.8659C156.908 56.8112 157.226 56.7838 157.544 56.7838C158.07 56.7838 158.486 56.8879 158.793 57.096C159.099 57.2932 159.253 57.6218 159.253 58.0819C159.253 58.2353 159.231 58.3887 159.187 58.5421C159.143 58.6845 159.088 58.8159 159.023 58.9364C158.793 58.9364 158.557 58.9474 158.316 58.9693C158.075 58.9912 157.84 59.0241 157.609 59.0679C157.379 59.1117 157.16 59.161 156.952 59.2158C156.755 59.2596 156.585 59.3144 156.443 59.3801V64.9836ZM159.997 54.7955C159.997 54.3792 160.134 54.0286 160.408 53.7438C160.693 53.459 161.065 53.3165 161.525 53.3165C161.985 53.3165 162.352 53.459 162.626 53.7438C162.911 54.0286 163.054 54.3792 163.054 54.7955C163.054 55.2117 162.911 55.5623 162.626 55.8471C162.352 56.132 161.985 56.2744 161.525 56.2744C161.065 56.2744 160.693 56.132 160.408 55.8471C160.134 55.5623 159.997 55.2117 159.997 54.7955ZM162.922 64.9836C162.802 65.0055 162.621 65.0329 162.38 65.0657C162.15 65.1095 161.914 65.1315 161.673 65.1315C161.432 65.1315 161.213 65.115 161.016 65.0822C160.83 65.0493 160.671 64.9836 160.539 64.885C160.408 64.7864 160.304 64.6549 160.227 64.4906C160.161 64.3153 160.129 64.0907 160.129 63.8169V57.1289C160.249 57.107 160.424 57.0796 160.654 57.0467C160.895 57.0029 161.136 56.981 161.377 56.981C161.618 56.981 161.832 56.9974 162.018 57.0303C162.215 57.0631 162.38 57.1289 162.511 57.2275C162.643 57.3261 162.741 57.463 162.807 57.6383C162.884 57.8026 162.922 58.0217 162.922 58.2956V64.9836ZM168.581 65.2629C167.935 65.2629 167.332 65.1753 166.774 65C166.226 64.8138 165.744 64.5399 165.328 64.1784C164.922 63.8169 164.599 63.3622 164.358 62.8145C164.128 62.2667 164.013 61.6259 164.013 60.8919C164.013 60.1689 164.128 59.5499 164.358 59.035C164.599 58.5092 164.911 58.0819 165.295 57.7533C165.678 57.4137 166.116 57.1672 166.609 57.0138C167.102 56.8495 167.606 56.7673 168.121 56.7673C168.702 56.7673 169.228 56.855 169.699 57.0303C170.181 57.2055 170.592 57.4466 170.931 57.7533C171.282 58.06 171.55 58.427 171.736 58.8543C171.934 59.2815 172.032 59.7471 172.032 60.251C172.032 60.6235 171.928 60.9083 171.72 61.1055C171.512 61.3027 171.221 61.4287 170.849 61.4835L166.79 62.0915C166.911 62.453 167.157 62.7268 167.53 62.9131C167.902 63.0884 168.329 63.176 168.811 63.176C169.261 63.176 169.682 63.1212 170.077 63.0117C170.482 62.8912 170.811 62.7542 171.063 62.6009C171.238 62.7104 171.386 62.8638 171.506 63.061C171.627 63.2582 171.687 63.4663 171.687 63.6854C171.687 64.1784 171.457 64.5454 170.997 64.7864C170.646 64.9726 170.252 65.0986 169.814 65.1643C169.376 65.2301 168.965 65.2629 168.581 65.2629ZM168.121 58.805C167.858 58.805 167.628 58.8488 167.431 58.9364C167.245 59.0241 167.091 59.1391 166.971 59.2815C166.85 59.413 166.757 59.5663 166.692 59.7416C166.637 59.9059 166.604 60.0757 166.593 60.251L169.403 59.7909C169.37 59.5718 169.25 59.3527 169.041 59.1336C168.833 58.9145 168.527 58.805 168.121 58.805ZM178.096 59.9388C178.096 59.5992 177.997 59.3527 177.8 59.1994C177.614 59.035 177.356 58.9529 177.027 58.9529C176.808 58.9529 176.589 58.9803 176.37 59.035C176.162 59.0898 175.981 59.172 175.828 59.2815V64.9836C175.718 65.0164 175.543 65.0493 175.302 65.0822C175.072 65.115 174.831 65.1315 174.579 65.1315C174.338 65.1315 174.119 65.115 173.922 65.0822C173.736 65.0493 173.577 64.9836 173.445 64.885C173.314 64.7864 173.21 64.6549 173.133 64.4906C173.067 64.3153 173.034 64.0907 173.034 63.8169V58.8871C173.034 58.5914 173.095 58.3503 173.215 58.1641C173.347 57.9779 173.522 57.8081 173.741 57.6547C174.113 57.3918 174.579 57.1782 175.138 57.0138C175.707 56.8495 176.337 56.7673 177.027 56.7673C178.265 56.7673 179.218 57.0412 179.887 57.589C180.555 58.1258 180.889 58.8762 180.889 59.8402V64.9836C180.78 65.0164 180.604 65.0493 180.363 65.0822C180.133 65.115 179.892 65.1315 179.64 65.1315C179.399 65.1315 179.18 65.115 178.983 65.0822C178.797 65.0493 178.638 64.9836 178.506 64.885C178.375 64.7864 178.271 64.6549 178.194 64.4906C178.128 64.3153 178.096 64.0907 178.096 63.8169V59.9388ZM186.775 58.9693C186.501 58.9693 186.238 59.0131 185.986 59.1008C185.745 59.1884 185.531 59.3199 185.345 59.4951C185.17 59.6595 185.027 59.8676 184.918 60.1196C184.808 60.3715 184.754 60.6673 184.754 61.0069C184.754 61.6861 184.945 62.1955 185.329 62.5351C185.723 62.8747 186.2 63.0445 186.758 63.0445C187.087 63.0445 187.372 63.0062 187.613 62.9295C187.854 62.8528 188.067 62.7707 188.254 62.683C188.473 62.8364 188.637 63.0062 188.747 63.1924C188.856 63.3677 188.911 63.5813 188.911 63.8333C188.911 64.2825 188.697 64.633 188.27 64.885C187.843 65.126 187.251 65.2465 186.495 65.2465C185.805 65.2465 185.181 65.1479 184.622 64.9507C184.063 64.7426 183.581 64.4577 183.176 64.0962C182.782 63.7237 182.475 63.2801 182.256 62.7652C182.037 62.2503 181.927 61.6806 181.927 61.0562C181.927 60.3332 182.042 59.7033 182.272 59.1665C182.513 58.6187 182.836 58.1696 183.242 57.819C183.647 57.4685 184.113 57.2055 184.639 57.0303C185.175 56.855 185.74 56.7673 186.331 56.7673C187.12 56.7673 187.728 56.9098 188.155 57.1946C188.582 57.4794 188.796 57.8464 188.796 58.2956C188.796 58.5037 188.747 58.7009 188.648 58.8871C188.549 59.0624 188.434 59.2158 188.303 59.3472C188.117 59.2596 187.892 59.1774 187.629 59.1008C187.366 59.0131 187.082 58.9693 186.775 58.9693ZM193.952 65.2629C193.306 65.2629 192.703 65.1753 192.145 65C191.597 64.8138 191.115 64.5399 190.698 64.1784C190.293 63.8169 189.97 63.3622 189.729 62.8145C189.499 62.2667 189.384 61.6259 189.384 60.8919C189.384 60.1689 189.499 59.5499 189.729 59.035C189.97 58.5092 190.282 58.0819 190.666 57.7533C191.049 57.4137 191.487 57.1672 191.98 57.0138C192.473 56.8495 192.977 56.7673 193.492 56.7673C194.073 56.7673 194.598 56.855 195.069 57.0303C195.552 57.2055 195.962 57.4466 196.302 57.7533C196.652 58.06 196.921 58.427 197.107 58.8543C197.304 59.2815 197.403 59.7471 197.403 60.251C197.403 60.6235 197.299 60.9083 197.091 61.1055C196.883 61.3027 196.592 61.4287 196.22 61.4835L192.161 62.0915C192.281 62.453 192.528 62.7268 192.9 62.9131C193.273 63.0884 193.7 63.176 194.182 63.176C194.631 63.176 195.053 63.1212 195.447 63.0117C195.853 62.8912 196.181 62.7542 196.433 62.6009C196.609 62.7104 196.757 62.8638 196.877 63.061C196.998 63.2582 197.058 63.4663 197.058 63.6854C197.058 64.1784 196.828 64.5454 196.368 64.7864C196.017 64.9726 195.623 65.0986 195.185 65.1643C194.746 65.2301 194.336 65.2629 193.952 65.2629ZM193.492 58.805C193.229 58.805 192.999 58.8488 192.802 58.9364C192.616 59.0241 192.462 59.1391 192.342 59.2815C192.221 59.413 192.128 59.5663 192.062 59.7416C192.008 59.9059 191.975 60.0757 191.964 60.251L194.774 59.7909C194.741 59.5718 194.62 59.3527 194.412 59.1336C194.204 58.9145 193.897 58.805 193.492 58.805Z" fill="#FF0066"/>
</svg>
