<svg width="201" height="68" viewBox="0 0 201 68" fill="none" xmlns="http://www.w3.org/2000/svg">
<g clip-path="url(#clip0_2411_11085)">
<path d="M198.234 57.5779C197.975 56.9925 197.601 56.4799 197.121 56.0553C196.671 55.6533 196.136 55.3367 195.543 55.1206C194.96 54.9045 194.317 54.794 193.636 54.794C193.035 54.794 192.437 54.8894 191.862 55.0804C191.485 55.1985 191.133 55.3668 190.804 55.5704C190.756 55.5327 190.709 55.495 190.658 55.4598C189.998 55.0201 189.153 54.7965 188.148 54.7965C187.485 54.7965 186.839 54.897 186.219 55.1005C185.621 55.299 185.081 55.6005 184.603 55.9874C184.563 55.9523 184.525 55.9146 184.485 55.8794C183.608 55.1608 182.442 54.7965 181.025 54.7965C180.312 54.7965 179.638 54.8869 179.013 55.0678C178.39 55.2513 177.844 55.505 177.392 55.8191C177.01 55.5302 176.58 55.2965 176.111 55.1256C175.528 54.9095 174.885 54.799 174.204 54.799C173.603 54.799 173.005 54.8945 172.432 55.0854C172.003 55.2211 171.606 55.4171 171.236 55.6633C171.216 55.6482 171.199 55.6307 171.178 55.6131C171.221 55.4548 171.246 55.2915 171.246 55.1206C171.246 54.0352 170.309 53.1558 169.151 53.1558C168.065 53.1558 167.173 53.9296 167.068 54.9196C166.764 54.8492 166.44 54.809 166.093 54.809C165.746 54.809 165.4 54.8392 165.055 54.8945C164.726 54.9422 164.4 55.0126 164.088 55.1055C163.779 55.196 163.48 55.309 163.199 55.4372C162.955 55.5452 162.729 55.6683 162.523 55.809C162.143 55.5251 161.716 55.2915 161.254 55.1231C160.671 54.907 160.028 54.7965 159.347 54.7965C158.744 54.7965 158.148 54.892 157.573 55.0829C156.955 55.2789 156.397 55.5905 155.91 56.0101C155.405 55.593 154.814 55.2789 154.146 55.0829C153.533 54.892 152.867 54.7965 152.171 54.7965C151.525 54.7965 150.92 54.8693 150.369 55.0126C149.96 55.1206 149.586 55.2613 149.246 55.4322C148.661 55.0779 147.95 54.897 147.128 54.897C146.583 54.897 146.065 55.1181 145.689 55.5025C145.312 55.206 144.709 54.897 143.834 54.897C143.817 54.897 143.802 54.897 143.784 54.897C143.714 54.7211 143.633 54.5603 143.538 54.4095C143.168 53.8266 142.528 53.4749 141.839 53.4749H137.691C136.555 53.4749 135.827 53.9673 135.417 54.3769C135.005 54.7889 134.513 55.5176 134.513 56.6533V56.6884C134.287 56.3568 133.993 56.0603 133.653 55.8241C133.211 55.505 132.684 55.2538 132.086 55.0729C131.508 54.8869 130.869 54.794 130.194 54.794C129.518 54.794 128.892 54.8869 128.299 55.0703C127.699 55.2513 127.161 55.5377 126.689 55.9095C126.676 55.8995 126.666 55.8869 126.653 55.8769C125.776 55.1583 124.611 54.794 123.194 54.794C122.48 54.794 121.807 54.8844 121.181 55.0653C120.834 55.1683 120.513 55.294 120.216 55.4372C120.254 55.2915 120.274 55.1407 120.274 54.9849C120.274 53.9724 119.452 53.1533 118.442 53.1533C117.892 53.1533 117.397 53.397 117.063 53.7814C116.935 53.6307 116.797 53.4925 116.641 53.3744C116.282 53.103 115.859 52.9271 115.405 52.8518C115.146 52.8065 114.872 52.7839 114.568 52.7839C114.327 52.7839 114.086 52.8065 113.847 52.8392C113.93 52.4297 113.972 52.0075 113.975 51.5829V51.5603L114.402 51.4598C115.814 51.1156 117.178 50.593 118.462 49.907C118.648 50.1759 118.859 50.4297 119.091 50.6608C119.636 51.2035 120.284 51.6332 120.995 51.9221C121.706 52.2136 122.47 52.3593 123.239 52.3543H130.726C131.525 52.3693 132.319 52.2161 133.055 51.902C133.792 51.5905 134.452 51.1256 134.998 50.5402C136.018 49.4497 136.58 48.0126 136.573 46.5201V23.9874H138.734V46.3492C138.726 47.1734 138.9 47.9874 139.239 48.7387C139.578 49.49 140.075 50.1583 140.696 50.6985C141.779 51.6608 143.178 52.191 144.626 52.1884H151.912C153.422 52.2136 154.882 51.6583 155.993 50.6357C156.575 50.0854 157.038 49.4196 157.349 48.6834C157.661 47.9447 157.817 47.1508 157.804 46.3492V23.9874H159.967C160.176 25.6106 160.686 27.1809 161.475 28.6156C162.176 29.8844 163.065 31.0402 164.111 32.0427C162.962 32.1307 161.867 32.5503 160.955 33.2513L160.704 33.4422L160.48 33.6658C159.955 34.1884 159.54 34.8116 159.259 35.4975C158.977 36.1834 158.834 36.9171 158.837 37.6583V37.7412C158.89 40.5779 159.842 43.2236 161.706 45.6106C162.804 47.098 164.178 48.3618 165.751 49.3342C167.156 50.2035 168.653 50.907 170.216 51.4347C171.771 51.9598 173.377 52.3191 175.008 52.5101C176.462 52.6859 177.925 52.7739 179.39 52.7789C181.568 52.7714 183.739 52.5352 185.867 52.0729C188.148 51.6005 190.339 50.7688 192.362 49.6131C194.498 48.3794 196.314 46.6633 197.666 44.6005C199.141 42.3618 199.89 39.6884 199.89 36.6558C199.89 33.8291 199.287 31.3844 198.08 29.392C197.352 28.1809 196.442 27.0854 195.387 26.1457C195.98 25.8693 196.52 25.4925 196.983 25.0276L197.209 24.8015L197.4 24.5503C198.191 23.4347 198.618 22.1055 198.623 20.7387V20.5151C198.51 18.0452 197.565 15.6181 195.817 13.3015L195.789 13.2663L195.761 13.2312C194.731 11.9146 193.513 10.7588 192.143 9.79648C190.844 8.8794 189.44 8.1206 187.96 7.53518C186.5 6.96231 184.985 6.5402 183.437 6.27889C181.977 6.02764 180.5 5.8995 179.018 5.89699C176.925 5.90201 174.839 6.14322 172.802 6.6206C170.879 7.0603 169.033 7.78392 167.324 8.76885C166.287 7.28643 164.56 6.37186 162.488 6.37186H137.226C135.93 6.37186 134.648 6.64824 133.47 7.18844C132.616 6.74874 131.668 6.52261 130.706 6.53015H126.5C124.148 6.51759 121.882 7.41709 120.181 9.04271C120.013 9.20101 119.854 9.36684 119.701 9.54523C119.676 9.52764 119.651 9.50754 119.626 9.48995C119.568 9.44724 119.513 9.40452 119.45 9.36432C117.782 8.25879 115.922 7.47487 113.967 7.05025V6.45226C113.967 4.77387 113.299 3.16583 112.113 1.9799C110.922 0.79397 109.314 0.125628 107.636 0.125628H107.477C106.392 0.125628 105.327 0.40201 104.382 0.934674C103.437 0.407036 102.374 0.133166 101.292 0.135679H101.136C99.4699 0.135679 97.8694 0.796483 96.686 1.96734C95.5001 3.1407 94.8267 4.73116 94.8066 6.3995H94.7212C93.7388 6.40955 92.7614 6.57286 91.8292 6.88191C90.7162 7.24372 89.686 7.8191 88.7941 8.57789L88.6132 8.73618C86.8493 7.73367 84.9348 7.02764 82.9423 6.64573C80.985 6.25879 78.9951 6.06281 77.0001 6.0603C71.2514 6.0603 66.7112 7.37437 63.5051 9.96482L63.475 9.98995L63.4448 10.0151C63.2187 10.2035 63.0026 10.397 62.7916 10.593C62.1056 9.96734 61.3594 9.40955 60.5654 8.92714C58.7112 7.82412 56.6785 7.05025 54.5579 6.64573C52.6006 6.25879 50.6106 6.06281 48.6157 6.0603C42.8669 6.0603 38.3142 7.37437 35.1207 9.96482L35.088 9.98995L35.0579 10.0151C34.8292 10.2085 34.6081 10.4045 34.3946 10.603C33.7061 9.97236 32.9574 9.41206 32.1584 8.92714C30.3091 7.82412 28.2815 7.05276 26.1659 6.64573C24.2086 6.25879 22.2187 6.06281 20.2237 6.0603C14.4725 6.0603 9.92221 7.37437 6.72623 9.96482L6.69607 9.98995L6.66592 10.0151C5.01768 11.3543 3.69356 13.0503 2.79155 14.9724C1.88954 16.8945 1.43477 18.9975 1.45989 21.1206C1.45989 23.7136 2.05788 26.0276 3.21869 27.99C2.77145 28.5603 2.36442 29.1633 2.00512 29.7915C0.784014 31.8995 0.143311 34.294 0.143311 36.7286C0.143311 39.6834 0.834265 42.294 2.19356 44.49C3.45989 46.5377 5.17849 48.2688 7.21869 49.5452C9.20612 50.7839 11.3921 51.6633 13.6835 52.1432C15.8343 52.6106 18.0302 52.8492 20.2313 52.8518C22.3946 52.8467 24.5529 52.6106 26.6684 52.1508C28.9247 51.6759 31.088 50.8342 33.073 49.6583C33.5453 49.3769 34.0026 49.0704 34.4423 48.7387C34.8167 49.0251 35.2086 49.2965 35.6132 49.5528C37.5981 50.7889 39.7815 51.6683 42.0704 52.1508C44.2212 52.6181 46.4172 52.8568 48.6182 52.8593C50.784 52.8518 52.9448 52.6156 55.0604 52.1508C57.3167 51.6759 59.48 50.8342 61.4649 49.6583C61.9323 49.3794 62.3845 49.0754 62.8192 48.7462C63.1936 49.0302 63.583 49.299 63.9825 49.5528C65.9674 50.7889 68.1559 51.6683 70.4448 52.1508C72.5956 52.6181 74.7915 52.8568 76.9926 52.8593C79.1584 52.8518 81.3192 52.6156 83.4348 52.1508C84.8845 51.8392 86.2991 51.3844 87.6559 50.7889C88.7086 51.6985 90.0529 52.201 91.4448 52.1985H94.8292C94.9473 53.3819 95.3946 54.5025 96.1106 55.4347C95.8669 55.5528 95.6408 55.6834 95.4348 55.8291C95.3946 55.799 95.3594 55.7638 95.3167 55.7362C94.8493 55.3945 94.2941 55.1457 93.681 54.995C92.8318 54.7839 91.8745 54.7362 90.7639 54.8769C90.3493 54.9297 89.9674 55.0176 89.6182 55.1357C89.3192 54.6407 88.872 54.2161 88.2941 53.902C87.5227 53.4724 86.5906 53.2638 85.4398 53.2638C84.6835 53.2638 83.9323 53.3794 83.2011 53.6131C82.4373 53.8593 81.7413 54.2412 81.1358 54.7487C80.5177 55.2638 80.0127 55.9121 79.6383 56.6759C79.6333 56.6834 79.6307 56.691 79.6257 56.6985C79.5855 56.7839 79.5478 56.8693 79.5127 56.9573C79.2966 56.6281 79.0428 56.3241 78.7438 56.0603C78.2941 55.6583 77.7589 55.3417 77.1659 55.1256C76.583 54.9095 75.9398 54.799 75.2589 54.799C74.6559 54.799 74.0604 54.8945 73.485 55.0854C72.8996 55.2714 72.3669 55.5653 71.8971 55.9523C71.8694 55.9297 71.8468 55.9045 71.8192 55.8819C70.9423 55.1633 69.7765 54.799 68.3594 54.799C67.6458 54.799 66.9725 54.8894 66.3468 55.0703C66.0478 55.1583 65.7715 55.2638 65.5101 55.3819C65.5378 55.2563 65.5529 55.1256 65.5529 54.99C65.5529 53.9774 64.7312 53.1583 63.7212 53.1583C63.1408 53.1583 62.6232 53.4296 62.2865 53.8518C62.1458 53.6759 61.9875 53.5151 61.8066 53.3794C61.4473 53.1106 61.0252 52.9322 60.573 52.8568C60.3142 52.8116 60.0378 52.7889 59.7338 52.7889C59.4297 52.7889 59.1508 52.8141 58.8619 52.8643C58.6684 52.892 58.5202 52.9171 58.4147 52.9347C57.4599 53.1106 56.7689 53.9422 56.7689 54.9121V55.1131C56.1609 54.907 55.4775 54.799 54.7187 54.799C54.0051 54.799 53.3318 54.8894 52.7061 55.0703C52.3167 55.1859 51.9599 55.3317 51.6333 55.4975C51.4549 55.2613 51.2639 55.0352 51.0529 54.8392C50.4926 54.304 49.8292 53.897 49.0905 53.6281C48.3921 53.3719 47.6333 53.2412 46.8368 53.2412C46.0403 53.2412 45.284 53.3693 44.5704 53.6281C43.8368 53.8995 43.181 54.3065 42.6232 54.8367C42.0704 55.3643 41.6282 56.0151 41.3117 56.7764C41.3091 56.7864 41.3041 56.794 41.3016 56.804C41.2639 56.8995 41.2338 57.0025 41.2011 57.1005C41.0026 56.794 40.7715 56.5101 40.5076 56.2588C40.0277 55.7864 39.4524 55.4196 38.7991 55.1709C38.1659 54.9221 37.4699 54.799 36.7313 54.799C35.9926 54.799 35.3066 54.9171 34.681 55.1533C34.3192 55.2889 33.98 55.4648 33.6659 55.6709C33.4423 55.5603 33.1986 55.4925 32.9448 55.4699C32.686 54.7663 32.2287 54.3668 31.8996 54.1583C31.3694 53.8166 30.7187 53.6407 29.9649 53.6407C29.6609 53.6407 29.3619 53.6658 29.0755 53.7186C28.8418 53.7538 28.6559 53.7915 28.4951 53.8367C27.8016 54.0251 27.2815 54.5628 27.0931 55.2286C26.9549 55.1759 26.8167 55.1256 26.6735 55.0829C26.0604 54.892 25.3946 54.7965 24.6986 54.7965C24.0529 54.7965 23.4473 54.8693 22.8971 55.0126C22.578 55.0955 22.2815 55.201 22.0026 55.3216C21.4976 55.0151 20.9147 54.8593 20.2614 54.8593C19.573 54.8593 18.9222 55.0176 18.3292 55.3317C18.2287 55.3844 18.1358 55.4447 18.0478 55.5126C17.9725 55.4548 17.8996 55.4045 17.8292 55.3593C17.3117 55.0276 16.7036 54.8593 16.0252 54.8593C15.5704 54.8593 15.1358 54.9447 14.7237 55.1055C14.2664 54.9096 13.7488 54.809 13.176 54.809C12.8318 54.809 12.4825 54.8392 12.1383 54.8945C11.8091 54.9422 11.4825 55.0126 11.1735 55.1055C11.1584 55.1106 11.1458 55.1156 11.1307 55.1206C10.8544 54.6357 10.4398 54.2161 9.90713 53.902C9.16341 53.4548 8.2413 53.2387 7.08803 53.2387C6.30914 53.2387 5.55788 53.3693 4.85939 53.6256C4.12572 53.897 3.46994 54.304 2.89457 54.8518C2.34934 55.3844 1.91467 56.0352 1.59557 56.8015C1.29658 57.5352 1.14582 58.3693 1.14582 59.2814C1.14582 60.2437 1.3016 61.1156 1.61065 61.8668C1.61567 61.8794 1.6207 61.892 1.62572 61.9045C1.95738 62.6683 2.41718 63.3216 2.99758 63.8492C3.00512 63.8543 3.01014 63.8618 3.01768 63.8668C3.59306 64.3769 4.27145 64.7588 5.03025 65.005C5.7212 65.2286 6.46241 65.3392 7.22874 65.3392C8.22623 65.3392 9.03527 65.1834 9.69607 64.8618C9.95487 64.995 10.2363 65.0955 10.5453 65.1482C10.8041 65.191 11.0855 65.2136 11.3795 65.2136C11.6735 65.2136 11.9498 65.1935 12.2036 65.1583C12.5051 65.1181 12.7237 65.0729 12.9147 65.0151C13.2338 64.9196 13.5152 64.7462 13.7438 64.5251C13.8544 65.2839 14.191 65.9523 14.7212 66.4623C15.3167 67.0352 16.0931 67.3367 16.9699 67.3367C17.3644 67.3367 17.7514 67.2789 18.1207 67.1658C18.5529 67.0402 18.9674 66.8216 19.3519 66.5101C19.6282 66.294 19.8946 66.0226 20.1584 65.6985C20.3468 66.1231 20.6282 66.49 20.99 66.7588C21.3468 67.0251 21.7564 67.201 22.2287 67.2839C22.4875 67.3266 22.7689 67.3492 23.0629 67.3492C23.3569 67.3492 23.6534 67.3241 23.9398 67.2739C24.2137 67.2362 24.4247 67.191 24.6056 67.1382C25.4524 66.8844 26.0353 66.108 26.0403 65.2236C26.3694 65.1709 26.6835 65.0955 26.9775 64.9925C27.4599 64.8266 27.8996 64.5955 28.289 64.304C28.2991 64.3141 28.3117 64.3241 28.3217 64.3317C29.0931 64.9749 30.1006 65.3015 31.3167 65.3015C32.3996 65.3015 33.2212 65.0553 33.8343 64.5528C34.1006 64.7111 34.3795 64.8493 34.6785 64.9598C35.3066 65.1935 35.9951 65.3141 36.7287 65.3141C37.4624 65.3141 38.1282 65.2035 38.7438 64.9849C39.4147 64.7488 40.0026 64.3869 40.4926 63.9146C40.9498 63.4799 41.3091 62.9548 41.5755 62.3467C41.8493 62.8593 42.186 63.3191 42.588 63.7111C43.1358 64.2462 43.7915 64.6608 44.5353 64.9447C44.5453 64.9472 44.5554 64.9523 44.5654 64.9548C45.2689 65.2085 46.0328 65.3392 46.8343 65.3392C47.6358 65.3392 48.3996 65.2111 49.1031 64.9548C49.573 64.7839 50.0026 64.5553 50.3996 64.2814C50.5127 64.4045 50.6333 64.5201 50.7664 64.6206C51.1232 64.8895 51.5353 65.0653 52.0076 65.1482C52.5202 65.2337 53.1534 65.2312 53.6659 65.1583C53.9674 65.1181 54.186 65.0729 54.377 65.0151C54.5579 64.9598 54.7262 64.8819 54.8795 64.7839C55.176 64.9623 55.5076 65.0829 55.877 65.1482C56.1358 65.191 56.4172 65.2136 56.7112 65.2136C57.0051 65.2136 57.2815 65.1935 57.5353 65.1583C57.8368 65.1181 58.0554 65.0729 58.2488 65.0151C58.3117 64.995 58.372 64.9673 58.4323 64.9422C58.6458 65.0352 58.8745 65.1055 59.1182 65.1482C59.377 65.191 59.6584 65.2136 59.9524 65.2136C60.2463 65.2136 60.5277 65.1884 60.8091 65.1382C61.0101 65.1106 61.1609 65.0854 61.2639 65.0678C61.4172 65.0402 61.5604 64.995 61.6986 64.9347C61.9172 65.0302 62.1483 65.103 62.3996 65.1482C62.6584 65.191 62.9398 65.2136 63.2338 65.2136C63.5277 65.2136 63.8091 65.1884 64.0905 65.1382C64.2915 65.1106 64.4423 65.0854 64.5478 65.0678C64.6936 65.0427 64.8292 64.9975 64.9624 64.9447C65.1735 65.0377 65.4021 65.1055 65.6458 65.1482C66.1584 65.2337 66.7915 65.2312 67.3041 65.1583C67.6056 65.1181 67.8242 65.0729 68.0152 65.0151C68.1961 64.9598 68.3644 64.8819 68.5177 64.7839C68.8142 64.9623 69.1458 65.0829 69.5152 65.1482C69.774 65.191 70.0554 65.2136 70.3493 65.2136C70.6433 65.2136 70.9197 65.1935 71.1735 65.1583C71.475 65.1181 71.6936 65.0729 71.8845 65.0151C72.171 64.9297 72.4247 64.7789 72.6383 64.5879C72.9323 64.7538 73.2438 64.8945 73.573 65.0075C73.588 65.0126 73.6031 65.0176 73.6182 65.0226C74.2388 65.2161 74.9071 65.3166 75.6031 65.3166C75.9951 65.3166 76.4122 65.2839 76.8418 65.2186C77.3996 65.1357 77.9222 64.9673 78.382 64.7236C79.2514 64.2688 79.8016 63.505 79.9473 62.5879C80.2413 63.0603 80.5931 63.4849 81.0076 63.8442C81.0202 63.8543 81.0303 63.8643 81.0428 63.8744C81.6358 64.3668 82.3267 64.7387 83.1006 64.9849C83.1106 64.9874 83.1207 64.9899 83.1282 64.995C83.8418 65.2111 84.6081 65.3191 85.4046 65.3191C85.7011 65.3191 86.0051 65.3015 86.2966 65.2688C86.6031 65.2362 86.8996 65.1859 87.181 65.1206C87.4574 65.0628 87.7212 64.995 87.9624 64.9121C87.99 64.902 88.0152 64.8945 88.0428 64.8844C88.3192 64.7789 88.5529 64.6709 88.7815 64.5402C88.8041 64.5276 88.8242 64.5126 88.8468 64.5C89.2941 64.7864 89.8091 65.0025 90.3921 65.1407C90.8996 65.2588 91.4599 65.3191 92.0529 65.3191C93.3167 65.3191 94.3418 65.1005 95.176 64.6583C95.5202 64.907 95.9172 65.0754 96.3694 65.1533C96.882 65.2387 97.5127 65.2362 98.0277 65.1633C98.3292 65.1231 98.5478 65.0779 98.7413 65.0201C98.8694 64.9824 98.9926 64.9296 99.1081 64.8693C99.3694 65.005 99.6534 65.1005 99.9649 65.1533C100.47 65.2387 101.091 65.2387 101.611 65.1633C101.89 65.1256 102.106 65.0854 102.287 65.0352C102.435 64.995 102.573 64.9397 102.704 64.8693C102.965 65.005 103.249 65.1005 103.56 65.1533C103.819 65.196 104.101 65.2186 104.395 65.2186C104.689 65.2186 104.965 65.1985 105.219 65.1633C105.518 65.1231 105.739 65.0779 105.93 65.0201C106.161 64.9497 106.367 64.8392 106.553 64.701C106.794 64.8166 107.048 64.9221 107.319 65.0126C107.92 65.2186 108.591 65.3191 109.369 65.3191C110.086 65.3191 110.761 65.2186 111.4 65.0151C111.812 64.8769 112.186 64.6935 112.533 64.4774C112.591 64.5276 112.648 64.5804 112.709 64.6281C113.065 64.8945 113.475 65.0704 113.947 65.1533C114.206 65.196 114.488 65.2186 114.782 65.2186C115.075 65.2186 115.357 65.1935 115.638 65.1432C115.839 65.1156 115.99 65.0904 116.096 65.0729C116.249 65.0452 116.392 65 116.53 64.9397C116.746 65.0352 116.98 65.108 117.231 65.1533C117.49 65.196 117.771 65.2186 118.065 65.2186C118.359 65.2186 118.641 65.1935 118.922 65.1432C119.123 65.1156 119.274 65.0904 119.377 65.0729C119.523 65.0477 119.661 65.0025 119.792 64.9497C120.003 65.0427 120.231 65.1106 120.475 65.1533C120.985 65.2387 121.621 65.2362 122.133 65.1633C122.432 65.1231 122.653 65.0779 122.844 65.0201C123.025 64.9648 123.194 64.8869 123.347 64.7889C123.643 64.9673 123.975 65.0879 124.344 65.1533C124.603 65.196 124.885 65.2186 125.178 65.2186C125.304 65.2186 125.427 65.2136 125.55 65.206C125.832 65.9347 126.385 66.5302 127.148 66.8869C127.864 67.2286 128.731 67.3945 129.804 67.3945C130.417 67.3945 131.008 67.3216 131.545 67.1809C132.191 67.0176 132.766 66.7437 133.261 66.3719C133.804 65.9774 134.236 65.4724 134.538 64.8869C134.734 64.5126 134.869 64.1055 134.947 63.6683C135.091 63.9095 135.254 64.103 135.402 64.2538C135.814 64.6658 136.543 65.1583 137.678 65.1583H141.349C141.746 65.1583 142.128 65.0779 142.475 64.9297C142.932 65.1307 143.452 65.2337 144.038 65.2337C144.121 65.2337 144.204 65.2286 144.289 65.2211H144.302C144.827 65.2211 145.324 65.0176 145.696 64.6608C146.194 65.0251 146.797 65.2286 147.46 65.2563C147.488 65.3643 147.52 65.4699 147.56 65.5729C147.746 66.0553 148.055 66.4699 148.455 66.7688C148.809 67.0352 149.221 67.2111 149.694 67.294C149.952 67.3367 150.234 67.3593 150.528 67.3593C150.822 67.3593 151.118 67.3342 151.405 67.2839C151.678 67.2462 151.89 67.201 152.07 67.1482C152.917 66.8945 153.5 66.1181 153.505 65.2337C153.834 65.1809 154.148 65.1055 154.442 65.0025C155.035 64.8015 155.558 64.495 156.01 64.103C156.495 64.4975 157.048 64.809 157.658 65.0151C157.673 65.0201 157.689 65.0251 157.704 65.0302C158.324 65.2236 158.993 65.3241 159.686 65.3241C160.078 65.3241 160.495 65.2915 160.925 65.2261C161.457 65.1457 161.957 64.9874 162.402 64.7588C162.711 64.9523 163.058 65.0879 163.447 65.1558C163.706 65.1985 163.988 65.2211 164.282 65.2211C164.575 65.2211 164.852 65.201 165.106 65.1658C165.407 65.1256 165.626 65.0804 165.819 65.0226C166.234 64.897 166.583 64.6457 166.832 64.3191C166.937 64.4297 167.05 64.5377 167.173 64.6307C167.53 64.897 167.94 65.0729 168.412 65.1558C168.671 65.1985 168.952 65.2211 169.246 65.2211C169.54 65.2211 169.822 65.196 170.103 65.1457C170.304 65.1181 170.455 65.093 170.558 65.0754C170.942 65.005 171.282 64.8292 171.553 64.5829C171.854 64.7563 172.173 64.8995 172.51 65.0151C172.525 65.0201 172.54 65.0251 172.555 65.0302C173.176 65.2236 173.844 65.3241 174.54 65.3241C174.93 65.3241 175.349 65.2915 175.779 65.2261C176.314 65.1457 176.812 64.9874 177.256 64.7588C177.565 64.9523 177.912 65.0879 178.302 65.1558C178.812 65.2412 179.447 65.2387 179.96 65.1658C180.259 65.1256 180.48 65.0804 180.671 65.0226C180.852 64.9673 181.02 64.8894 181.173 64.7915C181.47 64.9699 181.802 65.0905 182.171 65.1558C182.43 65.1985 182.711 65.2211 183.005 65.2211C183.299 65.2211 183.575 65.201 183.829 65.1658C184.131 65.1256 184.349 65.0804 184.543 65.0226C184.839 64.9322 185.098 64.7764 185.317 64.5779C185.573 64.7211 185.839 64.8492 186.126 64.9573C186.138 64.9623 186.148 64.9648 186.161 64.9698C186.802 65.196 187.508 65.309 188.261 65.309C189.201 65.309 189.967 65.1332 190.608 64.7714C190.618 64.7663 190.628 64.7588 190.638 64.7538C190.744 64.691 190.844 64.6231 190.94 64.5503C191.254 64.7362 191.591 64.892 191.945 65.0126C191.96 65.0176 191.975 65.0226 191.99 65.0276C192.611 65.2211 193.279 65.3216 193.972 65.3216C194.364 65.3216 194.782 65.2889 195.211 65.2236C195.771 65.1407 196.292 64.9724 196.751 64.7261C197.771 64.191 198.357 63.2362 198.357 62.103C198.357 61.7563 198.294 61.4095 198.171 61.0829C198.465 60.6231 198.621 60.0704 198.621 59.4749C198.621 58.8065 198.485 58.1709 198.219 57.5829L198.234 57.5779ZM14.49 62.6106C14.4398 62.6508 14.3946 62.6935 14.3468 62.7387V62.1683C14.3745 62.2312 14.4021 62.2965 14.4272 62.3543C14.4297 62.3593 14.4323 62.3668 14.4348 62.3719C14.4674 62.4422 14.5001 62.5126 14.5302 62.5804C14.5152 62.5905 14.5026 62.603 14.4875 62.6131L14.49 62.6106Z" fill="#000D32"/>
<path d="M7.66846 57.1382C7.02357 57.1382 6.52943 57.335 6.18605 57.7287C5.84267 58.1223 5.67097 58.6793 5.67097 59.3995C5.67097 60.1282 5.85942 60.6893 6.2363 61.0829C6.62156 61.4766 7.13664 61.6734 7.78153 61.6734C8.12491 61.6734 8.41386 61.6273 8.64836 61.5352C8.89124 61.4431 9.12156 61.3384 9.33932 61.2211C9.4817 61.3384 9.59057 61.4808 9.66595 61.6483C9.7497 61.8074 9.79158 61.9958 9.79158 62.2136C9.79158 62.557 9.59895 62.8501 9.21369 63.093C8.8368 63.3275 8.25891 63.4447 7.48002 63.4447C6.91888 63.4447 6.39124 63.3652 5.8971 63.2061C5.40297 63.0469 4.97164 62.804 4.60314 62.4774C4.23463 62.1424 3.94149 61.7236 3.72374 61.2211C3.51436 60.7102 3.40967 60.103 3.40967 59.3995C3.40967 58.7463 3.51017 58.1726 3.71118 57.6784C3.92056 57.1759 4.20113 56.753 4.55288 56.4096C4.91302 56.0662 5.33178 55.8066 5.80917 55.6307C6.28655 55.4548 6.79744 55.3669 7.34183 55.3669C8.11235 55.3669 8.70699 55.4925 9.12575 55.7437C9.55288 55.995 9.76645 56.3174 9.76645 56.7111C9.76645 56.9288 9.71201 57.1173 9.60313 57.2764C9.49426 57.4355 9.36863 57.5612 9.22625 57.6533C9.0085 57.5109 8.77399 57.3895 8.52273 57.289C8.27985 57.1885 7.99509 57.1382 7.66846 57.1382Z" fill="#FF0066"/>
<path d="M12.5865 63.2061C12.5028 63.2312 12.3688 63.2563 12.1845 63.2814C12.0086 63.3066 11.8244 63.3191 11.6317 63.3191C11.4475 63.3191 11.28 63.3066 11.1292 63.2814C10.9868 63.2563 10.8654 63.2061 10.7649 63.1307C10.6644 63.0553 10.5848 62.9548 10.5262 62.8292C10.476 62.6952 10.4508 62.5235 10.4508 62.3141V58.5452C10.4508 58.3526 10.4843 58.1893 10.5513 58.0553C10.6267 57.9129 10.7314 57.7873 10.8654 57.6784C10.9994 57.5695 11.1627 57.4732 11.3554 57.3895C11.5564 57.2973 11.7699 57.2178 11.9961 57.1508C12.2222 57.0838 12.4567 57.0335 12.6996 57C12.9425 56.9581 13.1853 56.9372 13.4282 56.9372C13.8302 56.9372 14.1485 57.0168 14.383 57.1759C14.6175 57.3267 14.7347 57.5779 14.7347 57.9297C14.7347 58.0469 14.718 58.1642 14.6845 58.2814C14.651 58.3903 14.6091 58.4908 14.5589 58.5829C14.383 58.5829 14.2029 58.5913 14.0187 58.6081C13.8344 58.6248 13.6543 58.6499 13.4785 58.6834C13.3026 58.7169 13.1351 58.7546 12.976 58.7965C12.8252 58.83 12.6954 58.8719 12.5865 58.9221V63.2061Z" fill="#FF0066"/>
<path d="M16.5156 61.6608C16.4235 61.4514 16.323 61.2169 16.2141 60.9573C16.1136 60.6977 16.0047 60.4004 15.8875 60.0653C15.7786 59.7303 15.6614 59.3493 15.5357 58.9221C15.4185 58.4866 15.2928 57.9883 15.1588 57.4272C15.2761 57.3099 15.431 57.2094 15.6237 57.1256C15.8247 57.0335 16.0424 56.9875 16.2769 56.9875C16.5701 56.9875 16.8129 57.0503 17.0056 57.1759C17.1982 57.2932 17.3406 57.5193 17.4327 57.8543L18.4252 61.3091H18.4754C18.5759 61.0243 18.6722 60.7144 18.7644 60.3794C18.8649 60.0444 18.9612 59.701 19.0533 59.3493C19.1454 58.9891 19.2292 58.6332 19.3046 58.2814C19.3883 57.9213 19.4595 57.5695 19.5181 57.2262C19.8196 57.067 20.1505 56.9875 20.5106 56.9875C20.8037 56.9875 21.0466 57.0503 21.2392 57.1759C21.4319 57.3015 21.5282 57.5193 21.5282 57.8292C21.5282 58.0553 21.4989 58.3191 21.4402 58.6206C21.3816 58.9138 21.3021 59.2278 21.2016 59.5628C21.1094 59.8978 20.9964 60.2454 20.8624 60.6055C20.7367 60.9573 20.6027 61.3049 20.4604 61.6483C20.318 61.9916 20.1714 62.3183 20.0207 62.6282C19.8699 62.9297 19.7233 63.2019 19.581 63.4447C19.3464 63.8551 19.1287 64.1901 18.9277 64.4498C18.7267 64.7094 18.5341 64.9104 18.3498 65.0528C18.1655 65.2035 17.9813 65.304 17.797 65.3543C17.6128 65.4129 17.4201 65.4422 17.2191 65.4422C16.8674 65.4422 16.5826 65.3375 16.3649 65.1282C16.1471 64.9188 16.0173 64.6466 15.9754 64.3116C16.2434 64.1022 16.5114 63.8677 16.7794 63.6081C17.0475 63.3568 17.2903 63.0972 17.5081 62.8292C17.3657 62.7873 17.2108 62.691 17.0433 62.5402C16.8841 62.3811 16.7083 62.088 16.5156 61.6608Z" fill="#FF0066"/>
<path d="M24.9446 56.9246C25.4471 56.9246 25.9119 56.9916 26.3391 57.1256C26.7746 57.2513 27.1473 57.4481 27.4572 57.7161C27.767 57.9841 28.0099 58.3233 28.1858 58.7337C28.3617 59.1357 28.4496 59.6173 28.4496 60.1784C28.4496 60.7144 28.3742 61.1834 28.2235 61.5854C28.0727 61.9875 27.8592 62.3267 27.5828 62.603C27.3064 62.871 26.9714 63.072 26.5778 63.2061C26.1925 63.3401 25.7612 63.4071 25.2838 63.4071C24.9237 63.4071 24.5886 63.3526 24.2788 63.2437V65.3292C24.195 65.3543 24.061 65.3794 23.8767 65.4045C23.6925 65.438 23.5041 65.4548 23.3114 65.4548C23.1272 65.4548 22.9597 65.4422 22.8089 65.4171C22.6665 65.392 22.5451 65.3417 22.4446 65.2664C22.3441 65.191 22.2687 65.0863 22.2185 64.9523C22.1682 64.8267 22.1431 64.6592 22.1431 64.4498V58.4196C22.1431 58.1935 22.1891 58.0092 22.2813 57.8669C22.3818 57.7245 22.5158 57.5947 22.6833 57.4774C22.9429 57.3099 23.2654 57.1759 23.6506 57.0754C24.0359 56.9749 24.4672 56.9246 24.9446 56.9246ZM24.9697 61.7236C25.8324 61.7236 26.2637 61.2086 26.2637 60.1784C26.2637 59.6424 26.1548 59.2446 25.937 58.9849C25.7277 58.7253 25.422 58.5955 25.02 58.5955C24.8608 58.5955 24.7185 58.6164 24.5928 58.6583C24.4672 58.6918 24.3583 58.7337 24.2662 58.7839V61.5478C24.3667 61.598 24.4756 61.6399 24.5928 61.6734C24.7101 61.7069 24.8357 61.7236 24.9697 61.7236Z" fill="#FF0066"/>
<path d="M31.3763 61.1206C31.3763 61.3384 31.4433 61.4933 31.5773 61.5854C31.7196 61.6776 31.9165 61.7236 32.1677 61.7236C32.2933 61.7236 32.4232 61.7153 32.5572 61.6985C32.6912 61.6734 32.8084 61.6441 32.9089 61.6106C32.9843 61.7027 33.0471 61.8074 33.0974 61.9246C33.156 62.0335 33.1853 62.1675 33.1853 62.3267C33.1853 62.6449 33.0639 62.9045 32.821 63.1055C32.5865 63.3066 32.1677 63.4071 31.5647 63.4071C30.8277 63.4071 30.2582 63.2396 29.8562 62.9045C29.4625 62.5695 29.2657 62.0251 29.2657 61.2714V55.8945C29.3578 55.8694 29.4876 55.8442 29.6552 55.8191C29.831 55.7856 30.0153 55.7689 30.2079 55.7689C30.5764 55.7689 30.8612 55.8359 31.0622 55.9699C31.2716 56.0955 31.3763 56.3677 31.3763 56.7865V57.5905H33.022C33.0722 57.6826 33.1183 57.7999 33.1602 57.9422C33.2104 58.0762 33.2356 58.227 33.2356 58.3945C33.2356 58.6876 33.1686 58.9012 33.0345 59.0352C32.9089 59.1608 32.7372 59.2236 32.5195 59.2236H31.3763V61.1206Z" fill="#FF0066"/>
<path d="M40.2648 60.1659C40.2648 60.6851 40.1853 61.1499 40.0261 61.5603C39.867 61.9623 39.6409 62.3015 39.3478 62.5779C39.063 62.8543 38.7196 63.0637 38.3176 63.2061C37.9156 63.3484 37.4675 63.4196 36.9734 63.4196C36.4792 63.4196 36.0312 63.3442 35.6292 63.1935C35.2272 63.0427 34.8796 62.8292 34.5864 62.5528C34.3017 62.268 34.0797 61.9246 33.9206 61.5226C33.7615 61.1206 33.6819 60.6684 33.6819 60.1659C33.6819 59.6717 33.7615 59.2236 33.9206 58.8216C34.0797 58.4196 34.3017 58.0804 34.5864 57.804C34.8796 57.5193 35.2272 57.3015 35.6292 57.1508C36.0312 57 36.4792 56.9246 36.9734 56.9246C37.4675 56.9246 37.9156 57.0042 38.3176 57.1633C38.7196 57.3141 39.063 57.5318 39.3478 57.8166C39.6409 58.093 39.867 58.4322 40.0261 58.8342C40.1853 59.2362 40.2648 59.6801 40.2648 60.1659ZM35.8679 60.1659C35.8679 60.6767 35.9642 61.0704 36.1568 61.3468C36.3578 61.6148 36.6342 61.7488 36.9859 61.7488C37.3377 61.7488 37.6057 61.6106 37.79 61.3342C37.9826 61.0578 38.0789 60.6684 38.0789 60.1659C38.0789 59.6633 37.9826 59.2781 37.79 59.0101C37.5973 58.7337 37.3251 58.5955 36.9734 58.5955C36.6216 58.5955 36.3494 58.7337 36.1568 59.0101C35.9642 59.2781 35.8679 59.6633 35.8679 60.1659Z" fill="#FF0066"/>
<path d="M43.1057 59.3995C43.1057 58.7463 43.2062 58.1684 43.4072 57.6659C43.6166 57.1633 43.8972 56.7446 44.2489 56.4096C44.6091 56.0662 45.0278 55.8066 45.5052 55.6307C45.991 55.4548 46.5144 55.3669 47.0756 55.3669C47.6367 55.3669 48.156 55.4548 48.6333 55.6307C49.1191 55.8066 49.5421 56.0662 49.9022 56.4096C50.2623 56.7446 50.5429 57.1633 50.7439 57.6659C50.9533 58.1684 51.058 58.7463 51.058 59.3995C51.058 60.0528 50.9575 60.6349 50.7565 61.1458C50.5555 61.6483 50.2749 62.0712 49.9148 62.4146C49.563 62.7496 49.1442 63.005 48.6585 63.1809C48.1727 63.3568 47.6451 63.4447 47.0756 63.4447C46.506 63.4447 45.9784 63.3568 45.4926 63.1809C45.0069 62.9967 44.5881 62.7329 44.2364 62.3895C43.8846 62.0461 43.6082 61.6231 43.4072 61.1206C43.2062 60.6181 43.1057 60.0444 43.1057 59.3995ZM45.367 59.3995C45.367 60.1617 45.522 60.7312 45.8318 61.1081C46.1417 61.4849 46.5563 61.6734 47.0756 61.6734C47.6032 61.6734 48.022 61.4849 48.3318 61.1081C48.6417 60.7312 48.7967 60.1617 48.7967 59.3995C48.7967 58.6457 48.6417 58.0804 48.3318 57.7035C48.0303 57.3267 47.6158 57.1382 47.0881 57.1382C46.5689 57.1382 46.1501 57.3267 45.8318 57.7035C45.522 58.072 45.367 58.6374 45.367 59.3995Z" fill="#FF0066"/>
<path d="M55.7706 59.3493C55.7706 59.0896 55.6952 58.9012 55.5445 58.7839C55.4021 58.6583 55.2053 58.5955 54.954 58.5955C54.7865 58.5955 54.619 58.6164 54.4515 58.6583C54.2924 58.7002 54.1542 58.763 54.0369 58.8468V63.2061C53.9532 63.2312 53.8192 63.2563 53.6349 63.2814C53.459 63.3066 53.2748 63.3191 53.0822 63.3191C52.8979 63.3191 52.7304 63.3066 52.5796 63.2814C52.4373 63.2563 52.3158 63.2061 52.2153 63.1307C52.1148 63.0553 52.0353 62.9548 51.9766 62.8292C51.9264 62.6952 51.9012 62.5235 51.9012 62.3141V58.5452C51.9012 58.3191 51.9473 58.1349 52.0394 57.9925C52.1399 57.8501 52.2739 57.7203 52.4414 57.603C52.7262 57.402 53.0822 57.2387 53.5093 57.1131C53.9448 56.9875 54.4264 56.9246 54.954 56.9246C55.9004 56.9246 56.6291 57.134 57.1399 57.5528C57.6508 57.9632 57.9063 58.5369 57.9063 59.2739V63.2061C57.8225 63.2312 57.6885 63.2563 57.5043 63.2814C57.3284 63.3066 57.1441 63.3191 56.9515 63.3191C56.7672 63.3191 56.5997 63.3066 56.449 63.2814C56.3066 63.2563 56.1852 63.2061 56.0847 63.1307C55.9842 63.0553 55.9046 62.9548 55.846 62.8292C55.7957 62.6952 55.7706 62.5235 55.7706 62.3141V59.3493Z" fill="#FF0066"/>
<path d="M61.1476 63.2061C61.0554 63.2228 60.9173 63.2437 60.733 63.2689C60.5571 63.3024 60.3771 63.3191 60.1928 63.3191C60.0085 63.3191 59.841 63.3066 59.6903 63.2814C59.5479 63.2563 59.4265 63.2061 59.326 63.1307C59.2255 63.0553 59.1459 62.9548 59.0873 62.8292C59.037 62.6952 59.0119 62.5235 59.0119 62.3141V55.0277C59.104 55.0109 59.238 54.99 59.4139 54.9648C59.5982 54.9313 59.7824 54.9146 59.9667 54.9146C60.1509 54.9146 60.3142 54.9272 60.4566 54.9523C60.6074 54.9774 60.733 55.0277 60.8335 55.103C60.934 55.1784 61.0094 55.2831 61.0596 55.4171C61.1183 55.5427 61.1476 55.7102 61.1476 55.9196V63.2061Z" fill="#FF0066"/>
<path d="M62.1937 55.4171C62.1937 55.0988 62.2984 54.8308 62.5078 54.6131C62.7255 54.3953 63.0103 54.2865 63.3621 54.2865C63.7138 54.2865 63.9944 54.3953 64.2038 54.6131C64.4215 54.8308 64.5304 55.0988 64.5304 55.4171C64.5304 55.7354 64.4215 56.0034 64.2038 56.2211C63.9944 56.4389 63.7138 56.5478 63.3621 56.5478C63.0103 56.5478 62.7255 56.4389 62.5078 56.2211C62.2984 56.0034 62.1937 55.7354 62.1937 55.4171ZM64.4299 63.2061C64.3378 63.2228 64.1996 63.2437 64.0153 63.2689C63.8395 63.3024 63.6594 63.3191 63.4751 63.3191C63.2909 63.3191 63.1234 63.3066 62.9726 63.2814C62.8302 63.2563 62.7088 63.2061 62.6083 63.1307C62.5078 63.0553 62.4282 62.9548 62.3696 62.8292C62.3193 62.6952 62.2942 62.5235 62.2942 62.3141V57.201C62.3864 57.1843 62.5204 57.1633 62.6962 57.1382C62.8805 57.1047 63.0647 57.088 63.249 57.088C63.4333 57.088 63.5966 57.1005 63.7389 57.1256C63.8897 57.1508 64.0153 57.201 64.1158 57.2764C64.2163 57.3518 64.2917 57.4565 64.342 57.5905C64.4006 57.7161 64.4299 57.8836 64.4299 58.093V63.2061Z" fill="#FF0066"/>
<path d="M69.4076 59.3493C69.4076 59.0896 69.3322 58.9012 69.1815 58.7839C69.0391 58.6583 68.8423 58.5955 68.591 58.5955C68.4235 58.5955 68.256 58.6164 68.0885 58.6583C67.9294 58.7002 67.7912 58.763 67.674 58.8468V63.2061C67.5902 63.2312 67.4562 63.2563 67.2719 63.2814C67.0961 63.3066 66.9118 63.3191 66.7192 63.3191C66.5349 63.3191 66.3674 63.3066 66.2167 63.2814C66.0743 63.2563 65.9529 63.2061 65.8523 63.1307C65.7518 63.0553 65.6723 62.9548 65.6137 62.8292C65.5634 62.6952 65.5383 62.5235 65.5383 62.3141V58.5452C65.5383 58.3191 65.5843 58.1349 65.6765 57.9925C65.777 57.8501 65.911 57.7203 66.0785 57.603C66.3632 57.402 66.7192 57.2387 67.1463 57.1131C67.5818 56.9875 68.0634 56.9246 68.591 56.9246C69.5374 56.9246 70.2661 57.134 70.777 57.5528C71.2879 57.9632 71.5433 58.5369 71.5433 59.2739V63.2061C71.4596 63.2312 71.3255 63.2563 71.1413 63.2814C70.9654 63.3066 70.7812 63.3191 70.5885 63.3191C70.4043 63.3191 70.2368 63.3066 70.086 63.2814C69.9436 63.2563 69.8222 63.2061 69.7217 63.1307C69.6212 63.0553 69.5416 62.9548 69.483 62.8292C69.4328 62.6952 69.4076 62.5235 69.4076 62.3141V59.3493Z" fill="#FF0066"/>
<path d="M75.8399 63.4196C75.3457 63.4196 74.8851 63.3526 74.458 63.2186C74.0392 63.0762 73.6707 62.8669 73.3524 62.5905C73.0426 62.3141 72.7955 61.9665 72.6112 61.5478C72.4354 61.129 72.3474 60.6391 72.3474 60.0779C72.3474 59.5251 72.4354 59.0519 72.6112 58.6583C72.7955 58.2563 73.0342 57.9297 73.3273 57.6784C73.6205 57.4188 73.9555 57.2303 74.3323 57.1131C74.7092 56.9875 75.0945 56.9246 75.4881 56.9246C75.932 56.9246 76.334 56.9916 76.6942 57.1256C77.0627 57.2597 77.3767 57.4439 77.6364 57.6784C77.9044 57.9129 78.1096 58.1935 78.2519 58.5201C78.4027 58.8468 78.4781 59.2027 78.4781 59.588C78.4781 59.8727 78.3985 60.0905 78.2394 60.2412C78.0803 60.392 77.8583 60.4883 77.5736 60.5302L74.4705 60.995C74.5627 61.2714 74.7511 61.4808 75.0359 61.6231C75.3206 61.7571 75.6473 61.8241 76.0158 61.8241C76.3591 61.8241 76.6816 61.7823 76.9831 61.6985C77.293 61.6064 77.5442 61.5017 77.7369 61.3844C77.8709 61.4682 77.9839 61.5854 78.0761 61.7362C78.1682 61.887 78.2143 62.0461 78.2143 62.2136C78.2143 62.5905 78.0384 62.871 77.6866 63.0553C77.4186 63.1977 77.1171 63.294 76.7821 63.3442C76.4471 63.3945 76.133 63.4196 75.8399 63.4196ZM75.4881 58.4824C75.2871 58.4824 75.1112 58.5159 74.9605 58.5829C74.8181 58.6499 74.7009 58.7379 74.6087 58.8468C74.5166 58.9473 74.4454 59.0645 74.3952 59.1985C74.3533 59.3241 74.3282 59.454 74.3198 59.588L76.468 59.2362C76.4429 59.0687 76.3508 58.9012 76.1916 58.7337C76.0325 58.5662 75.798 58.4824 75.4881 58.4824Z" fill="#FF0066"/>
<path d="M88.5789 61.9749C88.5789 62.2345 88.5328 62.4272 88.4407 62.5528C88.3486 62.6784 88.202 62.7999 88.001 62.9171C87.8837 62.9841 87.7372 63.0511 87.5613 63.1181C87.3854 63.1767 87.1928 63.227 86.9834 63.2689C86.774 63.3191 86.5521 63.3568 86.3176 63.3819C86.0914 63.4071 85.8653 63.4196 85.6392 63.4196C85.0362 63.4196 84.4708 63.3401 83.9432 63.1809C83.4156 63.0134 82.9549 62.7664 82.5613 62.4397C82.176 62.1047 81.8703 61.6901 81.6442 61.196C81.4181 60.7019 81.305 60.1282 81.305 59.4749C81.305 58.7881 81.4264 58.1893 81.6693 57.6784C81.9206 57.1675 82.2472 56.7446 82.6492 56.4096C83.0596 56.0662 83.5244 55.8107 84.0437 55.6432C84.5713 55.4757 85.1115 55.392 85.6643 55.392C86.4599 55.392 87.0881 55.5218 87.5487 55.7814C88.0177 56.0327 88.2522 56.3635 88.2522 56.7739C88.2522 56.9916 88.1978 57.1801 88.0889 57.3392C87.98 57.4983 87.8544 57.624 87.712 57.7161C87.5027 57.5905 87.2388 57.469 86.9206 57.3518C86.6107 57.2262 86.2589 57.1633 85.8653 57.1633C85.1618 57.1633 84.6006 57.3643 84.1819 57.7664C83.7715 58.1684 83.5663 58.7253 83.5663 59.4372C83.5663 59.8225 83.6207 60.1575 83.7296 60.4422C83.8469 60.7186 84.0018 60.9489 84.1944 61.1332C84.3871 61.3091 84.609 61.4431 84.8603 61.5352C85.1115 61.619 85.3795 61.6608 85.6643 61.6608C85.8486 61.6608 86.0119 61.6441 86.1542 61.6106C86.2966 61.5771 86.4055 61.5394 86.4809 61.4975V60.3166H85.1367C85.0864 60.2245 85.0362 60.103 84.9859 59.9523C84.944 59.8015 84.9231 59.6424 84.9231 59.4749C84.9231 59.1734 84.9901 58.9556 85.1241 58.8216C85.2665 58.6876 85.4465 58.6206 85.6643 58.6206H87.7874C88.0387 58.6206 88.2313 58.6918 88.3653 58.8342C88.5077 58.9682 88.5789 59.1608 88.5789 59.4121V61.9749Z" fill="#FF0066"/>
<path d="M92.2842 61.8618C92.4266 61.8618 92.5815 61.8493 92.749 61.8241C92.9249 61.7906 93.0547 61.7488 93.1385 61.6985V60.6935L92.234 60.7689C91.9995 60.7856 91.8068 60.8359 91.6561 60.9196C91.5053 61.0034 91.4299 61.129 91.4299 61.2965C91.4299 61.464 91.4928 61.6022 91.6184 61.7111C91.7524 61.8116 91.9743 61.8618 92.2842 61.8618ZM92.1837 56.9246C92.636 56.9246 93.0464 56.9707 93.4149 57.0628C93.7917 57.155 94.11 57.2973 94.3696 57.49C94.6376 57.6742 94.8428 57.9129 94.9852 58.2061C95.1276 58.4908 95.1988 58.83 95.1988 59.2236V62.0377C95.1988 62.2555 95.136 62.4355 95.0103 62.5779C94.8931 62.7119 94.7507 62.8292 94.5832 62.9297C94.0388 63.2563 93.2725 63.4196 92.2842 63.4196C91.8403 63.4196 91.4383 63.3777 91.0782 63.294C90.7264 63.2102 90.4207 63.0846 90.1611 62.9171C89.9098 62.7496 89.713 62.536 89.5706 62.2764C89.4366 62.0168 89.3696 61.7153 89.3696 61.3719C89.3696 60.794 89.5413 60.3501 89.8847 60.0402C90.2281 59.7303 90.7599 59.5377 91.4802 59.4623L93.1259 59.2865V59.1985C93.1259 58.9556 93.017 58.7839 92.7993 58.6834C92.5899 58.5746 92.2842 58.5201 91.8822 58.5201C91.5639 58.5201 91.2541 58.5536 90.9526 58.6206C90.651 58.6876 90.3789 58.7714 90.136 58.8719C90.0271 58.7965 89.935 58.6834 89.8596 58.5327C89.7842 58.3736 89.7465 58.2102 89.7465 58.0427C89.7465 57.825 89.7968 57.6533 89.8973 57.5277C90.0062 57.3937 90.1695 57.2806 90.3872 57.1885C90.6301 57.0963 90.9149 57.0293 91.2415 56.9875C91.5765 56.9456 91.8906 56.9246 92.1837 56.9246Z" fill="#FF0066"/>
<path d="M99.1805 56.9246C99.5239 56.9246 99.8589 56.9749 100.186 57.0754C100.521 57.1675 100.809 57.3099 101.052 57.5025C101.304 57.335 101.584 57.1968 101.894 57.088C102.212 56.9791 102.593 56.9246 103.037 56.9246C103.356 56.9246 103.665 56.9665 103.967 57.0503C104.277 57.134 104.549 57.268 104.784 57.4523C105.026 57.6282 105.219 57.8669 105.361 58.1684C105.504 58.4615 105.575 58.8216 105.575 59.2488V63.2061C105.491 63.2312 105.357 63.2563 105.173 63.2814C104.997 63.3066 104.813 63.3191 104.62 63.3191C104.436 63.3191 104.268 63.3066 104.118 63.2814C103.975 63.2563 103.854 63.2061 103.753 63.1307C103.653 63.0553 103.573 62.9548 103.515 62.8292C103.464 62.6952 103.439 62.5235 103.439 62.3141V59.3116C103.439 59.0603 103.368 58.8803 103.226 58.7714C103.083 58.6541 102.891 58.5955 102.648 58.5955C102.531 58.5955 102.405 58.6248 102.271 58.6834C102.137 58.7337 102.036 58.7881 101.969 58.8468C101.978 58.8803 101.982 58.9138 101.982 58.9473C101.982 58.9724 101.982 58.9975 101.982 59.0226V63.2061C101.89 63.2312 101.752 63.2563 101.567 63.2814C101.392 63.3066 101.212 63.3191 101.027 63.3191C100.843 63.3191 100.675 63.3066 100.525 63.2814C100.382 63.2563 100.261 63.2061 100.16 63.1307C100.06 63.0553 99.9803 62.9548 99.9217 62.8292C99.8715 62.6952 99.8463 62.5235 99.8463 62.3141V59.3116C99.8463 59.0603 99.7668 58.8803 99.6077 58.7714C99.4569 58.6541 99.2726 58.5955 99.0549 58.5955C98.9041 58.5955 98.7743 58.6206 98.6654 58.6709C98.5566 58.7128 98.4644 58.7546 98.3891 58.7965V63.2061C98.3053 63.2312 98.1713 63.2563 97.987 63.2814C97.8112 63.3066 97.6269 63.3191 97.4343 63.3191C97.25 63.3191 97.0825 63.3066 96.9318 63.2814C96.7894 63.2563 96.668 63.2061 96.5675 63.1307C96.467 63.0553 96.3874 62.9548 96.3288 62.8292C96.2785 62.6952 96.2534 62.5235 96.2534 62.3141V58.5201C96.2534 58.294 96.2994 58.1139 96.3916 57.9799C96.4921 57.8459 96.6261 57.7203 96.7936 57.603C97.0783 57.402 97.4301 57.2387 97.8489 57.1131C98.276 56.9875 98.7199 56.9246 99.1805 56.9246Z" fill="#FF0066"/>
<path d="M106.652 55.0402C106.735 55.0151 106.869 54.99 107.054 54.9648C107.238 54.9313 107.426 54.9146 107.619 54.9146C107.803 54.9146 107.967 54.9272 108.109 54.9523C108.26 54.9774 108.385 55.0277 108.486 55.103C108.586 55.1784 108.662 55.2831 108.712 55.4171C108.762 55.5427 108.787 55.7102 108.787 55.9196V57.1508C108.997 57.067 109.194 57.0084 109.378 56.9749C109.57 56.9414 109.78 56.9246 110.006 56.9246C110.408 56.9246 110.789 56.9958 111.149 57.1382C111.509 57.2806 111.828 57.49 112.104 57.7664C112.38 58.0344 112.598 58.3694 112.757 58.7714C112.916 59.1734 112.996 59.6382 112.996 60.1659C112.996 60.7102 112.912 61.1876 112.745 61.598C112.585 62 112.359 62.335 112.066 62.603C111.773 62.871 111.413 63.0762 110.986 63.2186C110.567 63.3526 110.102 63.4196 109.591 63.4196C109.039 63.4196 108.57 63.3526 108.184 63.2186C107.799 63.093 107.472 62.9339 107.204 62.7412C106.836 62.4816 106.652 62.1466 106.652 61.7362V55.0402ZM109.591 61.7362C109.977 61.7362 110.274 61.6064 110.483 61.3468C110.701 61.0787 110.81 60.6851 110.81 60.1659C110.81 59.6382 110.701 59.2446 110.483 58.9849C110.266 58.7253 109.972 58.5955 109.604 58.5955C109.436 58.5955 109.29 58.6122 109.164 58.6458C109.047 58.6793 108.917 58.7295 108.775 58.7965V61.5352C108.867 61.5938 108.976 61.6441 109.101 61.686C109.235 61.7195 109.399 61.7362 109.591 61.7362Z" fill="#FF0066"/>
<path d="M115.959 63.2061C115.867 63.2228 115.728 63.2437 115.544 63.2689C115.368 63.3024 115.188 63.3191 115.004 63.3191C114.82 63.3191 114.652 63.3066 114.501 63.2814C114.359 63.2563 114.238 63.2061 114.137 63.1307C114.037 63.0553 113.957 62.9548 113.898 62.8292C113.848 62.6952 113.823 62.5235 113.823 62.3141V55.0277C113.915 55.0109 114.049 54.99 114.225 54.9648C114.409 54.9313 114.594 54.9146 114.778 54.9146C114.962 54.9146 115.125 54.9272 115.268 54.9523C115.419 54.9774 115.544 55.0277 115.645 55.103C115.745 55.1784 115.821 55.2831 115.871 55.4171C115.929 55.5427 115.959 55.7102 115.959 55.9196V63.2061Z" fill="#FF0066"/>
<path d="M117.005 55.4171C117.005 55.0988 117.11 54.8308 117.319 54.6131C117.537 54.3953 117.821 54.2865 118.173 54.2865C118.525 54.2865 118.806 54.3953 119.015 54.6131C119.233 54.8308 119.342 55.0988 119.342 55.4171C119.342 55.7354 119.233 56.0034 119.015 56.2211C118.806 56.4389 118.525 56.5478 118.173 56.5478C117.821 56.5478 117.537 56.4389 117.319 56.2211C117.11 56.0034 117.005 55.7354 117.005 55.4171ZM119.241 63.2061C119.149 63.2228 119.011 63.2437 118.826 63.2689C118.651 63.3024 118.471 63.3191 118.286 63.3191C118.102 63.3191 117.935 63.3066 117.784 63.2814C117.641 63.2563 117.52 63.2061 117.419 63.1307C117.319 63.0553 117.239 62.9548 117.181 62.8292C117.131 62.6952 117.105 62.5235 117.105 62.3141V57.201C117.198 57.1843 117.332 57.1633 117.507 57.1382C117.692 57.1047 117.876 57.088 118.06 57.088C118.244 57.088 118.408 57.1005 118.55 57.1256C118.701 57.1508 118.826 57.201 118.927 57.2764C119.028 57.3518 119.103 57.4565 119.153 57.5905C119.212 57.7161 119.241 57.8836 119.241 58.093V63.2061Z" fill="#FF0066"/>
<path d="M124.219 59.3493C124.219 59.0896 124.143 58.9012 123.993 58.7839C123.85 58.6583 123.653 58.5955 123.402 58.5955C123.235 58.5955 123.067 58.6164 122.9 58.6583C122.741 58.7002 122.602 58.763 122.485 58.8468V63.2061C122.401 63.2312 122.267 63.2563 122.083 63.2814C121.907 63.3066 121.723 63.3191 121.53 63.3191C121.346 63.3191 121.179 63.3066 121.028 63.2814C120.885 63.2563 120.764 63.2061 120.664 63.1307C120.563 63.0553 120.483 62.9548 120.425 62.8292C120.375 62.6952 120.349 62.5235 120.349 62.3141V58.5452C120.349 58.3191 120.395 58.1349 120.488 57.9925C120.588 57.8501 120.722 57.7203 120.89 57.603C121.174 57.402 121.53 57.2387 121.957 57.1131C122.393 56.9875 122.875 56.9246 123.402 56.9246C124.349 56.9246 125.077 57.134 125.588 57.5528C126.099 57.9632 126.354 58.5369 126.354 59.2739V63.2061C126.271 63.2312 126.137 63.2563 125.952 63.2814C125.777 63.3066 125.592 63.3191 125.4 63.3191C125.215 63.3191 125.048 63.3066 124.897 63.2814C124.755 63.2563 124.633 63.2061 124.533 63.1307C124.432 63.0553 124.353 62.9548 124.294 62.8292C124.244 62.6952 124.219 62.5235 124.219 62.3141V59.3493Z" fill="#FF0066"/>
<path d="M130.4 56.9246C130.877 56.9246 131.308 56.9875 131.694 57.1131C132.087 57.2303 132.418 57.3853 132.686 57.5779C132.854 57.6952 132.984 57.825 133.076 57.9674C133.176 58.1097 133.226 58.294 133.226 58.5201V62.9171C133.226 63.361 133.143 63.7421 132.975 64.0603C132.808 64.387 132.577 64.655 132.284 64.8643C131.999 65.0821 131.66 65.2412 131.267 65.3417C130.881 65.4422 130.467 65.4925 130.023 65.4925C129.261 65.4925 128.662 65.3878 128.226 65.1784C127.791 64.9774 127.573 64.6466 127.573 64.186C127.573 63.9933 127.611 63.8216 127.686 63.6709C127.77 63.5285 127.862 63.4196 127.963 63.3442C128.205 63.4782 128.478 63.5913 128.779 63.6834C129.089 63.7756 129.407 63.8216 129.734 63.8216C130.186 63.8216 130.546 63.7463 130.814 63.5955C131.082 63.4447 131.216 63.2019 131.216 62.8669V62.6659C130.873 62.8166 130.454 62.892 129.96 62.892C129.583 62.892 129.223 62.8375 128.88 62.7287C128.545 62.6114 128.247 62.4355 127.988 62.201C127.736 61.9581 127.531 61.6483 127.372 61.2714C127.221 60.8945 127.146 60.4464 127.146 59.9272C127.146 59.4163 127.226 58.9724 127.385 58.5955C127.552 58.2186 127.778 57.9087 128.063 57.6659C128.356 57.4146 128.7 57.2303 129.093 57.1131C129.495 56.9875 129.931 56.9246 130.4 56.9246ZM131.179 58.7463C131.12 58.7128 131.032 58.6793 130.915 58.6458C130.806 58.6122 130.668 58.5955 130.5 58.5955C130.09 58.5955 129.78 58.7128 129.571 58.9473C129.37 59.1734 129.269 59.5 129.269 59.9272C129.269 60.4129 129.37 60.7647 129.571 60.9824C129.78 61.1918 130.044 61.2965 130.362 61.2965C130.705 61.2965 130.978 61.2169 131.179 61.0578V58.7463Z" fill="#FF0066"/>
<path d="M136.726 56.7739C136.726 56.4138 136.831 56.129 137.04 55.9196C137.25 55.7102 137.534 55.6055 137.894 55.6055H142.04C142.099 55.6977 142.149 55.8191 142.191 55.9699C142.241 56.1206 142.266 56.2798 142.266 56.4473C142.266 56.7655 142.195 56.9916 142.053 57.1256C141.919 57.2597 141.739 57.3267 141.513 57.3267H138.862V58.495H141.688C141.747 58.5871 141.797 58.7086 141.839 58.8593C141.889 59.0017 141.915 59.1566 141.915 59.3241C141.915 59.6424 141.848 59.8685 141.714 60.0025C141.58 60.1365 141.4 60.2035 141.173 60.2035H138.862V61.5226H142.09C142.149 61.6148 142.199 61.7362 142.241 61.887C142.291 62.0377 142.317 62.1968 142.317 62.3643C142.317 62.6826 142.245 62.9129 142.103 63.0553C141.969 63.1893 141.789 63.2563 141.563 63.2563H137.894C137.534 63.2563 137.25 63.1516 137.04 62.9422C136.831 62.7329 136.726 62.4481 136.726 62.088V56.7739Z" fill="#FF0066"/>
<path d="M142.904 58.1055C142.971 57.7873 143.101 57.5277 143.293 57.3267C143.494 57.1256 143.742 57.0251 144.035 57.0251C144.311 57.0251 144.525 57.0921 144.675 57.2262C144.826 57.3602 144.994 57.5486 145.178 57.7915L145.982 58.8468L147.326 57.0251C147.787 57.0251 148.151 57.1089 148.419 57.2764C148.687 57.4355 148.821 57.6533 148.821 57.9297C148.821 58.0385 148.804 58.1391 148.771 58.2312C148.746 58.3149 148.704 58.4029 148.645 58.495C148.587 58.5871 148.511 58.6918 148.419 58.8091C148.327 58.9263 148.218 59.0645 148.092 59.2236L147.263 60.1533L148.909 62.3267C148.867 62.6449 148.742 62.8962 148.532 63.0804C148.323 63.2647 148.072 63.3568 147.778 63.3568C147.46 63.3484 147.205 63.2563 147.012 63.0804C146.828 62.9045 146.648 62.691 146.472 62.4397L145.793 61.4724L144.512 63.3191C144.47 63.3191 144.424 63.3191 144.374 63.3191C144.324 63.3275 144.282 63.3317 144.248 63.3317C143.821 63.3317 143.494 63.2437 143.268 63.0679C143.051 62.892 142.942 62.6742 142.942 62.4146C142.942 62.2136 142.988 62.0377 143.08 61.887C143.18 61.7278 143.348 61.5143 143.582 61.2463L144.587 60.0779L142.904 58.1055Z" fill="#FF0066"/>
<path d="M152.369 56.9246C152.872 56.9246 153.337 56.9916 153.764 57.1256C154.199 57.2513 154.572 57.4481 154.882 57.7161C155.192 57.9841 155.435 58.3233 155.611 58.7337C155.786 59.1357 155.874 59.6173 155.874 60.1784C155.874 60.7144 155.799 61.1834 155.648 61.5854C155.497 61.9875 155.284 62.3267 155.008 62.603C154.731 62.871 154.396 63.072 154.002 63.2061C153.617 63.3401 153.186 63.4071 152.708 63.4071C152.348 63.4071 152.013 63.3526 151.703 63.2437V65.3292C151.62 65.3543 151.486 65.3794 151.301 65.4045C151.117 65.438 150.929 65.4548 150.736 65.4548C150.552 65.4548 150.384 65.4422 150.234 65.4171C150.091 65.392 149.97 65.3417 149.869 65.2664C149.769 65.191 149.693 65.0863 149.643 64.9523C149.593 64.8267 149.568 64.6592 149.568 64.4498V58.4196C149.568 58.1935 149.614 58.0092 149.706 57.8669C149.806 57.7245 149.94 57.5947 150.108 57.4774C150.368 57.3099 150.69 57.1759 151.075 57.0754C151.461 56.9749 151.892 56.9246 152.369 56.9246ZM152.394 61.7236C153.257 61.7236 153.688 61.2086 153.688 60.1784C153.688 59.6424 153.58 59.2446 153.362 58.9849C153.152 58.7253 152.847 58.5955 152.445 58.5955C152.286 58.5955 152.143 58.6164 152.018 58.6583C151.892 58.6918 151.783 58.7337 151.691 58.7839V61.5478C151.791 61.598 151.9 61.6399 152.018 61.6734C152.135 61.7069 152.26 61.7236 152.394 61.7236Z" fill="#FF0066"/>
<path d="M159.894 63.4196C159.4 63.4196 158.939 63.3526 158.512 63.2186C158.093 63.0762 157.725 62.8669 157.406 62.5905C157.097 62.3141 156.85 61.9665 156.665 61.5478C156.489 61.129 156.401 60.6391 156.401 60.0779C156.401 59.5251 156.489 59.0519 156.665 58.6583C156.85 58.2563 157.088 57.9297 157.381 57.6784C157.674 57.4188 158.01 57.2303 158.386 57.1131C158.763 56.9875 159.149 56.9246 159.542 56.9246C159.986 56.9246 160.388 56.9916 160.748 57.1256C161.117 57.2597 161.431 57.4439 161.69 57.6784C161.958 57.9129 162.164 58.1935 162.306 58.5201C162.457 58.8468 162.532 59.2027 162.532 59.588C162.532 59.8727 162.453 60.0905 162.293 60.2412C162.134 60.392 161.912 60.4883 161.628 60.5302L158.525 60.995C158.617 61.2714 158.805 61.4808 159.09 61.6231C159.375 61.7571 159.701 61.8241 160.07 61.8241C160.413 61.8241 160.736 61.7823 161.037 61.6985C161.347 61.6064 161.598 61.5017 161.791 61.3844C161.925 61.4682 162.038 61.5854 162.13 61.7362C162.222 61.887 162.268 62.0461 162.268 62.2136C162.268 62.5905 162.092 62.871 161.741 63.0553C161.473 63.1977 161.171 63.294 160.836 63.3442C160.501 63.3945 160.187 63.4196 159.894 63.4196ZM159.542 58.4824C159.341 58.4824 159.165 58.5159 159.015 58.5829C158.872 58.6499 158.755 58.7379 158.663 58.8468C158.571 58.9473 158.499 59.0645 158.449 59.1985C158.407 59.3241 158.382 59.454 158.374 59.588L160.522 59.2362C160.497 59.0687 160.405 58.9012 160.246 58.7337C160.087 58.5662 159.852 58.4824 159.542 58.4824Z" fill="#FF0066"/>
<path d="M165.445 63.2061C165.361 63.2312 165.227 63.2563 165.043 63.2814C164.867 63.3066 164.682 63.3191 164.49 63.3191C164.306 63.3191 164.138 63.3066 163.987 63.2814C163.845 63.2563 163.723 63.2061 163.623 63.1307C163.522 63.0553 163.443 62.9548 163.384 62.8292C163.334 62.6952 163.309 62.5235 163.309 62.3141V58.5452C163.309 58.3526 163.342 58.1893 163.409 58.0553C163.485 57.9129 163.589 57.7873 163.723 57.6784C163.857 57.5695 164.021 57.4732 164.213 57.3895C164.414 57.2973 164.628 57.2178 164.854 57.1508C165.08 57.0838 165.315 57.0335 165.558 57C165.8 56.9581 166.043 56.9372 166.286 56.9372C166.688 56.9372 167.007 57.0168 167.241 57.1759C167.476 57.3267 167.593 57.5779 167.593 57.9297C167.593 58.0469 167.576 58.1642 167.543 58.2814C167.509 58.3903 167.467 58.4908 167.417 58.5829C167.241 58.5829 167.061 58.5913 166.877 58.6081C166.692 58.6248 166.512 58.6499 166.337 58.6834C166.161 58.7169 165.993 58.7546 165.834 58.7965C165.683 58.83 165.553 58.8719 165.445 58.9221V63.2061Z" fill="#FF0066"/>
<path d="M168.172 55.4171C168.172 55.0988 168.277 54.8308 168.486 54.6131C168.704 54.3953 168.989 54.2865 169.341 54.2865C169.692 54.2865 169.973 54.3953 170.182 54.6131C170.4 54.8308 170.509 55.0988 170.509 55.4171C170.509 55.7354 170.4 56.0034 170.182 56.2211C169.973 56.4389 169.692 56.5478 169.341 56.5478C168.989 56.5478 168.704 56.4389 168.486 56.2211C168.277 56.0034 168.172 55.7354 168.172 55.4171ZM170.409 63.2061C170.316 63.2228 170.178 63.2437 169.994 63.2689C169.818 63.3024 169.638 63.3191 169.454 63.3191C169.269 63.3191 169.102 63.3066 168.951 63.2814C168.809 63.2563 168.687 63.2061 168.587 63.1307C168.486 63.0553 168.407 62.9548 168.348 62.8292C168.298 62.6952 168.273 62.5235 168.273 62.3141V57.201C168.365 57.1843 168.499 57.1633 168.675 57.1382C168.859 57.1047 169.043 57.088 169.228 57.088C169.412 57.088 169.575 57.1005 169.718 57.1256C169.868 57.1508 169.994 57.201 170.094 57.2764C170.195 57.3518 170.27 57.4565 170.321 57.5905C170.379 57.7161 170.409 57.8836 170.409 58.093V63.2061Z" fill="#FF0066"/>
<path d="M174.746 63.4196C174.251 63.4196 173.791 63.3526 173.364 63.2186C172.945 63.0762 172.576 62.8669 172.258 62.5905C171.948 62.3141 171.701 61.9665 171.517 61.5478C171.341 61.129 171.253 60.6391 171.253 60.0779C171.253 59.5251 171.341 59.0519 171.517 58.6583C171.701 58.2563 171.94 57.9297 172.233 57.6784C172.526 57.4188 172.861 57.2303 173.238 57.1131C173.615 56.9875 174 56.9246 174.394 56.9246C174.838 56.9246 175.24 56.9916 175.6 57.1256C175.968 57.2597 176.282 57.4439 176.542 57.6784C176.81 57.9129 177.015 58.1935 177.158 58.5201C177.308 58.8468 177.384 59.2027 177.384 59.588C177.384 59.8727 177.304 60.0905 177.145 60.2412C176.986 60.392 176.764 60.4883 176.479 60.5302L173.376 60.995C173.468 61.2714 173.657 61.4808 173.942 61.6231C174.226 61.7571 174.553 61.8241 174.921 61.8241C175.265 61.8241 175.587 61.7823 175.889 61.6985C176.199 61.6064 176.45 61.5017 176.643 61.3844C176.777 61.4682 176.89 61.5854 176.982 61.7362C177.074 61.887 177.12 62.0461 177.12 62.2136C177.12 62.5905 176.944 62.871 176.592 63.0553C176.324 63.1977 176.023 63.294 175.688 63.3442C175.353 63.3945 175.039 63.4196 174.746 63.4196ZM174.394 58.4824C174.193 58.4824 174.017 58.5159 173.866 58.5829C173.724 58.6499 173.606 58.7379 173.514 58.8468C173.422 58.9473 173.351 59.0645 173.301 59.1985C173.259 59.3241 173.234 59.454 173.225 59.588L175.374 59.2362C175.349 59.0687 175.256 58.9012 175.097 58.7337C174.938 58.5662 174.704 58.4824 174.394 58.4824Z" fill="#FF0066"/>
<path d="M182.03 59.3493C182.03 59.0896 181.954 58.9012 181.804 58.7839C181.661 58.6583 181.464 58.5955 181.213 58.5955C181.046 58.5955 180.878 58.6164 180.711 58.6583C180.552 58.7002 180.413 58.763 180.296 58.8468V63.2061C180.212 63.2312 180.078 63.2563 179.894 63.2814C179.718 63.3066 179.534 63.3191 179.341 63.3191C179.157 63.3191 178.99 63.3066 178.839 63.2814C178.696 63.2563 178.575 63.2061 178.475 63.1307C178.374 63.0553 178.294 62.9548 178.236 62.8292C178.186 62.6952 178.16 62.5235 178.16 62.3141V58.5452C178.16 58.3191 178.207 58.1349 178.299 57.9925C178.399 57.8501 178.533 57.7203 178.701 57.603C178.985 57.402 179.341 57.2387 179.769 57.1131C180.204 56.9875 180.686 56.9246 181.213 56.9246C182.16 56.9246 182.888 57.134 183.399 57.5528C183.91 57.9632 184.165 58.5369 184.165 59.2739V63.2061C184.082 63.2312 183.948 63.2563 183.763 63.2814C183.588 63.3066 183.403 63.3191 183.211 63.3191C183.026 63.3191 182.859 63.3066 182.708 63.2814C182.566 63.2563 182.444 63.2061 182.344 63.1307C182.243 63.0553 182.164 62.9548 182.105 62.8292C182.055 62.6952 182.03 62.5235 182.03 62.3141V59.3493Z" fill="#FF0066"/>
<path d="M188.676 58.6081C188.466 58.6081 188.265 58.6416 188.073 58.7086C187.888 58.7756 187.725 58.8761 187.583 59.0101C187.449 59.1357 187.34 59.2948 187.256 59.4875C187.172 59.6801 187.13 59.9062 187.13 60.1659C187.13 60.6851 187.277 61.0746 187.57 61.3342C187.872 61.5938 188.236 61.7236 188.663 61.7236C188.914 61.7236 189.132 61.6943 189.316 61.6357C189.501 61.5771 189.664 61.5143 189.806 61.4473C189.974 61.5645 190.099 61.6943 190.183 61.8367C190.267 61.9707 190.309 62.134 190.309 62.3267C190.309 62.67 190.145 62.938 189.819 63.1307C189.492 63.3149 189.04 63.4071 188.462 63.4071C187.934 63.4071 187.457 63.3317 187.03 63.1809C186.603 63.0218 186.234 62.804 185.924 62.5277C185.623 62.2429 185.388 61.9037 185.221 61.5101C185.053 61.1164 184.97 60.6809 184.97 60.2035C184.97 59.6508 185.058 59.1692 185.233 58.7588C185.418 58.3401 185.665 57.9967 185.975 57.7287C186.285 57.4607 186.64 57.2597 187.042 57.1256C187.453 56.9916 187.884 56.9246 188.336 56.9246C188.939 56.9246 189.404 57.0335 189.731 57.2513C190.058 57.469 190.221 57.7496 190.221 58.093C190.221 58.2521 190.183 58.4029 190.108 58.5452C190.032 58.6793 189.944 58.7965 189.844 58.897C189.702 58.83 189.53 58.7672 189.329 58.7086C189.128 58.6416 188.91 58.6081 188.676 58.6081Z" fill="#FF0066"/>
<path d="M194.173 63.4196C193.679 63.4196 193.218 63.3526 192.791 63.2186C192.373 63.0762 192.004 62.8669 191.686 62.5905C191.376 62.3141 191.129 61.9665 190.945 61.5478C190.769 61.129 190.681 60.6391 190.681 60.0779C190.681 59.5251 190.769 59.0519 190.945 58.6583C191.129 58.2563 191.368 57.9297 191.661 57.6784C191.954 57.4188 192.289 57.2303 192.666 57.1131C193.043 56.9875 193.428 56.9246 193.821 56.9246C194.265 56.9246 194.667 56.9916 195.028 57.1256C195.396 57.2597 195.71 57.4439 195.97 57.6784C196.238 57.9129 196.443 58.1935 196.585 58.5201C196.736 58.8468 196.811 59.2027 196.811 59.588C196.811 59.8727 196.732 60.0905 196.573 60.2412C196.414 60.392 196.192 60.4883 195.907 60.5302L192.804 60.995C192.896 61.2714 193.084 61.4808 193.369 61.6231C193.654 61.7571 193.981 61.8241 194.349 61.8241C194.693 61.8241 195.015 61.7823 195.316 61.6985C195.626 61.6064 195.878 61.5017 196.07 61.3844C196.204 61.4682 196.317 61.5854 196.409 61.7362C196.502 61.887 196.548 62.0461 196.548 62.2136C196.548 62.5905 196.372 62.871 196.02 63.0553C195.752 63.1977 195.45 63.294 195.115 63.3442C194.78 63.3945 194.466 63.4196 194.173 63.4196ZM193.821 58.4824C193.62 58.4824 193.445 58.5159 193.294 58.5829C193.151 58.6499 193.034 58.7379 192.942 58.8468C192.85 58.9473 192.779 59.0645 192.729 59.1985C192.687 59.3241 192.662 59.454 192.653 59.588L194.801 59.2362C194.776 59.0687 194.684 58.9012 194.525 58.7337C194.366 58.5662 194.131 58.4824 193.821 58.4824Z" fill="#FF0066"/>
<path d="M34.5931 31.9015C33.7931 30.4522 32.5941 29.2628 31.1384 28.4744C31.093 28.4492 31.0547 28.4129 31.0271 28.369C30.9994 28.3251 30.9832 28.275 30.9801 28.2232C30.975 28.1815 30.9823 28.1393 31.001 28.1017C31.0198 28.0642 31.0492 28.033 31.0856 28.0121C33.228 26.3253 34.3 23.9878 34.3017 20.9995C34.3017 18.9895 33.8888 17.3144 33.063 15.9744C32.2614 14.6456 31.1481 13.5323 29.8193 12.7307C28.4236 11.8992 26.8929 11.3192 25.2967 11.0171C23.6304 10.6845 21.9355 10.5162 20.2364 10.5146C15.5261 10.5146 11.975 11.4811 9.58309 13.4141C7.19448 15.4242 5.99934 17.9727 5.99766 21.0598C5.99766 24.1185 7.12245 26.4384 9.37203 28.0196C9.58309 28.1871 9.5655 28.3454 9.31927 28.4945C7.91156 29.342 6.74865 30.5413 5.9449 31.9744C5.1185 33.4003 4.685 35.0198 4.68862 36.6679C4.68862 38.7784 5.14591 40.5716 6.06048 42.0473C6.96238 43.5103 8.18926 44.7457 9.6459 45.6578C11.1848 46.617 12.8808 47.2975 14.656 47.6679C16.4924 48.0692 18.3666 48.2722 20.2464 48.2734C22.0903 48.268 23.9282 48.065 25.7288 47.6679C27.5038 47.298 29.2058 46.6384 30.7665 45.7156C32.2418 44.8223 33.4883 43.5972 34.4072 42.1377C35.357 40.6603 35.8318 38.8496 35.8318 36.7056C35.8427 35.0239 35.4158 33.3683 34.5931 31.9015V31.9015ZM15.6158 19.6955C15.9077 19.198 16.3037 18.7695 16.7766 18.4392C17.2642 18.099 17.8088 17.8488 18.3846 17.7005C19.5948 17.3857 20.8654 17.3857 22.0756 17.7005C22.6514 17.8488 23.196 18.099 23.6836 18.4392C24.1565 18.7695 24.5524 19.198 24.8444 19.6955C25.1545 20.2506 25.309 20.879 25.2916 21.5146C25.3079 22.1246 25.153 22.7269 24.8444 23.2533C24.5431 23.7476 24.1385 24.171 23.6585 24.4945C23.1557 24.8293 22.6039 25.0836 22.0228 25.2483C21.4408 25.4174 20.8374 25.502 20.2313 25.4995C19.616 25.4929 19.0039 25.4085 18.4097 25.2483C17.8252 25.1039 17.2718 24.8545 16.7766 24.5121C16.3037 24.1818 15.9077 23.7533 15.6158 23.2558C15.3112 22.7204 15.1567 22.1128 15.1685 21.497C15.1543 20.8674 15.3088 20.2454 15.6158 19.6955V19.6955ZM25.4147 38.7307C25.0911 39.2994 24.651 39.7934 24.1233 40.1804C23.5746 40.578 22.9582 40.8725 22.3042 41.0498C20.9428 41.4384 19.4998 41.4384 18.1384 41.0498C17.4769 40.8695 16.852 40.5754 16.2916 40.1804C15.7512 39.7994 15.301 39.3046 14.9725 38.7307C14.644 38.0999 14.4725 37.3992 14.4725 36.688C14.4725 35.9768 14.644 35.276 14.9725 34.6453C15.3066 34.0825 15.7562 33.597 16.2916 33.2206C16.8498 32.8276 17.4759 32.5414 18.1384 32.3764C18.8193 32.2053 19.5192 32.1208 20.2213 32.1252C20.9143 32.12 21.6052 32.2044 22.2766 32.3764C22.9291 32.5451 23.5455 32.8312 24.0957 33.2206C24.636 33.6017 25.0863 34.0965 25.4147 34.6704C25.7431 35.2967 25.9147 35.9933 25.9147 36.7005C25.9147 37.4077 25.7431 38.1044 25.4147 38.7307V38.7307Z" fill="#FF0066"/>
<path d="M121.91 46.4291V15.5799C121.891 14.9645 122.004 14.3522 122.24 13.7838C122.477 13.2154 122.832 12.7039 123.282 12.2834C124.141 11.4446 125.297 10.9802 126.498 10.9919H130.716C130.892 10.9788 131.069 11.0052 131.233 11.0691C131.397 11.133 131.545 11.2328 131.666 11.3613C131.788 11.4864 131.884 11.6351 131.948 11.7983C132.011 11.9616 132.041 12.136 132.035 12.311V46.4291C132.041 46.6038 132.012 46.7779 131.948 46.9408C131.885 47.1036 131.789 47.2518 131.666 47.3763C131.545 47.5048 131.397 47.6046 131.233 47.6685C131.069 47.7324 130.892 47.7588 130.716 47.7457H123.229C123.053 47.7547 122.878 47.7268 122.714 47.6639C122.55 47.6009 122.401 47.5043 122.277 47.3802C122.153 47.2562 122.056 47.1074 121.993 46.9436C121.929 46.7798 121.901 46.6045 121.91 46.4291Z" fill="#FF0066"/>
<path d="M162.488 10.8336C163.402 10.8336 163.859 11.2909 163.859 12.2055V18.0598C163.872 18.2352 163.845 18.4111 163.781 18.5749C163.717 18.7387 163.618 18.8863 163.49 19.007C163.357 19.1337 163.198 19.2317 163.026 19.2952C162.853 19.3587 162.669 19.3863 162.485 19.3764H150.307C151.076 19.3748 151.816 19.6784 152.362 20.2206C152.638 20.4556 152.86 20.7464 153.015 21.0739C153.169 21.4014 153.253 21.758 153.259 22.1201V46.2708C153.271 46.4503 153.244 46.6302 153.18 46.7984C153.116 46.9666 153.017 47.1191 152.89 47.2457C152.612 47.486 152.251 47.6086 151.885 47.5874H144.598C144.247 47.5874 143.909 47.4556 143.651 47.2181C143.514 47.1023 143.404 46.957 143.331 46.7929C143.258 46.6289 143.223 46.4504 143.229 46.2708V21.012C143.238 20.7895 143.197 20.5678 143.111 20.3627C143.024 20.1577 142.892 19.9744 142.726 19.8261C142.436 19.5446 142.05 19.3838 141.646 19.3764H134.013C133.829 19.3863 133.645 19.3587 133.472 19.2952C133.299 19.2317 133.141 19.1337 133.008 19.007C132.879 18.8866 132.78 18.7391 132.716 18.5752C132.652 18.4113 132.625 18.2352 132.638 18.0598V15.3688C132.614 14.7478 132.73 14.1293 132.976 13.5588C133.223 12.9883 133.594 12.4803 134.063 12.0724C134.926 11.2814 136.053 10.8399 137.224 10.8336H162.488Z" fill="#FF0066"/>
<path d="M195.364 36.5673C195.364 38.7131 194.872 40.5322 193.887 42.0246C192.921 43.5016 191.62 44.73 190.091 45.6101C188.482 46.5304 186.738 47.1894 184.922 47.5623C183.106 47.9561 181.253 48.159 179.395 48.1678C178.108 48.1649 176.823 48.0861 175.545 47.9317C174.226 47.7768 172.927 47.4846 171.668 47.0598C170.428 46.6463 169.241 46.0907 168.128 45.404C167.028 44.7249 166.069 43.8382 165.307 42.7935C164.042 41.1771 163.392 39.4375 163.357 37.5749C163.353 37.4283 163.379 37.2825 163.433 37.1464C163.488 37.0102 163.569 36.8867 163.674 36.7834C163.911 36.5877 164.207 36.4763 164.515 36.4668H171.478C171.849 36.4495 172.22 36.5219 172.558 36.6779C172.877 36.8674 173.154 37.1185 173.375 37.4166C173.922 38.4655 174.83 39.2805 175.932 39.7106C177.038 40.1205 178.208 40.3257 179.387 40.3161C179.986 40.3114 180.585 40.2677 181.179 40.1854C181.828 40.1022 182.466 39.9428 183.078 39.7106C183.651 39.4979 184.172 39.1646 184.606 38.7332C184.821 38.5105 184.988 38.246 185.097 37.956C185.206 37.6659 185.254 37.3566 185.239 37.0472C185.261 36.6396 185.169 36.2339 184.974 35.8753C184.779 35.5168 184.488 35.2197 184.133 35.0171C183.434 34.5959 182.691 34.2513 181.917 33.9895C181.354 33.822 180.66 33.6285 179.834 33.4091C179.009 33.1896 178.05 32.961 176.96 32.7231C175.373 32.4142 173.807 32.0089 172.269 31.5096C170.828 31.0515 169.467 30.3734 168.234 29.4995C167.059 28.6607 166.087 27.5706 165.387 26.3085C164.667 25.0255 164.307 23.4342 164.307 21.5347C164.307 19.5246 164.755 17.8102 165.651 16.3915C166.527 14.9883 167.707 13.7992 169.103 12.9116C170.554 11.997 172.151 11.3376 173.824 10.9618C175.526 10.5612 177.269 10.3572 179.018 10.3538C180.246 10.3566 181.471 10.4625 182.681 10.6704C183.917 10.8788 185.128 11.2156 186.294 11.6754C187.441 12.1252 188.529 12.7097 189.538 13.4166C190.545 14.1249 191.442 14.9774 192.201 15.9467C193.395 17.5297 194.028 19.0941 194.098 20.6402C194.092 21.027 193.983 21.4052 193.782 21.7357C193.678 21.8397 193.555 21.9215 193.419 21.976C193.282 22.0304 193.137 22.0564 192.99 22.0523H185.661C184.887 22.0523 184.292 21.4844 183.869 20.8513C183.741 20.3788 183.485 19.9506 183.131 19.6126C182.771 19.2732 182.351 19.0047 181.892 18.8211C181.424 18.6298 180.937 18.4883 180.44 18.399C179.971 18.3127 179.495 18.2682 179.018 18.2658C178.48 18.2678 177.943 18.303 177.41 18.3714C176.895 18.4341 176.395 18.5863 175.932 18.8211C175.495 19.048 175.115 19.3731 174.824 19.7709C174.51 20.2269 174.353 20.7729 174.377 21.3261C174.377 22.3462 174.905 23.1544 175.96 23.7508C177.012 24.3136 178.962 24.894 181.812 25.492C183.491 25.7718 185.154 26.1408 186.794 26.5975C188.331 27.0115 189.797 27.6517 191.146 28.497C192.396 29.29 193.443 30.3647 194.204 31.6352C194.978 32.9216 195.364 34.5657 195.364 36.5673Z" fill="#FF0066"/>
<path d="M62.9901 31.9015C62.19 30.4522 60.991 29.2628 59.5353 28.4744C59.49 28.4492 59.4517 28.4129 59.424 28.369C59.3964 28.3251 59.3802 28.275 59.377 28.2231C59.3719 28.1815 59.3792 28.1393 59.398 28.1017C59.4168 28.0642 59.4462 28.033 59.4826 28.0121C61.6283 26.3253 62.7003 23.9878 62.6986 20.9995C62.6986 18.9895 62.2857 17.3144 61.46 15.9744C60.6591 14.6459 59.5466 13.5326 58.2187 12.7307C56.8229 11.8996 55.2922 11.3196 53.6961 11.0171C52.029 10.6845 50.3333 10.5162 48.6333 10.5146C43.9231 10.5146 40.3728 11.4811 37.9826 13.4141C35.5906 15.4242 34.3946 17.9727 34.3946 21.0598C34.3946 24.1185 35.5202 26.4384 37.7715 28.0196C37.9826 28.1955 37.9625 28.3538 37.7187 28.4945C36.3097 29.3412 35.1458 30.5406 34.3419 31.9744C33.5165 33.4007 33.083 35.02 33.0856 36.6679C33.0856 38.7784 33.542 40.5716 34.4549 42.0473C35.3568 43.5102 36.5837 44.7457 38.0403 45.6578C39.5795 46.6166 41.2754 47.297 43.0504 47.6679C44.8869 48.0691 46.7611 48.2721 48.6409 48.2734C50.4855 48.268 52.3243 48.065 54.1258 47.6679C55.8964 47.2965 57.594 46.637 59.1509 45.7156C60.6315 44.8249 61.8828 43.5995 62.8042 42.1377C63.7539 40.6603 64.2288 38.8496 64.2288 36.7056C64.2396 35.0239 63.8127 33.3683 62.9901 31.9015V31.9015ZM44.0077 19.6955C44.2979 19.1976 44.6932 18.7689 45.166 18.4392C45.6536 18.099 46.1982 17.8488 46.774 17.7005C47.9842 17.3857 49.2548 17.3857 50.465 17.7005C51.0416 17.8488 51.587 18.0989 52.0755 18.4392C52.5472 18.7701 52.9422 19.1986 53.2338 19.6955C53.5447 20.2503 53.7001 20.8788 53.6836 21.5146C53.6991 22.1248 53.5432 22.7272 53.2338 23.2533C52.9333 23.7482 52.5286 24.1718 52.0479 24.4945C51.5452 24.8293 50.9933 25.0836 50.4122 25.2483C49.8302 25.4176 49.2269 25.5022 48.6207 25.4995C48.0062 25.4931 47.395 25.4086 46.8017 25.2483C46.2162 25.1044 45.6619 24.855 45.166 24.5121C44.6932 24.1824 44.2979 23.7537 44.0077 23.2558C43.7012 22.7211 43.5458 22.1132 43.5579 21.497C43.5438 20.8671 43.6991 20.2449 44.0077 19.6955V19.6955ZM53.8067 38.7307C53.483 39.2994 53.0429 39.7934 52.5152 40.1804C51.9668 40.5784 51.3503 40.873 50.6961 41.0498C49.3347 41.4384 47.8917 41.4384 46.5303 41.0498C45.8689 40.8695 45.2439 40.5754 44.6836 40.1804C44.1434 39.8 43.6938 39.3049 43.367 38.7307C43.0222 38.1106 42.8487 37.4099 42.8645 36.7005C42.8422 35.9825 43.0159 35.272 43.367 34.6453C43.6994 34.0821 44.1483 33.5964 44.6836 33.2206C45.2417 32.8276 45.8679 32.5414 46.5303 32.3764C47.2113 32.2054 47.9111 32.121 48.6132 32.1252C49.3063 32.12 49.9971 32.2044 50.6685 32.3764C51.3211 32.5451 51.9375 32.8312 52.4876 33.2206C53.028 33.6017 53.4782 34.0965 53.8067 34.6704C54.1367 35.2962 54.3092 35.993 54.3092 36.7005C54.3092 37.408 54.1367 38.1049 53.8067 38.7307V38.7307Z" fill="#FF0066"/>
<path d="M120.264 31.6377C119.432 30.1637 118.121 29.0189 116.548 28.394C117.835 27.7018 118.917 26.6837 119.686 25.4417C120.442 24.2042 120.835 22.7788 120.819 21.3286C120.819 19.3186 120.467 17.6436 119.764 16.3035C119.103 15.0007 118.124 13.8858 116.917 13.0623C115.653 12.2256 114.238 11.6436 112.751 11.3488C111.66 11.1216 110.555 10.9729 109.442 10.904V6.38141C109.441 5.90336 109.251 5.44527 108.913 5.10723C108.574 4.7692 108.116 4.57872 107.638 4.57739H107.48C107.002 4.57871 106.543 4.76912 106.205 5.10708C105.867 5.44504 105.676 5.90313 105.674 6.38141V10.8412H103.093V6.37387C103.092 5.89538 102.901 5.43692 102.562 5.09881C102.224 4.76071 101.765 4.57051 101.287 4.56985H101.131C100.653 4.57117 100.194 4.76159 99.8557 5.09955C99.5173 5.43751 99.3263 5.89559 99.3243 6.37387V10.8337H94.7162C94.203 10.8425 93.6944 10.9315 93.2087 11.0975C92.6553 11.2766 92.143 11.5635 91.7012 11.9417C91.2349 12.3389 90.85 12.8227 90.568 13.3663C90.2515 14.0041 90.0971 14.71 90.1182 15.4216V46.2709C90.1272 46.6177 90.2691 46.9477 90.5146 47.1928C90.7602 47.4379 91.0905 47.5792 91.4373 47.5874H99.3142V51.4945C99.3155 51.9732 99.5063 52.4319 99.8448 52.7704C100.183 53.1089 100.642 53.2997 101.121 53.301H101.294C101.773 53.3003 102.232 53.1098 102.571 52.7712C102.909 52.4325 103.1 51.9734 103.101 51.4945V47.5874H105.681V51.4945C105.682 51.9732 105.873 52.4319 106.212 52.7704C106.55 53.1089 107.009 53.2997 107.488 53.301H107.646C108.124 53.2997 108.583 53.1088 108.921 52.7703C109.259 52.4317 109.449 51.973 109.45 51.4945V47.5523C110.752 47.4825 112.045 47.2915 113.312 46.9819C114.858 46.6178 116.319 45.9546 117.611 45.0297C118.846 44.1275 119.848 42.9441 120.535 41.5774C121.257 40.1704 121.618 38.4476 121.618 36.4091C121.607 34.7253 121.139 33.0762 120.264 31.6377V31.6377ZM106.571 17.9015C107.607 17.8605 108.625 18.1871 109.445 18.8236C110.2 19.4384 110.578 20.3596 110.578 21.5874C110.578 22.8153 110.21 23.7558 109.473 24.4091C108.734 25.0573 107.766 25.3823 106.571 25.3839H101.573C101.352 25.394 101.131 25.3514 100.929 25.2597C100.727 25.168 100.55 25.0297 100.412 24.8563C100.161 24.5794 100.012 24.2247 99.9901 23.8513V20.6955C99.9847 20.3346 99.9073 19.9785 99.7623 19.648C99.6173 19.3174 99.4077 19.0192 99.1459 18.7709C98.8826 18.491 98.5638 18.2692 98.2099 18.1195C97.856 17.9698 97.4748 17.8956 97.0906 17.9015H106.571ZM110.131 39.4141C109.339 40.1176 108.31 40.4694 107.045 40.4694H101.573C101.347 40.4848 101.121 40.4448 100.913 40.3528C100.706 40.2609 100.525 40.1198 100.385 39.9417C100.141 39.6427 100.002 39.2719 99.9901 38.8864V35.0372C99.9844 34.6764 99.9068 34.3203 99.7619 33.9898C99.6169 33.6594 99.4075 33.3611 99.1459 33.1126C98.8826 32.8328 98.5638 32.6109 98.2099 32.4612C97.856 32.3116 97.4748 32.2373 97.0906 32.2432H107.055C108.184 32.2058 109.282 32.6127 110.113 33.3764C110.922 34.1318 111.327 35.1427 111.327 36.4091C111.327 37.7156 110.931 38.7173 110.141 39.4141H110.131Z" fill="#FF0066"/>
<path d="M91.3645 31.9015C90.5646 30.4529 89.3667 29.2636 87.9122 28.4744C87.8669 28.4492 87.8286 28.4129 87.8009 28.369C87.7732 28.3251 87.7571 28.275 87.7539 28.2231C87.7488 28.1815 87.7561 28.1393 87.7749 28.1017C87.7937 28.0642 87.8231 28.033 87.8595 28.0121C90.0018 26.3253 91.0739 23.9878 91.0755 20.9995C91.0755 18.9895 90.6626 17.3144 89.8368 15.9744C89.0353 14.6456 87.9219 13.5323 86.5931 12.7307C85.1975 11.8992 83.6667 11.3192 82.0705 11.0171C80.4034 10.6844 78.7077 10.5161 77.0077 10.5146C72.2975 10.5146 68.7472 11.4811 66.3569 13.4141C63.965 15.4242 62.7698 17.9727 62.7715 21.0598C62.7715 24.1185 63.8963 26.4384 66.1459 28.0196C66.3569 28.1871 66.3394 28.3454 66.0931 28.4945C64.6848 29.3413 63.5217 30.5407 62.7187 31.9744C61.8923 33.4003 61.4588 35.0198 61.4625 36.6679C61.4625 38.7784 61.9197 40.5716 62.8343 42.0473C63.7348 43.5114 64.962 44.7472 66.4198 45.6578C67.9587 46.617 69.6546 47.2975 71.4298 47.6679C73.2654 48.0691 75.1388 48.2721 77.0177 48.2734C78.8624 48.2682 80.7013 48.0652 82.5027 47.6679C84.2733 47.2965 85.9709 46.637 87.5278 45.7156C89.008 44.8243 90.2591 43.599 91.1811 42.1377C92.1308 40.6603 92.6048 38.8496 92.6032 36.7056C92.6151 35.0237 92.1882 33.3679 91.3645 31.9015ZM72.3821 19.6955C72.674 19.198 73.07 18.7695 73.5429 18.4392C74.0305 18.099 74.5751 17.8488 75.1509 17.7005C76.3611 17.3857 77.6317 17.3857 78.8419 17.7005C79.4177 17.8488 79.9623 18.099 80.4499 18.4392C80.9228 18.7695 81.3187 19.198 81.6107 19.6955C81.9197 20.251 82.0742 20.8792 82.0579 21.5146C82.0726 22.1244 81.9178 22.7263 81.6107 23.2533C81.3093 23.7484 80.9038 24.1719 80.4223 24.4945C79.9204 24.8292 79.3694 25.0835 78.7891 25.2483C78.2062 25.4176 77.6021 25.5022 76.9951 25.4995C76.3806 25.4928 75.7694 25.4084 75.176 25.2483C74.5913 25.1044 74.0379 24.8549 73.5429 24.5121C73.07 24.1818 72.674 23.7533 72.3821 23.2558C72.0775 22.7204 71.923 22.1128 71.9348 21.497C71.9207 20.8674 72.0751 20.2454 72.3821 19.6955ZM82.1811 38.7307C81.8556 39.299 81.4149 39.7928 80.8871 40.1804C80.3389 40.5789 79.7224 40.8735 79.068 41.0498C77.7066 41.4384 76.2636 41.4384 74.9022 41.0498C74.2417 40.869 73.6177 40.5749 73.0579 40.1804C72.5176 39.7994 72.0673 39.3046 71.7388 38.7307C71.4103 38.0999 71.2388 37.3992 71.2388 36.688C71.2388 35.9768 71.4103 35.276 71.7388 34.6453C72.0729 34.0825 72.5225 33.597 73.0579 33.2206C73.6155 32.8282 74.2407 32.542 74.9022 32.3764C75.5831 32.2054 76.283 32.121 76.9851 32.1252C77.679 32.1198 78.3707 32.2042 79.0429 32.3764C79.6952 32.5457 80.3115 32.8317 80.862 33.2206C81.4016 33.6024 81.8518 34.0972 82.1811 34.6704C82.5095 35.2967 82.681 35.9933 82.681 36.7005C82.681 37.4077 82.5095 38.1044 82.1811 38.7307Z" fill="#FF0066"/>
</g>
<defs>
<clipPath id="clip0_2411_11085">
<rect width="201" height="68" fill="white"/>
</clipPath>
</defs>
</svg>
