<svg width="200" height="74" viewBox="0 0 200 74" fill="none" xmlns="http://www.w3.org/2000/svg">
    <path fill-rule="evenodd" clip-rule="evenodd"
        d="M120.264 31.6377C119.432 30.1636 118.121 29.0189 116.548 28.394C117.835 27.7018 118.917 26.6837 119.686 25.4417C120.442 24.2042 120.835 22.7788 120.819 21.3286C120.819 19.3186 120.467 17.6435 119.764 16.3035C119.103 15.0007 118.124 13.8858 116.917 13.0623C115.653 12.2256 114.238 11.6436 112.751 11.3487C111.66 11.1216 110.555 10.9729 109.442 10.904V6.3814C109.441 5.90335 109.251 5.44526 108.913 5.10722C108.574 4.76919 108.116 4.57871 107.638 4.57738H107.48C107.002 4.57871 106.543 4.76911 106.205 5.10707C105.867 5.44503 105.676 5.90312 105.674 6.3814V10.8412H103.093V6.37386C103.092 5.89538 102.901 5.43691 102.562 5.09881C102.224 4.7607 101.765 4.5705 101.287 4.56984H101.131C100.653 4.57116 100.194 4.76158 99.8558 5.09954C99.5173 5.4375 99.3263 5.89558 99.3243 6.37386V10.8337H94.7162C94.203 10.8425 93.6944 10.9315 93.2087 11.0975C92.6553 11.2765 92.143 11.5635 91.7012 11.9417C91.2349 12.3388 90.85 12.8226 90.568 13.3663C90.2515 14.0041 90.0971 14.71 90.1182 15.4216V16.4751C90.0305 16.3033 89.9367 16.1364 89.8368 15.9744C89.0353 14.6456 87.9219 13.5323 86.5931 12.7307C85.1975 11.8992 83.6667 11.3192 82.0705 11.0171C80.4034 10.6844 78.7077 10.5161 77.0077 10.5146C72.2975 10.5146 68.7472 11.4811 66.3569 13.4141C63.965 15.4242 62.7698 17.9727 62.7715 21.0598C62.7715 24.1185 63.8963 26.4384 66.1459 28.0196C66.3569 28.1871 66.3394 28.3454 66.0931 28.4945C64.7747 29.2872 63.6712 30.389 62.8769 31.7027C62.0789 30.3434 60.9239 29.2264 59.5353 28.4744C59.49 28.4492 59.4517 28.413 59.424 28.369C59.3964 28.3251 59.3802 28.275 59.377 28.2232C59.3719 28.1815 59.3792 28.1393 59.398 28.1017C59.4168 28.0642 59.4462 28.033 59.4826 28.0121C61.6283 26.3253 62.7003 23.9878 62.6986 20.9995C62.6986 18.9895 62.2857 17.3144 61.46 15.9744C60.6591 14.6459 59.5466 13.5326 58.2187 12.7307C56.8229 11.8996 55.2922 11.3196 53.6961 11.0171C52.029 10.6845 50.3333 10.5162 48.6333 10.5146C43.9231 10.5146 40.3728 11.4811 37.9826 13.4141C35.5906 15.4242 34.3946 17.9727 34.3946 21.0598C34.3946 24.1185 35.5202 26.4384 37.7715 28.0196C37.9826 28.1955 37.9625 28.3538 37.7187 28.4945C36.394 29.2906 35.2859 30.3984 34.4899 31.7198C33.6916 30.3527 32.5328 29.2296 31.1384 28.4744C31.093 28.4492 31.0547 28.413 31.0271 28.369C30.9994 28.3251 30.9832 28.275 30.9801 28.2232C30.975 28.1815 30.9823 28.1393 31.001 28.1017C31.0198 28.0642 31.0492 28.033 31.0856 28.0121C33.228 26.3253 34.3 23.9878 34.3017 20.9995C34.3017 18.9895 33.8888 17.3144 33.063 15.9744C32.2614 14.6456 31.1481 13.5323 29.8193 12.7307C28.4236 11.8992 26.8929 11.3192 25.2967 11.0171C23.6304 10.6846 21.9355 10.5162 20.2364 10.5146C15.5261 10.5146 11.975 11.4811 9.58309 13.4141C7.19448 15.4242 5.99934 17.9727 5.99766 21.0598C5.99766 24.1185 7.12245 26.4384 9.37203 28.0196C9.58309 28.1871 9.5655 28.3454 9.31927 28.4945C7.91156 29.342 6.74865 30.5413 5.9449 31.9744C5.1185 33.4003 4.685 35.0198 4.68862 36.6679C4.68862 38.7784 5.14591 40.5716 6.06048 42.0473C6.96238 43.5103 8.18926 44.7457 9.6459 45.6578C11.1848 46.6171 12.8808 47.2975 14.656 47.6679C16.4924 48.0692 18.3666 48.2722 20.2464 48.2734C22.0903 48.268 23.9282 48.065 25.7288 47.6679C27.5038 47.298 29.2058 46.6384 30.7665 45.7156C32.2418 44.8223 33.4883 43.5972 34.4072 42.1377C34.4249 42.1103 34.4424 42.0827 34.4597 42.055C35.3611 43.5146 36.5863 44.7473 38.0403 45.6578C39.5795 46.6166 41.2754 47.297 43.0504 47.6679C44.8869 48.0691 46.7611 48.2721 48.6409 48.2734C50.4855 48.268 52.3243 48.0651 54.1258 47.6679C55.8964 47.2965 57.594 46.637 59.1509 45.7156C60.6315 44.8249 61.8828 43.5995 62.8042 42.1377C62.8188 42.1149 62.8334 42.0921 62.8478 42.0691C63.747 43.5237 64.9692 44.7517 66.4198 45.6578C67.9587 46.6171 69.6546 47.2975 71.4298 47.6679C73.2654 48.0691 75.1388 48.2721 77.0177 48.2734C78.8624 48.2682 80.7013 48.0652 82.5027 47.6679C84.2733 47.2965 85.9709 46.637 87.5278 45.7156C88.4994 45.1305 89.3723 44.4015 90.1182 43.5564V46.2709C90.1272 46.6177 90.2691 46.9477 90.5146 47.1928C90.7602 47.4379 91.0905 47.5792 91.4373 47.5874H99.3142V51.4945C99.3156 51.9732 99.5063 52.4319 99.8448 52.7704C100.183 53.1089 100.642 53.2997 101.121 53.301H101.294C101.773 53.3003 102.232 53.1098 102.571 52.7711C102.909 52.4325 103.1 51.9734 103.101 51.4945V47.5874H105.681V51.4945C105.682 51.9732 105.873 52.4319 106.212 52.7704C106.55 53.1089 107.009 53.2997 107.488 53.301H107.646C108.124 53.2997 108.583 53.1088 108.921 52.7703C109.259 52.4317 109.449 51.973 109.45 51.4945V47.5523C110.752 47.4824 112.045 47.2915 113.312 46.9819C114.858 46.6178 116.319 45.9546 117.611 45.0296C118.846 44.1275 119.848 42.9441 120.535 41.5774C121.257 40.1704 121.618 38.4476 121.618 36.409C121.607 34.7253 121.139 33.0762 120.264 31.6377ZM90.1182 30.1827V25.307C89.5867 26.3433 88.8338 27.245 87.8595 28.0121C87.8231 28.033 87.7937 28.0642 87.7749 28.1017C87.7561 28.1393 87.7488 28.1815 87.7539 28.2232C87.7571 28.275 87.7732 28.3251 87.8009 28.369C87.8286 28.413 87.8669 28.4492 87.9122 28.4744C88.7391 28.9231 89.4832 29.5012 90.1182 30.1827ZM106.571 17.9015C107.607 17.8605 108.625 18.1871 109.445 18.8236C110.2 19.4384 110.578 20.3596 110.578 21.5874C110.578 22.8152 110.21 23.7558 109.473 24.409C108.734 25.0573 107.766 25.3822 106.571 25.3839H101.573C101.352 25.394 101.131 25.3514 100.929 25.2597C100.727 25.168 100.55 25.0297 100.412 24.8563C100.161 24.5794 100.012 24.2247 99.9901 23.8512V20.6955C99.9847 20.3346 99.9073 19.9785 99.7623 19.6479C99.6173 19.3174 99.4077 19.0192 99.1459 18.7709C98.8826 18.491 98.5638 18.2692 98.2099 18.1195C97.8822 17.9809 97.531 17.907 97.1758 17.9015H106.571ZM110.131 39.4141C109.339 40.1176 108.31 40.4693 107.045 40.4693H101.573C101.347 40.4848 101.121 40.4448 100.913 40.3528C100.706 40.2609 100.525 40.1198 100.385 39.9417C100.141 39.6427 100.002 39.2719 99.9901 38.8864V35.0372C99.9844 34.6764 99.9068 34.3203 99.7619 33.9898C99.6169 33.6594 99.4075 33.3611 99.1459 33.1126C98.8826 32.8328 98.5638 32.6109 98.2099 32.4612C97.8822 32.3226 97.531 32.2487 97.1758 32.2432H107.055C108.184 32.2058 109.282 32.6127 110.113 33.3764C110.922 34.1318 111.327 35.1427 111.327 36.409C111.327 37.7156 110.931 38.7172 110.141 39.4141H110.131ZM195.364 36.5674C195.364 38.7131 194.872 40.5322 193.887 42.0246C192.921 43.5016 191.62 44.73 190.091 45.6101C188.482 46.5304 186.738 47.1894 184.922 47.5623C183.106 47.9561 181.253 48.159 179.395 48.1679C178.108 48.1649 176.823 48.0861 175.545 47.9317C174.226 47.7768 172.927 47.4846 171.668 47.0598C170.428 46.6463 169.241 46.0907 168.128 45.404C167.027 44.7249 166.069 43.8382 165.307 42.7935C164.042 41.1771 163.392 39.4375 163.357 37.5749C163.353 37.4283 163.379 37.2825 163.433 37.1464C163.488 37.0102 163.569 36.8867 163.674 36.7834C163.911 36.5877 164.207 36.4763 164.515 36.4668H171.478C171.849 36.4495 172.22 36.5219 172.558 36.6779C172.877 36.8674 173.154 37.1185 173.375 37.4166C173.922 38.4655 174.83 39.2805 175.932 39.7106C177.038 40.1205 178.208 40.3257 179.387 40.3161C179.986 40.3114 180.585 40.2677 181.179 40.1854C181.828 40.1022 182.466 39.9428 183.078 39.7106C183.651 39.4979 184.172 39.1646 184.606 38.7332C184.821 38.5105 184.988 38.246 185.097 37.956C185.206 37.666 185.254 37.3566 185.239 37.0472C185.261 36.6396 185.169 36.2339 184.974 35.8754C184.779 35.5168 184.488 35.2197 184.133 35.0171C183.434 34.5959 182.691 34.2514 181.917 33.9895C181.354 33.822 180.66 33.6285 179.834 33.4091C179.009 33.1896 178.05 32.961 176.96 32.7231C175.373 32.4142 173.807 32.0089 172.269 31.5096C170.828 31.0515 169.467 30.3735 168.234 29.4995C167.059 28.6607 166.087 27.5706 165.387 26.3086C164.667 25.0255 164.307 23.4342 164.307 21.5347C164.307 19.5246 164.755 17.8102 165.651 16.3915C166.527 14.9883 167.707 13.7993 169.103 12.9116C170.554 11.997 172.151 11.3376 173.824 10.9618C175.526 10.5612 177.269 10.3572 179.018 10.3538C180.246 10.3566 181.471 10.4625 182.681 10.6704C183.917 10.8788 185.128 11.2156 186.294 11.6754C187.441 12.1252 188.529 12.7097 189.538 13.4166C190.545 14.1249 191.442 14.9774 192.201 15.9467C193.395 17.5297 194.028 19.0941 194.098 20.6402C194.092 21.027 193.983 21.4052 193.782 21.7357C193.678 21.8397 193.555 21.9215 193.419 21.976C193.282 22.0304 193.137 22.0564 192.99 22.0523H185.661C184.887 22.0523 184.292 21.4844 183.869 20.8513C183.741 20.3789 183.485 19.9506 183.131 19.6126C182.771 19.2732 182.351 19.0047 181.892 18.8211C181.424 18.6298 180.937 18.4883 180.44 18.399C179.971 18.3127 179.495 18.2682 179.018 18.2658C178.48 18.2678 177.943 18.303 177.41 18.3714C176.895 18.4341 176.395 18.5863 175.932 18.8211C175.495 19.048 175.115 19.3731 174.824 19.7709C174.51 20.2269 174.353 20.7729 174.377 21.3261C174.377 22.3462 174.905 23.1544 175.96 23.7508C177.012 24.3136 178.962 24.894 181.812 25.492C183.491 25.7718 185.154 26.1408 186.794 26.5975C188.331 27.0115 189.797 27.6517 191.146 28.497C192.396 29.29 193.443 30.3648 194.204 31.6352C194.978 32.9216 195.364 34.5657 195.364 36.5674ZM15.6158 19.6955C15.9077 19.1981 16.3037 18.7695 16.7766 18.4392C17.2642 18.099 17.8088 17.8488 18.3846 17.7005C19.5948 17.3857 20.8654 17.3857 22.0756 17.7005C22.6514 17.8488 23.196 18.099 23.6836 18.4392C24.1565 18.7695 24.5524 19.1981 24.8444 19.6955C25.1545 20.2506 25.309 20.879 25.2916 21.5146C25.3079 22.1246 25.153 22.7269 24.8444 23.2533C24.5431 23.7476 24.1385 24.171 23.6585 24.4945C23.1557 24.8293 22.6039 25.0836 22.0228 25.2483C21.4408 25.4174 20.8374 25.502 20.2313 25.4995C19.616 25.4929 19.0039 25.4085 18.4097 25.2483C17.8252 25.104 17.2718 24.8545 16.7766 24.5121C16.3037 24.1818 15.9077 23.7533 15.6158 23.2558C15.3112 22.7204 15.1567 22.1128 15.1685 21.497C15.1543 20.8674 15.3088 20.2454 15.6158 19.6955ZM25.4147 38.7307C25.0911 39.2994 24.651 39.7934 24.1233 40.1805C23.5746 40.578 22.9582 40.8725 22.3042 41.0498C20.9428 41.4384 19.4998 41.4384 18.1384 41.0498C17.4769 40.8696 16.852 40.5754 16.2916 40.1805C15.7512 39.7994 15.301 39.3046 14.9725 38.7307C14.644 38.0999 14.4725 37.3992 14.4725 36.688C14.4725 35.9768 14.644 35.2761 14.9725 34.6453C15.3066 34.0825 15.7562 33.597 16.2916 33.2206C16.8498 32.8276 17.4759 32.5414 18.1384 32.3764C18.8193 32.2053 19.5192 32.1209 20.2213 32.1252C20.9143 32.12 21.6052 32.2044 22.2766 32.3764C22.9291 32.5452 23.5455 32.8312 24.0957 33.2206C24.636 33.6017 25.0863 34.0965 25.4147 34.6704C25.7431 35.2967 25.9147 35.9934 25.9147 36.7005C25.9147 37.4077 25.7431 38.1044 25.4147 38.7307ZM121.91 46.4291V15.5799C121.891 14.9645 122.004 14.3522 122.24 13.7838C122.477 13.2154 122.832 12.7039 123.282 12.2834C124.141 11.4446 125.297 10.9802 126.498 10.9919H130.716C130.892 10.9788 131.069 11.0052 131.233 11.0691C131.397 11.133 131.545 11.2329 131.666 11.3613C131.788 11.4864 131.884 11.6351 131.948 11.7983C132.011 11.9616 132.041 12.136 132.035 12.311V46.4291C132.041 46.6038 132.012 46.7779 131.948 46.9408C131.885 47.1036 131.789 47.2518 131.666 47.3763C131.545 47.5048 131.397 47.6046 131.233 47.6685C131.069 47.7324 130.892 47.7588 130.716 47.7457H123.229C123.053 47.7547 122.878 47.7268 122.714 47.6639C122.55 47.6009 122.401 47.5043 122.277 47.3802C122.153 47.2562 122.056 47.1074 121.993 46.9436C121.929 46.7798 121.901 46.6045 121.91 46.4291ZM163.859 12.2055C163.859 11.2909 163.402 10.8336 162.488 10.8336H137.224C136.053 10.8399 134.926 11.2814 134.063 12.0724C133.594 12.4803 133.223 12.9883 132.976 13.5588C132.73 14.1293 132.614 14.7478 132.638 15.3688V18.0598C132.625 18.2352 132.652 18.4113 132.716 18.5752C132.78 18.7391 132.879 18.8866 133.008 19.007C133.141 19.1337 133.299 19.2317 133.472 19.2952C133.645 19.3587 133.829 19.3863 134.013 19.3764H141.646C142.05 19.3838 142.436 19.5446 142.726 19.8261C142.892 19.9744 143.024 20.1577 143.111 20.3627C143.197 20.5678 143.238 20.7895 143.229 21.012V46.2708C143.223 46.4504 143.258 46.6289 143.331 46.7929C143.404 46.957 143.514 47.1023 143.651 47.2181C143.909 47.4556 144.247 47.5874 144.598 47.5874H151.885C152.251 47.6086 152.612 47.486 152.89 47.2457C153.017 47.1191 153.116 46.9666 153.18 46.7984C153.244 46.6302 153.271 46.4503 153.259 46.2708V22.1201C153.253 21.758 153.169 21.4014 153.015 21.0739C152.86 20.7464 152.638 20.4556 152.362 20.2206C151.818 19.6812 151.084 19.3779 150.319 19.3764H162.485C162.669 19.3863 162.853 19.3587 163.026 19.2952C163.198 19.2317 163.357 19.1337 163.49 19.007C163.618 18.8863 163.717 18.7387 163.781 18.5749C163.845 18.4111 163.872 18.2352 163.859 18.0598V12.2055ZM45.166 18.4392C44.6932 18.7689 44.2979 19.1976 44.0077 19.6955C43.6991 20.2449 43.5438 20.8671 43.5579 21.497C43.5458 22.1132 43.7012 22.7211 44.0077 23.2558C44.2979 23.7537 44.6932 24.1824 45.166 24.5121C45.6619 24.855 46.2162 25.1045 46.8017 25.2483C47.395 25.4086 48.0062 25.4931 48.6207 25.4995C49.2269 25.5022 49.8302 25.4176 50.4122 25.2483C50.9933 25.0836 51.5452 24.8293 52.0479 24.4945C52.5286 24.1718 52.9333 23.7482 53.2338 23.2533C53.5432 22.7272 53.6991 22.1248 53.6836 21.5146C53.7001 20.8788 53.5447 20.2503 53.2338 19.6955C52.9422 19.1986 52.5472 18.7702 52.0755 18.4392C51.587 18.0989 51.0416 17.8488 50.465 17.7005C49.2548 17.3857 47.9842 17.3857 46.774 17.7005C46.1982 17.8488 45.6536 18.099 45.166 18.4392ZM52.5152 40.1805C53.0429 39.7934 53.483 39.2994 53.8067 38.7307C54.1367 38.1049 54.3092 37.4081 54.3092 36.7005C54.3092 35.993 54.1367 35.2962 53.8067 34.6704C53.4782 34.0965 53.028 33.6017 52.4876 33.2206C51.9375 32.8312 51.3211 32.5452 50.6685 32.3764C49.9971 32.2044 49.3063 32.12 48.6132 32.1252C47.9111 32.121 47.2113 32.2054 46.5303 32.3764C45.8679 32.5414 45.2417 32.8276 44.6836 33.2206C44.1483 33.5964 43.6994 34.0821 43.367 34.6453C43.0159 35.272 42.8422 35.9825 42.8645 36.7005C42.8487 37.4099 43.0222 38.1106 43.367 38.7307C43.6938 39.3049 44.1434 39.8 44.6836 40.1805C45.2439 40.5754 45.8689 40.8696 46.5303 41.0498C47.8917 41.4384 49.3347 41.4384 50.6961 41.0498C51.3503 40.873 51.9668 40.5784 52.5152 40.1805ZM73.5429 18.4392C73.07 18.7695 72.674 19.1981 72.3821 19.6955C72.0751 20.2454 71.9207 20.8674 71.9348 21.497C71.923 22.1128 72.0775 22.7204 72.3821 23.2558C72.674 23.7533 73.07 24.1818 73.5429 24.5121C74.0379 24.8549 74.5913 25.1044 75.176 25.2483C75.7694 25.4084 76.3806 25.4928 76.9951 25.4995C77.6021 25.5022 78.2062 25.4176 78.7891 25.2483C79.3694 25.0835 79.9204 24.8292 80.4223 24.4945C80.9038 24.1719 81.3093 23.7484 81.6107 23.2533C81.9178 22.7263 82.0726 22.1244 82.0579 21.5146C82.0742 20.8792 81.9197 20.251 81.6107 19.6955C81.3187 19.1981 80.9228 18.7695 80.4499 18.4392C79.9623 18.099 79.4177 17.8488 78.8419 17.7005C77.6317 17.3857 76.3611 17.3857 75.1509 17.7005C74.5751 17.8488 74.0305 18.099 73.5429 18.4392ZM80.8871 40.1805C81.4149 39.7928 81.8557 39.299 82.1811 38.7307C82.5095 38.1044 82.681 37.4077 82.681 36.7005C82.681 35.9934 82.5095 35.2967 82.1811 34.6704C81.8518 34.0972 81.4016 33.6025 80.862 33.2206C80.3115 32.8317 79.6952 32.5457 79.0429 32.3764C78.3707 32.2042 77.679 32.1198 76.9851 32.1252C76.283 32.121 75.5831 32.2054 74.9022 32.3764C74.2407 32.542 73.6155 32.8282 73.0579 33.2206C72.5225 33.597 72.0729 34.0825 71.7388 34.6453C71.4103 35.2761 71.2388 35.9768 71.2388 36.688C71.2388 37.3992 71.4103 38.0999 71.7388 38.7307C72.0673 39.3046 72.5175 39.7994 73.0579 40.1805C73.6177 40.5749 74.2417 40.869 74.9022 41.0498C76.2636 41.4384 77.7066 41.4384 79.068 41.0498C79.7224 40.8735 80.3389 40.5789 80.8871 40.1805Z"
        fill="#3AAFA9" />
    <path
        d="M19.9521 63.717C19.9521 64.0477 19.8934 64.293 19.7761 64.453C19.6588 64.613 19.4721 64.7677 19.2161 64.917C19.0668 65.0023 18.8801 65.0877 18.6561 65.173C18.4321 65.2477 18.1868 65.3117 17.9201 65.365C17.6534 65.429 17.3708 65.477 17.0721 65.509C16.7841 65.541 16.4961 65.557 16.2081 65.557C15.4401 65.557 14.7201 65.4557 14.0481 65.253C13.3761 65.0397 12.7894 64.725 12.2881 64.309C11.7974 63.8823 11.4081 63.3543 11.1201 62.725C10.8321 62.0957 10.6881 61.365 10.6881 60.533C10.6881 59.6583 10.8428 58.8957 11.1521 58.245C11.4721 57.5943 11.8881 57.0557 12.4001 56.629C12.9228 56.1917 13.5148 55.8663 14.1761 55.653C14.8481 55.4397 15.5361 55.333 16.2401 55.333C17.2534 55.333 18.0534 55.4983 18.6401 55.829C19.2374 56.149 19.5361 56.5703 19.5361 57.093C19.5361 57.3703 19.4668 57.6103 19.3281 57.813C19.1894 58.0157 19.0294 58.1757 18.8481 58.293C18.5814 58.133 18.2454 57.9783 17.8401 57.829C17.4454 57.669 16.9974 57.589 16.4961 57.589C15.6001 57.589 14.8854 57.845 14.3521 58.357C13.8294 58.869 13.5681 59.5783 13.5681 60.485C13.5681 60.9757 13.6374 61.4023 13.7761 61.765C13.9254 62.117 14.1228 62.4103 14.3681 62.645C14.6134 62.869 14.8961 63.0397 15.2161 63.157C15.5361 63.2637 15.8774 63.317 16.2401 63.317C16.4748 63.317 16.6828 63.2957 16.8641 63.253C17.0454 63.2103 17.1841 63.1623 17.2801 63.109V61.605H15.5681C15.5041 61.4877 15.4401 61.333 15.3761 61.141C15.3228 60.949 15.2961 60.7463 15.2961 60.533C15.2961 60.149 15.3814 59.8717 15.5521 59.701C15.7334 59.5303 15.9628 59.445 16.2401 59.445H18.9441C19.2641 59.445 19.5094 59.5357 19.6801 59.717C19.8614 59.8877 19.9521 60.133 19.9521 60.453V63.717ZM23.9912 63.573C24.1726 63.573 24.3699 63.557 24.5832 63.525C24.8072 63.4823 24.9726 63.429 25.0792 63.365V62.085L23.9272 62.181C23.6286 62.2023 23.3832 62.2663 23.1912 62.373C22.9992 62.4797 22.9032 62.6397 22.9032 62.853C22.9032 63.0663 22.9832 63.2423 23.1432 63.381C23.3139 63.509 23.5966 63.573 23.9912 63.573ZM23.8632 57.285C24.4392 57.285 24.9619 57.3437 25.4312 57.461C25.9112 57.5783 26.3166 57.7597 26.6472 58.005C26.9886 58.2397 27.2499 58.5437 27.4312 58.917C27.6126 59.2797 27.7032 59.7117 27.7032 60.213V63.797C27.7032 64.0743 27.6232 64.3037 27.4632 64.485C27.3139 64.6557 27.1326 64.805 26.9192 64.933C26.2259 65.349 25.2499 65.557 23.9912 65.557C23.4259 65.557 22.9139 65.5037 22.4552 65.397C22.0072 65.2903 21.6179 65.1303 21.2872 64.917C20.9672 64.7037 20.7166 64.4317 20.5352 64.101C20.3646 63.7703 20.2792 63.3863 20.2792 62.949C20.2792 62.213 20.4979 61.6477 20.9352 61.253C21.3726 60.8583 22.0499 60.613 22.9672 60.517L25.0632 60.293V60.181C25.0632 59.8717 24.9246 59.653 24.6472 59.525C24.3806 59.3863 23.9912 59.317 23.4792 59.317C23.0739 59.317 22.6792 59.3597 22.2952 59.445C21.9112 59.5303 21.5646 59.637 21.2552 59.765C21.1166 59.669 20.9992 59.525 20.9032 59.333C20.8072 59.1303 20.7592 58.9223 20.7592 58.709C20.7592 58.4317 20.8232 58.213 20.9512 58.053C21.0899 57.8823 21.2979 57.7383 21.5752 57.621C21.8846 57.5037 22.2472 57.4183 22.6632 57.365C23.0899 57.3117 23.4899 57.285 23.8632 57.285ZM32.0944 57.285C32.5317 57.285 32.9584 57.349 33.3744 57.477C33.801 57.5943 34.169 57.7757 34.4784 58.021C34.7984 57.8077 35.1557 57.6317 35.5504 57.493C35.9557 57.3543 36.441 57.285 37.0064 57.285C37.4117 57.285 37.8064 57.3383 38.1904 57.445C38.585 57.5517 38.9317 57.7223 39.2304 57.957C39.5397 58.181 39.785 58.485 39.9664 58.869C40.1477 59.2423 40.2384 59.701 40.2384 60.245V65.285C40.1317 65.317 39.961 65.349 39.7264 65.381C39.5024 65.413 39.2677 65.429 39.0224 65.429C38.7877 65.429 38.5744 65.413 38.3824 65.381C38.201 65.349 38.0464 65.285 37.9184 65.189C37.7904 65.093 37.689 64.965 37.6144 64.805C37.5504 64.6343 37.5184 64.4157 37.5184 64.149V60.325C37.5184 60.005 37.4277 59.7757 37.2464 59.637C37.065 59.4877 36.8197 59.413 36.5104 59.413C36.361 59.413 36.201 59.4503 36.0304 59.525C35.8597 59.589 35.7317 59.6583 35.6464 59.733C35.657 59.7757 35.6624 59.8183 35.6624 59.861C35.6624 59.893 35.6624 59.925 35.6624 59.957V65.285C35.545 65.317 35.369 65.349 35.1344 65.381C34.9104 65.413 34.681 65.429 34.4464 65.429C34.2117 65.429 33.9984 65.413 33.8064 65.381C33.625 65.349 33.4704 65.285 33.3424 65.189C33.2144 65.093 33.113 64.965 33.0384 64.805C32.9744 64.6343 32.9424 64.4157 32.9424 64.149V60.325C32.9424 60.005 32.841 59.7757 32.6384 59.637C32.4464 59.4877 32.2117 59.413 31.9344 59.413C31.7424 59.413 31.577 59.445 31.4384 59.509C31.2997 59.5623 31.1824 59.6157 31.0864 59.669V65.285C30.9797 65.317 30.809 65.349 30.5744 65.381C30.3504 65.413 30.1157 65.429 29.8704 65.429C29.6357 65.429 29.4224 65.413 29.2304 65.381C29.049 65.349 28.8944 65.285 28.7664 65.189C28.6384 65.093 28.537 64.965 28.4624 64.805C28.3984 64.6343 28.3664 64.4157 28.3664 64.149V59.317C28.3664 59.029 28.425 58.7997 28.5424 58.629C28.6704 58.4583 28.841 58.2983 29.0544 58.149C29.417 57.893 29.865 57.685 30.3984 57.525C30.9424 57.365 31.5077 57.285 32.0944 57.285ZM40.9296 54.885C41.0363 54.853 41.2069 54.821 41.4416 54.789C41.6763 54.7463 41.9163 54.725 42.1616 54.725C42.3963 54.725 42.6043 54.741 42.7856 54.773C42.9776 54.805 43.1376 54.869 43.2656 54.965C43.3936 55.061 43.4896 55.1943 43.5536 55.365C43.6176 55.525 43.6496 55.7383 43.6496 56.005V57.573C43.9163 57.4663 44.1669 57.3917 44.4016 57.349C44.6469 57.3063 44.9136 57.285 45.2016 57.285C45.7136 57.285 46.1989 57.3757 46.6576 57.557C47.1163 57.7383 47.5216 58.005 47.8736 58.357C48.2256 58.6983 48.5029 59.125 48.7056 59.637C48.9083 60.149 49.0096 60.741 49.0096 61.413C49.0096 62.1063 48.9029 62.7143 48.6896 63.237C48.4869 63.749 48.1989 64.1757 47.8256 64.517C47.4523 64.8583 46.9936 65.1197 46.4496 65.301C45.9163 65.4717 45.3243 65.557 44.6736 65.557C43.9696 65.557 43.3723 65.4717 42.8816 65.301C42.3909 65.141 41.9749 64.9383 41.6336 64.693C41.1643 64.3623 40.9296 63.9357 40.9296 63.413V54.885ZM44.6736 63.413C45.1643 63.413 45.5429 63.2477 45.8096 62.917C46.0869 62.5757 46.2256 62.0743 46.2256 61.413C46.2256 60.741 46.0869 60.2397 45.8096 59.909C45.5323 59.5783 45.1589 59.413 44.6896 59.413C44.4763 59.413 44.2896 59.4343 44.1296 59.477C43.9803 59.5197 43.8149 59.5837 43.6336 59.669V63.157C43.7509 63.2317 43.8896 63.2957 44.0496 63.349C44.2203 63.3917 44.4283 63.413 44.6736 63.413ZM52.1031 65.285C51.9858 65.3063 51.8098 65.333 51.5751 65.365C51.3511 65.4077 51.1218 65.429 50.8871 65.429C50.6524 65.429 50.4391 65.413 50.2471 65.381C50.0658 65.349 49.9111 65.285 49.7831 65.189C49.6551 65.093 49.5538 64.965 49.4791 64.805C49.4151 64.6343 49.3831 64.4157 49.3831 64.149V54.869C49.5004 54.8477 49.6711 54.821 49.8951 54.789C50.1298 54.7463 50.3644 54.725 50.5991 54.725C50.8338 54.725 51.0418 54.741 51.2231 54.773C51.4151 54.805 51.5751 54.869 51.7031 54.965C51.8311 55.061 51.9271 55.1943 51.9911 55.365C52.0658 55.525 52.1031 55.7383 52.1031 56.005V65.285ZM56.9315 65.557C56.3022 65.557 55.7155 65.4717 55.1715 65.301C54.6382 65.1197 54.1688 64.853 53.7635 64.501C53.3688 64.149 53.0542 63.7063 52.8195 63.173C52.5955 62.6397 52.4835 62.0157 52.4835 61.301C52.4835 60.597 52.5955 59.9943 52.8195 59.493C53.0542 58.981 53.3582 58.565 53.7315 58.245C54.1048 57.9143 54.5315 57.6743 55.0115 57.525C55.4915 57.365 55.9822 57.285 56.4835 57.285C57.0488 57.285 57.5608 57.3703 58.0195 57.541C58.4888 57.7117 58.8888 57.9463 59.2195 58.245C59.5608 58.5437 59.8222 58.901 60.0035 59.317C60.1955 59.733 60.2915 60.1863 60.2915 60.677C60.2915 61.0397 60.1902 61.317 59.9875 61.509C59.7848 61.701 59.5022 61.8237 59.1395 61.877L55.1875 62.469C55.3048 62.821 55.5448 63.0877 55.9075 63.269C56.2702 63.4397 56.6862 63.525 57.1555 63.525C57.5928 63.525 58.0035 63.4717 58.3875 63.365C58.7822 63.2477 59.1022 63.1143 59.3475 62.965C59.5182 63.0717 59.6622 63.221 59.7795 63.413C59.8968 63.605 59.9555 63.8077 59.9555 64.021C59.9555 64.501 59.7315 64.8583 59.2835 65.093C58.9422 65.2743 58.5582 65.397 58.1315 65.461C57.7048 65.525 57.3048 65.557 56.9315 65.557ZM56.4835 59.269C56.2275 59.269 56.0035 59.3117 55.8115 59.397C55.6302 59.4823 55.4808 59.5943 55.3635 59.733C55.2462 59.861 55.1555 60.0103 55.0915 60.181C55.0382 60.341 55.0062 60.5063 54.9955 60.677L57.7315 60.229C57.6995 60.0157 57.5822 59.8023 57.3795 59.589C57.1768 59.3757 56.8782 59.269 56.4835 59.269ZM67.6247 55.605C67.6994 55.7223 67.7634 55.8823 67.8167 56.085C67.8807 56.277 67.9127 56.4797 67.9127 56.693C67.9127 57.109 67.8221 57.4077 67.6407 57.589C67.4701 57.7597 67.2354 57.845 66.9367 57.845H63.5767V59.653H67.0807C67.1661 59.7703 67.2354 59.925 67.2887 60.117C67.3527 60.309 67.3847 60.5117 67.3847 60.725C67.3847 61.1303 67.2941 61.4237 67.1127 61.605C66.9421 61.7757 66.7074 61.861 66.4087 61.861H63.6087V65.237C63.4914 65.269 63.3047 65.301 63.0487 65.333C62.8034 65.365 62.5581 65.381 62.3127 65.381C62.0674 65.381 61.8487 65.3597 61.6567 65.317C61.4754 65.285 61.3207 65.221 61.1927 65.125C61.0647 65.029 60.9687 64.8957 60.9047 64.725C60.8407 64.5543 60.8087 64.3303 60.8087 64.053V57.093C60.8087 56.6343 60.9421 56.2717 61.2087 56.005C61.4754 55.7383 61.8381 55.605 62.2967 55.605H67.6247ZM67.9117 55.365C67.9117 54.9597 68.0451 54.6183 68.3117 54.341C68.5891 54.0637 68.9517 53.925 69.3997 53.925C69.8477 53.925 70.2051 54.0637 70.4717 54.341C70.7491 54.6183 70.8877 54.9597 70.8877 55.365C70.8877 55.7703 70.7491 56.1117 70.4717 56.389C70.2051 56.6663 69.8477 56.805 69.3997 56.805C68.9517 56.805 68.5891 56.6663 68.3117 56.389C68.0451 56.1117 67.9117 55.7703 67.9117 55.365ZM70.7597 65.285C70.6424 65.3063 70.4664 65.333 70.2317 65.365C70.0077 65.4077 69.7784 65.429 69.5437 65.429C69.3091 65.429 69.0957 65.413 68.9037 65.381C68.7224 65.349 68.5677 65.285 68.4397 65.189C68.3117 65.093 68.2104 64.965 68.1357 64.805C68.0717 64.6343 68.0397 64.4157 68.0397 64.149V57.637C68.1571 57.6157 68.3277 57.589 68.5517 57.557C68.7864 57.5143 69.0211 57.493 69.2557 57.493C69.4904 57.493 69.6984 57.509 69.8797 57.541C70.0717 57.573 70.2317 57.637 70.3597 57.733C70.4877 57.829 70.5837 57.9623 70.6477 58.133C70.7224 58.293 70.7597 58.5063 70.7597 58.773V65.285ZM78.8465 57.557C78.0252 57.557 77.3958 57.8077 76.9585 58.309C76.5212 58.8103 76.3025 59.5197 76.3025 60.437C76.3025 61.365 76.5425 62.0797 77.0225 62.581C77.5132 63.0823 78.1692 63.333 78.9905 63.333C79.4278 63.333 79.7958 63.2743 80.0945 63.157C80.4038 63.0397 80.6972 62.9063 80.9745 62.757C81.1558 62.9063 81.2945 63.0877 81.3905 63.301C81.4972 63.5037 81.5505 63.7437 81.5505 64.021C81.5505 64.4583 81.3052 64.8317 80.8145 65.141C80.3345 65.4397 79.5985 65.589 78.6065 65.589C77.8918 65.589 77.2198 65.4877 76.5905 65.285C75.9612 65.0823 75.4118 64.773 74.9425 64.357C74.4732 63.9303 74.0998 63.397 73.8225 62.757C73.5558 62.1063 73.4225 61.333 73.4225 60.437C73.4225 59.605 73.5505 58.8743 73.8065 58.245C74.0732 57.605 74.4305 57.0663 74.8785 56.629C75.3372 56.1917 75.8705 55.861 76.4785 55.637C77.0865 55.413 77.7372 55.301 78.4305 55.301C79.4118 55.301 80.1692 55.461 80.7025 55.781C81.2465 56.101 81.5185 56.5117 81.5185 57.013C81.5185 57.2903 81.4492 57.5303 81.3105 57.733C81.1718 57.9357 81.0118 58.0957 80.8305 58.213C80.5532 58.0317 80.2545 57.877 79.9345 57.749C79.6252 57.621 79.2625 57.557 78.8465 57.557ZM85.1631 63.573C85.3444 63.573 85.5418 63.557 85.7551 63.525C85.9791 63.4823 86.1444 63.429 86.2511 63.365V62.085L85.0991 62.181C84.8004 62.2023 84.5551 62.2663 84.3631 62.373C84.1711 62.4797 84.0751 62.6397 84.0751 62.853C84.0751 63.0663 84.1551 63.2423 84.3151 63.381C84.4858 63.509 84.7684 63.573 85.1631 63.573ZM85.0351 57.285C85.6111 57.285 86.1338 57.3437 86.6031 57.461C87.0831 57.5783 87.4884 57.7597 87.8191 58.005C88.1604 58.2397 88.4218 58.5437 88.6031 58.917C88.7844 59.2797 88.8751 59.7117 88.8751 60.213V63.797C88.8751 64.0743 88.7951 64.3037 88.6351 64.485C88.4858 64.6557 88.3044 64.805 88.0911 64.933C87.3978 65.349 86.4218 65.557 85.1631 65.557C84.5978 65.557 84.0858 65.5037 83.6271 65.397C83.1791 65.2903 82.7898 65.1303 82.4591 64.917C82.1391 64.7037 81.8884 64.4317 81.7071 64.101C81.5364 63.7703 81.4511 63.3863 81.4511 62.949C81.4511 62.213 81.6698 61.6477 82.1071 61.253C82.5444 60.8583 83.2218 60.613 84.1391 60.517L86.2351 60.293V60.181C86.2351 59.8717 86.0964 59.653 85.8191 59.525C85.5524 59.3863 85.1631 59.317 84.6511 59.317C84.2458 59.317 83.8511 59.3597 83.4671 59.445C83.0831 59.5303 82.7364 59.637 82.4271 59.765C82.2884 59.669 82.1711 59.525 82.0751 59.333C81.9791 59.1303 81.9311 58.9223 81.9311 58.709C81.9311 58.4317 81.9951 58.213 82.1231 58.053C82.2618 57.8823 82.4698 57.7383 82.7471 57.621C83.0564 57.5037 83.4191 57.4183 83.8351 57.365C84.2618 57.3117 84.6618 57.285 85.0351 57.285ZM96.0982 62.981C96.0982 63.7917 95.7942 64.4263 95.1862 64.885C94.5782 65.3437 93.6822 65.573 92.4982 65.573C92.0502 65.573 91.6342 65.541 91.2502 65.477C90.8662 65.413 90.5356 65.317 90.2582 65.189C89.9916 65.0503 89.7782 64.8797 89.6182 64.677C89.4689 64.4743 89.3942 64.2343 89.3942 63.957C89.3942 63.701 89.4476 63.4877 89.5542 63.317C89.6609 63.1357 89.7889 62.9863 89.9382 62.869C90.2476 63.0397 90.5996 63.1943 90.9942 63.333C91.3996 63.461 91.8636 63.525 92.3862 63.525C92.7169 63.525 92.9676 63.477 93.1382 63.381C93.3196 63.285 93.4102 63.157 93.4102 62.997C93.4102 62.8477 93.3462 62.7303 93.2182 62.645C93.0902 62.5597 92.8769 62.4903 92.5782 62.437L92.0982 62.341C91.1702 62.1597 90.4769 61.877 90.0182 61.493C89.5702 61.0983 89.3462 60.5383 89.3462 59.813C89.3462 59.4183 89.4316 59.061 89.6022 58.741C89.7729 58.421 90.0129 58.1543 90.3222 57.941C90.6316 57.7277 90.9996 57.5623 91.4262 57.445C91.8636 57.3277 92.3436 57.269 92.8662 57.269C93.2609 57.269 93.6289 57.301 93.9702 57.365C94.3222 57.4183 94.6262 57.5037 94.8822 57.621C95.1382 57.7383 95.3409 57.893 95.4902 58.085C95.6396 58.2663 95.7142 58.485 95.7142 58.741C95.7142 58.9863 95.6662 59.1997 95.5702 59.381C95.4849 59.5517 95.3729 59.6957 95.2342 59.813C95.1489 59.7597 95.0209 59.7063 94.8502 59.653C94.6796 59.589 94.4929 59.5357 94.2902 59.493C94.0876 59.4397 93.8796 59.397 93.6662 59.365C93.4636 59.333 93.2769 59.317 93.1062 59.317C92.7542 59.317 92.4822 59.3597 92.2902 59.445C92.0982 59.5197 92.0022 59.6423 92.0022 59.813C92.0022 59.9303 92.0556 60.0263 92.1622 60.101C92.2689 60.1757 92.4716 60.245 92.7702 60.309L93.2662 60.421C94.2902 60.6557 95.0156 60.981 95.4422 61.397C95.8796 61.8023 96.0982 62.3303 96.0982 62.981ZM96.3492 55.365C96.3492 54.9597 96.4826 54.6183 96.7492 54.341C97.0266 54.0637 97.3892 53.925 97.8372 53.925C98.2852 53.925 98.6426 54.0637 98.9092 54.341C99.1866 54.6183 99.3252 54.9597 99.3252 55.365C99.3252 55.7703 99.1866 56.1117 98.9092 56.389C98.6426 56.6663 98.2852 56.805 97.8372 56.805C97.3892 56.805 97.0266 56.6663 96.7492 56.389C96.4826 56.1117 96.3492 55.7703 96.3492 55.365ZM99.1972 65.285C99.0799 65.3063 98.9039 65.333 98.6692 65.365C98.4452 65.4077 98.2159 65.429 97.9812 65.429C97.7466 65.429 97.5332 65.413 97.3412 65.381C97.1599 65.349 97.0052 65.285 96.8772 65.189C96.7492 65.093 96.6479 64.965 96.5732 64.805C96.5092 64.6343 96.4772 64.4157 96.4772 64.149V57.637C96.5946 57.6157 96.7652 57.589 96.9892 57.557C97.2239 57.5143 97.4586 57.493 97.6932 57.493C97.9279 57.493 98.1359 57.509 98.3172 57.541C98.5092 57.573 98.6692 57.637 98.7972 57.733C98.9252 57.829 99.0212 57.9623 99.0852 58.133C99.1599 58.293 99.1972 58.5063 99.1972 58.773V65.285ZM104.857 60.373C104.857 60.0423 104.761 59.8023 104.569 59.653C104.388 59.493 104.137 59.413 103.817 59.413C103.604 59.413 103.39 59.4397 103.177 59.493C102.974 59.5463 102.798 59.6263 102.649 59.733V65.285C102.542 65.317 102.372 65.349 102.137 65.381C101.913 65.413 101.678 65.429 101.433 65.429C101.198 65.429 100.985 65.413 100.793 65.381C100.612 65.349 100.457 65.285 100.329 65.189C100.201 65.093 100.1 64.965 100.025 64.805C99.9609 64.6343 99.9289 64.4157 99.9289 64.149V59.349C99.9289 59.061 99.9875 58.8263 100.105 58.645C100.233 58.4637 100.404 58.2983 100.617 58.149C100.98 57.893 101.433 57.685 101.977 57.525C102.532 57.365 103.145 57.285 103.817 57.285C105.022 57.285 105.95 57.5517 106.601 58.085C107.252 58.6077 107.577 59.3383 107.577 60.277V65.285C107.47 65.317 107.3 65.349 107.065 65.381C106.841 65.413 106.606 65.429 106.361 65.429C106.126 65.429 105.913 65.413 105.721 65.381C105.54 65.349 105.385 65.285 105.257 65.189C105.129 65.093 105.028 64.965 104.953 64.805C104.889 64.6343 104.857 64.4157 104.857 64.149V60.373ZM116.305 61.413C116.305 62.0743 116.204 62.6663 116.001 63.189C115.798 63.701 115.51 64.133 115.137 64.485C114.774 64.837 114.337 65.1037 113.825 65.285C113.313 65.4663 112.742 65.557 112.113 65.557C111.484 65.557 110.913 65.461 110.401 65.269C109.889 65.077 109.446 64.805 109.073 64.453C108.71 64.0903 108.428 63.653 108.225 63.141C108.022 62.629 107.921 62.053 107.921 61.413C107.921 60.7837 108.022 60.213 108.225 59.701C108.428 59.189 108.71 58.757 109.073 58.405C109.446 58.0423 109.889 57.765 110.401 57.573C110.913 57.381 111.484 57.285 112.113 57.285C112.742 57.285 113.313 57.3863 113.825 57.589C114.337 57.781 114.774 58.0583 115.137 58.421C115.51 58.773 115.798 59.205 116.001 59.717C116.204 60.229 116.305 60.7943 116.305 61.413ZM110.705 61.413C110.705 62.0637 110.828 62.565 111.073 62.917C111.329 63.2583 111.681 63.429 112.129 63.429C112.577 63.429 112.918 63.253 113.153 62.901C113.398 62.549 113.521 62.053 113.521 61.413C113.521 60.773 113.398 60.2823 113.153 59.941C112.908 59.589 112.561 59.413 112.113 59.413C111.665 59.413 111.318 59.589 111.073 59.941C110.828 60.2823 110.705 60.773 110.705 61.413ZM119.043 57.093C119.043 56.6343 119.176 56.2717 119.443 56.005C119.71 55.7383 120.072 55.605 120.531 55.605H125.811C125.886 55.7223 125.95 55.877 126.003 56.069C126.067 56.261 126.099 56.4637 126.099 56.677C126.099 57.0823 126.008 57.3703 125.827 57.541C125.656 57.7117 125.427 57.797 125.139 57.797H121.763V59.285H125.363C125.438 59.4023 125.502 59.557 125.555 59.749C125.619 59.9303 125.651 60.1277 125.651 60.341C125.651 60.7463 125.566 61.0343 125.395 61.205C125.224 61.3757 124.995 61.461 124.707 61.461H121.763V63.141H125.875C125.95 63.2583 126.014 63.413 126.067 63.605C126.131 63.797 126.163 63.9997 126.163 64.213C126.163 64.6183 126.072 64.9117 125.891 65.093C125.72 65.2637 125.491 65.349 125.203 65.349H120.531C120.072 65.349 119.71 65.2157 119.443 64.949C119.176 64.6823 119.043 64.3197 119.043 63.861V57.093ZM126.231 58.789C126.317 58.3837 126.482 58.053 126.727 57.797C126.983 57.541 127.298 57.413 127.671 57.413C128.023 57.413 128.295 57.4983 128.487 57.669C128.679 57.8397 128.893 58.0797 129.127 58.389L130.151 59.733L131.863 57.413C132.45 57.413 132.914 57.5197 133.255 57.733C133.597 57.9357 133.767 58.213 133.767 58.565C133.767 58.7037 133.746 58.8317 133.703 58.949C133.671 59.0557 133.618 59.1677 133.543 59.285C133.469 59.4023 133.373 59.5357 133.255 59.685C133.138 59.8343 132.999 60.0103 132.839 60.213L131.783 61.397L133.879 64.165C133.826 64.5703 133.666 64.8903 133.399 65.125C133.133 65.3597 132.813 65.477 132.439 65.477C132.034 65.4663 131.709 65.349 131.463 65.125C131.229 64.901 130.999 64.629 130.775 64.309L129.911 63.077L128.279 65.429C128.226 65.429 128.167 65.429 128.103 65.429C128.039 65.4397 127.986 65.445 127.943 65.445C127.399 65.445 126.983 65.333 126.695 65.109C126.418 64.885 126.279 64.6077 126.279 64.277C126.279 64.021 126.338 63.797 126.455 63.605C126.583 63.4023 126.797 63.1303 127.095 62.789L128.375 61.301L126.231 58.789ZM137.606 57.285C138.246 57.285 138.838 57.3703 139.382 57.541C139.937 57.701 140.412 57.9517 140.806 58.293C141.201 58.6343 141.51 59.0663 141.734 59.589C141.958 60.101 142.07 60.7143 142.07 61.429C142.07 62.1117 141.974 62.709 141.782 63.221C141.59 63.733 141.318 64.165 140.966 64.517C140.614 64.8583 140.188 65.1143 139.686 65.285C139.196 65.4557 138.646 65.541 138.038 65.541C137.58 65.541 137.153 65.4717 136.758 65.333V67.989C136.652 68.021 136.481 68.053 136.246 68.085C136.012 68.1277 135.772 68.149 135.526 68.149C135.292 68.149 135.078 68.133 134.886 68.101C134.705 68.069 134.55 68.005 134.422 67.909C134.294 67.813 134.198 67.6797 134.134 67.509C134.07 67.349 134.038 67.1357 134.038 66.869V59.189C134.038 58.901 134.097 58.6663 134.214 58.485C134.342 58.3037 134.513 58.1383 134.726 57.989C135.057 57.7757 135.468 57.605 135.958 57.477C136.449 57.349 136.998 57.285 137.606 57.285ZM137.638 63.397C138.737 63.397 139.286 62.741 139.286 61.429C139.286 60.7463 139.148 60.2397 138.87 59.909C138.604 59.5783 138.214 59.413 137.702 59.413C137.5 59.413 137.318 59.4397 137.158 59.493C136.998 59.5357 136.86 59.589 136.742 59.653V63.173C136.87 63.237 137.009 63.2903 137.158 63.333C137.308 63.3757 137.468 63.397 137.638 63.397ZM146.51 65.557C145.88 65.557 145.294 65.4717 144.75 65.301C144.216 65.1197 143.747 64.853 143.342 64.501C142.947 64.149 142.632 63.7063 142.398 63.173C142.174 62.6397 142.062 62.0157 142.062 61.301C142.062 60.597 142.174 59.9943 142.398 59.493C142.632 58.981 142.936 58.565 143.31 58.245C143.683 57.9143 144.11 57.6743 144.59 57.525C145.07 57.365 145.56 57.285 146.062 57.285C146.627 57.285 147.139 57.3703 147.598 57.541C148.067 57.7117 148.467 57.9463 148.798 58.245C149.139 58.5437 149.4 58.901 149.582 59.317C149.774 59.733 149.87 60.1863 149.87 60.677C149.87 61.0397 149.768 61.317 149.566 61.509C149.363 61.701 149.08 61.8237 148.718 61.877L144.766 62.469C144.883 62.821 145.123 63.0877 145.486 63.269C145.848 63.4397 146.264 63.525 146.734 63.525C147.171 63.525 147.582 63.4717 147.966 63.365C148.36 63.2477 148.68 63.1143 148.926 62.965C149.096 63.0717 149.24 63.221 149.358 63.413C149.475 63.605 149.534 63.8077 149.534 64.021C149.534 64.501 149.31 64.8583 148.862 65.093C148.52 65.2743 148.136 65.397 147.71 65.461C147.283 65.525 146.883 65.557 146.51 65.557ZM146.062 59.269C145.806 59.269 145.582 59.3117 145.39 59.397C145.208 59.4823 145.059 59.5943 144.942 59.733C144.824 59.861 144.734 60.0103 144.67 60.181C144.616 60.341 144.584 60.5063 144.574 60.677L147.31 60.229C147.278 60.0157 147.16 59.8023 146.958 59.589C146.755 59.3757 146.456 59.269 146.062 59.269ZM152.899 65.285C152.792 65.317 152.622 65.349 152.387 65.381C152.163 65.413 151.928 65.429 151.683 65.429C151.448 65.429 151.235 65.413 151.043 65.381C150.862 65.349 150.707 65.285 150.579 65.189C150.451 65.093 150.35 64.965 150.275 64.805C150.211 64.6343 150.179 64.4157 150.179 64.149V59.349C150.179 59.1037 150.222 58.8957 150.307 58.725C150.403 58.5437 150.536 58.3837 150.707 58.245C150.878 58.1063 151.086 57.9837 151.331 57.877C151.587 57.7597 151.859 57.6583 152.147 57.573C152.435 57.4877 152.734 57.4237 153.043 57.381C153.352 57.3277 153.662 57.301 153.971 57.301C154.483 57.301 154.888 57.4023 155.187 57.605C155.486 57.797 155.635 58.117 155.635 58.565C155.635 58.7143 155.614 58.8637 155.571 59.013C155.528 59.1517 155.475 59.2797 155.411 59.397C155.187 59.397 154.958 59.4077 154.723 59.429C154.488 59.4503 154.259 59.4823 154.035 59.525C153.811 59.5677 153.598 59.6157 153.395 59.669C153.203 59.7117 153.038 59.765 152.899 59.829V65.285ZM155.693 55.365C155.693 54.9597 155.826 54.6183 156.093 54.341C156.37 54.0637 156.733 53.925 157.181 53.925C157.629 53.925 157.986 54.0637 158.253 54.341C158.53 54.6183 158.669 54.9597 158.669 55.365C158.669 55.7703 158.53 56.1117 158.253 56.389C157.986 56.6663 157.629 56.805 157.181 56.805C156.733 56.805 156.37 56.6663 156.093 56.389C155.826 56.1117 155.693 55.7703 155.693 55.365ZM158.541 65.285C158.424 65.3063 158.248 65.333 158.013 65.365C157.789 65.4077 157.56 65.429 157.325 65.429C157.09 65.429 156.877 65.413 156.685 65.381C156.504 65.349 156.349 65.285 156.221 65.189C156.093 65.093 155.992 64.965 155.917 64.805C155.853 64.6343 155.821 64.4157 155.821 64.149V57.637C155.938 57.6157 156.109 57.589 156.333 57.557C156.568 57.5143 156.802 57.493 157.037 57.493C157.272 57.493 157.48 57.509 157.661 57.541C157.853 57.573 158.013 57.637 158.141 57.733C158.269 57.829 158.365 57.9623 158.429 58.133C158.504 58.293 158.541 58.5063 158.541 58.773V65.285ZM163.385 65.557C162.755 65.557 162.169 65.4717 161.625 65.301C161.091 65.1197 160.622 64.853 160.217 64.501C159.822 64.149 159.507 63.7063 159.273 63.173C159.049 62.6397 158.937 62.0157 158.937 61.301C158.937 60.597 159.049 59.9943 159.273 59.493C159.507 58.981 159.811 58.565 160.185 58.245C160.558 57.9143 160.985 57.6743 161.465 57.525C161.945 57.365 162.435 57.285 162.937 57.285C163.502 57.285 164.014 57.3703 164.473 57.541C164.942 57.7117 165.342 57.9463 165.673 58.245C166.014 58.5437 166.275 58.901 166.457 59.317C166.649 59.733 166.745 60.1863 166.745 60.677C166.745 61.0397 166.643 61.317 166.441 61.509C166.238 61.701 165.955 61.8237 165.593 61.877L161.641 62.469C161.758 62.821 161.998 63.0877 162.361 63.269C162.723 63.4397 163.139 63.525 163.609 63.525C164.046 63.525 164.457 63.4717 164.841 63.365C165.235 63.2477 165.555 63.1143 165.801 62.965C165.971 63.0717 166.115 63.221 166.233 63.413C166.35 63.605 166.409 63.8077 166.409 64.021C166.409 64.501 166.185 64.8583 165.737 65.093C165.395 65.2743 165.011 65.397 164.585 65.461C164.158 65.525 163.758 65.557 163.385 65.557ZM162.937 59.269C162.681 59.269 162.457 59.3117 162.265 59.397C162.083 59.4823 161.934 59.5943 161.817 59.733C161.699 59.861 161.609 60.0103 161.545 60.181C161.491 60.341 161.459 60.5063 161.449 60.677L164.185 60.229C164.153 60.0157 164.035 59.8023 163.833 59.589C163.63 59.3757 163.331 59.269 162.937 59.269ZM171.982 60.373C171.982 60.0423 171.886 59.8023 171.694 59.653C171.513 59.493 171.262 59.413 170.942 59.413C170.729 59.413 170.515 59.4397 170.302 59.493C170.099 59.5463 169.923 59.6263 169.774 59.733V65.285C169.667 65.317 169.497 65.349 169.262 65.381C169.038 65.413 168.803 65.429 168.558 65.429C168.323 65.429 168.11 65.413 167.918 65.381C167.737 65.349 167.582 65.285 167.454 65.189C167.326 65.093 167.225 64.965 167.15 64.805C167.086 64.6343 167.054 64.4157 167.054 64.149V59.349C167.054 59.061 167.113 58.8263 167.23 58.645C167.358 58.4637 167.529 58.2983 167.742 58.149C168.105 57.893 168.558 57.685 169.102 57.525C169.657 57.365 170.27 57.285 170.942 57.285C172.147 57.285 173.075 57.5517 173.726 58.085C174.377 58.6077 174.702 59.3383 174.702 60.277V65.285C174.595 65.317 174.425 65.349 174.19 65.381C173.966 65.413 173.731 65.429 173.486 65.429C173.251 65.429 173.038 65.413 172.846 65.381C172.665 65.349 172.51 65.285 172.382 65.189C172.254 65.093 172.153 64.965 172.078 64.805C172.014 64.6343 171.982 64.4157 171.982 64.149V60.373ZM179.766 59.429C179.499 59.429 179.243 59.4717 178.998 59.557C178.763 59.6423 178.555 59.7703 178.374 59.941C178.203 60.101 178.065 60.3037 177.958 60.549C177.851 60.7943 177.798 61.0823 177.798 61.413C177.798 62.0743 177.985 62.5703 178.358 62.901C178.742 63.2317 179.206 63.397 179.75 63.397C180.07 63.397 180.347 63.3597 180.582 63.285C180.817 63.2103 181.025 63.1303 181.206 63.045C181.419 63.1943 181.579 63.3597 181.686 63.541C181.793 63.7117 181.846 63.9197 181.846 64.165C181.846 64.6023 181.638 64.9437 181.222 65.189C180.806 65.4237 180.23 65.541 179.494 65.541C178.822 65.541 178.214 65.445 177.67 65.253C177.126 65.0503 176.657 64.773 176.262 64.421C175.878 64.0583 175.579 63.6263 175.366 63.125C175.153 62.6237 175.046 62.069 175.046 61.461C175.046 60.757 175.158 60.1437 175.382 59.621C175.617 59.0877 175.931 58.6503 176.326 58.309C176.721 57.9677 177.174 57.7117 177.686 57.541C178.209 57.3703 178.758 57.285 179.334 57.285C180.102 57.285 180.694 57.4237 181.11 57.701C181.526 57.9783 181.734 58.3357 181.734 58.773C181.734 58.9757 181.686 59.1677 181.59 59.349C181.494 59.5197 181.382 59.669 181.254 59.797C181.073 59.7117 180.854 59.6317 180.598 59.557C180.342 59.4717 180.065 59.429 179.766 59.429ZM186.088 65.557C185.458 65.557 184.872 65.4717 184.328 65.301C183.794 65.1197 183.325 64.853 182.92 64.501C182.525 64.149 182.21 63.7063 181.976 63.173C181.752 62.6397 181.64 62.0157 181.64 61.301C181.64 60.597 181.752 59.9943 181.976 59.493C182.21 58.981 182.514 58.565 182.888 58.245C183.261 57.9143 183.688 57.6743 184.168 57.525C184.648 57.365 185.138 57.285 185.64 57.285C186.205 57.285 186.717 57.3703 187.176 57.541C187.645 57.7117 188.045 57.9463 188.376 58.245C188.717 58.5437 188.978 58.901 189.16 59.317C189.352 59.733 189.448 60.1863 189.448 60.677C189.448 61.0397 189.346 61.317 189.144 61.509C188.941 61.701 188.658 61.8237 188.296 61.877L184.344 62.469C184.461 62.821 184.701 63.0877 185.064 63.269C185.426 63.4397 185.842 63.525 186.312 63.525C186.749 63.525 187.16 63.4717 187.544 63.365C187.938 63.2477 188.258 63.1143 188.504 62.965C188.674 63.0717 188.818 63.221 188.936 63.413C189.053 63.605 189.112 63.8077 189.112 64.021C189.112 64.501 188.888 64.8583 188.44 65.093C188.098 65.2743 187.714 65.397 187.288 65.461C186.861 65.525 186.461 65.557 186.088 65.557ZM185.64 59.269C185.384 59.269 185.16 59.3117 184.968 59.397C184.786 59.4823 184.637 59.5943 184.52 59.733C184.402 59.861 184.312 60.0103 184.248 60.181C184.194 60.341 184.162 60.5063 184.152 60.677L186.888 60.229C186.856 60.0157 186.738 59.8023 186.536 59.589C186.333 59.3757 186.034 59.269 185.64 59.269Z"
        fill="#3AAFA9" />
</svg>