<svg xmlns="http://www.w3.org/2000/svg" width="200" height="59" viewBox="0 0 200 59" fill="none">
    <path
        d="M34.4944 32.1207C33.6933 30.6695 32.4928 29.4785 31.0352 28.6891C30.9897 28.6639 30.9514 28.6276 30.9237 28.5836C30.896 28.5396 30.8798 28.4894 30.8767 28.4375C30.8716 28.3958 30.8789 28.3535 30.8977 28.316C30.9164 28.2784 30.9459 28.2472 30.9823 28.2262C33.1275 26.5373 34.2009 24.1967 34.2026 21.2046C34.2026 19.1919 33.7891 17.5147 32.9623 16.1729C32.1597 14.8424 31.0449 13.7276 29.7144 12.925C28.3169 12.0925 26.7842 11.5117 25.1859 11.2092C23.5174 10.8762 21.8204 10.7077 20.119 10.7061C15.4027 10.7061 11.847 11.6738 9.45195 13.6093C7.06024 15.622 5.86356 18.1738 5.86188 21.2649C5.86188 24.3275 6.98812 26.6505 9.24062 28.2338C9.45195 28.4015 9.43434 28.56 9.18779 28.7092C7.77825 29.5578 6.61384 30.7587 5.80905 32.1937C4.98157 33.6214 4.54752 35.243 4.55114 36.8932C4.55114 39.0065 5.00902 40.8019 5.92477 42.2796C6.82785 43.7444 8.05632 44.9815 9.51484 45.8948C11.0558 46.8553 12.7539 47.5366 14.5314 47.9075C16.3702 48.3093 18.2469 48.5126 20.1291 48.5138C21.9753 48.5084 23.8157 48.3051 25.6186 47.9075C27.3959 47.5371 29.1001 46.8767 30.6628 45.9527C32.14 45.0582 33.3882 43.8315 34.3082 42.3701C35.2592 40.8908 35.7347 39.0778 35.7347 36.9309C35.7455 35.2471 35.3181 33.5894 34.4944 32.1207ZM15.4924 19.8988C15.7848 19.4007 16.1812 18.9717 16.6547 18.6409C17.143 18.3002 17.6883 18.0497 18.2649 17.9013C19.4766 17.586 20.7489 17.586 21.9606 17.9013C22.5372 18.0497 23.0825 18.3002 23.5707 18.6409C24.0442 18.9717 24.4407 19.4007 24.733 19.8988C25.0435 20.4546 25.1982 21.0839 25.1808 21.7203C25.1971 22.3311 25.042 22.9342 24.733 23.4613C24.4313 23.9562 24.0263 24.3801 23.5456 24.7041C23.0422 25.0393 22.4896 25.2939 21.9078 25.4588C21.325 25.6282 20.7209 25.7129 20.114 25.7104C19.4978 25.7037 18.885 25.6192 18.29 25.4588C17.7047 25.3143 17.1506 25.0645 16.6547 24.7217C16.1812 24.391 15.7848 23.9619 15.4924 23.4638C15.1875 22.9277 15.0328 22.3193 15.0446 21.7027C15.0304 21.0722 15.185 20.4495 15.4924 19.8988ZM25.3041 38.9587C24.98 39.5282 24.5394 40.0228 24.011 40.4103C23.4615 40.8084 22.8444 41.1033 22.1895 41.2808C20.8264 41.6699 19.3815 41.6699 18.0183 41.2808C17.356 41.1003 16.7303 40.8058 16.1692 40.4103C15.6281 40.0288 15.1772 39.5333 14.8484 38.9587C14.5194 38.3271 14.3477 37.6255 14.3477 36.9133C14.3477 36.2012 14.5194 35.4996 14.8484 34.868C15.1829 34.3045 15.6331 33.8183 16.1692 33.4415C16.7281 33.048 17.355 32.7614 18.0183 32.5962C18.7001 32.4248 19.4009 32.3403 20.1039 32.3446C20.7979 32.3394 21.4896 32.424 22.1619 32.5962C22.8153 32.7651 23.4325 33.0516 23.9833 33.4415C24.5244 33.823 24.9753 34.3185 25.3041 34.8931C25.6329 35.5203 25.8047 36.2178 25.8047 36.9259C25.8047 37.634 25.6329 38.3316 25.3041 38.9587Z"
        fill="#3AAFA9" />
    <path
        d="M121.924 46.667V15.7778C121.905 15.1616 122.018 14.5486 122.255 13.9794C122.492 13.4103 122.847 12.8981 123.298 12.4771C124.158 11.6372 125.316 11.1722 126.518 11.1839H130.742C130.918 11.1708 131.095 11.1973 131.259 11.2612C131.424 11.3252 131.572 11.4252 131.693 11.5538C131.816 11.6791 131.912 11.8279 131.975 11.9914C132.039 12.1548 132.069 12.3295 132.063 12.5047V46.667C132.069 46.842 132.039 47.0163 131.976 47.1794C131.912 47.3424 131.816 47.4908 131.693 47.6155C131.572 47.7441 131.424 47.844 131.259 47.908C131.095 47.972 130.918 47.9984 130.742 47.9853H123.245C123.069 47.9943 122.894 47.9664 122.73 47.9034C122.565 47.8404 122.416 47.7436 122.292 47.6194C122.167 47.4952 122.07 47.3462 122.007 47.1822C121.944 47.0182 121.915 46.8427 121.924 46.667Z"
        fill="#3AAFA9" />
    <path
        d="M162.555 11.0254C163.47 11.0254 163.928 11.4833 163.928 12.399V18.2609C163.941 18.4365 163.914 18.6127 163.85 18.7767C163.786 18.9407 163.686 19.0885 163.558 19.2094C163.425 19.3362 163.266 19.4344 163.093 19.4979C162.92 19.5615 162.736 19.5892 162.552 19.5792H150.358C151.129 19.5776 151.869 19.8816 152.416 20.4245C152.692 20.6598 152.915 20.951 153.069 21.2789C153.224 21.6068 153.308 21.9639 153.314 22.3265V46.5085C153.326 46.6882 153.299 46.8683 153.235 47.0367C153.171 47.2051 153.072 47.3579 152.944 47.4846C152.666 47.7252 152.305 47.848 151.938 47.8268H144.642C144.291 47.8268 143.952 47.6948 143.693 47.457C143.556 47.3411 143.446 47.1955 143.373 47.0313C143.3 46.867 143.265 46.6883 143.271 46.5085V21.217C143.28 20.9942 143.239 20.7721 143.152 20.5668C143.065 20.3615 142.934 20.178 142.768 20.0295C142.477 19.7476 142.09 19.5866 141.686 19.5792H134.043C133.859 19.5892 133.675 19.5615 133.502 19.4979C133.328 19.4344 133.17 19.3362 133.036 19.2094C132.908 19.0888 132.808 18.9411 132.744 18.777C132.68 18.6129 132.654 18.4365 132.667 18.2609V15.5665C132.642 14.9446 132.758 14.3253 133.005 13.754C133.252 13.1828 133.624 12.6742 134.093 12.2657C134.958 11.4737 136.086 11.0316 137.258 11.0254H162.555Z"
        fill="#3AAFA9" />
    <path
        d="M195.474 36.7925C195.474 38.941 194.981 40.7624 193.995 42.2568C193.028 43.7357 191.725 44.9657 190.193 45.8469C188.583 46.7685 186.836 47.4283 185.018 47.8017C183.2 48.196 181.345 48.3992 179.483 48.408C178.195 48.4051 176.908 48.3261 175.629 48.1715C174.308 48.0164 173.007 47.7239 171.747 47.2985C170.506 46.8845 169.316 46.3282 168.203 45.6406C167.1 44.9605 166.141 44.0728 165.377 43.0266C164.111 41.4081 163.46 39.6664 163.425 37.8013C163.421 37.6546 163.447 37.5085 163.501 37.3722C163.556 37.2359 163.638 37.1122 163.742 37.0088C163.98 36.8128 164.277 36.7013 164.585 36.6918H171.556C171.928 36.6744 172.3 36.7469 172.638 36.9032C172.957 37.0929 173.235 37.3444 173.456 37.6428C174.003 38.6931 174.913 39.5091 176.017 39.9397C177.123 40.3502 178.296 40.5556 179.476 40.5461C180.076 40.5413 180.675 40.4976 181.27 40.4152C181.92 40.3319 182.559 40.1723 183.172 39.9397C183.746 39.7268 184.267 39.393 184.701 38.9611C184.917 38.7381 185.085 38.4733 185.194 38.1829C185.303 37.8925 185.351 37.5828 185.335 37.273C185.357 36.8648 185.266 36.4585 185.07 36.0996C184.875 35.7406 184.583 35.443 184.228 35.2402C183.528 34.8184 182.784 34.4735 182.009 34.2112C181.446 34.0435 180.751 33.8498 179.924 33.6301C179.097 33.4104 178.138 33.1814 177.046 32.9433C175.457 32.6339 173.888 32.2281 172.349 31.7281C170.906 31.2694 169.543 30.5905 168.308 29.7155C167.132 28.8756 166.159 27.7841 165.458 26.5204C164.737 25.2356 164.376 23.6423 164.376 21.7403C164.376 19.7277 164.825 18.011 165.722 16.5904C166.6 15.1855 167.781 13.9949 169.179 13.106C170.632 12.1903 172.23 11.53 173.906 11.1537C175.61 10.7526 177.355 10.5483 179.106 10.5449C180.336 10.5478 181.563 10.6538 182.774 10.8619C184.012 11.0706 185.224 11.4079 186.392 11.8682C187.54 12.3186 188.63 12.9039 189.64 13.6117C190.648 14.321 191.547 15.1746 192.307 16.1451C193.503 17.7301 194.136 19.2966 194.206 20.8447C194.2 21.232 194.09 21.6107 193.889 21.9416C193.786 22.0458 193.662 22.1276 193.526 22.1822C193.389 22.2367 193.243 22.2627 193.097 22.2586H185.758C184.983 22.2586 184.387 21.69 183.964 21.056C183.835 20.583 183.579 20.1541 183.225 19.8157C182.865 19.4759 182.444 19.207 181.984 19.0232C181.516 18.8317 181.028 18.69 180.53 18.6006C180.06 18.5142 179.584 18.4696 179.106 18.4672C178.568 18.4692 178.03 18.5045 177.496 18.5729C176.98 18.6357 176.48 18.7881 176.017 19.0232C175.579 19.2504 175.199 19.5759 174.907 19.9742C174.593 20.4308 174.435 20.9775 174.459 21.5315C174.459 22.5529 174.988 23.3622 176.044 23.9593C177.098 24.5228 179.051 25.104 181.904 25.7027C183.585 25.9829 185.25 26.3524 186.893 26.8097C188.431 27.2242 189.9 27.8652 191.25 28.7117C192.502 29.5057 193.55 30.5818 194.312 31.8539C195.087 33.142 195.474 34.7882 195.474 36.7925Z"
        fill="#3AAFA9" />
    <path
        d="M62.9282 32.1207C62.1271 30.6695 60.9265 29.4785 59.4689 28.6891C59.4235 28.6639 59.3852 28.6276 59.3575 28.5836C59.3298 28.5396 59.3136 28.4894 59.3104 28.4375C59.3053 28.3958 59.3126 28.3535 59.3314 28.316C59.3502 28.2784 59.3797 28.2472 59.4161 28.2262C61.5646 26.5373 62.638 24.1967 62.6363 21.2046C62.6363 19.1919 62.2229 17.5147 61.396 16.1729C60.5941 14.8427 59.4802 13.7279 58.1506 12.925C56.753 12.0928 55.2203 11.5121 53.6222 11.2092C51.9529 10.8762 50.255 10.7077 48.5528 10.7061C43.8365 10.7061 40.2816 11.6738 37.8882 13.6093C35.4932 15.622 34.2956 18.1738 34.2956 21.2649C34.2956 24.3275 35.4227 26.6505 37.6769 28.2338C37.8882 28.4099 37.8681 28.5684 37.6241 28.7092C36.2132 29.557 35.0478 30.758 34.2428 32.1937C33.4163 33.6218 32.9824 35.2432 32.9849 36.8932C32.9849 39.0065 33.4419 40.8019 34.356 42.2796C35.2591 43.7444 36.4876 44.9815 37.9461 45.8948C39.4872 46.8548 41.1853 47.5361 42.9626 47.9075C44.8015 48.3092 46.6781 48.5124 48.5603 48.5138C50.4074 48.5084 52.2486 48.3051 54.0524 47.9075C55.8252 47.5356 57.5251 46.8752 59.084 45.9527C60.5666 45.0608 61.8194 43.8338 62.742 42.3701C63.693 40.8908 64.1685 39.0778 64.1685 36.9309C64.1793 35.2471 63.7519 33.5894 62.9282 32.1207ZM43.9212 19.8988C44.2118 19.4003 44.6076 18.971 45.0809 18.6409C45.5692 18.3002 46.1145 18.0497 46.6911 17.9013C47.9028 17.586 49.1751 17.586 50.3868 17.9013C50.9642 18.0497 51.5103 18.3002 51.9995 18.6409C52.4717 18.9723 52.8673 19.4013 53.1592 19.8988C53.4706 20.4544 53.6262 21.0837 53.6096 21.7203C53.6251 22.3313 53.4691 22.9344 53.1592 23.4613C52.8583 23.9568 52.4531 24.3809 51.9718 24.7041C51.4684 25.0393 50.9158 25.2939 50.334 25.4588C49.7512 25.6283 49.1471 25.7131 48.5402 25.7104C47.9249 25.7039 47.3128 25.6194 46.7188 25.4588C46.1325 25.3148 45.5775 25.065 45.0809 24.7217C44.6076 24.3916 44.2118 23.9623 43.9212 23.4638C43.6143 22.9284 43.4587 22.3197 43.4708 21.7027C43.4567 21.0719 43.6122 20.4489 43.9212 19.8988ZM53.7329 38.9587C53.4087 39.5282 52.9681 40.0228 52.4397 40.4103C51.8905 40.8088 51.2733 41.1038 50.6183 41.2808C49.2551 41.6699 47.8102 41.6699 46.447 41.2808C45.7847 41.1003 45.159 40.8058 44.5979 40.4103C44.057 40.0293 43.6069 39.5337 43.2796 38.9587C42.9344 38.3378 42.7607 37.6362 42.7765 36.9259C42.7542 36.207 42.9281 35.4955 43.2796 34.868C43.6125 34.304 44.0619 33.8177 44.5979 33.4415C45.1568 33.048 45.7838 32.7614 46.447 32.5962C47.1289 32.425 47.8296 32.3404 48.5327 32.3446C49.2266 32.3394 49.9183 32.424 50.5906 32.5962C51.244 32.7651 51.8612 33.0516 52.412 33.4415C52.9531 33.823 53.404 34.3185 53.7329 34.8931C54.0633 35.5197 54.2361 36.2175 54.2361 36.9259C54.2361 37.6343 54.0633 38.3321 53.7329 38.9587Z"
        fill="#3AAFA9" />
    <path
        d="M120.276 31.8566C119.443 30.3806 118.13 29.2344 116.555 28.6087C117.844 27.9156 118.927 26.8962 119.698 25.6526C120.455 24.4135 120.848 22.9863 120.832 21.5342C120.832 19.5215 120.48 17.8443 119.776 16.5025C119.114 15.198 118.133 14.0817 116.925 13.2571C115.66 12.4194 114.243 11.8366 112.754 11.5413C111.662 11.3139 110.554 11.1651 109.441 11.096V6.56757C109.439 6.08891 109.249 5.63021 108.91 5.29174C108.572 4.95327 108.113 4.76254 107.634 4.76122H107.476C106.997 4.76254 106.538 4.95319 106.199 5.29159C105.86 5.62999 105.669 6.08867 105.667 6.56757V11.0331H103.083V6.56002C103.082 6.08092 102.891 5.62186 102.552 5.28331C102.213 4.94477 101.753 4.75433 101.274 4.75366H101.118C100.639 4.75499 100.18 4.94565 99.8416 5.28405C99.5027 5.62245 99.3114 6.08112 99.3094 6.56002V11.0256H94.6954C94.1815 11.0344 93.6722 11.1235 93.1859 11.2898C92.6318 11.4691 92.1188 11.7564 91.6764 12.1351C91.2095 12.5327 90.8242 13.0172 90.5418 13.5615C90.2249 14.2001 90.0703 14.9069 90.0915 15.6195V46.5087C90.1004 46.8559 90.2425 47.1865 90.4883 47.4319C90.7342 47.6772 91.065 47.8187 91.4123 47.827H99.2993V51.7391C99.3007 52.2184 99.4917 52.6777 99.8306 53.0167C100.17 53.3556 100.629 53.5466 101.108 53.548H101.282C101.761 53.5473 102.221 53.3565 102.56 53.0174C102.899 52.6783 103.09 52.2186 103.091 51.7391V47.827H105.674V51.7391C105.676 52.2184 105.867 52.6777 106.206 53.0167C106.545 53.3556 107.004 53.5466 107.483 53.548H107.642C108.121 53.5466 108.58 53.3555 108.919 53.0165C109.257 52.6775 109.447 52.2182 109.448 51.7391V47.7918C110.752 47.7219 112.047 47.5307 113.315 47.2207C114.864 46.8561 116.326 46.1921 117.62 45.2659C118.856 44.3625 119.86 43.1776 120.548 41.8092C121.271 40.4003 121.632 38.6753 121.632 36.6341C121.621 34.9482 121.153 33.2969 120.276 31.8566ZM106.565 18.1026C107.603 18.0615 108.623 18.3885 109.443 19.0259C110.2 19.6414 110.578 20.5639 110.578 21.7933C110.578 23.0227 110.209 23.9645 109.471 24.6186C108.731 25.2676 107.763 25.593 106.565 25.5947H101.561C101.339 25.6048 101.118 25.5622 100.916 25.4703C100.714 25.3785 100.537 25.24 100.399 25.0664C100.147 24.7891 99.9978 24.434 99.9761 24.06V20.9002C99.9707 20.5388 99.8931 20.1822 99.748 19.8513C99.6028 19.5204 99.393 19.2218 99.1308 18.9731C98.8671 18.6929 98.5479 18.4708 98.1936 18.3209C97.8392 18.171 97.4575 18.0967 97.0729 18.1026H106.565ZM110.13 39.643C109.337 40.3475 108.307 40.6997 107.041 40.6997H101.561C101.335 40.7151 101.108 40.6751 100.901 40.583C100.693 40.4909 100.511 40.3496 100.371 40.1714C100.127 39.872 99.9883 39.5007 99.9761 39.1147V35.2605C99.9704 34.8992 99.8927 34.5427 99.7476 34.2118C99.6024 33.8809 99.3928 33.5822 99.1308 33.3334C98.8671 33.0532 98.5479 32.8311 98.1936 32.6812C97.8392 32.5313 97.4575 32.457 97.0729 32.4629H107.051C108.18 32.4254 109.28 32.8328 110.112 33.5975C110.922 34.3539 111.327 35.3661 111.327 36.6341C111.327 37.9423 110.932 38.9453 110.14 39.643H110.13Z"
        fill="#3AAFA9" />
    <path
        d="M91.3393 32.1207C90.5384 30.6702 89.3389 29.4794 87.8826 28.6891C87.8372 28.6639 87.7988 28.6276 87.7711 28.5836C87.7434 28.5396 87.7272 28.4894 87.7241 28.4375C87.719 28.3958 87.7263 28.3535 87.7451 28.316C87.7639 28.2784 87.7933 28.2472 87.8298 28.2262C89.9749 26.5373 91.0483 24.1967 91.05 21.2046C91.05 19.1919 90.6366 17.5147 89.8097 16.1729C89.0071 14.8424 87.8923 13.7276 86.5618 12.925C85.1643 12.0925 83.6316 11.5117 82.0333 11.2092C80.364 10.8761 78.6661 10.7075 76.9639 10.7061C72.2476 10.7061 68.6928 11.6738 66.2994 13.6093C63.9043 15.622 62.7076 18.1738 62.7093 21.2649C62.7093 24.3275 63.8355 26.6505 66.088 28.2338C66.2994 28.4015 66.2818 28.56 66.0352 28.7092C64.6251 29.5571 63.4605 30.7581 62.6565 32.1937C61.829 33.6214 61.3949 35.243 61.3986 36.8932C61.3986 39.0065 61.8564 40.8019 62.7722 42.2796C63.6738 43.7456 64.9026 44.9829 66.3623 45.8948C67.9032 46.8553 69.6014 47.5366 71.3788 47.9075C73.2168 48.3092 75.0926 48.5124 76.974 48.5138C78.8211 48.5085 80.6623 48.3053 82.466 47.9075C84.2389 47.5356 85.9387 46.8752 87.4977 45.9527C88.9798 45.0602 90.2325 43.8333 91.1557 42.3701C92.1066 40.8908 92.5813 39.0778 92.5796 36.9309C92.5916 35.2469 92.1641 33.5889 91.3393 32.1207ZM72.3323 19.8988C72.6246 19.4007 73.0211 18.9717 73.4946 18.6409C73.9829 18.3002 74.5282 18.0497 75.1047 17.9013C76.3165 17.586 77.5887 17.586 78.8005 17.9013C79.377 18.0497 79.9223 18.3002 80.4106 18.6409C80.8841 18.9717 81.2806 19.4007 81.5729 19.8988C81.8823 20.455 82.037 21.084 82.0207 21.7203C82.0354 22.3309 81.8804 22.9335 81.5729 23.4613C81.2711 23.9569 80.865 24.381 80.3829 24.7041C79.8804 25.0392 79.3287 25.2939 78.7476 25.4588C78.164 25.6284 77.5591 25.7131 76.9513 25.7104C76.336 25.7037 75.724 25.6192 75.1299 25.4588C74.5444 25.3148 73.9902 25.0649 73.4946 24.7217C73.0211 24.391 72.6246 23.9619 72.3323 23.4638C72.0274 22.9277 71.8727 22.3193 71.8845 21.7027C71.8703 21.0722 72.0249 20.4495 72.3323 19.8988ZM82.144 38.9587C81.8182 39.5277 81.3768 40.0222 80.8484 40.4103C80.2995 40.8093 79.6821 41.1043 79.0269 41.2808C77.6637 41.6699 76.2189 41.6699 74.8557 41.2808C74.1944 41.0998 73.5695 40.8053 73.0091 40.4103C72.468 40.0288 72.0171 39.5333 71.6883 38.9587C71.3593 38.3271 71.1875 37.6255 71.1875 36.9133C71.1875 36.2012 71.3593 35.4996 71.6883 34.868C72.0228 34.3045 72.4729 33.8183 73.0091 33.4415C73.5674 33.0485 74.1934 32.762 74.8557 32.5962C75.5375 32.425 76.2383 32.3404 76.9413 32.3446C77.6361 32.3392 78.3287 32.4238 79.0017 32.5962C79.655 32.7657 80.2721 33.0521 80.8232 33.4415C81.3636 33.8238 81.8143 34.3191 82.144 34.8931C82.4728 35.5203 82.6446 36.2178 82.6446 36.9259C82.6446 37.634 82.4728 38.3316 82.144 38.9587Z"
        fill="#3AAFA9" />
</svg>