<svg width="26" height="26" viewBox="0 0 26 26" fill="none" xmlns="http://www.w3.org/2000/svg">
    <g clip-path="url(#clip0_3963_2364)">
        <path fill-rule="evenodd" clip-rule="evenodd"
            d="M16.7203 3.07899L12.8226 0.914795L8.92491 3.07899L4.6385 4.30476L3.41273 8.59117L1.24854 12.4889L3.41273 16.3865L4.6385 20.6729L8.92491 21.8988L12.8226 24.0629L16.7203 21.8988L21.0068 20.6729L22.2325 16.3865L24.3966 12.4889L22.2325 8.59117L21.0068 4.30476L16.7203 3.07899ZM18.5018 9.92627C19.0041 9.34662 18.9415 8.46945 18.3619 7.96708C17.7822 7.4647 16.905 7.52737 16.4026 8.10702L11.4337 13.8404L9.24255 11.3121C8.74017 10.7325 7.86302 10.6698 7.28335 11.1722C6.7037 11.6746 6.64103 12.5517 7.14341 13.1314L10.3842 16.8707C10.648 17.1751 11.0309 17.35 11.4337 17.35C11.8365 17.35 12.2195 17.1751 12.4833 16.8707L18.5018 9.92627Z"
            fill="#0CAF60" />
    </g>
    <defs>
        <clipPath id="clip0_3963_2364">
            <rect width="25" height="25" fill="white" transform="translate(0.499756 0.683197)" />
        </clipPath>
    </defs>
</svg>