<svg width="50" height="49" viewBox="0 0 50 49" fill="none" xmlns="http://www.w3.org/2000/svg">
<path fill-rule="evenodd" clip-rule="evenodd" d="M14.6651 10.4427C17.8063 7.44888 22.8507 7.34905 26.1199 10.1445L26.4516 10.444L30.8311 14.6511C31.8422 15.6148 32.5806 16.8217 32.9643 18.1382C33.2337 19.0628 32.6658 20.0205 31.6956 20.2773C30.8002 20.5142 29.8752 20.0713 29.5263 19.2746L29.4514 19.0682C29.2715 18.4511 28.9528 17.8765 28.5207 17.3867L28.2481 17.1034L23.8686 12.8965C22.1312 11.2406 19.3506 11.1626 17.5116 12.663L17.243 12.8999L12.8313 17.1049C12.0437 17.8556 11.5715 18.8242 11.4762 19.869L11.4583 20.2641V32.9374C11.4583 35.2979 13.39 37.2373 15.8254 37.3949L16.1458 37.4052H24.9349C25.9417 37.4052 26.7578 38.1831 26.7578 39.1426C26.7578 40.0284 26.0624 40.7593 25.1636 40.8665L24.9349 40.8801H16.1458C11.6896 40.8801 8.03983 37.53 7.82272 33.3332L7.8125 32.9373V20.2641C7.8125 18.295 8.56048 16.4332 9.92698 14.9765L10.2532 14.6477L14.6651 10.4427ZM35.1562 21.2716C39.0631 21.2716 42.1875 23.3561 42.1875 26.1116C42.1875 28.8671 39.0631 30.9517 35.1562 30.9517C31.2494 30.9517 28.125 28.8671 28.125 26.1116C28.125 23.3561 31.2494 21.2716 35.1562 21.2716ZM32.4395 25.3911C33.1195 24.986 34.115 24.7465 35.1562 24.7465C36.1975 24.7465 37.193 24.986 37.873 25.3911C38.3169 25.6555 38.5417 25.9365 38.5417 26.1116C38.5417 26.2868 38.3168 26.5678 37.873 26.8322C37.193 27.2373 36.1975 27.4768 35.1562 27.4768C34.115 27.4768 33.1195 27.2373 32.4395 26.8322C31.9956 26.5677 31.7708 26.2868 31.7708 26.1116C31.7708 25.9364 31.9957 25.6555 32.4395 25.3911ZM20.5729 16.5556C21.7595 16.5556 22.7214 17.4724 22.7214 18.6033C22.7214 19.7342 21.7595 20.651 20.5729 20.651C19.3864 20.651 18.4245 19.7342 18.4245 18.6033C18.4245 17.4724 19.3864 16.5556 20.5729 16.5556ZM39.2302 31.2819C40.0457 30.7191 41.1853 30.8928 41.7759 31.67C42.3663 32.4472 42.1841 33.5335 41.3687 34.0964C39.6653 35.2722 37.4371 35.9159 35.0911 35.9159C32.7451 35.9159 30.517 35.2723 28.8135 34.0963C27.9981 33.5334 27.8158 32.4471 28.4064 31.67C28.9971 30.8928 30.1368 30.7191 30.9521 31.282C33.0618 32.7384 36.6051 32.8151 38.8657 31.5119L39.2302 31.2819ZM39.2302 36.2462C40.0457 35.6833 41.1854 35.857 41.7759 36.6342C42.3665 37.4113 42.1842 38.4976 41.3688 39.0606C39.6653 40.2365 37.4372 40.8801 35.0911 40.8801C32.7451 40.8801 30.5169 40.2365 28.8136 39.0606C27.9982 38.4977 27.816 37.4114 28.4064 36.6342C28.997 35.8571 30.1368 35.6834 30.9521 36.2462C33.1791 37.7835 37.0033 37.7835 39.2302 36.2462Z" fill="#FF0066"/>
</svg>
