<svg width="49" height="47" viewBox="0 0 49 47" fill="none" xmlns="http://www.w3.org/2000/svg">
<path d="M20.1641 33.0776C19.5887 33.0776 19.1204 32.6155 19.1204 32.0477C19.1204 31.4788 18.6531 31.0177 18.0767 31.0177C17.5002 31.0177 17.033 31.4788 17.033 32.0477C17.033 33.3944 17.9109 34.5418 19.1315 34.964V35.8658C19.1315 36.4347 19.5987 36.8958 20.1752 36.8958C20.7517 36.8958 21.2189 36.4347 21.2189 35.8658V34.9565C22.4279 34.5284 23.2952 33.3863 23.2952 32.0477C23.2952 30.3439 21.8905 28.9578 20.1641 28.9578C19.5887 28.9578 19.1204 28.4956 19.1204 27.9278C19.1204 27.3597 19.5887 26.8978 20.1641 26.8978C20.7395 26.8978 21.2078 27.3597 21.2078 27.9278C21.2078 28.4967 21.675 28.9578 22.2515 28.9578C22.8279 28.9578 23.2952 28.4967 23.2952 27.9278C23.2952 26.5891 22.4279 25.447 21.2189 25.0187V23.5062C21.2189 22.9373 20.7517 22.4762 20.1752 22.4762C19.5987 22.4762 19.1315 22.9373 19.1315 23.5062V25.0112C17.9109 25.4333 17.033 26.5808 17.033 27.9278C17.033 29.6315 18.4376 31.0177 20.1641 31.0177C20.7395 31.0177 21.2078 31.4796 21.2078 32.0477C21.2078 32.6155 20.7395 33.0776 20.1641 33.0776Z" fill="#FF0066"/>
<path fill-rule="evenodd" clip-rule="evenodd" d="M20.1753 41.0156C15.9456 41.0156 12.9637 40.4811 10.7918 39.3336C7.96888 37.842 6.5376 35.2894 6.5376 31.7459C6.5376 26.6165 9.48062 21.8794 13.6682 19.3852C13.1719 18.8383 12.8694 18.1165 12.8694 17.3264C12.8694 16.0955 13.6027 15.0307 14.6608 14.5342L12.9208 9.26873C12.8172 8.95491 12.8721 8.61132 13.0683 8.34444C13.2648 8.07729 13.5788 7.91931 13.9131 7.91931H17.223C17.6538 6.72036 18.8144 5.85938 20.1753 5.85938C21.5359 5.85938 22.6959 6.72036 23.127 7.91931H26.4375C26.7718 7.91931 27.0857 8.07729 27.2822 8.34444C27.4785 8.61132 27.5334 8.95491 27.4298 9.26873L25.6898 14.5342C26.7479 15.0307 27.4812 16.0955 27.4812 17.3264C27.4812 18.116 27.179 18.8372 26.6835 19.3839C28.0359 20.1891 29.2634 21.2389 30.3109 22.4909C30.4101 22.4813 30.5107 22.4762 30.6123 22.4762H39.0315C40.7579 22.4762 42.1626 23.8624 42.1626 25.5661C42.1626 26.3568 41.8598 27.0789 41.3627 27.626C41.8595 28.1732 42.1626 28.8953 42.1626 29.686C42.1626 30.4767 41.8598 31.1987 41.3627 31.7459C41.8595 32.2931 42.1626 33.0151 42.1626 33.8058C42.1626 34.5966 41.8598 35.3186 41.3627 35.8658C41.8595 36.413 42.1626 37.135 42.1626 37.9257C42.1626 39.6295 40.7579 41.0156 39.0315 41.0156H30.6123C29.6534 41.0156 28.7943 40.5875 28.2194 39.9154C26.207 40.6637 23.6168 41.0156 20.1753 41.0156ZM39.0315 30.7159C39.6069 30.7159 40.0752 30.2538 40.0752 29.686C40.0752 29.1182 39.6069 28.656 39.0315 28.656H30.6123C30.0369 28.656 29.5686 29.1182 29.5686 29.686C29.5686 30.2538 30.0369 30.7159 30.6123 30.7159H39.0315ZM40.0752 33.8058C40.0752 34.3737 39.6069 34.8358 39.0315 34.8358H30.6123C30.0369 34.8358 29.5686 34.3737 29.5686 33.8058C29.5686 33.238 30.0369 32.7759 30.6123 32.7759H39.0315C39.6069 32.7759 40.0752 33.238 40.0752 33.8058ZM30.6123 38.9557H39.0315C39.6069 38.9557 40.0752 38.4935 40.0752 37.9257C40.0752 37.3579 39.6069 36.8958 39.0315 36.8958H30.6123C30.0369 36.8958 29.5686 37.3579 29.5686 37.9257C29.5686 38.4935 30.0369 38.9557 30.6123 38.9557ZM40.0752 25.5661C40.0752 26.1339 39.6069 26.5961 39.0315 26.5961H30.6123C30.0369 26.5961 29.5686 26.1339 29.5686 25.5661C29.5686 24.9983 30.0369 24.5361 30.6123 24.5361H39.0315C39.6069 24.5361 40.0752 24.9983 40.0752 25.5661ZM16.0307 18.3563H24.3202C24.3292 18.3561 24.3381 18.3563 24.3468 18.3563H24.3501C24.9255 18.3563 25.3938 17.8942 25.3938 17.3264C25.3938 16.7596 24.9274 16.2983 24.3534 16.2967H24.3504L24.3428 16.2964H16.0076L16.0002 16.2967H15.9972C15.4232 16.2983 14.9568 16.7596 14.9568 17.3264C14.9568 17.8942 15.4251 18.3563 16.0005 18.3563H16.0029L16.0122 18.3563C16.0183 18.3562 16.0245 18.3561 16.0307 18.3563ZM18.0879 9.97925C18.6644 9.97925 19.1316 9.51818 19.1316 8.94928C19.1316 8.38146 19.5999 7.91931 20.1753 7.91931C20.7507 7.91931 21.219 8.38146 21.219 8.94928V11.0092C21.219 11.5781 21.6862 12.0392 22.2627 12.0392C22.8392 12.0392 23.3064 11.5781 23.3064 11.0092V9.97925H24.9994L23.5926 14.2365H16.758L15.3512 9.97925H18.0879ZM24.1424 20.4163H16.2041C11.7322 22.2584 8.625 26.8879 8.625 31.7459C8.625 34.5475 9.62657 36.3813 11.777 37.5175C13.634 38.4986 16.3027 38.9557 20.1753 38.9557C23.3656 38.9557 25.7172 38.6467 27.4828 37.9888C27.4827 37.9818 27.4824 37.9749 27.4822 37.9679C27.4817 37.9539 27.4812 37.9399 27.4812 37.9257C27.4812 37.135 27.7843 36.413 28.2811 35.8658C27.7843 35.3186 27.4812 34.5966 27.4812 33.8058C27.4812 33.0151 27.7843 32.2931 28.2811 31.7459C27.7843 31.1987 27.4812 30.4767 27.4812 29.686C27.4812 28.8953 27.7843 28.1732 28.2811 27.626C27.7843 27.0789 27.4812 26.3568 27.4812 25.5661C27.4812 24.7319 27.8185 23.9745 28.3648 23.4179C27.1635 22.0937 25.7229 21.0678 24.1424 20.4163Z" fill="#FF0066"/>
</svg>
